<?xml version="1.0" encoding="utf-8"?>
<!-- Generator: Adobe Illustrator 23.0.3, SVG Export Plug-In . SVG Version: 6.00 Build 0)  -->
<svg version="1.1" id="图层_1" xmlns="http://www.w3.org/2000/svg" xmlns:xlink="http://www.w3.org/1999/xlink" x="0px" y="0px"
	 viewBox="0 0 200 200" style="enable-background:new 0 0 200 200;" xml:space="preserve">
<path d="M24,82.3c-9,0-16.4-7.3-16.4-16.4S15,49.5,24,49.5s16.4,7.3,16.4,16.4S33,82.3,24,82.3z M24,62.1c-2.1,0-3.8,1.7-3.8,3.8
	c0,2.1,1.7,3.8,3.8,3.8s3.8-1.7,3.8-3.8S26.1,62.1,24,62.1z M74.5,72c-13.1,0-23.8-10.7-23.8-23.8s10.7-23.8,23.8-23.8
	s23.8,10.7,23.8,23.8S87.6,72,74.5,72z M74.5,36.9c-6.2,0-11.3,5-11.3,11.3s5,11.3,11.3,11.3s11.3-5,11.3-11.3S80.7,36.9,74.5,36.9z
	 M127.7,76.3c-3.7,0-7.4-1.2-10.4-3.4c-3.9-2.8-6.5-7-7.2-11.7c-0.8-4.7,0.4-9.5,3.1-13.4c5.8-8,17-9.9,25.1-4.1
	c3.9,2.8,6.5,7,7.2,11.7c0.8,4.7-0.4,9.5-3.1,13.4c-2.8,3.9-7,6.5-11.7,7.2C129.7,76.3,128.7,76.3,127.7,76.3z M127.8,53
	c-1.7,0-3.3,0.8-4.4,2.2c-0.8,1.2-1.2,2.6-1,4c0.2,1.4,1,2.7,2.2,3.5s2.6,1.2,4,1c1.4-0.2,2.7-1,3.5-2.2c1.7-2.4,1.2-5.8-1.2-7.6
	C130,53.3,128.9,53,127.8,53z M173.2,96.2c-11.1,0-20.2-9-20.2-20.2s9.1-20.1,20.2-20.1c11.1,0,20.2,9,20.2,20.2
	S184.3,96.2,173.2,96.2z M173.2,68.4c-4.2,0-7.6,3.4-7.6,7.6c0,4.2,3.4,7.6,7.6,7.6c4.2,0,7.6-3.4,7.6-7.6
	C180.8,71.8,177.4,68.4,173.2,68.4z M57,119.4c-11.7,0-21.2-9.5-21.2-21.2S45.3,76.9,57,76.9s21.2,9.5,21.2,21.2
	S68.7,119.4,57,119.4z M57,89.5c-4.8,0-8.7,3.9-8.7,8.7c0,4.8,3.9,8.7,8.7,8.7c4.8,0,8.7-3.9,8.7-8.7C65.7,93.4,61.8,89.5,57,89.5z
	 M110.8,113.2c-3,0-6.1-0.9-8.8-2.8c-3.3-2.3-5.4-5.8-6.1-9.8c-0.6-4,0.3-7.9,2.6-11.2s5.8-5.4,9.8-6.1c4-0.6,7.9,0.3,11.2,2.6
	c6.7,4.8,8.3,14.3,3.4,21C120.1,111,115.5,113.2,110.8,113.2z M118,103.3L118,103.3L118,103.3z M110.9,95.7c-0.2,0-0.3,0-0.4,0
	c-0.4,0.1-1.1,0.3-1.6,1c-0.8,1.1-0.5,2.7,0.6,3.5c1.1,0.8,2.7,0.5,3.5-0.6c0.8-1.1,0.5-2.7-0.6-3.5
	C111.8,95.8,111.2,95.7,110.9,95.7L110.9,95.7z M155.3,141.8c-9.9,0-17.9-8-17.9-18c0-9.9,8-17.9,17.9-17.9s17.9,8,17.9,17.9
	S165.2,141.8,155.3,141.8z M155.3,118.4c-3,0-5.4,2.4-5.4,5.4c0,3,2.4,5.4,5.4,5.4s5.4-2.4,5.4-5.4
	C160.7,120.9,158.3,118.4,155.3,118.4z"/>
<path d="M142.9,166.3c-23.5,0-42.3-11.1-42.6-11.3c-47.9-26.2-77.9,2.8-79.2,4c-2.5,2.4-6.4,2.4-8.9,0s-2.5-6.4,0-8.8
	c0.4-0.4,37.7-37.1,94.4-6.1c1.8,1.1,39.4,23.2,71.1-2.7c2.7-2.2,6.6-1.8,8.8,0.9s1.8,6.6-0.9,8.8
	C171.5,162.6,156.4,166.3,142.9,166.3L142.9,166.3z"/>
</svg>
