<?xml version="1.0" encoding="utf-8"?>
<!-- Generator: Adobe Illustrator 23.0.3, SVG Export Plug-In . SVG Version: 6.00 Build 0)  -->
<svg version="1.1" id="图层_1" xmlns="http://www.w3.org/2000/svg" xmlns:xlink="http://www.w3.org/1999/xlink" x="0px" y="0px"
	 viewBox="0 0 200 200" style="enable-background:new 0 0 200 200;" xml:space="preserve">
<path d="M117.2,137.1H22.1c-4.4,0-7.9-3.8-7.9-8.5c0-4.7,3.5-8.5,7.9-8.5h95.1c4.4,0,7.9,3.8,7.9,8.5
	C125.1,133.2,121.5,137.1,117.2,137.1L117.2,137.1z M159.2,171.2H91c-4.7,0-8.5-3.8-8.5-8.5c0-4.7,3.8-8.5,8.5-8.5h68.3
	c4.7,0,8.5,3.8,8.5,8.5C167.8,167.4,163.9,171.2,159.2,171.2z M56.8,171.2H39.8c-4.7,0-8.5-3.8-8.5-8.5c0-4.7,3.8-8.5,8.5-8.5h17.1
	c4.7,0,8.5,3.8,8.5,8.5C65.4,167.4,61.5,171.2,56.8,171.2z M50.6,79.6V27.2h14.1v76.5H47.2L28.3,50.2v53.6H14.2V27.2H32L50.6,79.6
	L50.6,79.6z M85,27.2v29.3h18V27.2h15.4v76.5H103v-34H85v34H69.6V27.2H85z M141.9,70.7c0.8,1.6,2.5,2.4,4.2,2.2c1,0,1.9-0.2,2.8-0.6
	c0.7-0.4,1.2-0.9,1.6-1.6c0.4-0.8,0.7-1.6,0.7-2.5c0.1-1,0.1-2,0-3c0.1-1,0.1-2,0-3.1c-0.1-0.9-0.4-1.8-0.9-2.5
	c-0.4-0.8-1.1-1.4-1.9-1.8c-1-0.5-2.1-0.7-3.2-0.7h-3.2v-6.3h3.2c0.9,0,1.8-0.2,2.6-0.7c0.7-0.4,1.3-1,1.7-1.7
	c0.4-0.7,0.8-1.5,0.9-2.3c0.1-0.9,0.1-1.9,0-2.8c0.1-1.7-0.3-3.4-1.1-4.8c-0.9-1-2.2-1.5-3.5-1.4c-0.9,0-1.7,0.1-2.5,0.5
	c-0.6,0.4-1.1,0.9-1.5,1.6c-0.4,0.8-0.6,1.6-0.7,2.4c-0.1,1-0.1,2,0,3.1h-8.8c-0.3-3.8,1-7.6,3.5-10.5c2.9-2.5,6.6-3.7,10.4-3.5
	c3.6-0.2,7.2,0.8,10.1,3c2.6,2.4,3.9,5.8,3.6,9.2c0,2.4-0.6,4.7-1.9,6.7c-1.3,1.8-3.2,3-5.3,3.4c2.7,0.2,5.1,1.6,6.7,3.8
	c1.3,2.3,2,4.9,1.9,7.5c0,1.7-0.2,3.3-0.6,4.9c-0.4,1.7-1.2,3.3-2.3,4.6c-1.3,1.5-2.9,2.6-4.8,3.4c-2.6,0.9-5.3,1.4-8,1.3
	c-3.8,0.3-7.6-1.1-10.3-3.8c-2.4-3-3.7-6.8-3.4-10.6h9.2C140.9,66.3,141.2,68.6,141.9,70.7L141.9,70.7z M184.3,54.2h-18.9v-7.9h18.9
	V54.2z M155.3,96.9v6c1.2-2.3,3.1-4.3,5.4-5.6c2.3-1.2,4.9-1.8,7.6-1.7c3.5-0.2,7,1,9.6,3.4c2.5,3.1,3.7,7.1,3.4,11.1v37.9h-13.4
	v-35.2c0.2-2-0.3-3.9-1.3-5.6c-1.1-1.1-2.7-1.7-4.3-1.5c-3.7-0.1-6.8,2.8-6.9,6.5c0,0.7,0.1,1.3,0.2,2v33.9h-13.4V96.9H155.3
	L155.3,96.9z"/>
</svg>
