<?xml version="1.0" encoding="utf-8"?>
<!-- Generator: Adobe Illustrator 23.0.3, SVG Export Plug-In . SVG Version: 6.00 Build 0)  -->
<svg version="1.1" id="图层_1" xmlns="http://www.w3.org/2000/svg" xmlns:xlink="http://www.w3.org/1999/xlink" x="0px" y="0px"
	 viewBox="0 0 198.4 198.4" style="enable-background:new 0 0 198.4 198.4;" xml:space="preserve">
<path d="M163,28.3H35.4c-12,0-21.3,9.2-21.3,21.3v99.2c0,12,9.2,21.3,21.3,21.3H163c12,0,21.3-9.2,21.3-21.3V49.6
	C184.3,37.6,175,28.3,163,28.3z M170.1,148.8c0,4.3-2.8,7.1-7.1,7.1H35.4c-4.3,0-7.1-2.8-7.1-7.1V49.6c0-4.3,2.8-7.1,7.1-7.1H163
	c4.3,0,7.1,2.8,7.1,7.1V148.8z"/>
<path d="M49.6,93.5h49.6c2.8,0,5.7-2.1,5.7-5.7V59.5c0-2.8-2.1-5.7-5.7-5.7H49.6c-2.8,0-5.7,2.1-5.7,5.7v28.3
	C43.9,91.4,46.8,93.5,49.6,93.5z M55.3,65.2h39v17.7h-39V65.2z M148.8,55.3h-21.3c-2.8,0-5.7,2.1-5.7,5.7s2.1,5.7,5.7,5.7h21.3
	c2.8,0,5.7-2.1,5.7-5.7C154.5,57.4,151.7,55.3,148.8,55.3L148.8,55.3z M148.8,83.6h-21.3c-2.8,0-5.7,2.1-5.7,5.7
	c0,3.5,2.1,5.7,5.7,5.7h21.3c2.8,0,5.7-2.1,5.7-5.7C154.5,85.7,151.7,83.6,148.8,83.6L148.8,83.6z M60.2,112
	c-8.5,0-15.6,7.1-15.6,15.6s7.1,15.6,15.6,15.6s15.6-7.1,15.6-15.6S68.7,112,60.2,112L60.2,112z M60.2,133.2c-2.8,0-5.7-2.1-5.7-5.7
	c0-3.5,2.1-5.7,5.7-5.7c3.5,0,5.7,2.1,5.7,5.7C65.9,131.1,63.1,133.2,60.2,133.2L60.2,133.2z M106.3,112c-8.5,0-15.6,7.1-15.6,15.6
	s7.1,15.6,15.6,15.6s15.6-7.1,15.6-15.6S114.8,112,106.3,112L106.3,112z M106.3,133.2c-2.8,0-5.7-2.1-5.7-5.7c0-3.5,2.1-5.7,5.7-5.7
	c3.5,0,5.7,2.1,5.7,5.7C112,131.1,109.1,133.2,106.3,133.2L106.3,133.2z"/>
</svg>
