<?xml version="1.0" standalone="no"?><!DOCTYPE svg PUBLIC "-//W3C//DTD SVG 1.1//EN" "http://www.w3.org/Graphics/SVG/1.1/DTD/svg11.dtd"><svg t="1622087295721" class="icon" viewBox="0 0 1024 1024" version="1.1" xmlns="http://www.w3.org/2000/svg" p-id="20841" xmlns:xlink="http://www.w3.org/1999/xlink" width="200" height="200"><defs><style type="text/css"></style></defs><path d="M793.683628 357.571185a28.415236 28.415236 0 0 0-25.701708-16.250443H579.294513L758.233702 43.078522A28.435715 28.435715 0 0 0 733.842678 0H460.79018a28.456195 28.456195 0 0 0-26.41849 17.888799l-204.794493 511.986233a28.445955 28.445955 0 0 0 26.41849 39.003111h129.614435L229.372403 985.532539a28.445955 28.445955 0 0 0 48.669411 27.995407l511.986233-625.759813a28.435715 28.435715 0 0 0 3.655581-30.196948zM343.186942 844.060503l110.10776-293.634344a28.445955 28.445955 0 0 0-26.623285-38.439926H297.978558L480.051102 56.89191h203.545247L504.65716 355.13413a28.435715 28.435715 0 0 0 24.391025 43.078522h178.908469z" p-id="20842"></path></svg>