<?xml version="1.0" encoding="utf-8"?>
<!-- Generator: Adobe Illustrator 23.0.3, SVG Export Plug-In . SVG Version: 6.00 Build 0)  -->
<svg version="1.1" id="图层_1" xmlns="http://www.w3.org/2000/svg" xmlns:xlink="http://www.w3.org/1999/xlink" x="0px" y="0px"
	 viewBox="0 0 198.4 198.4" style="enable-background:new 0 0 198.4 198.4;" xml:space="preserve">
<style type="text/css">
	.st0{fill:url(#SVGID_1_);}
	.st1{fill:#5FC3DB;}
</style>
<g>
	
		<radialGradient id="SVGID_1_" cx="98.6723" cy="100.9189" r="98.677" gradientTransform="matrix(1.0053 0 0 -1.0053 4.708886e-03 200.6537)" gradientUnits="userSpaceOnUse">
		<stop  offset="0" style="stop-color:#5FC3DB;stop-opacity:0"/>
		<stop  offset="0.8625" style="stop-color:#5FC3DB;stop-opacity:0.8625"/>
		<stop  offset="1" style="stop-color:#5FC3DB"/>
	</radialGradient>
	<circle class="st0" cx="99.2" cy="99.2" r="99.2"/>
	<path class="st1" d="M99.1,156c-24.3,0-44.1-19.8-44.1-44.1c0-15.4,16.6-42.4,30.4-62.2c3.1-4.4,8.3-7.1,13.7-7.1
		s10.6,2.7,13.7,7.1c13.9,19.9,30.4,46.9,30.4,62.2C143.3,136.1,123.5,156,99.1,156z M99.1,53.7c-1.8,0-3.4,0.8-4.4,2.2
		c-18,26-28.3,46.3-28.3,55.8c0,18.1,14.7,32.8,32.8,32.8s32.8-14.7,32.8-32.8c0-9.6-10.4-29.9-28.4-55.7
		C102.5,54.6,100.9,53.7,99.1,53.7z"/>
	<path class="st1" d="M95,138.6c-0.7,0-1.5-0.1-2.2-0.4c-9.2-3.4-16.3-10.9-19.2-20.3c-1-3.4,0.9-6.9,4.2-7.9c3.4-1,6.9,0.9,7.9,4.2
		c1.7,5.5,6,10.1,11.4,12c3.3,1.2,5,4.9,3.8,8.2C100.1,137,97.6,138.6,95,138.6z"/>
</g>
</svg>
