<?xml version="1.0" encoding="utf-8"?>
<!-- Generator: Adobe Illustrator 23.0.3, SVG Export Plug-In . SVG Version: 6.00 Build 0)  -->
<svg version="1.1" id="图层_1" xmlns="http://www.w3.org/2000/svg" xmlns:xlink="http://www.w3.org/1999/xlink" x="0px" y="0px"
	 viewBox="0 0 198.4 198.4" style="enable-background:new 0 0 198.4 198.4;" xml:space="preserve">
<style type="text/css">
	.st0{fill:url(#SVGID_1_);}
	.st1{fill:#5FC3DB;}
</style>
<g>
	
		<radialGradient id="SVGID_1_" cx="99.7322" cy="98.6848" r="98.693" gradientTransform="matrix(1.0053 0 0 1.0053 -1.0447 8.290077e-03)" gradientUnits="userSpaceOnUse">
		<stop  offset="0" style="stop-color:#5FC3DB;stop-opacity:0"/>
		<stop  offset="0.8625" style="stop-color:#5FC3DB;stop-opacity:0.8625"/>
		<stop  offset="1" style="stop-color:#5FC3DB"/>
	</radialGradient>
	<circle class="st0" cx="99.2" cy="99.2" r="99.2"/>
	<g>
		<path class="st1" d="M114,124.1H45.2c-3.2,0-5.8-2.7-5.8-6.2c0-3.4,2.6-6.2,5.8-6.2H114c3.2,0,5.8,2.7,5.8,6.2
			C119.7,121.4,117.1,124.1,114,124.1L114,124.1z"/>
		<path class="st1" d="M144.4,148.8H95c-3.4,0-6.2-2.7-6.2-6.2c0-3.4,2.7-6.2,6.2-6.2h49.4c3.4,0,6.2,2.7,6.2,6.2
			C150.5,146,147.8,148.8,144.4,148.8z"/>
		<path class="st1" d="M70.4,148.8H58c-3.4,0-6.2-2.7-6.2-6.2c0-3.4,2.7-6.2,6.2-6.2h12.4c3.4,0,6.2,2.7,6.2,6.2
			C76.5,146,73.7,148.8,70.4,148.8z"/>
		<g>
			<path class="st1" d="M39.5,49.6h41.9v9.6H66.1V107H54.9V59.2H39.5V49.6z"/>
			<path class="st1" d="M117.8,107L97.7,59.2l-0.3,0.3V107H87.1V49.6h16.5L123.2,95l0.3-0.3V49.6h10.3v57.5L117.8,107L117.8,107z"/>
		</g>
		<path class="st1" d="M152.8,124.1h-12.4c-3.4,0-6.2-2.7-6.2-6.2s2.7-6.2,6.2-6.2h12.4c3.4,0,6.2,2.7,6.2,6.2
			S156.2,124.1,152.8,124.1z"/>
	</g>
</g>
</svg>
