<?xml version="1.0" encoding="utf-8"?>
<!-- Generator: Adobe Illustrator 23.0.3, SVG Export Plug-In . SVG Version: 6.00 Build 0)  -->
<svg version="1.1" id="图层_1" xmlns="http://www.w3.org/2000/svg" xmlns:xlink="http://www.w3.org/1999/xlink" x="0px" y="0px"
	 viewBox="0 0 198.4 198.4" style="enable-background:new 0 0 198.4 198.4;" xml:space="preserve">
<style type="text/css">
	.st0{fill:url(#SVGID_1_);}
	.st1{fill:#5FC3DB;}
</style>
<g>
	
		<radialGradient id="SVGID_1_" cx="98.6226" cy="101.0183" r="98.677" gradientTransform="matrix(1.0053 0 0 -1.0053 4.708886e-03 200.6537)" gradientUnits="userSpaceOnUse">
		<stop  offset="0" style="stop-color:#5FC3DB;stop-opacity:0"/>
		<stop  offset="0.8625" style="stop-color:#5FC3DB;stop-opacity:0.8625"/>
		<stop  offset="1" style="stop-color:#5FC3DB"/>
	</radialGradient>
	<circle class="st0" cx="99.2" cy="99.1" r="99.2"/>
	<g>
		<path class="st1" d="M84.5,113.8L84.5,113.8c-9.1,0-17.8-2.6-24.2-7.5c-3.3-2.4-5.9-5.2-7.7-8.4c-1.9-3.4-3-7-3-10.8
			c0-6,2.7-11.9,7.6-16.6c4.1-4,9.5-6.9,15.7-8.5c0-0.5-0.1-1-0.1-1.6c0-6.2,2.5-12.2,6.9-16.7c4.3-4.4,10.1-7.2,16.4-7.8
			c0.7-0.1,1.3-0.1,1.9-0.1c0.4,0,0.7,0,1,0c14.2,0,25.7,10.5,26.3,23.7c6.7,1,11.6,2.9,15.4,5.8c5.2,4,7.9,10,7.9,17.7
			c0,8.7-3.2,15.1-9.5,19.2c-5.1,3.3-11.9,4.8-20.8,4.8c-0.8,0-1.6,0-2.4-0.1c-2.2-0.1-4-2-4.3-4.1c-0.3-2.6,1.2-4.5,3.4-4.3
			c0.7,0.1,1.3,0.1,1.9,0.1c7.3,0,12.9-1.2,16.6-3.6c4-2.6,6-6,6-12c0-5.3-1.6-9-4.8-11.6c-3-2.3-7.5-3.1-13.9-3.8
			c-2.7-0.3-4.6-2.8-4.5-5.5c0-0.3,0-0.5,0-0.8c0-9.4-6.9-17-17.1-17c-0.3,0-0.6,0-0.9,0h-0.5l-0.5,0.1c-9.5,0.9-15.1,8.2-15.1,16.9
			c0,0.8,0.1,1.7,0.2,2.5c0.4,2.8-1.3,5.4-4,6c-11.6,2.2-19.6,9-19.6,17.3c0,4.8,3.4,9.5,8.3,13.1c5.2,3.8,10.7,5.2,18.1,5.2l0,0
			c2.2,0,3.3,2.2,3.3,4.4C88.5,111.9,86.6,113.8,84.5,113.8z M97.8,44.1h-0.1C97.7,44.1,97.7,44.1,97.8,44.1z"/>
		<path class="st1" d="M83.5,99.5c-3.2,0-8.4-0.7-12.7-4.4c-3.7-3.1-4-6.7-3.7-9.1c0.1-0.6,0.2-1.2,0.4-1.7c0.4-1.5,2.2-2.1,3.5-1.3
			l0,0c0.8,0.6,1.2,1.6,0.9,2.6c-0.1,0.4-0.2,0.7-0.2,1.1c-0.2,1.9,0.5,3.4,2.2,4.8c5.1,4.4,12,3.1,12,3.1c1.3-0.2,2.5,0.6,2.7,1.9
			c0.2,1.3-0.6,2.5-1.9,2.7C86.5,99.2,85.3,99.5,83.5,99.5z"/>
		<path class="st1" d="M73.6,162.5c-0.4,0-2.3-0.1-2.8-0.4c-1-0.7-1.4-2.1-0.7-3.2c0,0,1.4-2.3,2.2-5.9c0.9-4.7,0.1-9.2-2.2-13.6
			c-3.7-6.7-3.5-12.2-2.6-15.6c0.9-3.7,2.8-5.8,2.9-6l4.9,3.1l0,0c-0.2,0.2-5.2,6.3,0.3,16.3c2.9,5.3,3.8,11.1,2.7,16.9
			c-0.9,4.4-2.7,7.2-2.8,7.3C75.1,162.1,74.4,162.5,73.6,162.5z"/>
		<path class="st1" d="M101.8,158.9c-0.4,0-2.3-0.1-2.8-0.4c-1-0.7-1.4-2.1-0.7-3.2c0,0,1.4-2.3,2.2-5.9c0.9-4.7,0.1-9.2-2.2-13.6
			c-3.7-6.7-3.5-12.2-2.6-15.6c0.9-3.7,2.8-5.8,2.9-6l4.9,3.1l0,0c-0.2,0.2-5.2,6.3,0.3,16.3c2.9,5.3,3.8,11.1,2.7,16.9
			c-0.9,4.4-2.7,7.2-2.8,7.3C103.3,158.6,102.6,158.9,101.8,158.9z"/>
		<path class="st1" d="M130.6,153.1c-0.4,0-2.3-0.1-2.8-0.4c-1-0.7-1.4-2.1-0.7-3.2c0,0,1.4-2.3,2.2-5.9c0.9-4.7,0.1-9.2-2.2-13.6
			c-3.7-6.7-3.5-12.2-2.6-15.6c0.9-3.7,2.8-5.8,2.9-6l4.9,3.1l0,0c-0.2,0.2-5.2,6.3,0.3,16.3c2.9,5.3,3.8,11.1,2.7,16.9
			c-0.9,4.4-2.7,7.2-2.8,7.3C132.1,152.7,131.4,153.1,130.6,153.1z"/>
	</g>
</g>
</svg>
