<?xml version="1.0" encoding="utf-8"?>
<!-- Generator: Adobe Illustrator 23.0.3, SVG Export Plug-In . SVG Version: 6.00 Build 0)  -->
<svg version="1.1" id="图层_1" xmlns="http://www.w3.org/2000/svg" xmlns:xlink="http://www.w3.org/1999/xlink" x="0px" y="0px"
	 viewBox="0 0 198.4 198.4" style="enable-background:new 0 0 198.4 198.4;" xml:space="preserve">
<style type="text/css">
	.st0{fill:url(#SVGID_1_);}
	.st1{fill:#5FC3DB;}
</style>
<g>
	
		<radialGradient id="SVGID_1_" cx="98.6796" cy="100.9032" r="98.6895" gradientTransform="matrix(1.0053 0 0 -1.0053 1.000893e-02 200.6506)" gradientUnits="userSpaceOnUse">
		<stop  offset="0" style="stop-color:#5FC3DB;stop-opacity:0"/>
		<stop  offset="0.8625" style="stop-color:#5FC3DB;stop-opacity:0.8625"/>
		<stop  offset="1" style="stop-color:#5FC3DB"/>
	</radialGradient>
	<circle class="st0" cx="99.2" cy="99.2" r="99.2"/>
	<path class="st1" d="M121.7,115.8c8.9,0,16.1,7.4,16.1,16.5s-7.2,16.5-16.1,16.5s-16.1-7.4-16.1-16.5v-0.4c0.2-1.8,2.5-3.8,4.2-3.5
		c1.5,0.2,3.3,2.1,3.4,3.5v0.4c0,5.5,3,8.6,8.4,8.6s8.4-3.1,8.4-8.6c0-5.3-2.7-8.3-7.8-8.6h-0.6H44.6c-1.7,0-3.2-2.1-3.2-4
		c0-1.8,1.4-4,3.2-4l0,0L121.7,115.8L121.7,115.8z M147.5,69.5c8.9,0,16.1,7.4,16.1,16.5s-7.2,16.5-16.1,16.5l0,0H38.1
		c-1.7,0-3.2-2.1-3.2-4s1.4-4,3.2-4l0,0h109.3h0.6c5.3-0.3,8.1-3.7,7.8-9.1c-0.3-5.5-3.6-8.3-8.9-8c-5.1,0.3-7.8,3.3-7.8,8.6v0.4
		c-0.2,1.8-2.5,3.8-4.2,3.5c-1.5-0.2-3.3-2.1-3.4-3.5V86C131.4,76.9,138.6,69.5,147.5,69.5z M99.2,49.6c8.9,0,16.1,7.4,16.1,16.5
		s-7.2,16.5-16.1,16.5l0,0H44.6c-1.7,0-3.2-2.1-3.2-4c0-1.8,1.4-4,3.2-4l0,0h54.6h0.6c5.3-0.3,8.1-3.7,7.8-9.1
		c-0.3-5.5-3.6-8.3-8.9-8c-5.1,0.3-7.8,3.3-7.8,8.6v0.4c-0.2,1.8-2.5,3.8-4.2,3.5c-1.5-0.2-3.3-2.1-3.4-3.5v-0.4
		C83.1,57,90.3,49.6,99.2,49.6L99.2,49.6z"/>
</g>
</svg>
