<?xml version="1.0" encoding="utf-8"?>
<!-- Generator: Adobe Illustrator 23.0.3, SVG Export Plug-In . SVG Version: 6.00 Build 0)  -->
<svg version="1.1" id="图层_1" xmlns="http://www.w3.org/2000/svg" xmlns:xlink="http://www.w3.org/1999/xlink" x="0px" y="0px"
	 viewBox="0 0 198.4 198.4" style="enable-background:new 0 0 198.4 198.4;" xml:space="preserve">
<style type="text/css">
	.st0{fill:url(#SVGID_1_);}
	.st1{fill:#5FC3DB;}
</style>
<g>
	
		<radialGradient id="SVGID_1_" cx="98.6723" cy="100.9189" r="98.677" gradientTransform="matrix(1.0053 0 0 -1.0053 4.708886e-03 200.6537)" gradientUnits="userSpaceOnUse">
		<stop  offset="0" style="stop-color:#5FC3DB;stop-opacity:0"/>
		<stop  offset="0.8625" style="stop-color:#5FC3DB;stop-opacity:0.8625"/>
		<stop  offset="1" style="stop-color:#5FC3DB"/>
	</radialGradient>
	<circle class="st0" cx="99.2" cy="99.2" r="99.2"/>
	<path class="st1" d="M75.9,73.8c-1.5-2.6-4.4-4.3-7.4-4c-1.8-0.1-3.6,0.5-5,1.6c-1.5,1.4-2.6,3.2-3.1,5.2c-0.8,3.1-1.3,6.2-1.6,9.4
		c-0.2,3.9-0.3,8.6-0.3,14.3c-0.1,4.9,0.2,9.8,0.6,14.6c0.2,2.9,0.8,5.8,1.9,8.6c0.6,1.7,1.7,3.1,3.2,4.1c1.4,0.7,2.9,1.1,4.5,1.1
		c1.3,0,2.6-0.2,4-0.7c1.3-0.6,2.5-1.6,3.2-2.9c1.1-1.9,1.7-4,2.1-6c0.6-3.4,0.8-6.9,0.7-10.4h16c0,4.1-0.2,8.1-1,12.2
		c-0.6,3.6-1.9,7-3.7,10.1c-1.8,3-4.5,5.4-7.6,6.9c-4,1.8-8.4,2.6-12.8,2.4c-5,0.2-9.8-0.8-14.2-2.9c-3.6-1.9-6.4-4.8-8.2-8.4
		c-2-4.1-3.2-8.4-3.6-12.9c-1.2-11-1.2-22.2,0-33.1c0.4-4.5,1.7-8.9,3.6-13c1.9-3.6,4.6-6.5,8.2-8.4c4.4-2.2,9.3-3.2,14.2-3.1
		c4.6-0.2,9.3,0.7,13.4,2.8c3,1.6,5.5,4,7.4,6.9c1.6,2.9,2.6,6,3.1,9.2c0.4,3.1,0.6,6.2,0.6,9.3H78C78.3,82.2,77.6,77.9,75.9,73.8
		L75.9,73.8z M102.9,82.7c0.4-4.5,1.7-8.9,3.6-13c1.9-3.6,4.6-6.5,8.2-8.4c9.1-4.1,19.4-4.1,28.6,0c3.5,2,6.4,5,8.2,8.4
		c2,4.1,3.2,8.4,3.6,13c1.2,11,1.2,22.2,0,33.1c-0.4,4.5-1.7,8.8-3.6,12.9c-1.8,3.6-4.6,6.5-8.2,8.4c-9.1,3.9-19.4,3.9-28.6,0
		c-3.6-1.9-6.4-4.8-8.2-8.4c-2-4.1-3.2-8.4-3.6-12.9C101.8,104.8,101.8,93.7,102.9,82.7L102.9,82.7z M118.4,112.9
		c0.2,3.1,0.7,6.1,1.6,9.1c0.5,2,1.7,3.8,3.3,5.1c3.6,2.2,7.9,2.2,11.4,0c1.6-1.3,2.8-3.1,3.3-5.1c0.8-2.9,1.4-6,1.6-9.1
		c0.2-3.7,0.4-8.4,0.4-13.9c0-5.5-0.2-10.1-0.4-13.9c-0.2-3.1-0.7-6.1-1.6-9.1c-0.5-2-1.7-3.8-3.3-5.1c-3.6-2.2-7.9-2.2-11.4,0
		c-1.6,1.3-2.8,3.1-3.3,5.1c-0.8,2.9-1.4,6-1.6,9.1c-0.2,3.6-0.4,8.4-0.4,13.9C117.9,104.5,118.2,109.1,118.4,112.9z"/>
</g>
</svg>
