<?xml version="1.0" encoding="utf-8"?>
<!-- Generator: Adobe Illustrator 23.0.3, SVG Export Plug-In . SVG Version: 6.00 Build 0)  -->
<svg version="1.1" id="图层_1" xmlns="http://www.w3.org/2000/svg" xmlns:xlink="http://www.w3.org/1999/xlink" x="0px" y="0px"
	 viewBox="0 0 200 200" style="enable-background:new 0 0 200 200;" xml:space="preserve">
<path d="M100.9,187.6c-37.5,0-68-30.5-68-68c0-23.8,25.5-65.3,47-96c4.8-6.9,12.7-11,21.1-11s16.3,4.1,21.1,11
	c21.4,30.7,47,72.3,47,96C168.9,157.1,138.4,187.6,100.9,187.6z M100.9,30c-2.7,0-5.2,1.3-6.7,3.5c-27.8,39.9-43.8,71.3-43.8,86
	c0,27.9,22.7,50.5,50.5,50.5s50.5-22.7,50.5-50.5c0-14.8-16-46.1-43.8-86C106.1,31.3,103.6,30,100.9,30z"/>
<path d="M93.9,154c-1,0-2-0.2-3-0.5c-12.6-4.6-22.4-15-26.3-27.8c-1.4-4.6,1.2-9.5,5.8-10.9c4.6-1.4,9.5,1.2,10.9,5.8
	c2.3,7.6,8.2,13.8,15.7,16.5c4.5,1.7,6.9,6.7,5.2,11.3C100.8,151.8,97.4,154,93.9,154z"/>
</svg>
