<?xml version="1.0" encoding="utf-8"?>
<!-- Generator: Adobe Illustrator 23.0.3, SVG Export Plug-In . SVG Version: 6.00 Build 0)  -->
<svg version="1.1" id="图层_1" xmlns="http://www.w3.org/2000/svg" xmlns:xlink="http://www.w3.org/1999/xlink" x="0px" y="0px"
	 viewBox="0 0 200 200" style="enable-background:new 0 0 200 200;" xml:space="preserve">
<g>
	<path d="M120.2,134.7H22.3c-4.5,0-8.2-3.9-8.2-8.8c0-4.8,3.7-8.8,8.2-8.8h97.9c4.5,0,8.2,3.9,8.2,8.8
		C128.4,130.8,124.7,134.7,120.2,134.7L120.2,134.7z"/>
	<path d="M163.5,169.9H93.2c-4.9,0-8.8-3.9-8.8-8.8c0-4.9,3.9-8.8,8.8-8.8h70.3c4.9,0,8.8,3.9,8.8,8.8
		C172.3,165.9,168.4,169.9,163.5,169.9z"/>
	<path d="M58.1,169.9H40.5c-4.9,0-8.8-3.9-8.8-8.8c0-4.9,3.9-8.8,8.8-8.8h17.6c4.9,0,8.8,3.9,8.8,8.8
		C66.9,165.9,62.9,169.9,58.1,169.9z"/>
	<g>
		<path d="M14.2,28.6h59.7v13.7H52v68.1H36.1V42.3H14.2V28.6z"/>
		<path d="M125.7,110.4L97,42.3l-0.4,0.4v67.7H81.9V28.6h23.5l27.9,64.6l0.4-0.4V28.6h14.7v81.9H125.7z"/>
	</g>
	<path d="M175.5,134.7h-17.6c-4.9,0-8.8-3.9-8.8-8.8s3.9-8.8,8.8-8.8h17.6c4.9,0,8.8,3.9,8.8,8.8S180.3,134.7,175.5,134.7z"/>
</g>
</svg>
