<?xml version="1.0" encoding="utf-8"?>
<!-- Generator: Adobe Illustrator 23.0.3, SVG Export Plug-In . SVG Version: 6.00 Build 0)  -->
<svg version="1.1" id="图层_1" xmlns="http://www.w3.org/2000/svg" xmlns:xlink="http://www.w3.org/1999/xlink" x="0px" y="0px"
	 viewBox="0 0 200.2 200" style="enable-background:new 0 0 200.2 200;" xml:space="preserve">
<path d="M80.4,119.7L80.4,119.7c-12.2,0-23.8-3.5-32.5-10c-4.4-3.2-7.9-7-10.3-11.3c-2.6-4.6-4-9.4-4-14.5c0-8.1,3.6-16,10.2-22.3
	c5.5-5.3,12.8-9.2,21.1-11.4c0-0.7-0.1-1.4-0.1-2.1c0-8.3,3.3-16.3,9.3-22.4c5.8-5.9,13.6-9.6,22-10.5c0.9-0.2,1.7-0.2,2.6-0.2
	c0.5,0,0.9,0,1.4,0c19,0,34.5,14.1,35.2,31.8c9,1.4,15.6,3.9,20.7,7.8c7,5.4,10.6,13.4,10.6,23.7c0,11.6-4.3,20.3-12.7,25.8
	c-6.8,4.4-15.9,6.5-27.9,6.5c-1.1,0-2.1,0-3.2-0.1c-2.9-0.2-5-2.6-4.8-5.5c0.2-2.9,2.6-5,5.5-4.8c0.9,0.1,1.7,0.1,2.6,0.1
	c9.8,0,17.3-1.6,22.2-4.8c5.4-3.5,8-9.1,8-17.1c0-7.1-2.1-12.1-6.5-15.5c-4-3.1-10.1-5.1-18.7-6.1c-3.6-0.4-6.2-3.7-6-7.4
	c0-0.4,0-0.7,0-1.1c0-12.6-11.2-22.8-24.9-22.8c-0.4,0-0.8,0-1.2,0l-0.7,0l-0.7,0.1c-12.7,1.2-22.3,11-22.3,22.7
	c0,1.1,0.1,2.3,0.3,3.4c0.6,3.8-1.7,7.3-5.4,8.1C54.7,62.8,43.9,72.8,43.9,84c0,6.5,3.6,12.7,10.1,17.5c7,5.1,16.3,8,26.3,8h0
	c2.9,0,5.2,2.3,5.2,5.2C85.6,117.4,83.3,119.7,80.4,119.7z M98.3,25.3l-0.2,0C98.2,25.3,98.2,25.3,98.3,25.3z"/>
<path d="M79.1,100.5c-4.3,0-11.2-0.9-17-5.9c-4.9-4.2-5.4-9-5-12.2c0.1-0.8,0.3-1.6,0.5-2.3c0.6-2,3-2.8,4.7-1.7l0,0
	c1.1,0.8,1.6,2.2,1.2,3.5c-0.1,0.5-0.3,1-0.3,1.5c-0.3,2.5,0.7,4.6,2.9,6.5c6.9,5.9,16.1,4.2,16.1,4.2c1.7-0.3,3.3,0.8,3.6,2.5
	c0.3,1.7-0.8,3.3-2.5,3.6C83.2,100.2,81.6,100.5,79.1,100.5z"/>
<path d="M63.9,185c-0.6,0-1.1-0.2-1.7-0.5c-1.4-0.9-1.9-2.8-1-4.3c0,0,1.9-3.1,2.9-7.9c1.2-6.3,0.2-12.4-3-18.2
	c-4.9-9-4.7-16.3-3.5-20.9c1.2-5,3.7-7.8,3.9-8.1l4.6,4.1l0,0c-0.3,0.3-7,8.4,0.4,21.9c3.9,7.1,5.1,14.9,3.6,22.7
	c-1.2,5.9-3.6,9.6-3.7,9.8C65.9,184.5,64.9,185,63.9,185z"/>
<path d="M101.7,180.2c-0.6,0-1.1-0.2-1.7-0.5c-1.4-0.9-1.9-2.8-1-4.3c0,0,1.9-3.1,2.9-7.9c1.2-6.3,0.2-12.4-3-18.2
	c-4.9-9-4.7-16.3-3.5-20.9c1.2-5,3.7-7.8,3.9-8.1l4.6,4.1l0,0c-0.3,0.3-7,8.4,0.4,21.9c3.9,7.1,5.1,14.9,3.6,22.7
	c-1.2,5.9-3.6,9.6-3.7,9.8C103.7,179.7,102.7,180.2,101.7,180.2z"/>
<path d="M140.3,172.4c-0.6,0-1.1-0.2-1.7-0.5c-1.4-0.9-1.9-2.8-1-4.3c0,0,1.9-3.1,2.9-7.9c1.2-6.3,0.2-12.4-3-18.2
	c-4.9-9-4.7-16.3-3.5-20.9c1.2-5,3.7-7.8,3.9-8.1l4.6,4.1l0,0c-0.3,0.3-7,8.4,0.4,21.9c3.9,7.1,5.1,14.9,3.6,22.7
	c-1.2,5.9-3.6,9.6-3.7,9.8C142.3,171.9,141.3,172.4,140.3,172.4z"/>
</svg>
