<?xml version="1.0" encoding="utf-8"?>
<!-- Generator: Adobe Illustrator 23.0.3, SVG Export Plug-In . SVG Version: 6.00 Build 0)  -->
<svg version="1.1" id="图层_1" xmlns="http://www.w3.org/2000/svg" xmlns:xlink="http://www.w3.org/1999/xlink" x="0px" y="0px"
	 viewBox="0 0 198.4 198.4" style="enable-background:new 0 0 198.4 198.4;" xml:space="preserve">
<path d="M134,124c13.7,0,24.8,11.1,24.8,24.8c0,13.7-11.1,24.8-24.8,24.8s-24.8-11.1-24.8-24.8l0-0.6c0.3-2.7,2.8-4.7,5.5-4.3
	c2.3,0.3,4.1,2.1,4.3,4.3l0,0.6c0,8.2,6.7,14.9,14.9,14.9c8.2,0,14.9-6.7,14.9-14.9c0-7.9-6.1-14.4-14-14.9l-0.9,0H14.9
	c-2.7,0-5-2.2-5-5c0-2.7,2.2-5,5-5c0,0,0,0,0,0H134L134,124z M173.7,54.6c13.7,0,24.8,11.1,24.8,24.8s-11.1,24.8-24.8,24.8
	c0,0,0,0,0,0H5c-2.7,0-5-2.2-5-5s2.2-5,5-5c0,0,0,0,0,0h168.7l0.9,0c8.2-0.5,14.5-7.5,14-15.7s-7.5-14.5-15.7-14
	c-7.9,0.5-14,7-14,14.9l0,0.6c-0.3,2.7-2.8,4.7-5.5,4.3c-2.3-0.3-4.1-2.1-4.3-4.3l0-0.6C148.9,65.7,160,54.6,173.7,54.6z M99.2,24.8
	c13.7,0,24.8,11.1,24.8,24.8s-11.1,24.8-24.8,24.8c0,0,0,0,0,0H14.9c-2.7,0-5-2.2-5-5c0-2.7,2.2-5,5-5c0,0,0,0,0,0h84.3l0.9,0
	c8.2-0.5,14.5-7.5,14-15.7c-0.5-8.2-7.5-14.5-15.7-14c-7.9,0.5-14,7-14,14.9l0,0.6c-0.3,2.7-2.8,4.7-5.5,4.3
	c-2.3-0.3-4.1-2.1-4.3-4.3l0-0.6C74.4,35.9,85.5,24.8,99.2,24.8C99.2,24.8,99.2,24.8,99.2,24.8z"/>
</svg>
