<?xml version="1.0" encoding="utf-8"?>
<!-- Generator: Adobe Illustrator 23.0.3, SVG Export Plug-In . SVG Version: 6.00 Build 0)  -->
<svg version="1.1" id="图层_1" xmlns="http://www.w3.org/2000/svg" xmlns:xlink="http://www.w3.org/1999/xlink" x="0px" y="0px"
	 viewBox="0 0 200 200" style="enable-background:new 0 0 200 200;" xml:space="preserve">
<path d="M64.2,61.2c-2.2-4-6.6-6.4-11.2-5.9c-2.7-0.1-5.3,0.7-7.4,2.4c-2.2,2.1-3.8,4.8-4.6,7.8c-1.3,4.6-2,9.3-2.3,14.1
	c-0.4,5.8-0.6,12.9-0.6,21.4c-0.1,7.3,0.2,14.6,0.9,21.8c0.3,4.4,1.3,8.7,2.8,12.9c0.9,2.5,2.5,4.7,4.8,6.1c2.1,1.1,4.4,1.6,6.7,1.6
	c2,0,4-0.3,5.9-1c2-0.9,3.7-2.4,4.8-4.4c1.6-2.8,2.6-5.9,3.1-9.1c0.9-5.1,1.2-10.4,1.1-15.6h23.9c0,6.1-0.4,12.2-1.5,18.3
	c-0.9,5.4-2.8,10.5-5.6,15.2c-2.7,4.5-6.7,8.1-11.4,10.4c-6,2.7-12.6,3.9-19.2,3.6c-7.4,0.3-14.7-1.2-21.4-4.4
	c-5.3-2.8-9.5-7.2-12.3-12.5c-3-6.1-4.9-12.7-5.5-19.4c-1.7-16.5-1.7-33.2,0-49.7c0.6-6.8,2.5-13.4,5.5-19.5
	c2.8-5.3,7-9.7,12.3-12.7c6.6-3.3,14-4.9,21.4-4.6c7-0.3,13.9,1.1,20.1,4.2c4.5,2.4,8.3,6,11,10.4c2.4,4.3,4,9,4.6,13.8
	c0.6,4.6,0.9,9.3,0.9,13.9H67.3C67.7,73.7,66.7,67.2,64.2,61.2L64.2,61.2z M104.6,74.5c0.6-6.8,2.5-13.4,5.5-19.5
	c2.8-5.3,7-9.7,12.3-12.7c13.6-6.1,29.2-6.1,42.9,0c5.2,3,9.5,7.4,12.3,12.7c3,6.1,4.9,12.7,5.5,19.5c1.7,16.5,1.7,33.2,0,49.7
	c-0.6,6.8-2.5,13.3-5.5,19.4c-2.7,5.3-7,9.7-12.3,12.5c-13.7,5.8-29.2,5.8-42.9,0c-5.3-2.8-9.5-7.2-12.3-12.5
	c-3-6.1-4.9-12.7-5.5-19.4C103,107.7,103,91,104.6,74.5L104.6,74.5z M127.9,119.7c0.2,4.6,1,9.2,2.3,13.6c0.8,3,2.6,5.7,5,7.7
	c5.3,3.2,11.9,3.2,17.1,0c2.4-2,4.2-4.7,5-7.7c1.3-4.4,2.1-9,2.3-13.6c0.4-5.6,0.6-12.5,0.6-20.8c0-8.2-0.2-15.2-0.6-20.8
	c-0.2-4.6-1-9.2-2.3-13.6c-0.8-3-2.6-5.7-5-7.7c-5.3-3.2-11.9-3.2-17.1,0c-2.4,2-4.2,4.7-5,7.7c-1.3,4.4-2.1,9-2.3,13.6
	c-0.4,5.5-0.6,12.5-0.6,20.8C127.2,107.2,127.5,114.1,127.9,119.7z"/>
</svg>
