<?xml version="1.0" encoding="iso-8859-1"?>
<!-- Generator: Adobe Illustrator 25.0.0, SVG Export Plug-In . SVG Version: 6.00 Build 0)  -->
<svg version="1.1" id="&#x56FE;&#x5C42;_1" xmlns="http://www.w3.org/2000/svg" xmlns:xlink="http://www.w3.org/1999/xlink" x="0px"
	 y="0px" viewBox="0 0 200 200" style="enable-background:new 0 0 200 200;" xml:space="preserve">
<path id="&#x5168;&#x5382;" style="fill:#2EDCFF;" d="M188.632,87.201l-67.916-72.966c-0.515-0.244-0.919-0.671-1.135-1.198
	C114.138,7.883,106.929,5.007,99.433,5l0,0v10.055c4.514,0.018,8.876,1.637,12.308,4.57c0.663,0.87,1.442,1.644,2.316,2.301
	l67.072,72.068l0.205,0.213c2.159,2.436,2.028,6.139-0.299,8.416c-1.025,0.932-2.374,1.43-3.759,1.387h-5.816
	c-5.596-0.061-10.182,4.426-10.244,10.022c0,0.013,0,0.027,0,0.041v59.657c0.11,5.58-4.317,10.198-9.897,10.322h-32.662v-55.213
	c-0.043-5.596-4.615-10.098-10.211-10.055c-0.011,0-0.022,0-0.033,0H87.737c-5.596-0.061-10.182,4.426-10.244,10.022
	c0,0.011,0,0.022,0,0.033v55.213H45.454c-5.58-0.125-10.006-4.742-9.897-10.322v-59.657c-0.038-5.596-4.607-10.102-10.204-10.063
	c-0.013,0-0.027,0-0.04,0h-3.838c-1.526-0.044-2.971-0.694-4.019-1.804c-1.037-1.102-1.58-2.578-1.505-4.09
	c-0.067-1.459,0.466-2.883,1.474-3.94l0.205-0.213L85.538,21.06c3.532-3.839,8.51-6.025,13.726-6.028V5
	c-8.05,0.001-15.736,3.349-21.22,9.243L10.16,87.186C7.292,90.1,5.714,94.043,5.778,98.131c-0.073,4.179,1.543,8.211,4.483,11.181
	c2.977,2.99,7.01,4.688,11.229,4.728h3.782v59.657c-0.053,11.171,8.938,20.282,20.109,20.377h35.585
	c1.81,0.009,3.547-0.709,4.823-1.994c1.261-1.27,1.945-3.002,1.891-4.791v-58.483h20.684v58.483
	c-0.084,3.662,2.815,6.698,6.477,6.784h36.365c11.171-0.095,20.162-9.206,20.109-20.377V114.04h5.831
	c4.132,0.056,8.117-1.538,11.071-4.428C194.429,103.497,194.613,93.54,188.632,87.201z"/>
</svg>
