<?xml version="1.0" encoding="iso-8859-1"?>
<!-- Generator: Adobe Illustrator 25.0.0, SVG Export Plug-In . SVG Version: 6.00 Build 0)  -->
<svg version="1.1" id="&#x56FE;&#x5C42;_1" xmlns="http://www.w3.org/2000/svg" xmlns:xlink="http://www.w3.org/1999/xlink" x="0px"
	 y="0px" viewBox="0 0 200 200" style="enable-background:new 0 0 200 200;" xml:space="preserve">
<path id="&#x6C34;&#x84B8;&#x6C14;" style="fill:#2EDCFF;" d="M60.399,194c-0.671-0.001-1.328-0.19-1.897-0.545
	c-1.591-0.944-2.116-3-1.171-4.591c0.028-0.047,0.058-0.094,0.088-0.14c1.574-2.714,2.676-5.675,3.263-8.757
	c1.389-6.892,0.186-14.055-3.379-20.115c-4.336-6.841-5.785-15.121-4.033-23.029c0.776-3.302,2.32-6.374,4.505-8.967l5.275,4.571
	c-0.553,0.632-7.834,9.447,0.465,24.126c4.394,7.556,5.842,16.468,4.07,25.027c-0.756,3.825-2.172,7.489-4.186,10.828
	c-0.665,0.998-1.787,1.595-2.987,1.591L60.399,194L60.399,194z M97.744,188.731c-1.595-0.914-2.147-2.948-1.233-4.543
	c0.038-0.067,0.079-0.132,0.122-0.195c1.609-2.704,2.738-5.667,3.335-8.757c1.417-6.9,0.185-14.081-3.452-20.115
	c-4.416-6.809-5.896-15.113-4.105-23.029c0.797-3.312,2.368-6.388,4.585-8.975l5.384,4.578l0,0
	c-0.342,0.371-8.153,9.251,0.451,24.148c4.477,7.528,5.958,16.464,4.15,25.034c-0.781,3.83-2.224,7.494-4.266,10.828
	c-0.694,1-1.835,1.592-3.052,1.584c-0.679-0.011-1.343-0.207-1.92-0.567L97.744,188.731z M141.577,179.285
	c-1.591-0.911-2.144-2.94-1.232-4.532c0.04-0.07,0.083-0.139,0.128-0.206c1.606-2.705,2.731-5.668,3.328-8.757
	c1.418-6.899,0.188-14.08-3.444-20.115c-4.421-6.807-5.904-15.112-4.113-23.029c0.8-3.309,2.371-6.381,4.585-8.967l5.384,4.571
	c-0.305,0.349-8.132,9.236,0.48,24.126c4.475,7.526,5.957,16.459,4.15,25.027c-0.774,3.833-2.221,7.499-4.273,10.828
	c-0.686,1.004-1.828,1.599-3.044,1.584l0,0c-0.689,0.007-1.367-0.18-1.956-0.538L141.577,179.285z M63.044,132.428L63.044,132.428
	L63.044,132.428z M78.159,120.692L78.159,120.692c-12.701,0.202-25.135-3.649-35.499-10.995c-4.591-3.331-8.437-7.583-11.292-12.484
	c-2.833-4.853-4.337-10.367-4.36-15.987c0.19-9.379,4.2-18.275,11.103-24.627c6.492-6.099,14.429-10.446,23.065-12.63
	c-0.043-0.727-0.073-1.519-0.073-2.275c0.028-9.241,3.664-18.106,10.13-24.707C77.639,10.422,86.142,6.308,95.265,5.36
	c0.954-0.207,1.933-0.275,2.907-0.203c0.501,0,1.002,0,1.453,0c20.143-0.469,37.1,14.971,38.515,35.07
	c8.136,0.887,15.91,3.839,22.586,8.575c7.847,6.344,12.147,16.087,11.547,26.161c0.777,11.29-4.531,22.136-13.923,28.45
	c-9.232,5.305-19.811,7.8-30.44,7.18c-1.148,0-2.333-0.044-3.517-0.116c-3.148-0.201-5.538-2.916-5.337-6.064
	s2.916-5.538,6.064-5.338c0.945,0.058,1.889,0.094,2.798,0.094c8.438,0.541,16.858-1.308,24.293-5.334
	c6.109-4.261,9.454-11.478,8.756-18.894c0.588-6.526-2.079-12.923-7.128-17.099c-6.092-3.997-13.125-6.329-20.398-6.765
	c-4.002-0.583-6.88-4.148-6.606-8.182c0-0.4,0-0.799,0-1.185c-0.602-14.442-12.762-25.683-27.207-25.15c-0.436,0-0.894,0-1.359,0
	h-0.785l-0.727,0.131C83.4,17.489,72.852,28.33,72.418,41.702c-0.002,1.253,0.098,2.505,0.298,3.742
	c0.741,4.075-1.861,8.01-5.901,8.924c-16.779,3.546-28.5,14.599-28.5,26.887c0.365,7.82,4.463,14.989,11.016,19.272
	c8.422,5.908,18.506,8.983,28.791,8.778l0,0c3.153,0.113,5.617,2.759,5.504,5.912c-0.106,2.995-2.51,5.397-5.504,5.504
	L78.159,120.692z M58.102,92.766c-4.201-3.378-6.318-8.715-5.573-14.054c0.125-0.91,0.319-1.809,0.581-2.689
	c0.318-1.072,1.127-1.928,2.18-2.304c1.032-0.373,2.18-0.221,3.081,0.407c1.27,0.898,1.829,2.505,1.388,3.997
	c-0.17,0.575-0.289,1.163-0.356,1.759c-0.304,2.87,0.91,5.691,3.205,7.441c5.062,4.053,11.593,5.793,18,4.796
	c1.881-0.351,3.692,0.889,4.043,2.771c0.004,0.021,0.008,0.042,0.012,0.063c0.372,1.909-0.853,3.764-2.754,4.171
	c-1.579,0.268-3.179,0.394-4.781,0.378c-6.948,0.126-13.708-2.27-19.026-6.744C58.102,92.758,58.102,92.766,58.102,92.766z"/>
</svg>
