<?xml version="1.0" encoding="iso-8859-1"?>
<!-- Generator: Adobe Illustrator 25.0.0, SVG Export Plug-In . SVG Version: 6.00 Build 0)  -->
<svg version="1.1" id="&#x56FE;&#x5C42;_1" xmlns="http://www.w3.org/2000/svg" xmlns:xlink="http://www.w3.org/1999/xlink" x="0px"
	 y="0px" viewBox="0 0 200 200" style="enable-background:new 0 0 200 200;" xml:space="preserve">
<path id="&#x4E00;&#x6C27;&#x5316;&#x78B3;" style="fill:#2EDCFF;" d="M50.28,55.87c-13.205-0.881-26.06,4.47-34.74,14.46
	c-13.892,19.82-14.051,46.173-0.4,66.16c7.69,9.49,19.56,14.35,35.4,14.35c9.489,0.252,18.782-2.723,26.36-8.44
	c7.951-6.185,13.275-15.141,14.91-25.08H76.63c-4.837,15.361-21.21,23.893-36.572,19.056c-4.861-1.531-9.236-4.308-12.688-8.056
	c-4.978-7.284-7.372-16.026-6.8-24.83c-0.542-8.739,1.902-17.402,6.93-24.57c5.415-6.795,13.834-10.48,22.5-9.85
	c5.742-0.282,11.439,1.145,16.37,4.1c4.561,3.071,7.752,7.793,8.9,13.17H90.5c-1.117-8.69-5.607-16.592-12.5-22
	C69.997,58.437,60.216,55.449,50.28,55.87z M148.67,55.87c12.868-0.673,25.395,4.274,34.33,13.56c15.991,19.846,15.991,48.154,0,68
	c-19.39,17.961-49.358,17.904-68.68-0.13c-15.788-19.794-15.788-47.876,0-67.67C123.164,60.178,135.746,55.138,148.67,55.87z
	 M148.67,69.05c-8.696-0.48-17.133,3.055-22.89,9.59c-10.291,14.906-10.291,34.624,0,49.53c5.784,6.49,14.211,9.987,22.89,9.5
	c8.563,0.502,16.907-2.829,22.77-9.09c5.588-7.127,8.38-16.049,7.85-25.09c0.508-9.115-2.278-18.109-7.85-25.34
	c-5.829-6.31-14.198-9.648-22.77-9.08V69.05z"/>
</svg>
