<?xml version="1.0" encoding="iso-8859-1"?>
<!-- Generator: Adobe Illustrator 25.0.0, SVG Export Plug-In . SVG Version: 6.00 Build 0)  -->
<svg version="1.1" id="&#x56FE;&#x5C42;_1" xmlns="http://www.w3.org/2000/svg" xmlns:xlink="http://www.w3.org/1999/xlink" x="0px"
	 y="0px" viewBox="0 0 200 200" style="enable-background:new 0 0 200 200;" xml:space="preserve">
<path id="PH&#x503C;" style="fill:#2EDCFF;" d="M29.35,113.954v31.671H8v-91.5h49.563c6.426-0.33,12.864,0.382,19.063,2.111
	c6.548,2.061,12.024,6.611,15.25,12.67c2.763,4.677,4.089,10.063,3.813,15.488c0.164,4.646-0.888,9.255-3.05,13.371
	c-1.671,4.073-4.284,7.692-7.625,10.559c-2.366,2.135-5.263,3.594-8.387,4.221c-4.256,0.946-8.603,1.419-12.963,1.409L29.35,113.954
	z M29.35,97.764h28.975c3.691,0.415,7.42-0.322,10.675-2.111c3.259-3.088,4.942-7.487,4.575-11.962
	c0.611-5.068-2.18-9.935-6.862-11.968c-2.677-1.013-5.526-1.492-8.388-1.409H29.35V97.764z M191,54.125v91.5h-21.35v-37.301h-38.125
	v37.301h-21.35v-91.5h21.35v37.301h38.125V54.125H191z"/>
</svg>
