<?xml version="1.0" encoding="iso-8859-1"?>
<!-- Generator: Adobe Illustrator 25.0.0, SVG Export Plug-In . SVG Version: 6.00 Build 0)  -->
<svg version="1.1" id="&#x56FE;&#x5C42;_1" xmlns="http://www.w3.org/2000/svg" xmlns:xlink="http://www.w3.org/1999/xlink" x="0px"
	 y="0px" viewBox="0 0 200 200" style="enable-background:new 0 0 200 200;" xml:space="preserve">
<path id="&#x81ED;&#x6C14;" style="fill:#2EDCFF;" d="M101.241,161.773c-50.194-27.176-81.683,2.849-83.01,4.182
	c-2.584,2.534-6.72,2.534-9.304,0c-2.542-2.504-2.574-6.594-0.07-9.137c0.006-0.006,0.012-0.013,0.019-0.019
	c0.393-0.387,39.511-38.429,98.906-6.267c1.92,1.14,41.334,24.009,74.498-2.849c2.818-2.275,6.94-1.863,9.252,0.923
	c2.261,2.749,1.865,6.809-0.884,9.07c-0.019,0.015-0.038,0.031-0.057,0.046c-12.601,10.338-28.431,15.924-44.73,15.782
	C130.26,173.257,114.949,169.232,101.241,161.773z M135.488,116.234c-0.098-9.729,7.71-17.694,17.439-17.792
	c9.729-0.098,17.694,7.71,17.792,17.439c0.098,9.729-7.71,17.694-17.439,17.792c-0.06,0.001-0.121,0.001-0.181,0.001
	C143.422,133.715,135.541,125.91,135.488,116.234z M147.789,116.234c0.003,1.886,1.016,3.625,2.655,4.558
	c1.648,0.938,3.668,0.938,5.316,0c2.503-1.491,3.323-4.73,1.831-7.233c-1.491-2.503-4.73-3.323-7.233-1.832
	c-1.589,0.947-2.566,2.657-2.575,4.507C147.783,116.234,147.789,116.234,147.789,116.234z M35.796,91.251
	c-0.116-11.494,9.107-20.906,20.6-21.022c11.494-0.116,20.906,9.107,21.022,20.601s-9.107,20.906-20.6,21.022
	c-0.07,0.001-0.14,0.001-0.21,0.001C45.181,111.891,35.875,102.679,35.796,91.251z M48.097,91.303
	c-0.047,4.701,3.725,8.55,8.426,8.597s8.55-3.725,8.597-8.426s-3.725-8.55-8.426-8.597c-0.028,0-0.057,0-0.085,0
	C51.932,82.854,48.122,86.626,48.097,91.303z M100.951,103.159c-6.542-4.607-8.111-13.645-3.504-20.188
	c0.051-0.072,0.102-0.143,0.154-0.214c2.242-3.19,5.693-5.321,9.549-5.897c3.872-0.632,7.837,0.299,11.024,2.587
	c6.558,4.634,8.118,13.707,3.484,20.265c-0.022,0.031-0.043,0.061-0.065,0.092c-2.829,3.822-7.301,6.078-12.056,6.085
	C106.458,105.91,103.452,104.955,100.951,103.159z M108.773,86.99c-2.341,0.364-3.944,2.557-3.581,4.898
	c0.178,1.148,0.815,2.175,1.763,2.845c1.95,1.359,4.626,0.928,6.051-0.974c1.379-1.926,0.938-4.605-0.986-5.988
	c-0.732-0.524-1.606-0.814-2.507-0.832c-0.308,0.028-0.501,0.08-0.746,0.08L108.773,86.99z M150.894,69.75
	c-0.113-10.924,8.651-19.872,19.575-19.985s19.872,8.651,19.985,19.575s-8.651,19.872-19.575,19.985
	c-0.068,0.001-0.136,0.001-0.204,0.001c-10.852,0.041-19.696-8.696-19.787-19.548L150.894,69.75z M163.194,69.75
	c-0.041,4.131,3.275,7.513,7.406,7.554c4.131,0.041,7.513-3.275,7.554-7.406s-3.275-7.513-7.406-7.554c-0.025,0-0.049,0-0.074,0
	c-4.112,0.006-7.452,3.323-7.486,7.435L163.194,69.75z M8.198,59.91C8.104,51.05,15.21,43.791,24.07,43.697
	s16.119,7.012,16.214,15.872c0.094,8.86-7.012,16.119-15.872,16.214c-0.059,0.001-0.117,0.001-0.176,0.001
	c-8.804,0.05-15.984-7.041-16.044-15.844L8.198,59.91z M19.223,59.91c0.022,2.76,2.254,4.992,5.014,5.014
	c2.753,0.019,5-2.198,5.019-4.951c0-0.004,0-0.008,0-0.011c-0.022-2.763-2.256-4.998-5.019-5.019
	c-2.75-0.022-4.997,2.19-5.019,4.939c0,0.019,0,0.038,0,0.057L19.223,59.91z M115.764,66.901c-7.826-5.56-9.662-16.412-4.102-24.238
	c0.038-0.053,0.075-0.106,0.114-0.158c5.746-7.807,16.683-9.58,24.601-3.988c3.782,2.686,6.333,6.772,7.087,11.349
	c0.774,4.575-0.344,9.268-3.099,13.001c-2.739,3.774-6.86,6.312-11.463,7.059c-0.959,0.155-1.929,0.237-2.9,0.245
	C122.332,70.171,118.754,69.028,115.764,66.901z M121.723,49.564c-0.839,1.113-1.179,2.524-0.94,3.897
	c0.283,1.388,1.073,2.621,2.216,3.458c2.356,1.714,5.656,1.194,7.37-1.162c0.012-0.017,0.025-0.034,0.037-0.051
	c1.699-2.324,1.192-5.586-1.132-7.285c-0.033-0.024-0.065-0.047-0.098-0.07c-0.913-0.627-1.992-0.966-3.099-0.974
	c-1.719-0.003-3.338,0.809-4.364,2.188h0.01V49.564z M50.455,42.767c-0.151-12.9,10.184-23.48,23.084-23.631
	c12.9-0.151,23.48,10.184,23.631,23.084S86.986,65.7,74.086,65.851c-0.091,0.001-0.181,0.002-0.272,0.002
	C60.998,65.906,50.553,55.583,50.455,42.767z M62.807,42.767c-0.066,6.088,4.816,11.077,10.904,11.143
	c6.088,0.066,11.077-4.816,11.143-10.904S80.038,31.929,73.95,31.863c-0.04-0.001-0.079-0.001-0.119-0.001
	c-6.048-0.041-10.983,4.828-11.024,10.876C62.807,42.748,62.807,42.758,62.807,42.767z"/>
</svg>
