<?xml version="1.0" encoding="iso-8859-1"?>
<!-- Generator: Adobe Illustrator 25.0.0, SVG Export Plug-In . SVG Version: 6.00 Build 0)  -->
<svg version="1.1" id="&#x56FE;&#x5C42;_1" xmlns="http://www.w3.org/2000/svg" xmlns:xlink="http://www.w3.org/1999/xlink" x="0px"
	 y="0px" viewBox="0 0 200 200" style="enable-background:new 0 0 200 200;" xml:space="preserve">
<path id="&#x6C28;&#x6C2E;" style="fill:#2EDCFF;" d="M120.834,141.549H17.075c-5.142-0.363-9.016-4.825-8.654-9.967
	c0.327-4.637,4.017-8.326,8.654-8.653h103.777c4.963,0.157,8.86,4.308,8.703,9.271c0,0.013-0.001,0.026-0.001,0.039
	c0.1,4.948-3.758,9.075-8.701,9.31H120.834z M166.661,178.674H92.178c-5.142,0-9.31-4.168-9.31-9.311c0-5.142,4.168-9.31,9.31-9.31
	h74.465c5.142,0,9.31,4.168,9.31,9.31s-4.168,9.311-9.31,9.311H166.661z M54.96,178.674H36.27c-5.142,0-9.31-4.168-9.31-9.311
	c0-5.142,4.168-9.31,9.31-9.31h18.673c5.142,0,9.31,4.168,9.31,9.31s-4.168,9.311-9.31,9.311H54.96z M48.121,79.063V22h15.413
	v83.265h-19.12L23.786,46.903v58.362H8.373V22.011h19.433L48.121,79.063z M85.681,22v31.835h19.647V22h16.822v83.265h-16.822V68.343
	H85.664v37.032H68.841V22.011L85.681,22z M147.75,69.207c0.824,1.717,2.679,2.687,4.559,2.384c1.049,0.015,2.088-0.207,3.04-0.65
	c0.732-0.405,1.335-1.008,1.74-1.74c0.465-0.83,0.725-1.758,0.76-2.709c0.108-1.08,0.108-2.168,0-3.248
	c0.108-1.117,0.108-2.242,0-3.359c-0.113-0.999-0.448-1.96-0.98-2.813c-0.489-0.833-1.205-1.509-2.065-1.949
	c-1.085-0.521-2.277-0.781-3.48-0.76h-3.48v-6.822h3.48c0.994,0.018,1.974-0.245,2.825-0.76c0.766-0.44,1.402-1.074,1.845-1.839
	c0.5-0.79,0.832-1.675,0.975-2.599c0.109-1.008,0.109-2.026,0-3.034c0.169-1.823-0.25-3.652-1.195-5.221
	c-0.964-1.066-2.367-1.625-3.8-1.514c-0.935-0.042-1.867,0.143-2.715,0.54c-0.701,0.41-1.267,1.014-1.63,1.74
	c-0.402,0.816-0.659,1.695-0.76,2.599c-0.109,1.117-0.109,2.242,0,3.359h-9.641c-1.013-7.415,4.178-14.247,11.593-15.26
	c1.196-0.163,2.409-0.166,3.606-0.008c3.924-0.25,7.809,0.901,10.964,3.248c2.802,2.564,4.248,6.288,3.91,10.07
	c0.052,2.586-0.707,5.124-2.17,7.257c-1.377,1.918-3.436,3.236-5.754,3.684c2.922,0.202,5.595,1.713,7.274,4.113
	c1.475,2.444,2.191,5.27,2.059,8.121c-0.002,1.823-0.22,3.64-0.65,5.412c-0.423,1.858-1.32,3.575-2.605,4.983
	c-1.429,1.619-3.217,2.881-5.221,3.684c-2.819,1.008-5.801,1.484-8.794,1.404c-4.177,0.3-8.284-1.196-11.288-4.113
	c-2.707-3.232-4.033-7.4-3.689-11.602h10.093c0.045,2.498,0.447,4.977,1.195,7.361L147.75,69.207z M194,51.358h-20.628v-8.661H194
	V51.358z M162.409,97.805v6.497c1.314-2.59,3.399-4.709,5.969-6.062c2.561-1.28,5.385-1.947,8.249-1.949
	c3.863-0.245,7.661,1.083,10.529,3.684c2.698,3.44,4.013,7.764,3.689,12.124v41.256h-14.647v-38.35
	c0.209-2.136-0.328-4.278-1.52-6.062c-1.221-1.217-2.928-1.815-4.641-1.624c-2.301-0.074-4.507,0.925-5.969,2.703
	c-1.429,1.796-1.914,4.168-1.305,6.381v36.922h-14.682V97.781L162.409,97.805z"/>
</svg>
