<?xml version="1.0" encoding="iso-8859-1"?>
<!-- Generator: Adobe Illustrator 25.0.0, SVG Export Plug-In . SVG Version: 6.00 Build 0)  -->
<svg version="1.1" id="&#x56FE;&#x5C42;_1" xmlns="http://www.w3.org/2000/svg" xmlns:xlink="http://www.w3.org/1999/xlink" x="0px"
	 y="0px" viewBox="0 0 200 200" style="enable-background:new 0 0 200 200;" xml:space="preserve">
<path id="&#x603B;&#x6C2E;" style="fill:#2EDCFF;" d="M193.857,132.053c-1.516,2.585-4.293,4.17-7.29,4.16h-25
	c-2.994,0.006-5.765-1.578-7.28-4.16c-1.509-2.55-1.509-5.72,0-8.27c1.515-2.582,4.286-4.166,7.28-4.16h25
	c2.996-0.004,5.769,1.579,7.29,4.16C195.366,126.333,195.366,129.503,193.857,132.053z M117.237,58.403v41.76h-15.84v-76.06h15.74
	l20.53,42.07v-42.07h15.88v76.06h-15.88L117.237,58.403z M76.487,100.163h-16.86v-57.24h-17.17v-18.82h51.19v18.79h-17.16V100.163z
	 M141.197,127.943c-0.028,4.595-3.775,8.298-8.37,8.27l0,0H13.317c-4.57,0.159-8.404-3.417-8.563-7.987
	c-0.159-4.57,3.417-8.404,7.987-8.563c0.192-0.007,0.384-0.007,0.575,0h119.43c4.609-0.033,8.376,3.671,8.42,8.28
	C141.166,127.943,141.197,127.943,141.197,127.943z M33.557,156.153h25c4.562-0.224,8.442,3.292,8.666,7.854
	s-3.292,8.442-7.854,8.666c-0.127,0.006-0.254,0.01-0.382,0.01h-25.43c-2.226-0.007-4.36-0.882-5.95-2.44
	c-1.573-1.532-2.46-3.634-2.46-5.83c0.044-4.608,3.812-8.309,8.42-8.27L33.557,156.153z M89.147,156.153h81.06
	c4.562-0.223,8.441,3.294,8.664,7.856s-3.294,8.441-7.856,8.664c-0.119,0.006-0.239,0.009-0.358,0.01h-81.5
	c-2.243,0.006-4.398-0.87-6-2.44c-1.573-1.532-2.46-3.634-2.46-5.83c0.049-4.605,3.814-8.303,8.42-8.27L89.147,156.153z"/>
</svg>
