<?xml version="1.0" encoding="iso-8859-1"?>
<!-- Generator: Adobe Illustrator 25.0.0, SVG Export Plug-In . SVG Version: 6.00 Build 0)  -->
<svg version="1.1" id="&#x56FE;&#x5C42;_1" xmlns="http://www.w3.org/2000/svg" xmlns:xlink="http://www.w3.org/1999/xlink" x="0px"
	 y="0px" viewBox="0 0 200 200" style="enable-background:new 0 0 200 200;" xml:space="preserve">
<path id="&#x5929;&#x7136;&#x6C14;" style="fill:#2EDCFF;" d="M122.337,169.117c-9.304-3.787-15.387-12.833-15.385-22.878v-0.645
	c0.399-3.502,3.561-6.018,7.064-5.619c2.915,0.332,5.227,2.608,5.607,5.517l0.039,0.637c0.007,6.63,5.302,12.045,11.931,12.198
	h0.244c6.676,0.056,12.132-5.311,12.188-11.987c0.055-6.479-5.009-11.848-11.48-12.174h-0.787H20.564
	c-2.263-0.003-4.358-1.199-5.509-3.148c-1.125-1.948-1.125-4.348,0-6.296c1.149-1.951,3.244-3.149,5.509-3.148h111.249
	c10.056-0.033,19.143,5.996,23.02,15.275c3.873,9.257,1.73,19.939-5.414,26.986c-4.666,4.656-10.99,7.268-17.581,7.264
	C128.571,171.063,125.345,170.389,122.337,169.117z M11.372,106.504c-3.497,0-6.331-2.835-6.331-6.331
	c0-3.497,2.834-6.331,6.331-6.331h158.366c6.562-0.417,11.605-5.973,11.388-12.545c-0.385-6.549-5.827-11.652-12.387-11.616
	c-6.589,0.144-11.873,5.497-11.931,12.088v0.645c-0.382,3.5-3.53,6.027-7.029,5.644c-2.937-0.321-5.268-2.618-5.633-5.55
	l-0.039-0.63c-0.165-13.777,10.869-25.08,24.647-25.245c13.777-0.165,25.079,10.87,25.245,24.647
	c0.164,13.777-10.87,25.08-24.647,25.245c-0.112,0.001-0.224,0.002-0.336,0.002L11.372,106.504z M20.643,78.865
	c-2.264,0.001-4.36-1.197-5.509-3.148c-1.125-1.948-1.125-4.348,0-6.296c1.149-1.951,3.244-3.149,5.509-3.148h79.572
	c6.56-0.425,11.6-5.975,11.396-12.545c-0.381-6.559-5.834-11.669-12.403-11.624c-6.591,0.14-11.877,5.496-11.931,12.088v0.653
	c-0.399,3.502-3.561,6.018-7.064,5.619c-2.915-0.332-5.227-2.608-5.607-5.517v-0.653c-0.152-13.773,10.89-25.061,24.663-25.214
	c13.773-0.152,25.061,10.89,25.214,24.663c0.152,13.773-10.89,25.061-24.663,25.214c-0.102,0.001-0.204,0.002-0.305,0.002
	L20.643,78.865z"/>
</svg>
