<?xml version="1.0" encoding="iso-8859-1"?>
<!-- Generator: Adobe Illustrator 25.0.0, SVG Export Plug-In . SVG Version: 6.00 Build 0)  -->
<svg version="1.1" id="&#x56FE;&#x5C42;_1" xmlns="http://www.w3.org/2000/svg" xmlns:xlink="http://www.w3.org/1999/xlink" x="0px"
	 y="0px" viewBox="0 0 200 200" style="enable-background:new 0 0 200 200;" xml:space="preserve">
<path id="&#x5F62;&#x72B6;_20" style="fill:#2EDCFF;" d="M166.782,29.159l-9.048,9.408c29.972,35.166,29.972,86.892,0,122.058
	l9.322,9.573c34.686-37.241,34.591-103.954-0.282-141.008L166.782,29.159z M145.613,51.049l-9.408,9.667
	c18.254,22.708,18.293,55.047,0.094,77.799l9.322,9.573c23.318-28.144,23.318-68.895,0-97.039
	C145.621,51.049,145.613,51.049,145.613,51.049z M41.752,38.504l-9.04-9.408c-34.866,37.053-34.96,103.766-0.188,141.007
	l9.322-9.573c-29.999-35.143-30.039-86.869-0.094-122.058C41.752,38.472,41.752,38.504,41.752,38.504z M53.873,51.049
	c-23.318,28.144-23.318,68.895,0,97.039l9.322-9.573c-18.199-22.753-18.16-55.091,0.094-77.799L53.873,51.049z M99.653,68.768
	C82.539,68.279,68.268,81.756,67.779,98.87s12.988,31.385,30.102,31.874s31.384-12.988,31.874-30.102
	c0.008-0.294,0.013-0.587,0.013-0.881C129.973,82.901,116.511,69.047,99.653,68.768z"/>
</svg>
