<?xml version="1.0" encoding="iso-8859-1"?>
<!-- Generator: Adobe Illustrator 25.0.0, SVG Export Plug-In . SVG Version: 6.00 Build 0)  -->
<svg version="1.1" id="&#x56FE;&#x5C42;_1" xmlns="http://www.w3.org/2000/svg" xmlns:xlink="http://www.w3.org/1999/xlink" x="0px"
	 y="0px" viewBox="0 0 200 200" style="enable-background:new 0 0 200 200;" xml:space="preserve">
<path id="&#x70B9;&#x4F4D;&#x6570;" style="fill:#2EDCFF;" d="M97.603,177.413l-9.336-19.669H16.622
	c-4.892,0.014-8.966-3.751-9.336-8.63V42.571c0.028-4.921,3.989-8.916,8.91-8.986H185.09c4.929,0.073,8.891,4.08,8.91,9.009v106.135
	c-0.015,4.931-3.979,8.942-8.91,9.015h-71.692l-9.336,19.669c-0.677,1.174-1.888,1.939-3.238,2.048
	C99.417,179.561,98.11,178.729,97.603,177.413z M17.007,147.498h167.278V44.642H17.007V147.498z M121.905,96.274
	c-0.2-10.661,8.28-19.466,18.942-19.666c0.167-0.003,0.333-0.004,0.5-0.003c10.865-0.129,19.778,8.575,19.907,19.44
	s-8.575,19.778-19.44,19.907s-19.778-8.575-19.907-19.44C121.906,96.433,121.905,96.354,121.905,96.274z M67.641,109.385V82.749
	c0.087-2.216,1.311-4.23,3.238-5.327c1.837-1.231,4.237-1.231,6.074,0c1.927,1.097,3.152,3.111,3.238,5.327v26.636
	c-0.384,3.35-3.116,5.943-6.482,6.15c-3.337-0.105-6.007-2.806-6.074-6.144L67.641,109.385z M42.937,109.385V82.749
	c0.087-2.216,1.311-4.23,3.238-5.327c1.837-1.231,4.237-1.231,6.074,0c1.927,1.097,3.152,3.111,3.238,5.327v26.636
	c-0.384,3.35-3.116,5.943-6.482,6.15c-3.34-0.102-6.013-2.804-6.08-6.144L42.937,109.385z"/>
</svg>
