<?xml version="1.0" encoding="iso-8859-1"?>
<!-- Generator: Adobe Illustrator 25.0.0, SVG Export Plug-In . SVG Version: 6.00 Build 0)  -->
<svg version="1.1" id="&#x56FE;&#x5C42;_1" xmlns="http://www.w3.org/2000/svg" xmlns:xlink="http://www.w3.org/1999/xlink" x="0px"
	 y="0px" viewBox="0 0 200 200" style="enable-background:new 0 0 200 200;" xml:space="preserve">
<g>
	
		<linearGradient id="SVGID_1_" gradientUnits="userSpaceOnUse" x1="154.6355" y1="90.4821" x2="27.5315" y2="8.9152" gradientTransform="matrix(1 0 0 1 0 102)">
		<stop  offset="0" style="stop-color:#2856DD"/>
		<stop  offset="1" style="stop-color:#2752D5"/>
	</linearGradient>
	<polygon style="fill:url(#SVGID_1_);" points="19.167,150.416 19.238,134.93 86.946,111.985 138.201,137.067 138.315,152.47 
		79.629,185.782 	"/>
	
		<linearGradient id="SVGID_2_" gradientUnits="userSpaceOnUse" x1="79.629" y1="59.244" x2="138.315" y2="59.244" gradientTransform="matrix(1 0 0 1 0 102)">
		<stop  offset="0" style="stop-color:#2E60FF"/>
		<stop  offset="1" style="stop-color:#3B67FC"/>
	</linearGradient>
	<polygon style="fill:url(#SVGID_2_);" points="79.629,185.782 79.629,168.791 134.466,136.706 138.201,137.067 138.315,152.47 	"/>
	<polygon style="fill:#41BBEB;" points="19.238,134.93 77.339,106.384 138.201,137.067 79.629,170.396 	"/>
	
		<radialGradient id="SVGID_3_" cx="78.7195" cy="36.39" r="47.7621" gradientTransform="matrix(1 0 0 1 0 102)" gradientUnits="userSpaceOnUse">
		<stop  offset="0" style="stop-color:#00BCD1"/>
		<stop  offset="1" style="stop-color:#2F61FF"/>
	</radialGradient>
	<polygon style="fill:url(#SVGID_3_);" points="19.238,134.93 77.339,106.384 138.201,137.067 79.629,170.396 	"/>
	
		<linearGradient id="SVGID_4_" gradientUnits="userSpaceOnUse" x1="170.8672" y1="57.2982" x2="16.5839" y2="-41.7058" gradientTransform="matrix(1 0 0 1 0 102)">
		<stop  offset="0" style="stop-color:#2856DD"/>
		<stop  offset="1" style="stop-color:#2752D5"/>
	</linearGradient>
	<polygon style="fill:url(#SVGID_4_);" points="138.315,130.585 79.626,163.893 68.781,157.547 26.847,133.021 19.17,128.53 
		19.238,69.623 86.942,42.293 138.201,71.76 	"/>
	<path style="fill:#0B2C8C;" d="M135.804,78.017c-0.434,0.292-0.706,0.77-0.735,1.291c0,0.471,0.328,0.664,0.735,0.428
		c0.435-0.291,0.707-0.769,0.735-1.291C136.539,77.97,136.207,77.778,135.804,78.017z"/>
	<path style="fill:#0B2C8C;" d="M135.804,81.966c-0.434,0.291-0.706,0.769-0.735,1.291c0,0.467,0.328,0.66,0.735,0.424
		c0.436-0.288,0.708-0.766,0.735-1.288C136.539,81.916,136.207,81.723,135.804,81.966z"/>
	<path style="fill:#0B2C8C;" d="M82.476,108.453c-0.434,0.292-0.706,0.77-0.735,1.291c0,0.471,0.328,0.664,0.735,0.428
		c0.435-0.291,0.707-0.769,0.735-1.291C83.211,108.421,82.879,108.214,82.476,108.453z"/>
	<path style="fill:#0B2C8C;" d="M82.476,112.402c-0.434,0.291-0.706,0.769-0.735,1.291c0,0.467,0.328,0.66,0.735,0.424
		c0.436-0.289,0.709-0.769,0.735-1.291C83.211,112.345,82.879,112.16,82.476,112.402z"/>
	<path style="fill:#0B2C8C;" d="M77.425,107.24c0.432,0.293,0.704,0.77,0.735,1.291c0,0.471-0.332,0.664-0.735,0.428
		c-0.437-0.289-0.711-0.768-0.738-1.291C76.686,107.194,77.018,106.994,77.425,107.24z"/>
	<path style="fill:#0B2C8C;" d="M77.425,111.189c0.432,0.293,0.704,0.77,0.735,1.291c0,0.467-0.332,0.66-0.735,0.428
		c-0.437-0.289-0.711-0.768-0.738-1.291C76.686,111.139,77.018,110.947,77.425,111.189z"/>
	<path style="fill:#0B2C8C;" d="M77.425,152.952c0.432,0.293,0.704,0.77,0.735,1.291c0,0.471-0.332,0.66-0.735,0.428
		c-0.437-0.289-0.711-0.768-0.738-1.291C76.686,152.902,77.018,152.713,77.425,152.952z"/>
	<path style="fill:#0B2C8C;" d="M77.425,156.901c0.434,0.292,0.706,0.77,0.735,1.291c0,0.467-0.332,0.66-0.735,0.424
		c-0.437-0.289-0.712-0.768-0.738-1.291C76.686,156.851,77.018,156.658,77.425,156.901z"/>
	<path style="fill:#0B2C8C;" d="M135.975,122.69c-0.434,0.291-0.706,0.769-0.735,1.291c0,0.467,0.328,0.66,0.735,0.424
		c0.436-0.289,0.709-0.769,0.735-1.291C136.71,122.637,136.378,122.444,135.975,122.69z"/>
	<path style="fill:#0B2C8C;" d="M135.975,126.636c-0.434,0.29-0.706,0.767-0.735,1.288c0,0.471,0.328,0.664,0.735,0.428
		c0.435-0.291,0.707-0.769,0.735-1.291C136.71,126.586,136.378,126.393,135.975,126.636z"/>
	<path style="fill:#0B2C8C;" d="M82.647,153.123c-0.434,0.291-0.706,0.769-0.735,1.291c0,0.467,0.328,0.66,0.735,0.424
		c0.436-0.289,0.709-0.769,0.735-1.291C83.382,153.073,83.05,152.881,82.647,153.123z"/>
	<path style="fill:#0B2C8C;" d="M82.647,157.069c-0.435,0.292-0.707,0.772-0.735,1.295c0,0.471,0.328,0.664,0.735,0.428
		c0.435-0.291,0.707-0.769,0.735-1.291C83.382,157.022,83.05,156.83,82.647,157.069z"/>
	<g style="opacity:0.3;">
		<path style="fill:#FFFFFF;" d="M65.035,149.891l-23.527-13.584v-7.135l23.544,13.584L65.035,149.891z M41.865,136.1l22.831,13.171
			v-6.296l-22.813-13.171L41.865,136.1z"/>
	</g>
	<g style="opacity:0.3;">
		<path style="fill:#FFFFFF;" d="M72.848,154.365l-6.503-3.756v-7.73l6.503,3.756V154.365z M66.701,150.405l5.79,3.343v-6.91
			l-5.79-3.343V150.405z"/>
	</g>
	
		<linearGradient id="SVGID_5_" gradientUnits="userSpaceOnUse" x1="79.629" y1="15.646" x2="138.315" y2="15.646" gradientTransform="matrix(1 0 0 1 0 102)">
		<stop  offset="0" style="stop-color:#2E60FF"/>
		<stop  offset="1" style="stop-color:#3B67FC"/>
	</linearGradient>
	<polygon style="fill:url(#SVGID_5_);" points="79.629,163.896 79.629,103.484 134.466,71.396 138.201,71.76 138.315,130.585 	"/>
	
		<radialGradient id="SVGID_6_" cx="114.0254" cy="23.7546" r="17.8973" gradientTransform="matrix(1 0 0 1 0 102)" gradientUnits="userSpaceOnUse">
		<stop  offset="0" style="stop-color:#0633BA"/>
		<stop  offset="1" style="stop-color:#1E51FC"/>
	</radialGradient>
	<polyline style="fill:url(#SVGID_6_);" points="89.407,158.303 89.407,135.372 130.157,111.885 130.157,135.13 	"/>
	<polygon style="fill:#41BBEB;" points="19.238,69.623 77.339,36.693 138.201,71.76 79.629,105.086 	"/>
	<polygon style="fill:#538FFF;" points="19.238,69.623 77.339,36.693 138.201,71.76 79.629,105.086 	"/>
	
		<linearGradient id="SVGID_7_" gradientUnits="userSpaceOnUse" x1="41.701" y1="-31.111" x2="115.738" y2="-31.111" gradientTransform="matrix(1 0 0 1 0 102)">
		<stop  offset="0" style="stop-color:#2E60FF"/>
		<stop  offset="1" style="stop-color:#3B67FC"/>
	</linearGradient>
	<polygon style="fill:url(#SVGID_7_);" points="115.738,71.431 79.287,92.172 78.006,91.423 41.701,70.101 77.86,49.606 
		78.006,49.692 	"/>
	
		<linearGradient id="SVGID_8_" gradientUnits="userSpaceOnUse" x1="41.701" y1="-31.4855" x2="78.006" y2="-31.4855" gradientTransform="matrix(1 0 0 1 0 102)">
		<stop  offset="0" style="stop-color:#2856DD"/>
		<stop  offset="1" style="stop-color:#2752D5"/>
	</linearGradient>
	<polygon style="fill:url(#SVGID_8_);" points="78.006,49.692 78.006,91.423 41.701,70.101 77.86,49.606 	"/>
	<path style="fill:#0B2C8C;" d="M30.586,86.974c-0.81-0.461-1.84-0.178-2.301,0.632c-0.145,0.255-0.222,0.544-0.221,0.838v28.474
		c0.001,1.212,0.658,2.328,1.716,2.918l36.694,20.862c0.814,0.449,1.838,0.153,2.288-0.661c0.137-0.249,0.209-0.528,0.209-0.812
		v-28.086c0.002-1.201-0.643-2.311-1.687-2.904L30.586,86.974z"/>
	<path style="fill:#151936;" d="M67.222,112.06c-0.002-1.14-0.609-2.194-1.595-2.768L31.381,89.464
		c-0.502-0.282-1.137-0.104-1.418,0.398c-0.086,0.153-0.132,0.325-0.133,0.501v25.621c-0.001,1.148,0.611,2.209,1.605,2.783
		l34.289,19.488c0.481,0.274,1.093,0.106,1.367-0.375c0.086-0.152,0.132-0.324,0.131-0.499
		C67.222,137.381,67.222,112.06,67.222,112.06z"/>
	<g>
		<g>
			<defs>
				<path id="SVGID_9_" d="M89.404,158.442V135.39l46.967-27.162v22.742l-0.075,0.043l0.357,0.021l15.921,5.066l27.875,11.751
					c0,0,5.59,20.334,5.551,20.498s-3.567,7.848-4.334,7.941c-0.767,0.093-40.475,21.19-40.921,21.19
					c-0.446,0-15.843-7.456-16.367-7.698S90.06,173.414,90.06,173.414l-7.224-8.986l-0.567-1.823L89.404,158.442z"/>
			</defs>
			<clipPath id="SVGID_10_">
				<use xlink:href="#SVGID_9_"  style="overflow:visible;"/>
			</clipPath>
			<g style="clip-path:url(#SVGID_10_);">
				<path style="fill:#124891;" d="M132.336,183.06c0.104-0.054,0.204-0.115,0.3-0.182L132.336,183.06z"/>
				<path style="fill:#C4D0E8;" d="M63.159,144.875l65.489,37.814c3.211,1.859,5.822-0.114,5.822-4.402l0,0
					c0-4.281-2.608-9.275-5.822-11.123L63.159,129.35V144.875z"/>
				
					<linearGradient id="SVGID_11_" gradientUnits="userSpaceOnUse" x1="-263.7274" y1="-1138.0802" x2="-264.7262" y2="-1134.199" gradientTransform="matrix(-1 0 0 1 43.59 2109.1201)">
					<stop  offset="0.01" style="stop-color:#6589B1"/>
					<stop  offset="1" style="stop-color:#6589B1;stop-opacity:0"/>
				</linearGradient>
				<path style="opacity:0.4;fill:url(#SVGID_11_);enable-background:new    ;" d="M63.159,129.351v15.525l65.485,37.814
					c2.736,1.58,5.037,0.389,5.658-2.647c0.116-0.578,0.172-1.166,0.168-1.755c-0.052-2.261-0.636-4.478-1.705-6.471
					c-1.052-2.016-2.497-3.724-4.12-4.638l-2.419-1.398L63.159,129.351z"/>
				<path style="fill:#B1C3DF;" d="M123.614,167.246l3.186,7.591l4.591,7.213l2.911-2.012c0.116-0.578,0.172-1.166,0.168-1.755
					c-0.052-2.261-0.636-4.478-1.705-6.471c-1.052-2.016-2.497-3.724-4.12-4.638l-2.419-1.398L123.614,167.246z"/>
				<path style="fill:#FFFCFF;" d="M127.638,167.796c3.211,1.909,5.829,6.514,5.829,10.231c0,3.717-2.622,5.237-5.829,3.378
					c-3.207-1.859-5.825-6.464-5.825-10.231C121.813,167.407,124.435,165.883,127.638,167.796"/>
				<path style="fill:#D8E6FF;" d="M127.638,171.424c1.495,0.888,2.715,3.032,2.715,4.762s-1.22,2.436-2.715,1.573
					s-2.711-3.007-2.711-4.762S126.147,170.535,127.638,171.424"/>
				<path style="fill:#B1C3DF;" d="M127.717,173.225c0.822,0.496,1.354,1.358,1.427,2.315c0,0.842-0.642,1.188-1.427,0.767
					c-0.829-0.491-1.363-1.358-1.427-2.319C126.29,173.136,126.928,172.793,127.717,173.225"/>
				<path style="fill:#FFFCFF;" d="M127.638,173.207c0.699,0.467,1.138,1.236,1.184,2.076c0,0.753-0.532,1.07-1.184,0.685
					c-0.699-0.467-1.137-1.236-1.181-2.076C126.458,173.125,126.989,172.822,127.638,173.207"/>
				<path style="fill:#B1C3DF;" d="M90.866,148.322l3.186,7.591l4.591,7.217l13.356-8.822c0.114-0.578,0.17-1.166,0.168-1.755
					c-0.052-2.263-0.637-4.481-1.709-6.475c-1.07-2.012-12.953,3.086-14.558,2.14l-2.419-1.395L90.866,148.322z"/>
				<path style="fill:#FFFCFF;" d="M94.89,148.871c3.211,1.912,5.829,6.518,5.829,10.231c0,3.714-2.622,5.237-5.829,3.382
					s-5.825-6.464-5.825-10.235S91.687,146.959,94.89,148.871"/>
				<path style="fill:#D8E6FF;" d="M94.89,152.499c1.495,0.892,2.715,3.036,2.715,4.766c0,1.73-1.22,2.436-2.715,1.57
					s-2.711-3.007-2.711-4.762S93.399,151.611,94.89,152.499"/>
				<path style="fill:#B1C3DF;" d="M94.969,154.3c0.823,0.497,1.354,1.361,1.427,2.319c0,0.842-0.642,1.184-1.427,0.763
					c-0.828-0.489-1.362-1.355-1.427-2.315C93.542,154.215,94.18,153.869,94.969,154.3"/>
				<path style="fill:#FFFCFF;" d="M94.89,154.283c0.697,0.469,1.136,1.237,1.184,2.076c0,0.756-0.532,1.07-1.184,0.685
					c-0.701-0.465-1.139-1.236-1.181-2.076C93.709,154.204,94.241,153.897,94.89,154.283"/>
				<path style="fill:#B1C3DF;" d="M106.366,157.504l3.186,7.588l4.591,7.217l13.356-8.818c0.114-0.579,0.17-1.168,0.168-1.759
					c-0.052-2.262-0.637-4.479-1.709-6.471c-1.07-2.016-12.953,3.082-14.558,2.14l-2.419-1.395L106.366,157.504z"/>
				<path style="fill:#FFFCFF;" d="M110.39,158.05c3.211,1.912,5.829,6.518,5.829,10.235s-2.622,5.237-5.829,3.378
					s-5.825-6.464-5.825-10.231S107.187,156.141,110.39,158.05"/>
				<path style="fill:#D8E6FF;" d="M110.39,161.681c1.495,0.888,2.715,3.032,2.715,4.762s-1.22,2.436-2.715,1.573
					c-1.495-0.863-2.711-3.011-2.711-4.762S108.899,160.789,110.39,161.681"/>
				<path style="fill:#B1C3DF;" d="M110.469,163.483c0.823,0.495,1.355,1.358,1.427,2.315c0,0.842-0.642,1.188-1.427,0.767
					c-0.828-0.491-1.362-1.358-1.427-2.319C109.042,163.393,109.68,163.047,110.469,163.483"/>
				<path style="fill:#FFFCFF;" d="M110.39,163.461c0.698,0.47,1.137,1.239,1.184,2.08c0,0.753-0.532,1.07-1.184,0.685
					c-0.699-0.467-1.137-1.236-1.181-2.076C109.209,163.383,109.741,163.08,110.39,163.461"/>
				<path style="fill:#CFDFFD;" d="M69.102,132.786l59.542,34.375c1.609,0.928,3.068,2.636,4.12,4.638
					c1.069,1.993,1.653,4.21,1.705,6.471c0,2.23-0.713,3.831-1.834,4.595c9.771-5.8,34.792-19.977,34.792-19.977l0,0
					c1.284-0.681,2.105-2.354,2.105-4.759c-0.053-2.262-0.637-4.48-1.705-6.475c-1.07-2.012-2.497-3.721-4.117-4.638l-65.489-37.814
					l-5.458,4.252L69.102,132.786z"/>
				
					<linearGradient id="SVGID_12_" gradientUnits="userSpaceOnUse" x1="-95.6665" y1="-1935.7887" x2="-88.5283" y2="-1946.5798" gradientTransform="matrix(-1 0 0 1 43.59 2109.1201)">
					<stop  offset="0" style="stop-color:#FFFCFF;stop-opacity:0"/>
					<stop  offset="0.43" style="stop-color:#FFFCFF"/>
					<stop  offset="1" style="stop-color:#FFFCFF;stop-opacity:0"/>
				</linearGradient>
				<path style="fill:url(#SVGID_12_);" d="M69.427,132.964l59.218,34.004c1.609,0.927,3.068,2.636,4.12,4.638
					c1.069,1.993,1.653,4.21,1.705,6.471c0,2.23-0.713,3.831-1.834,4.595c9.771-5.8,34.792-19.977,34.792-19.977l0,0
					c1.284-0.678,2.105-2.354,2.105-4.755c-0.052-2.262-0.636-4.48-1.705-6.475c-1.07-2.016-2.497-3.724-4.117-4.638l-65.489-37.814
					l-5.151,4.62L69.427,132.964z"/>
				
					<linearGradient id="SVGID_13_" gradientUnits="userSpaceOnUse" x1="-56.0952" y1="-1989.0021" x2="-75.6477" y2="-1966.2567" gradientTransform="matrix(-1 0 0 1 43.59 2109.1201)">
					<stop  offset="0" style="stop-color:#50769E"/>
					<stop  offset="1" style="stop-color:#50769E;stop-opacity:0"/>
				</linearGradient>
				<path style="fill:url(#SVGID_13_);" d="M69.181,132.921l59.239,34.004c1.605,0.927,3.064,2.636,4.117,4.638
					c1.069,1.993,1.653,4.21,1.705,6.471c0,2.23-0.713,3.835-1.834,4.598c9.771-5.804,34.792-19.977,34.792-19.977l0,0
					c1.288-0.681,2.105-2.358,2.105-4.759c-0.05-2.262-0.635-4.481-1.705-6.475c-1.052-2.016-2.497-3.724-4.117-4.638L97.994,108.97
					l-5.151,4.638L69.181,132.921z"/>
				
					<line style="opacity:0.9;fill:none;stroke:#E7F2FF;stroke-width:4;stroke-linecap:round;stroke-linejoin:round;enable-background:new    ;" x1="154.468" y1="148" x2="129.846" y2="162.377"/>
				
					<line style="opacity:0.9;fill:none;stroke:#E7F2FF;stroke-width:4;stroke-linecap:round;stroke-linejoin:round;enable-background:new    ;" x1="136.096" y1="136.574" x2="111.471" y2="150.947"/>
				
					<line style="opacity:0.5;fill:none;stroke:#E7F2FF;stroke-width:4;stroke-linecap:round;stroke-linejoin:round;enable-background:new    ;" x1="119.565" y1="126.885" x2="94.94" y2="141.262"/>
			</g>
		</g>
	</g>
	
		<linearGradient id="SVGID_14_" gradientUnits="userSpaceOnUse" x1="88.936" y1="5.861" x2="131.359" y2="5.861" gradientTransform="matrix(1 0 0 1 0 102)">
		<stop  offset="0" style="stop-color:#5CBAF2"/>
		<stop  offset="0.3" style="stop-color:#5EBFF3"/>
		<stop  offset="0.65" style="stop-color:#65CDF5"/>
		<stop  offset="1" style="stop-color:#70E2F9"/>
	</linearGradient>
	<polygon style="fill:url(#SVGID_14_);" points="128.598,103.223 93.87,123.275 91.694,127.802 88.936,126.343 88.936,110.818 
		128.598,87.92 131.359,89.379 	"/>
	
		<linearGradient id="SVGID_15_" gradientUnits="userSpaceOnUse" x1="91.694" y1="6.6105" x2="131.359" y2="6.6105" gradientTransform="matrix(1 0 0 1 0 102)">
		<stop  offset="0" style="stop-color:#89D3FF"/>
		<stop  offset="0.31" style="stop-color:#8ED8FE"/>
		<stop  offset="0.65" style="stop-color:#9CE5FC"/>
		<stop  offset="1" style="stop-color:#B1F9F8"/>
	</linearGradient>
	<polygon style="fill:url(#SVGID_15_);" points="131.359,104.682 91.694,127.842 91.694,112.281 131.359,89.379 	"/>
	<path style="fill:#FFFFFF;" d="M118.188,68.431l-36.99-21.35c-1.642-0.835-3.584-0.835-5.226,0L39.229,68.435
		c-1.427,0.831-1.427,2.194,0.018,3.025L76.23,92.814c1.643,0.831,3.583,0.831,5.226,0l36.743-21.354
		C119.637,70.625,119.63,69.266,118.188,68.431z M105.703,70.572l-25.1,14.587c-1.122,0.566-2.446,0.566-3.567,0L51.761,70.607
		c-0.985-0.567-0.988-1.498,0-2.065l25.1-14.59c1.122-0.566,2.446-0.566,3.567,0l25.264,14.587c0.977,0.553,0.985,1.48,0.004,2.069
		L105.703,70.572z"/>
	
		<linearGradient id="SVGID_16_" gradientUnits="userSpaceOnUse" x1="44.3406" y1="-2023.7405" x2="45.1504" y2="-2103.4451" gradientTransform="matrix(1 0 0 1 33.89 2109.1201)">
		<stop  offset="0" style="stop-color:#15FBFF;stop-opacity:0.9"/>
		<stop  offset="0.13" style="stop-color:#1EEDFF;stop-opacity:0.72"/>
		<stop  offset="0.3" style="stop-color:#28DCFF;stop-opacity:0.5"/>
		<stop  offset="0.46" style="stop-color:#30CFFF;stop-opacity:0.32"/>
		<stop  offset="0.62" style="stop-color:#37C4FF;stop-opacity:0.18"/>
		<stop  offset="0.76" style="stop-color:#3BBCFF;stop-opacity:0.08"/>
		<stop  offset="0.89" style="stop-color:#3EB8FF;stop-opacity:0.02"/>
		<stop  offset="1" style="stop-color:#3FB6FF;stop-opacity:0"/>
	</linearGradient>
	<path style="fill:url(#SVGID_16_);" d="M38.163,69.947V4.569h81.11v65.682c0,0-0.196,1.07-2.918,2.287L81.038,93.024
		c0,0-2.28,1.249-5.604-0.674L39.251,71.46C39.251,71.46,38.163,70.729,38.163,69.947z"/>
</g>
</svg>
