<svg id="Layer_1" data-name="Layer 1" xmlns="http://www.w3.org/2000/svg" xmlns:xlink="http://www.w3.org/1999/xlink" viewBox="0 0 1000 1000"><defs><style>.cls-1{fill:url(#未命名的渐变_242);}.cls-2{fill:#e60012;}.cls-10,.cls-100,.cls-101,.cls-102,.cls-103,.cls-104,.cls-105,.cls-106,.cls-107,.cls-108,.cls-109,.cls-11,.cls-110,.cls-111,.cls-112,.cls-113,.cls-114,.cls-115,.cls-116,.cls-117,.cls-118,.cls-119,.cls-12,.cls-120,.cls-121,.cls-122,.cls-123,.cls-124,.cls-125,.cls-126,.cls-127,.cls-128,.cls-129,.cls-13,.cls-130,.cls-131,.cls-132,.cls-133,.cls-134,.cls-135,.cls-136,.cls-137,.cls-138,.cls-139,.cls-14,.cls-140,.cls-141,.cls-142,.cls-143,.cls-144,.cls-145,.cls-146,.cls-147,.cls-148,.cls-149,.cls-15,.cls-150,.cls-151,.cls-152,.cls-153,.cls-154,.cls-155,.cls-156,.cls-157,.cls-158,.cls-159,.cls-16,.cls-160,.cls-161,.cls-162,.cls-163,.cls-164,.cls-165,.cls-166,.cls-167,.cls-168,.cls-169,.cls-17,.cls-170,.cls-171,.cls-172,.cls-173,.cls-174,.cls-175,.cls-176,.cls-177,.cls-178,.cls-179,.cls-18,.cls-180,.cls-181,.cls-182,.cls-183,.cls-184,.cls-185,.cls-186,.cls-187,.cls-188,.cls-189,.cls-19,.cls-190,.cls-191,.cls-192,.cls-193,.cls-194,.cls-195,.cls-196,.cls-197,.cls-198,.cls-199,.cls-20,.cls-200,.cls-201,.cls-202,.cls-203,.cls-204,.cls-205,.cls-206,.cls-207,.cls-208,.cls-209,.cls-21,.cls-210,.cls-211,.cls-212,.cls-213,.cls-214,.cls-215,.cls-216,.cls-217,.cls-218,.cls-219,.cls-22,.cls-220,.cls-221,.cls-222,.cls-223,.cls-224,.cls-225,.cls-226,.cls-227,.cls-228,.cls-229,.cls-23,.cls-230,.cls-231,.cls-232,.cls-233,.cls-234,.cls-235,.cls-236,.cls-237,.cls-238,.cls-239,.cls-24,.cls-240,.cls-241,.cls-242,.cls-243,.cls-244,.cls-245,.cls-246,.cls-247,.cls-248,.cls-249,.cls-25,.cls-250,.cls-251,.cls-252,.cls-253,.cls-254,.cls-255,.cls-256,.cls-257,.cls-258,.cls-259,.cls-26,.cls-260,.cls-261,.cls-262,.cls-263,.cls-264,.cls-265,.cls-266,.cls-267,.cls-268,.cls-269,.cls-27,.cls-270,.cls-271,.cls-272,.cls-273,.cls-274,.cls-275,.cls-276,.cls-277,.cls-278,.cls-279,.cls-28,.cls-280,.cls-281,.cls-282,.cls-283,.cls-284,.cls-285,.cls-286,.cls-287,.cls-288,.cls-289,.cls-29,.cls-290,.cls-291,.cls-292,.cls-293,.cls-294,.cls-295,.cls-296,.cls-297,.cls-298,.cls-299,.cls-3,.cls-30,.cls-300,.cls-301,.cls-302,.cls-303,.cls-304,.cls-305,.cls-306,.cls-307,.cls-308,.cls-309,.cls-31,.cls-32,.cls-33,.cls-34,.cls-35,.cls-36,.cls-37,.cls-38,.cls-39,.cls-4,.cls-40,.cls-41,.cls-42,.cls-43,.cls-44,.cls-45,.cls-46,.cls-47,.cls-48,.cls-49,.cls-5,.cls-50,.cls-51,.cls-52,.cls-53,.cls-54,.cls-55,.cls-56,.cls-57,.cls-58,.cls-59,.cls-6,.cls-60,.cls-61,.cls-62,.cls-63,.cls-64,.cls-65,.cls-66,.cls-67,.cls-68,.cls-69,.cls-7,.cls-70,.cls-71,.cls-72,.cls-73,.cls-74,.cls-75,.cls-76,.cls-77,.cls-78,.cls-79,.cls-8,.cls-80,.cls-81,.cls-82,.cls-83,.cls-84,.cls-85,.cls-86,.cls-87,.cls-88,.cls-89,.cls-9,.cls-90,.cls-91,.cls-92,.cls-93,.cls-94,.cls-95,.cls-96,.cls-97,.cls-98,.cls-99{fill:none;}.cls-3,.cls-309{stroke:#e60012;}.cls-3{stroke-width:13.42px;}.cls-308,.cls-4{stroke:#e60212;}.cls-4{stroke-width:13.41px;}.cls-307,.cls-5{stroke:#e60613;}.cls-5{stroke-width:13.41px;}.cls-306,.cls-6{stroke:#e60a13;}.cls-6{stroke-width:13.4px;}.cls-305,.cls-7{stroke:#e60e13;}.cls-7{stroke-width:13.39px;}.cls-304,.cls-8{stroke:#e61114;}.cls-8{stroke-width:13.39px;}.cls-303,.cls-9{stroke:#e61414;}.cls-9{stroke-width:13.38px;}.cls-10,.cls-302{stroke:#e61715;}.cls-10{stroke-width:13.38px;}.cls-11,.cls-301{stroke:#e61a15;}.cls-11{stroke-width:13.37px;}.cls-12,.cls-300{stroke:#e61c16;}.cls-12{stroke-width:13.36px;}.cls-13,.cls-299{stroke:#e71f17;}.cls-13{stroke-width:13.36px;}.cls-14,.cls-298{stroke:#e72117;}.cls-14{stroke-width:13.35px;}.cls-15,.cls-297{stroke:#e72318;}.cls-15{stroke-width:13.34px;}.cls-16,.cls-296{stroke:#e72518;}.cls-16{stroke-width:13.34px;}.cls-17,.cls-295{stroke:#e72719;}.cls-17{stroke-width:13.33px;}.cls-18,.cls-294{stroke:#e7291a;}.cls-18{stroke-width:13.32px;}.cls-19,.cls-293{stroke:#e72a1a;}.cls-19{stroke-width:13.32px;}.cls-20,.cls-292{stroke:#e72c1b;}.cls-20{stroke-width:13.31px;}.cls-21,.cls-291{stroke:#e72e1c;}.cls-21{stroke-width:13.31px;}.cls-22,.cls-290{stroke:#e72f1c;}.cls-22{stroke-width:13.3px;}.cls-23,.cls-289{stroke:#e7311d;}.cls-23{stroke-width:13.29px;}.cls-24,.cls-288{stroke:#e8321e;}.cls-24{stroke-width:13.29px;}.cls-25,.cls-287{stroke:#e8341e;}.cls-25{stroke-width:13.28px;}.cls-26,.cls-286{stroke:#e8351f;}.cls-26{stroke-width:13.27px;}.cls-27,.cls-285{stroke:#e8361f;}.cls-27{stroke-width:13.27px;}.cls-28,.cls-284{stroke:#e83820;}.cls-28{stroke-width:13.26px;}.cls-283,.cls-29{stroke:#e83921;}.cls-29{stroke-width:13.25px;}.cls-282,.cls-30{stroke:#e83a21;}.cls-30{stroke-width:13.25px;}.cls-281,.cls-31{stroke:#e83c22;}.cls-31{stroke-width:13.24px;}.cls-280,.cls-32{stroke:#e83d23;}.cls-32{stroke-width:13.23px;}.cls-279,.cls-33{stroke:#e83e23;}.cls-33{stroke-width:13.23px;}.cls-278,.cls-34{stroke:#e83f24;}.cls-34{stroke-width:13.22px;}.cls-277,.cls-35{stroke:#e84024;}.cls-35{stroke-width:13.22px;}.cls-276,.cls-36{stroke:#e84225;}.cls-36{stroke-width:13.21px;}.cls-275,.cls-37{stroke:#e94326;}.cls-37{stroke-width:13.2px;}.cls-274,.cls-38{stroke:#e94426;}.cls-38{stroke-width:13.2px;}.cls-273,.cls-39{stroke:#e94527;}.cls-39{stroke-width:13.19px;}.cls-272,.cls-40{stroke:#e94628;}.cls-40{stroke-width:13.18px;}.cls-271,.cls-41{stroke:#e94729;}.cls-41{stroke-width:13.18px;}.cls-270,.cls-42{stroke:#e94829;}.cls-42{stroke-width:13.17px;}.cls-269,.cls-43{stroke:#e94a2a;}.cls-43{stroke-width:13.16px;}.cls-268,.cls-44{stroke:#e94b2b;}.cls-44{stroke-width:13.16px;}.cls-267,.cls-45{stroke:#e94c2b;}.cls-45{stroke-width:13.15px;}.cls-266,.cls-46{stroke:#e94d2c;}.cls-46{stroke-width:13.15px;}.cls-265,.cls-47{stroke:#ea4e2d;}.cls-47{stroke-width:13.14px;}.cls-264,.cls-48{stroke:#ea4f2d;}.cls-48{stroke-width:13.13px;}.cls-263,.cls-49{stroke:#ea502e;}.cls-49{stroke-width:13.13px;}.cls-262,.cls-50{stroke:#ea512f;}.cls-50{stroke-width:13.12px;}.cls-261,.cls-51{stroke:#ea5230;}.cls-51{stroke-width:13.11px;}.cls-260,.cls-52{stroke:#ea5330;}.cls-52{stroke-width:13.11px;}.cls-259,.cls-53{stroke:#ea5431;}.cls-53{stroke-width:13.1px;}.cls-258,.cls-54{stroke:#ea5532;}.cls-54{stroke-width:13.09px;}.cls-257,.cls-55{stroke:#ea5632;}.cls-55{stroke-width:13.09px;}.cls-256,.cls-56{stroke:#ea5733;}.cls-56{stroke-width:13.08px;}.cls-255,.cls-57{stroke:#ea5834;}.cls-57{stroke-width:13.08px;}.cls-254,.cls-58{stroke:#ea5935;}.cls-58{stroke-width:13.07px;}.cls-253,.cls-59{stroke:#eb5a35;}.cls-59{stroke-width:13.06px;}.cls-252,.cls-60{stroke:#eb5b36;}.cls-60{stroke-width:13.06px;}.cls-251,.cls-61{stroke:#eb5c37;}.cls-61{stroke-width:13.05px;}.cls-250,.cls-62{stroke:#eb5d38;}.cls-62{stroke-width:13.04px;}.cls-249,.cls-63{stroke:#eb5e38;}.cls-63{stroke-width:13.04px;}.cls-248,.cls-64{stroke:#eb5f39;}.cls-64{stroke-width:13.03px;}.cls-247,.cls-65{stroke:#eb603a;}.cls-65{stroke-width:13.02px;}.cls-246,.cls-66{stroke:#eb613b;}.cls-66{stroke-width:13.02px;}.cls-245,.cls-67{stroke:#eb623b;}.cls-67{stroke-width:13.01px;}.cls-244,.cls-68{stroke:#eb633c;}.cls-68{stroke-width:13px;}.cls-243,.cls-69{stroke:#eb633d;}.cls-69{stroke-width:13px;}.cls-242,.cls-70{stroke:#ec643e;}.cls-70{stroke-width:12.99px;}.cls-241,.cls-71{stroke:#ec653f;}.cls-71{stroke-width:12.99px;}.cls-240,.cls-72{stroke:#ec663f;}.cls-72{stroke-width:12.98px;}.cls-239,.cls-73{stroke:#ec6740;}.cls-73{stroke-width:12.97px;}.cls-238,.cls-74{stroke:#ec6841;}.cls-74{stroke-width:12.97px;}.cls-237,.cls-75{stroke:#ec6942;}.cls-75{stroke-width:12.96px;}.cls-236,.cls-76{stroke:#ec6a43;}.cls-76{stroke-width:12.95px;}.cls-235,.cls-77{stroke:#ec6b44;}.cls-77{stroke-width:12.95px;}.cls-234,.cls-78{stroke:#ec6c44;}.cls-78{stroke-width:12.94px;}.cls-233,.cls-79{stroke:#ed6d45;}.cls-79{stroke-width:12.93px;}.cls-232,.cls-80{stroke:#ed6e46;}.cls-80{stroke-width:12.93px;}.cls-231,.cls-81{stroke:#ed6f47;}.cls-81{stroke-width:12.92px;}.cls-230,.cls-82{stroke:#ed7048;}.cls-82{stroke-width:12.92px;}.cls-229,.cls-83{stroke:#ed7049;}.cls-83{stroke-width:12.91px;}.cls-228,.cls-84{stroke:#ed7149;}.cls-84{stroke-width:12.9px;}.cls-227,.cls-85{stroke:#ed724a;}.cls-85{stroke-width:12.9px;}.cls-226,.cls-86{stroke:#ed734b;}.cls-86{stroke-width:12.89px;}.cls-225,.cls-87{stroke:#ed744c;}.cls-87{stroke-width:12.88px;}.cls-224,.cls-88{stroke:#ed754d;}.cls-88{stroke-width:12.88px;}.cls-223,.cls-89{stroke:#ed764e;}.cls-89{stroke-width:12.87px;}.cls-222,.cls-90{stroke:#ee774f;}.cls-90{stroke-width:12.86px;}.cls-221,.cls-91{stroke:#ee7850;}.cls-91{stroke-width:12.86px;}.cls-220,.cls-92{stroke:#ee7950;}.cls-92{stroke-width:12.85px;}.cls-219,.cls-93{stroke:#ee7951;}.cls-93{stroke-width:12.85px;}.cls-218,.cls-94{stroke:#ee7a52;}.cls-94{stroke-width:12.84px;}.cls-217,.cls-95{stroke:#ee7b53;}.cls-95{stroke-width:12.83px;}.cls-216,.cls-96{stroke:#ee7c54;}.cls-96{stroke-width:12.83px;}.cls-215,.cls-97{stroke:#ee7d55;}.cls-97{stroke-width:12.82px;}.cls-214,.cls-98{stroke:#ee7e56;}.cls-98{stroke-width:12.81px;}.cls-213,.cls-99{stroke:#ef7f57;}.cls-99{stroke-width:12.81px;}.cls-100,.cls-212{stroke:#ef8058;}.cls-100{stroke-width:12.8px;}.cls-101,.cls-211{stroke:#ef8159;}.cls-101{stroke-width:12.79px;}.cls-102,.cls-210{stroke:#ef825a;}.cls-102{stroke-width:12.79px;}.cls-103,.cls-209{stroke:#ef825b;}.cls-103{stroke-width:12.78px;}.cls-104,.cls-208{stroke:#ef835c;}.cls-104{stroke-width:12.78px;}.cls-105,.cls-207{stroke:#ef845d;}.cls-105{stroke-width:12.77px;}.cls-106,.cls-206{stroke:#ef855d;}.cls-106{stroke-width:12.76px;}.cls-107,.cls-205{stroke:#f0865e;}.cls-107{stroke-width:12.76px;}.cls-108,.cls-204{stroke:#f0875f;}.cls-108{stroke-width:12.75px;}.cls-109,.cls-203{stroke:#f08860;}.cls-109{stroke-width:12.74px;}.cls-110,.cls-202{stroke:#f08961;}.cls-110{stroke-width:12.74px;}.cls-111,.cls-201{stroke:#f08a62;}.cls-111{stroke-width:12.73px;}.cls-112,.cls-200{stroke:#f08a63;}.cls-112{stroke-width:12.72px;}.cls-113,.cls-199{stroke:#f08b64;}.cls-113{stroke-width:12.72px;}.cls-114,.cls-198{stroke:#f08c65;}.cls-114{stroke-width:12.71px;}.cls-115,.cls-197{stroke:#f08d66;}.cls-115{stroke-width:12.7px;}.cls-116,.cls-196{stroke:#f08e67;}.cls-116{stroke-width:12.7px;}.cls-117,.cls-195{stroke:#f18f68;}.cls-117{stroke-width:12.69px;}.cls-118,.cls-194{stroke:#f19069;}.cls-118{stroke-width:12.69px;}.cls-119,.cls-193{stroke:#f1916a;}.cls-119{stroke-width:12.68px;}.cls-120,.cls-192{stroke:#f1916b;}.cls-120{stroke-width:12.67px;}.cls-121,.cls-191{stroke:#f1926c;}.cls-121{stroke-width:12.67px;}.cls-122,.cls-190{stroke:#f1936d;}.cls-122{stroke-width:12.66px;}.cls-123,.cls-189{stroke:#f1946e;}.cls-123{stroke-width:12.65px;}.cls-124,.cls-188{stroke:#f1956f;}.cls-124{stroke-width:12.65px;}.cls-125,.cls-187{stroke:#f19670;}.cls-125{stroke-width:12.64px;}.cls-126,.cls-186{stroke:#f29771;}.cls-126{stroke-width:12.63px;}.cls-127,.cls-185{stroke:#f29872;}.cls-127{stroke-width:12.63px;}.cls-128,.cls-184{stroke:#f29873;}.cls-128{stroke-width:12.62px;}.cls-129,.cls-183{stroke:#f29974;}.cls-129{stroke-width:12.62px;}.cls-130,.cls-182{stroke:#f29a75;}.cls-130{stroke-width:12.61px;}.cls-131,.cls-181{stroke:#f29b76;}.cls-131{stroke-width:12.6px;}.cls-132,.cls-180{stroke:#f29c77;}.cls-132{stroke-width:12.6px;}.cls-133,.cls-179{stroke:#f39d78;}.cls-133{stroke-width:12.59px;}.cls-134,.cls-178{stroke:#f39d79;}.cls-134{stroke-width:12.58px;}.cls-135,.cls-177{stroke:#f39e7a;}.cls-135{stroke-width:12.58px;}.cls-136,.cls-176{stroke:#f39f7b;}.cls-136{stroke-width:12.57px;}.cls-137,.cls-175{stroke:#f3a07c;}.cls-137{stroke-width:12.56px;}.cls-138,.cls-174{stroke:#f3a17d;}.cls-138{stroke-width:12.56px;}.cls-139,.cls-173{stroke:#f3a27e;}.cls-139{stroke-width:12.55px;}.cls-140,.cls-172{stroke:#f3a37f;}.cls-140{stroke-width:12.55px;}.cls-141,.cls-171{stroke:#f3a380;}.cls-141{stroke-width:12.54px;}.cls-142,.cls-170{stroke:#f4a481;}.cls-142{stroke-width:12.53px;}.cls-143,.cls-169{stroke:#f4a582;}.cls-143{stroke-width:12.53px;}.cls-144,.cls-168{stroke:#f4a683;}.cls-144{stroke-width:12.52px;}.cls-145,.cls-167{stroke:#f4a784;}.cls-145{stroke-width:12.51px;}.cls-146,.cls-166{stroke:#f4a886;}.cls-146{stroke-width:12.51px;}.cls-147,.cls-165{stroke:#f4a887;}.cls-147{stroke-width:12.5px;}.cls-148,.cls-164{stroke:#f4a988;}.cls-148{stroke-width:12.49px;}.cls-149,.cls-163{stroke:#f4aa89;}.cls-149{stroke-width:12.49px;}.cls-150,.cls-162{stroke:#f4ab8a;}.cls-150{stroke-width:12.48px;}.cls-151,.cls-161{stroke:#f4ac8b;}.cls-151{stroke-width:12.47px;}.cls-152,.cls-160{stroke:#f4ad8c;}.cls-152{stroke-width:12.47px;}.cls-153,.cls-159{stroke:#f5ae8d;}.cls-153{stroke-width:12.46px;}.cls-154,.cls-158{stroke:#f5ae8e;}.cls-154{stroke-width:12.46px;}.cls-155,.cls-157{stroke:#f5af8f;}.cls-155{stroke-width:12.45px;}.cls-156{stroke:#f5b090;stroke-width:12.44px;}.cls-157{stroke-width:12.44px;}.cls-158{stroke-width:12.43px;}.cls-159{stroke-width:12.42px;}.cls-160{stroke-width:12.42px;}.cls-161{stroke-width:12.41px;}.cls-162{stroke-width:12.4px;}.cls-163{stroke-width:12.4px;}.cls-164{stroke-width:12.39px;}.cls-165{stroke-width:12.39px;}.cls-166{stroke-width:12.38px;}.cls-167{stroke-width:12.37px;}.cls-168{stroke-width:12.37px;}.cls-169{stroke-width:12.36px;}.cls-170{stroke-width:12.35px;}.cls-171{stroke-width:12.35px;}.cls-172{stroke-width:12.34px;}.cls-173{stroke-width:12.33px;}.cls-174{stroke-width:12.33px;}.cls-175{stroke-width:12.32px;}.cls-176{stroke-width:12.32px;}.cls-177{stroke-width:12.31px;}.cls-178{stroke-width:12.3px;}.cls-179{stroke-width:12.3px;}.cls-180{stroke-width:12.29px;}.cls-181{stroke-width:12.28px;}.cls-182{stroke-width:12.28px;}.cls-183{stroke-width:12.27px;}.cls-184{stroke-width:12.26px;}.cls-185{stroke-width:12.26px;}.cls-186{stroke-width:12.25px;}.cls-187{stroke-width:12.25px;}.cls-188{stroke-width:12.24px;}.cls-189{stroke-width:12.23px;}.cls-190{stroke-width:12.23px;}.cls-191{stroke-width:12.22px;}.cls-192{stroke-width:12.21px;}.cls-193{stroke-width:12.21px;}.cls-194{stroke-width:12.2px;}.cls-195{stroke-width:12.19px;}.cls-196{stroke-width:12.19px;}.cls-197{stroke-width:12.18px;}.cls-198{stroke-width:12.18px;}.cls-199{stroke-width:12.17px;}.cls-200{stroke-width:12.16px;}.cls-201{stroke-width:12.16px;}.cls-202{stroke-width:12.15px;}.cls-203{stroke-width:12.14px;}.cls-204{stroke-width:12.14px;}.cls-205{stroke-width:12.13px;}.cls-206{stroke-width:12.12px;}.cls-207{stroke-width:12.12px;}.cls-208{stroke-width:12.11px;}.cls-209{stroke-width:12.11px;}.cls-210{stroke-width:12.1px;}.cls-211{stroke-width:12.09px;}.cls-212{stroke-width:12.09px;}.cls-213{stroke-width:12.08px;}.cls-214{stroke-width:12.07px;}.cls-215{stroke-width:12.07px;}.cls-216{stroke-width:12.06px;}.cls-217{stroke-width:12.05px;}.cls-218{stroke-width:12.05px;}.cls-219{stroke-width:12.04px;}.cls-220{stroke-width:12.03px;}.cls-221{stroke-width:12.03px;}.cls-222{stroke-width:12.02px;}.cls-223{stroke-width:12.02px;}.cls-224{stroke-width:12.01px;}.cls-225{stroke-width:12px;}.cls-226{stroke-width:12px;}.cls-227{stroke-width:11.99px;}.cls-228{stroke-width:11.98px;}.cls-229{stroke-width:11.98px;}.cls-230{stroke-width:11.97px;}.cls-231{stroke-width:11.96px;}.cls-232{stroke-width:11.96px;}.cls-233{stroke-width:11.95px;}.cls-234{stroke-width:11.95px;}.cls-235{stroke-width:11.94px;}.cls-236{stroke-width:11.93px;}.cls-237{stroke-width:11.93px;}.cls-238{stroke-width:11.92px;}.cls-239{stroke-width:11.91px;}.cls-240{stroke-width:11.91px;}.cls-241{stroke-width:11.9px;}.cls-242{stroke-width:11.89px;}.cls-243{stroke-width:11.89px;}.cls-244{stroke-width:11.88px;}.cls-245{stroke-width:11.88px;}.cls-246{stroke-width:11.87px;}.cls-247{stroke-width:11.86px;}.cls-248{stroke-width:11.86px;}.cls-249{stroke-width:11.85px;}.cls-250{stroke-width:11.84px;}.cls-251{stroke-width:11.84px;}.cls-252{stroke-width:11.83px;}.cls-253{stroke-width:11.82px;}.cls-254{stroke-width:11.82px;}.cls-255{stroke-width:11.81px;}.cls-256{stroke-width:11.81px;}.cls-257{stroke-width:11.8px;}.cls-258{stroke-width:11.79px;}.cls-259{stroke-width:11.79px;}.cls-260{stroke-width:11.78px;}.cls-261{stroke-width:11.77px;}.cls-262{stroke-width:11.77px;}.cls-263{stroke-width:11.76px;}.cls-264{stroke-width:11.75px;}.cls-265{stroke-width:11.75px;}.cls-266{stroke-width:11.74px;}.cls-267{stroke-width:11.74px;}.cls-268{stroke-width:11.73px;}.cls-269{stroke-width:11.72px;}.cls-270{stroke-width:11.72px;}.cls-271{stroke-width:11.71px;}.cls-272{stroke-width:11.7px;}.cls-273{stroke-width:11.7px;}.cls-274{stroke-width:11.69px;}.cls-275{stroke-width:11.68px;}.cls-276{stroke-width:11.68px;}.cls-277{stroke-width:11.67px;}.cls-278{stroke-width:11.67px;}.cls-279{stroke-width:11.66px;}.cls-280{stroke-width:11.65px;}.cls-281{stroke-width:11.65px;}.cls-282{stroke-width:11.64px;}.cls-283{stroke-width:11.63px;}.cls-284{stroke-width:11.63px;}.cls-285{stroke-width:11.62px;}.cls-286{stroke-width:11.61px;}.cls-287{stroke-width:11.61px;}.cls-288{stroke-width:11.6px;}.cls-289{stroke-width:11.59px;}.cls-290{stroke-width:11.59px;}.cls-291{stroke-width:11.58px;}.cls-292{stroke-width:11.58px;}.cls-293{stroke-width:11.57px;}.cls-294{stroke-width:11.56px;}.cls-295{stroke-width:11.56px;}.cls-296{stroke-width:11.55px;}.cls-297{stroke-width:11.54px;}.cls-298{stroke-width:11.54px;}.cls-299{stroke-width:11.53px;}.cls-300{stroke-width:11.52px;}.cls-301{stroke-width:11.52px;}.cls-302{stroke-width:11.51px;}.cls-303{stroke-width:11.51px;}.cls-304{stroke-width:11.5px;}.cls-305{stroke-width:11.49px;}.cls-306{stroke-width:11.49px;}.cls-307{stroke-width:11.48px;}.cls-308{stroke-width:11.47px;}.cls-309{stroke-width:11.47px;}</style><linearGradient id="未命名的渐变_242" x1="831.02" y1="244.53" x2="831.02" y2="627.81" gradientTransform="translate(-109.19 -213.95) rotate(21.84)" gradientUnits="userSpaceOnUse"><stop offset="0" stop-color="#f0f0f0"/><stop offset="1" stop-color="#666"/></linearGradient></defs><title>14</title><path class="cls-1" d="M707.32,584.1c-45.1,114-174.49,168.7-289,122.25S247.57,529.84,292.67,415.88s174.5-168.7,289-122.25S752.42,470.13,707.32,584.1Z"/><path class="cls-2" d="M839.83,450.65l-240.57-1.44A113.46,113.46,0,0,0,552.06,402l-1.41-240.57-102.71-.61,1.41,240.56a109.53,109.53,0,0,0-46.65,46.68l-240.57-1.43.6,102.71,240.58,1.43a113.23,113.23,0,0,0,47.2,47.17l1.4,240.62,102.72.59-1.42-240.59A109.25,109.25,0,0,0,599.84,552l240.6,1.4Z"/><path class="cls-3" d="M893.18,502.32A387.65,387.65,0,0,1,502.29,893.18c-217.13-1.29-394.21-178.37-395.47-395.52A387.6,387.6,0,0,1,497.69,106.82C714.83,108.09,891.9,285.16,893.18,502.32Z"/><path class="cls-4" d="M892.85,502.32A387.33,387.33,0,0,1,502.29,892.85c-217-1.3-393.87-178.23-395.14-395.19A387.3,387.3,0,0,1,497.69,107.15C714.65,108.42,891.56,285.35,892.85,502.32Z"/><path class="cls-5" d="M892.51,502.32A387,387,0,0,1,502.29,892.51c-216.77-1.29-393.54-178.07-394.8-394.84a387,387,0,0,1,390.2-390.18C714.47,108.76,891.22,285.53,892.51,502.32Z"/><path class="cls-6" d="M892.17,502.31A386.66,386.66,0,0,1,502.29,892.17c-216.58-1.29-393.2-177.91-394.46-394.5A386.61,386.61,0,0,1,497.69,107.83C714.28,109.09,890.89,285.72,892.17,502.31Z"/><path class="cls-7" d="M891.84,502.31A386.34,386.34,0,0,1,502.29,891.84c-216.4-1.29-392.87-177.77-394.13-394.17A386.29,386.29,0,0,1,497.69,108.16C714.1,109.43,890.55,285.9,891.84,502.31Z"/><path class="cls-8" d="M891.5,502.31A386,386,0,0,1,502.28,891.5c-216.2-1.29-392.52-177.61-393.78-393.83A386,386,0,0,1,497.7,108.5C713.91,109.77,890.22,286.08,891.5,502.31Z"/><path class="cls-9" d="M891.16,502.31A385.66,385.66,0,0,1,502.28,891.16c-216-1.28-392.18-177.46-393.44-393.49A385.62,385.62,0,0,1,497.7,108.84C713.73,110.1,889.88,286.27,891.16,502.31Z"/><path class="cls-10" d="M890.83,502.31A385.35,385.35,0,0,1,502.28,890.83c-215.84-1.29-391.85-177.31-393.11-393.15A385.31,385.31,0,0,1,497.7,109.17C713.55,110.44,889.55,286.45,890.83,502.31Z"/><path class="cls-11" d="M890.49,502.3A385,385,0,0,1,502.28,890.49C286.63,889.2,110.77,713.34,109.51,497.68A385,385,0,0,1,497.7,109.51C713.36,110.77,889.21,286.64,890.49,502.3Z"/><path class="cls-12" d="M890.15,502.3A384.66,384.66,0,0,1,502.28,890.15c-215.47-1.28-391.18-177-392.43-392.47A384.61,384.61,0,0,1,497.7,109.85C713.18,111.11,888.87,286.82,890.15,502.3Z"/><path class="cls-13" d="M889.82,502.3A384.35,384.35,0,0,1,502.27,889.82C287,888.53,111.44,713,110.18,497.68A384.29,384.29,0,0,1,497.71,110.19C713,111.44,888.54,287,889.82,502.3Z"/><path class="cls-14" d="M889.48,502.3A384,384,0,0,1,502.27,889.48c-215.09-1.28-390.49-176.7-391.75-391.8A384,384,0,0,1,497.71,110.52C712.81,111.78,888.2,287.19,889.48,502.3Z"/><path class="cls-15" d="M889.14,502.3A383.67,383.67,0,0,1,502.27,889.14C287.36,887.86,112.11,712.6,110.86,497.69A383.64,383.64,0,0,1,497.71,110.86C712.63,112.12,887.87,287.37,889.14,502.3Z"/><path class="cls-16" d="M888.8,502.29A383.35,383.35,0,0,1,502.27,888.81C287.55,887.53,112.45,712.42,111.2,497.69A383.29,383.29,0,0,1,497.71,111.2C712.44,112.45,887.53,287.56,888.8,502.29Z"/><path class="cls-17" d="M888.47,502.29a383,383,0,0,1-386.2,386.18c-214.54-1.28-389.49-176.24-390.74-390.78A383,383,0,0,1,497.71,111.53C712.26,112.79,887.2,287.74,888.47,502.29Z"/><path class="cls-18" d="M888.13,502.29A382.68,382.68,0,0,1,502.26,888.13c-214.34-1.28-389.14-176.08-390.39-390.44A382.63,382.63,0,0,1,497.72,111.87C712.07,113.12,886.86,287.92,888.13,502.29Z"/><path class="cls-19" d="M887.79,502.29a382.33,382.33,0,0,1-385.53,385.5c-214.16-1.27-388.81-175.93-390-390.1A382.29,382.29,0,0,1,497.72,112.21C711.89,113.46,886.52,288.11,887.79,502.29Z"/><path class="cls-20" d="M887.46,502.29a382,382,0,0,1-385.2,385.17c-214-1.28-388.47-175.78-389.72-389.76A382,382,0,0,1,497.72,112.54C711.71,113.79,886.19,288.29,887.46,502.29Z"/><path class="cls-21" d="M887.12,502.28A381.68,381.68,0,0,1,502.26,887.12C288.47,885.85,114.13,711.5,112.88,497.7A381.64,381.64,0,0,1,497.72,112.88C711.52,114.13,885.85,288.48,887.12,502.28Z"/><path class="cls-22" d="M886.78,502.28a381.33,381.33,0,0,1-384.52,384.5c-213.61-1.27-387.8-175.47-389-389.08a381.29,381.29,0,0,1,384.5-384.48C711.34,114.47,885.52,288.66,886.78,502.28Z"/><path class="cls-23" d="M886.45,502.28a381,381,0,0,1-384.2,384.17C288.84,885.17,114.8,711.13,113.55,497.7A381,381,0,0,1,497.73,113.55C711.15,114.8,885.18,288.84,886.45,502.28Z"/><path class="cls-24" d="M886.11,502.28A380.69,380.69,0,0,1,502.25,886.11C289,884.84,115.13,710.94,113.89,497.7A380.65,380.65,0,0,1,497.73,113.89C711,115.14,884.84,289,886.11,502.28Z"/><path class="cls-25" d="M885.77,502.28A380.35,380.35,0,0,1,502.25,885.77c-213-1.27-386.78-175-388-388.06a380.31,380.31,0,0,1,383.5-383.48C710.79,115.47,884.51,289.21,885.77,502.28Z"/><path class="cls-26" d="M885.44,502.27A380,380,0,0,1,502.25,885.44c-212.86-1.27-386.44-174.86-387.69-387.73A380,380,0,0,1,497.73,114.56C710.6,115.81,884.17,289.4,885.44,502.27Z"/><path class="cls-27" d="M885.1,502.27A379.69,379.69,0,0,1,502.25,885.1C289.57,883.83,116.14,710.39,114.9,497.71A379.65,379.65,0,0,1,497.73,114.9C710.42,116.14,883.84,289.58,885.1,502.27Z"/><path class="cls-28" d="M884.76,502.27A379.35,379.35,0,0,1,502.24,884.76c-212.48-1.26-385.76-174.55-387-387a379.31,379.31,0,0,1,382.5-382.47C710.23,116.48,883.5,289.76,884.76,502.27Z"/><path class="cls-29" d="M884.42,502.27A379,379,0,0,1,502.24,884.43C289.94,883.16,116.81,710,115.58,497.71A379,379,0,0,1,497.74,115.57C710.05,116.82,883.17,290,884.42,502.27Z"/><path class="cls-30" d="M884.09,502.27A378.7,378.7,0,0,1,502.24,884.09c-212.12-1.27-385.09-174.25-386.33-386.37A378.66,378.66,0,0,1,497.74,115.91C709.87,117.15,882.83,290.13,884.09,502.27Z"/><path class="cls-31" d="M883.75,502.26A378.36,378.36,0,0,1,502.24,883.75c-211.93-1.26-384.76-174.09-386-386A378.31,378.31,0,0,1,497.74,116.25C709.68,117.49,882.49,290.32,883.75,502.26Z"/><path class="cls-32" d="M883.41,502.26A378,378,0,0,1,502.24,883.42c-211.75-1.27-384.42-173.95-385.65-385.7A378,378,0,0,1,497.74,116.59C709.5,117.82,882.16,290.5,883.41,502.26Z"/><path class="cls-33" d="M883.08,502.26A377.7,377.7,0,0,1,502.24,883.08c-211.56-1.26-384.08-173.79-385.32-385.36a377.66,377.66,0,0,1,380.83-380.8C709.31,118.16,881.82,290.68,883.08,502.26Z"/><path class="cls-34" d="M882.74,502.26A377.36,377.36,0,0,1,502.23,882.74c-211.37-1.26-383.74-173.64-385-385A377.32,377.32,0,0,1,497.75,117.26C709.13,118.49,881.49,290.87,882.74,502.26Z"/><path class="cls-35" d="M882.4,502.26A377,377,0,0,1,502.23,882.41C291,881.15,118.83,708.92,117.6,497.73A377,377,0,0,1,497.75,117.6C709,118.83,881.15,291.05,882.4,502.26Z"/><path class="cls-36" d="M882.07,502.25A376.71,376.71,0,0,1,502.23,882.07c-211-1.26-383.07-173.33-384.3-384.34a376.66,376.66,0,0,1,379.82-379.8C708.76,119.17,880.81,291.24,882.07,502.25Z"/><path class="cls-37" d="M881.73,502.25a376.36,376.36,0,0,1-379.5,379.48c-210.82-1.26-382.73-173.18-384-384A376.32,376.32,0,0,1,497.75,118.27C708.58,119.5,880.48,291.42,881.73,502.25Z"/><path class="cls-38" d="M881.39,502.25A376,376,0,0,1,502.23,881.4c-210.63-1.26-382.39-173-383.62-383.67A376,376,0,0,1,497.76,118.61C708.39,119.84,880.14,291.6,881.39,502.25Z"/><path class="cls-39" d="M881.06,502.25A375.71,375.71,0,0,1,502.22,881.06c-210.44-1.26-382-172.88-383.28-383.33A375.67,375.67,0,0,1,497.76,118.94C708.21,120.17,879.81,291.79,881.06,502.25Z"/><path class="cls-40" d="M880.72,502.25a375.38,375.38,0,0,1-378.5,378.47C292,879.47,120.51,708,119.28,497.74A375.33,375.33,0,0,1,497.76,119.28C708,120.51,879.47,292,880.72,502.25Z"/><path class="cls-41" d="M880.38,502.24A375,375,0,0,1,502.22,880.39c-210.07-1.26-381.38-172.57-382.6-382.65A375,375,0,0,1,497.76,119.62C707.84,120.85,879.14,292.16,880.38,502.24Z"/><path class="cls-42" d="M880,502.24A374.7,374.7,0,0,1,502.22,880.05C292.33,878.8,121.18,707.63,120,497.74A374.66,374.66,0,0,1,497.76,120C707.66,121.18,878.8,292.34,880,502.24Z"/><path class="cls-43" d="M879.71,502.24A374.38,374.38,0,0,1,502.22,879.71c-209.7-1.25-380.7-172.26-381.93-382A374.33,374.33,0,0,1,497.77,120.29C707.47,121.52,878.46,292.53,879.71,502.24Z"/><path class="cls-44" d="M879.37,502.24A374,374,0,0,1,502.21,879.37C292.7,878.12,121.85,707.26,120.63,497.74A374,374,0,0,1,497.77,120.63C707.29,121.85,878.13,292.71,879.37,502.24Z"/><path class="cls-45" d="M879,502.24A373.71,373.71,0,0,1,502.21,879c-209.33-1.25-380-172-381.24-381.29A373.67,373.67,0,0,1,497.77,121C707.1,122.19,877.79,292.89,879,502.24Z"/><path class="cls-46" d="M878.7,502.23A373.39,373.39,0,0,1,502.21,878.7c-209.14-1.25-379.69-171.8-380.91-381A373.34,373.34,0,0,1,497.77,121.3C706.92,122.52,877.46,293.08,878.7,502.23Z"/><path class="cls-47" d="M878.36,502.23A373,373,0,0,1,502.21,878.36c-209-1.24-379.35-171.65-380.57-380.61A373,373,0,0,1,497.77,121.64C706.74,122.86,877.12,293.26,878.36,502.23Z"/><path class="cls-48" d="M878,502.23A372.71,372.71,0,0,1,502.21,878c-208.77-1.25-379-171.5-380.23-380.28A372.67,372.67,0,0,1,497.78,122C706.55,123.2,876.79,293.45,878,502.23Z"/><path class="cls-49" d="M877.69,502.23A372.39,372.39,0,0,1,502.2,877.69c-208.58-1.24-378.67-171.35-379.89-379.94A372.35,372.35,0,0,1,497.78,122.31C706.37,123.53,876.45,293.63,877.69,502.23Z"/><path class="cls-50" d="M877.35,502.23A372.05,372.05,0,0,1,502.2,877.35c-208.4-1.24-378.33-171.19-379.55-379.59A372,372,0,0,1,497.78,122.65C706.18,123.87,876.11,293.81,877.35,502.23Z"/><path class="cls-51" d="M877,502.22A371.72,371.72,0,0,1,502.2,877C294,875.77,124.2,706,123,497.76A371.66,371.66,0,0,1,497.78,123C706,124.2,875.78,294,877,502.22Z"/><path class="cls-52" d="M876.68,502.22A371.4,371.4,0,0,1,502.2,876.68c-208-1.24-377.66-170.89-378.88-378.92A371.35,371.35,0,0,1,497.78,123.32C705.82,124.54,875.44,294.18,876.68,502.22Z"/><path class="cls-53" d="M876.34,502.22A371.05,371.05,0,0,1,502.2,876.34C294.36,875.1,124.87,705.61,123.66,497.76a371,371,0,0,1,374.13-374.1C705.63,124.87,875.11,294.37,876.34,502.22Z"/><path class="cls-54" d="M876,502.22A370.73,370.73,0,0,1,502.19,876c-207.65-1.24-377-170.59-378.19-378.25A370.67,370.67,0,0,1,497.79,124C705.45,125.21,874.77,294.55,876,502.22Z"/><path class="cls-55" d="M875.67,502.22A370.4,370.4,0,0,1,502.19,875.67c-207.47-1.24-376.64-170.43-377.86-377.9A370.36,370.36,0,0,1,497.79,124.33C705.26,125.55,874.43,294.73,875.67,502.22Z"/><path class="cls-56" d="M875.33,502.21A370.06,370.06,0,0,1,502.19,875.33C294.91,874.1,125.88,705.05,124.67,497.77a370,370,0,0,1,373.12-373.1C705.08,125.88,874.1,294.92,875.33,502.21Z"/><path class="cls-57" d="M875,502.21A369.73,369.73,0,0,1,502.19,875c-207.1-1.24-376-170.13-377.18-377.23A369.67,369.67,0,0,1,497.79,125C704.9,126.22,873.76,295.1,875,502.21Z"/><path class="cls-58" d="M874.65,502.21A369.39,369.39,0,0,1,502.19,874.66c-206.91-1.24-375.64-170-376.84-376.89A369.35,369.35,0,0,1,497.8,125.34C704.71,126.55,873.43,295.29,874.65,502.21Z"/><path class="cls-59" d="M874.32,502.21A369.07,369.07,0,0,1,502.18,874.32c-206.72-1.23-375.29-169.82-376.5-376.55A369,369,0,0,1,497.8,125.68C704.53,126.89,873.09,295.47,874.32,502.21Z"/><path class="cls-60" d="M874,502.21A368.74,368.74,0,0,1,502.18,874C295.64,872.75,127.23,704.32,126,497.78A368.68,368.68,0,0,1,497.8,126C704.34,127.22,872.76,295.65,874,502.21Z"/><path class="cls-61" d="M873.64,502.2A368.4,368.4,0,0,1,502.18,873.65c-206.35-1.23-374.62-169.52-375.82-375.87A368.35,368.35,0,0,1,497.8,126.35C704.16,127.56,872.42,295.84,873.64,502.2Z"/><path class="cls-62" d="M873.31,502.2A368.07,368.07,0,0,1,502.18,873.31C296,872.08,127.9,704,126.69,497.78A368,368,0,0,1,497.8,126.69C704,127.9,872.08,296,873.31,502.2Z"/><path class="cls-63" d="M873,502.2A367.74,367.74,0,0,1,502.18,873c-206-1.24-374-169.21-375.15-375.2A367.68,367.68,0,0,1,497.81,127C703.79,128.23,871.75,296.21,873,502.2Z"/><path class="cls-64" d="M872.63,502.2A367.4,367.4,0,0,1,502.18,872.64c-205.8-1.23-373.61-169.06-374.81-374.86A367.35,367.35,0,0,1,497.81,127.36C703.61,128.57,871.41,296.39,872.63,502.2Z"/><path class="cls-65" d="M872.3,502.2A367.08,367.08,0,0,1,502.17,872.3C296.56,871.07,128.9,703.4,127.7,497.79A367,367,0,0,1,497.81,127.7C703.42,128.9,871.08,296.57,872.3,502.2Z"/><path class="cls-66" d="M872,502.19A366.74,366.74,0,0,1,502.17,872C296.75,870.74,129.24,703.21,128,497.79A366.69,366.69,0,0,1,497.81,128C703.24,129.24,870.74,296.76,872,502.19Z"/><path class="cls-67" d="M871.62,502.19A366.41,366.41,0,0,1,502.17,871.63C296.93,870.4,129.58,703,128.38,497.79A366.36,366.36,0,0,1,497.81,128.37C703.06,129.57,870.41,296.94,871.62,502.19Z"/><path class="cls-68" d="M871.29,502.19a366.08,366.08,0,0,1-369.12,369.1c-205-1.22-372.26-168.44-373.46-373.5A366,366,0,0,1,497.82,128.71C702.87,129.91,870.07,297.13,871.29,502.19Z"/><path class="cls-69" d="M871,502.19A365.74,365.74,0,0,1,502.17,871C297.3,869.73,130.25,702.66,129.05,497.79A365.69,365.69,0,0,1,497.82,129.05C702.69,130.25,869.73,297.31,871,502.19Z"/><path class="cls-70" d="M870.61,502.19A365.42,365.42,0,0,1,502.16,870.62C297.48,869.39,130.58,702.48,129.39,497.8A365.36,365.36,0,0,1,497.82,129.39C702.5,130.58,869.4,297.49,870.61,502.19Z"/><path class="cls-71" d="M870.27,502.18a365.07,365.07,0,0,1-368.11,368.1c-204.49-1.22-371.24-168-372.43-372.48A365,365,0,0,1,497.82,129.72C702.32,130.92,869.06,297.68,870.27,502.18Z"/><path class="cls-72" d="M869.94,502.18A364.75,364.75,0,0,1,502.16,869.94c-204.31-1.22-370.9-167.83-372.1-372.14A364.7,364.7,0,0,1,497.82,130.06C702.14,131.25,868.73,297.86,869.94,502.18Z"/><path class="cls-73" d="M869.6,502.18A364.42,364.42,0,0,1,502.16,869.61C298,868.39,131.59,701.93,130.4,497.8A364.36,364.36,0,0,1,497.83,130.4C702,131.59,868.39,298.05,869.6,502.18Z"/><path class="cls-74" d="M869.26,502.18a364.08,364.08,0,0,1-367.1,367.09C298.22,868.05,131.93,701.74,130.74,497.8A364,364,0,0,1,497.83,130.73C701.77,131.93,868.05,298.23,869.26,502.18Z"/><path class="cls-75" d="M868.93,502.18A363.75,363.75,0,0,1,502.15,868.93C298.4,867.72,132.26,701.56,131.07,497.81A363.71,363.71,0,0,1,497.83,131.07C701.58,132.26,867.72,298.42,868.93,502.18Z"/><path class="cls-76" d="M868.59,502.17A363.43,363.43,0,0,1,502.15,868.6C298.59,867.38,132.6,701.37,131.41,497.81a363.37,363.37,0,0,1,366.42-366.4C701.4,132.6,867.38,298.6,868.59,502.17Z"/><path class="cls-77" d="M868.25,502.17a363.08,363.08,0,0,1-366.1,366.09C298.77,867,132.94,701.19,131.75,497.81A363,363,0,0,1,497.83,131.74C701.22,132.93,867.05,298.78,868.25,502.17Z"/><path class="cls-78" d="M867.92,502.17A362.75,362.75,0,0,1,502.15,867.92C299,866.71,133.27,701,132.08,497.81A362.71,362.71,0,0,1,497.84,132.08C701,133.27,866.71,299,867.92,502.17Z"/><path class="cls-79" d="M867.58,502.17A362.43,362.43,0,0,1,502.15,867.59c-203-1.22-368.54-166.77-369.73-369.78A362.37,362.37,0,0,1,497.84,132.42C700.85,133.6,866.38,299.15,867.58,502.17Z"/><path class="cls-80" d="M867.24,502.17a362.09,362.09,0,0,1-365.1,365.08C299.32,866,133.94,700.64,132.76,497.82A362,362,0,0,1,497.84,132.75C700.66,133.94,866,299.34,867.24,502.17Z"/><path class="cls-81" d="M866.91,502.16A361.76,361.76,0,0,1,502.14,866.91c-202.63-1.21-367.86-166.46-369-369.09A361.72,361.72,0,0,1,497.84,133.09C700.48,134.28,865.7,299.52,866.91,502.16Z"/><path class="cls-82" d="M866.57,502.16A361.43,361.43,0,0,1,502.14,866.58c-202.45-1.21-367.53-166.31-368.71-368.76A361.38,361.38,0,0,1,497.85,133.43C700.3,134.61,865.37,299.7,866.57,502.16Z"/><path class="cls-83" d="M866.23,502.16A361.09,361.09,0,0,1,502.14,866.24C299.88,865,135,700.09,133.77,497.82A361,361,0,0,1,497.85,133.76C700.11,135,865,299.89,866.23,502.16Z"/><path class="cls-84" d="M865.9,502.16A360.77,360.77,0,0,1,502.14,865.9c-202.08-1.21-366.85-166-368-368.08A360.7,360.7,0,0,1,497.85,134.1C699.93,135.28,864.7,300.07,865.9,502.16Z"/><path class="cls-85" d="M865.56,502.16A360.44,360.44,0,0,1,502.13,865.57c-201.89-1.21-366.51-165.85-367.69-367.74A360.38,360.38,0,0,1,497.85,134.44C699.74,135.62,864.36,300.26,865.56,502.16Z"/><path class="cls-86" d="M865.22,502.15A360.1,360.1,0,0,1,502.13,865.23C300.43,864,136,699.53,134.78,497.83A360.06,360.06,0,0,1,497.85,134.77C699.56,136,864,300.44,865.22,502.15Z"/><path class="cls-87" d="M864.88,502.15A359.76,359.76,0,0,1,502.13,864.89c-201.52-1.2-365.84-165.54-367-367.06A359.71,359.71,0,0,1,497.86,135.11C699.38,136.29,863.69,300.62,864.88,502.15Z"/><path class="cls-88" d="M864.55,502.15a359.43,359.43,0,0,1-362.42,362.4c-201.33-1.2-365.5-165.38-366.68-366.72A359.38,359.38,0,0,1,497.86,135.45C699.19,136.63,863.35,300.81,864.55,502.15Z"/><path class="cls-89" d="M864.21,502.15A359.11,359.11,0,0,1,502.13,864.22C301,863,137,699,135.79,497.83a359.06,359.06,0,0,1,362.07-362C699,137,863,301,864.21,502.15Z"/><path class="cls-90" d="M863.87,502.15A358.76,358.76,0,0,1,502.13,863.88c-201-1.2-364.83-165.08-366-366A358.72,358.72,0,0,1,497.86,136.12C698.82,137.3,862.68,301.18,863.87,502.15Z"/><path class="cls-91" d="M863.54,502.14a358.44,358.44,0,0,1-361.42,361.4c-200.77-1.2-364.48-164.93-365.66-365.7a358.39,358.39,0,0,1,361.4-361.38C698.64,137.63,862.35,301.36,863.54,502.14Z"/><path class="cls-92" d="M863.2,502.14A358.11,358.11,0,0,1,502.12,863.21C301.53,862,138,698.43,136.8,497.84a358.05,358.05,0,0,1,361.07-361C698.46,138,862,301.54,863.2,502.14Z"/><path class="cls-93" d="M862.86,502.14A357.77,357.77,0,0,1,502.12,862.87c-200.4-1.2-363.81-164.62-365-365A357.72,357.72,0,0,1,497.87,137.13C698.27,138.3,861.67,301.73,862.86,502.14Z"/><path class="cls-94" d="M862.53,502.14A357.44,357.44,0,0,1,502.12,862.53C301.9,861.34,138.65,698.06,137.47,497.84a357.39,357.39,0,0,1,360.4-360.37C698.09,138.64,861.34,301.91,862.53,502.14Z"/><path class="cls-95" d="M862.19,502.14A357.12,357.12,0,0,1,502.12,862.2C302.09,861,139,697.88,137.81,497.85a357.06,357.06,0,0,1,360.06-360C697.9,139,861,302.1,862.19,502.14Z"/><path class="cls-96" d="M861.85,502.13A356.78,356.78,0,0,1,502.11,861.86c-199.84-1.2-362.79-164.17-364-364A356.73,356.73,0,0,1,497.87,138.14C697.72,139.31,860.67,302.28,861.85,502.13Z"/><path class="cls-97" d="M861.52,502.13A356.45,356.45,0,0,1,502.11,861.52c-199.66-1.19-362.46-164-363.63-363.67a356.4,356.4,0,0,1,359.4-359.37C697.54,139.65,860.33,302.46,861.52,502.13Z"/><path class="cls-98" d="M861.18,502.13A356.12,356.12,0,0,1,502.11,861.19C302.64,860,140,697.33,138.82,497.85a356.05,356.05,0,0,1,359.06-359C697.35,140,860,302.65,861.18,502.13Z"/><path class="cls-99" d="M860.84,502.13A355.78,355.78,0,0,1,502.11,860.85c-199.29-1.19-361.79-163.71-363-363a355.73,355.73,0,0,1,358.72-358.7C697.17,140.32,859.66,302.83,860.84,502.13Z"/><path class="cls-100" d="M860.5,502.13A355.44,355.44,0,0,1,502.11,860.51C303,859.32,140.66,697,139.5,497.86A355.4,355.4,0,0,1,497.88,139.49C697,140.65,859.32,303,860.5,502.13Z"/><path class="cls-101" d="M860.17,502.12A355.13,355.13,0,0,1,502.1,860.18C303.19,859,141,696.77,139.83,497.86a355.07,355.07,0,0,1,358-358C696.8,141,859,303.2,860.17,502.12Z"/><path class="cls-102" d="M859.83,502.12A354.79,354.79,0,0,1,502.1,859.84c-198.73-1.19-360.77-163.25-361.93-362a354.74,354.74,0,0,1,357.72-357.7C696.61,141.33,858.65,303.38,859.83,502.12Z"/><path class="cls-103" d="M859.49,502.12A354.44,354.44,0,0,1,502.1,859.5c-198.54-1.19-360.43-163.09-361.59-361.64A354.39,354.39,0,0,1,497.89,140.5C696.43,141.66,858.32,303.57,859.49,502.12Z"/><path class="cls-104" d="M859.16,502.12a354.13,354.13,0,0,1-357.06,357C303.74,858,142,696.22,140.84,497.86a354.07,354.07,0,0,1,357-357C696.25,142,858,303.75,859.16,502.12Z"/><path class="cls-105" d="M858.82,502.12A353.8,353.8,0,0,1,502.1,858.83c-198.17-1.19-359.76-162.79-360.92-361a353.75,353.75,0,0,1,356.71-356.7C696.06,142.33,857.64,303.94,858.82,502.12Z"/><path class="cls-106" d="M858.48,502.11A353.45,353.45,0,0,1,502.09,858.49c-198-1.18-359.41-162.64-360.57-360.62A353.41,353.41,0,0,1,497.89,141.51C695.88,142.67,857.31,304.12,858.48,502.11Z"/><path class="cls-107" d="M858.15,502.11a353.14,353.14,0,0,1-356.06,356C304.29,857,143,695.67,141.85,497.87a353.08,353.08,0,0,1,356-356C695.69,143,857,304.3,858.15,502.11Z"/><path class="cls-108" d="M857.81,502.11A352.79,352.79,0,0,1,502.09,857.82c-197.61-1.18-358.74-162.33-359.9-360A352.74,352.74,0,0,1,497.9,142.18C695.51,143.34,856.64,304.49,857.81,502.11Z"/><path class="cls-109" d="M857.47,502.11A352.46,352.46,0,0,1,502.09,857.48C304.66,856.3,143.68,695.3,142.53,497.87A352.41,352.41,0,0,1,497.9,142.52C695.33,143.68,856.3,304.67,857.47,502.11Z"/><path class="cls-110" d="M857.14,502.11a352.15,352.15,0,0,1-355,355C304.85,856,144,695.12,142.86,497.88a352.09,352.09,0,0,1,355-355C695.14,144,856,304.86,857.14,502.11Z"/><path class="cls-111" d="M856.8,502.1A351.8,351.8,0,0,1,502.08,856.81C305,855.63,144.36,694.93,143.2,497.88A351.74,351.74,0,0,1,497.9,143.2C695,144.35,855.63,305,856.8,502.1Z"/><path class="cls-112" d="M856.46,502.1A351.46,351.46,0,0,1,502.08,856.47c-196.87-1.18-357.39-161.72-358.54-358.59A351.42,351.42,0,0,1,497.91,143.53C694.77,144.68,855.29,305.23,856.46,502.1Z"/><path class="cls-113" d="M856.12,502.1a351.12,351.12,0,0,1-354,354C305.4,855,145,694.57,143.88,497.88a351.07,351.07,0,0,1,354-354C694.59,145,855,305.41,856.12,502.1Z"/><path class="cls-114" d="M855.79,502.1A350.81,350.81,0,0,1,502.08,855.8c-196.5-1.18-356.72-161.42-357.87-357.92a350.74,350.74,0,0,1,353.7-353.67C694.41,145.36,854.62,305.59,855.79,502.1Z"/><path class="cls-115" d="M855.45,502.1A350.47,350.47,0,0,1,502.08,855.46C305.77,854.29,145.7,694.2,144.55,497.89A350.42,350.42,0,0,1,497.91,144.54C694.22,145.69,854.29,305.78,855.45,502.1Z"/><path class="cls-116" d="M855.11,502.09a350.12,350.12,0,0,1-353,353C306,854,146,694,144.89,497.89a350.08,350.08,0,0,1,353-353C694,146,854,306,855.11,502.09Z"/><path class="cls-117" d="M854.78,502.09a349.81,349.81,0,0,1-352.71,352.7c-195.94-1.18-355.7-161-356.85-356.9a349.75,349.75,0,0,1,352.7-352.67C693.85,146.36,853.61,306.15,854.78,502.09Z"/><path class="cls-118" d="M854.44,502.09A349.47,349.47,0,0,1,502.07,854.45c-195.75-1.17-355.36-160.8-356.51-356.56A349.43,349.43,0,0,1,497.92,145.55C693.67,146.7,853.28,306.33,854.44,502.09Z"/><path class="cls-119" d="M854.1,502.09a349.13,349.13,0,0,1-352,352C306.5,852.94,147,693.46,145.9,497.89a349.08,349.08,0,0,1,352-352C693.49,147,852.94,306.51,854.1,502.09Z"/><path class="cls-120" d="M853.77,502.09a348.82,348.82,0,0,1-351.7,351.69c-195.38-1.17-354.69-160.5-355.84-355.88A348.76,348.76,0,0,1,497.92,146.23C693.3,147.37,852.61,306.7,853.77,502.09Z"/><path class="cls-121" d="M853.43,502.08A348.48,348.48,0,0,1,502.07,853.44c-195.2-1.17-354.36-160.35-355.5-355.54A348.43,348.43,0,0,1,497.92,146.56C693.12,147.71,852.27,306.88,853.43,502.08Z"/><path class="cls-122" d="M853.09,502.08a348.14,348.14,0,0,1-351,351c-195-1.16-354-160.19-355.15-355.2a348.09,348.09,0,0,1,351-351C692.93,148,851.94,307.07,853.09,502.08Z"/><path class="cls-123" d="M852.76,502.08a347.82,347.82,0,0,1-350.7,350.69c-194.82-1.17-353.67-160-354.82-354.87A347.76,347.76,0,0,1,497.93,147.24C692.75,148.38,851.6,307.25,852.76,502.08Z"/><path class="cls-124" d="M852.42,502.08A347.48,347.48,0,0,1,502.06,852.43C307.42,851.26,148.72,692.54,147.58,497.9A347.43,347.43,0,0,1,497.93,147.57C692.57,148.71,851.26,307.43,852.42,502.08Z"/><path class="cls-125" d="M852.08,502.08a347.15,347.15,0,0,1-350,350c-194.45-1.16-353-159.73-354.14-354.18a347.1,347.1,0,0,1,350-350C692.38,149.05,850.93,307.62,852.08,502.08Z"/><path class="cls-126" d="M851.75,502.07A346.83,346.83,0,0,1,502.06,851.76c-194.27-1.17-352.67-159.59-353.8-353.85A346.76,346.76,0,0,1,497.93,148.25C692.2,149.38,850.59,307.8,851.75,502.07Z"/><path class="cls-127" d="M851.41,502.07A346.49,346.49,0,0,1,502.05,851.42C308,850.26,149.73,692,148.59,497.91A346.44,346.44,0,0,1,497.94,148.58C692,149.72,850.26,308,851.41,502.07Z"/><path class="cls-128" d="M851.07,502.07a346.14,346.14,0,0,1-349,349c-193.89-1.16-352-159.27-353.12-353.17a346.1,346.1,0,0,1,349-349C691.83,150.06,849.92,308.17,851.07,502.07Z"/><path class="cls-129" d="M850.73,502.07A345.82,345.82,0,0,1,502.05,850.75C308.34,849.59,150.4,691.62,149.27,497.91A345.76,345.76,0,0,1,497.94,149.26C691.65,150.39,849.59,308.35,850.73,502.07Z"/><path class="cls-130" d="M850.4,502.07A345.5,345.5,0,0,1,502.05,850.41c-193.52-1.16-351.31-159-352.45-352.49A345.44,345.44,0,0,1,497.94,149.6C691.46,150.73,849.25,308.54,850.4,502.07Z"/><path class="cls-131" d="M850.06,502.06a345.15,345.15,0,0,1-348,348c-193.34-1.16-351-158.82-352.11-352.15a345.11,345.11,0,0,1,348-348C691.28,151.06,848.91,308.72,850.06,502.06Z"/><path class="cls-132" d="M849.72,502.06A344.83,344.83,0,0,1,502,849.74c-193.15-1.16-350.63-158.67-351.76-351.82A344.76,344.76,0,0,1,498,150.27C691.09,151.4,848.58,308.91,849.72,502.06Z"/><path class="cls-133" d="M849.39,502.06A344.5,344.5,0,0,1,502,849.4c-193-1.16-350.3-158.52-351.43-351.48A344.44,344.44,0,0,1,498,150.61C690.91,151.73,848.24,309.09,849.39,502.06Z"/><path class="cls-134" d="M849.05,502.06a344.16,344.16,0,0,1-347,347C309.26,847.91,152.08,690.7,151,497.92a344.11,344.11,0,0,1,347-347C690.73,152.07,847.91,309.27,849.05,502.06Z"/><path class="cls-135" d="M848.71,502.06A343.82,343.82,0,0,1,502,848.72c-192.59-1.15-349.62-158.2-350.75-350.79A343.77,343.77,0,0,1,498,151.28C690.54,152.41,847.57,309.46,848.71,502.06Z"/><path class="cls-136" d="M848.38,502.05A343.5,343.5,0,0,1,502,848.39c-192.41-1.16-349.29-158.06-350.42-350.46A343.45,343.45,0,0,1,498,151.62C690.36,152.74,847.23,309.64,848.38,502.05Z"/><path class="cls-137" d="M848,502.05a343.16,343.16,0,0,1-346,346C309.81,846.9,153.09,690.15,152,497.93A343.11,343.11,0,0,1,498,152C690.17,153.08,846.9,309.83,848,502.05Z"/><path class="cls-138" d="M847.7,502.05A342.83,342.83,0,0,1,502,847.71C310,846.56,153.42,690,152.3,497.93A342.78,342.78,0,0,1,498,152.29C690,153.41,846.56,310,847.7,502.05Z"/><path class="cls-139" d="M847.37,502.05A342.51,342.51,0,0,1,502,847.38c-191.85-1.15-348.27-157.6-349.4-349.45A342.45,342.45,0,0,1,498,152.63C689.81,153.75,846.23,310.19,847.37,502.05Z"/><path class="cls-140" d="M847,502.05A342.17,342.17,0,0,1,502,847C310.37,845.89,154.1,689.6,153,497.94A342.13,342.13,0,0,1,498,153C689.62,154.09,845.89,310.38,847,502.05Z"/><path class="cls-141" d="M846.69,502A341.83,341.83,0,0,1,502,846.7c-191.48-1.14-347.6-157.29-348.72-348.76A341.78,341.78,0,0,1,498,153.3C689.44,154.42,845.56,310.56,846.69,502Z"/><path class="cls-142" d="M846.35,502A341.5,341.5,0,0,1,502,846.37c-191.3-1.15-347.26-157.14-348.38-348.43A341.44,341.44,0,0,1,498,153.64C689.25,154.76,845.22,310.75,846.35,502Z"/><path class="cls-143" d="M846,502A341.18,341.18,0,0,1,502,846c-191.1-1.15-346.92-157-348-348.09A341.13,341.13,0,0,1,498,154C689.07,155.09,844.88,310.93,846,502Z"/><path class="cls-144" d="M845.68,502A340.83,340.83,0,0,1,502,845.69c-190.92-1.14-346.58-156.83-347.7-347.75A340.78,340.78,0,0,1,498,154.31C688.89,155.43,844.55,311.11,845.68,502Z"/><path class="cls-145" d="M845.34,502A340.51,340.51,0,0,1,502,845.36C311.29,844.21,155.77,688.68,154.66,498A340.45,340.45,0,0,1,498,154.65C688.7,155.76,844.21,311.3,845.34,502Z"/><path class="cls-146" d="M845,502A340.19,340.19,0,0,1,502,845C311.47,843.88,156.11,688.49,155,498A340.13,340.13,0,0,1,498,155C688.52,156.1,843.88,311.48,845,502Z"/><path class="cls-147" d="M844.67,502A339.84,339.84,0,0,1,502,844.68C311.65,843.54,156.45,688.31,155.33,498A339.79,339.79,0,0,1,498,155.32C688.33,156.44,843.54,311.67,844.67,502Z"/><path class="cls-148" d="M844.33,502A339.52,339.52,0,0,1,502,844.35C311.84,843.21,156.78,688.12,155.67,498A339.45,339.45,0,0,1,498,155.66C688.15,156.77,843.2,311.85,844.33,502Z"/><path class="cls-149" d="M844,502A339.19,339.19,0,0,1,502,844C312,842.87,157.12,687.94,156,498A339.12,339.12,0,0,1,498,156C688,157.11,842.87,312,844,502Z"/><path class="cls-150" d="M843.66,502A338.85,338.85,0,0,1,502,843.67C312.21,842.53,157.45,687.76,156.34,498A338.8,338.8,0,0,1,498,156.33C687.78,157.44,842.53,312.22,843.66,502Z"/><path class="cls-151" d="M843.32,502A338.52,338.52,0,0,1,502,843.34C312.39,842.2,157.79,687.57,156.68,498A338.45,338.45,0,0,1,498,156.67C687.6,157.78,842.2,312.4,843.32,502Z"/><path class="cls-152" d="M843,502A338.19,338.19,0,0,1,502,843c-189.44-1.14-343.88-155.61-345-345A338.13,338.13,0,0,1,498,157C687.41,158.11,841.86,312.59,843,502Z"/><path class="cls-153" d="M842.65,502A337.85,337.85,0,0,1,502,842.66C312.76,841.53,158.46,687.2,157.35,498A337.8,337.8,0,0,1,498,157.34C687.23,158.45,841.53,312.77,842.65,502Z"/><path class="cls-154" d="M842.31,502A337.52,337.52,0,0,1,502,842.33C312.94,841.19,158.8,687,157.69,498A337.46,337.46,0,0,1,498,157.68C687.05,158.79,841.19,313,842.31,502Z"/><path class="cls-155" d="M842,502A337.19,337.19,0,0,1,502,842c-188.87-1.13-342.87-155.15-344-344A337.12,337.12,0,0,1,498,158C686.86,159.12,840.85,313.14,842,502Z"/><path class="cls-156" d="M841.64,502A336.86,336.86,0,0,1,502,841.65c-188.69-1.13-342.53-155-343.64-343.68A336.8,336.8,0,0,1,498,158.35C686.68,159.46,840.52,313.32,841.64,502Z"/><path class="cls-156" d="M841.64,502A336.86,336.86,0,0,1,502,841.65c-188.69-1.13-342.53-155-343.64-343.68A336.8,336.8,0,0,1,498,158.35C686.68,159.46,840.52,313.32,841.64,502Z"/><path class="cls-157" d="M841.3,502A336.52,336.52,0,0,1,502,841.31C313.49,840.18,159.81,686.47,158.7,498A336.46,336.46,0,0,1,498,158.69C686.49,159.79,840.18,313.51,841.3,502Z"/><path class="cls-158" d="M841,502A336.19,336.19,0,0,1,502,841c-188.31-1.13-341.85-154.7-343-343A336.13,336.13,0,0,1,498,159C686.31,160.13,839.85,313.69,841,502Z"/><path class="cls-159" d="M840.63,502A335.86,335.86,0,0,1,502,840.64C313.86,839.51,160.48,686.1,159.37,498A335.81,335.81,0,0,1,498,159.36C686.12,160.47,839.51,313.88,840.63,502Z"/><path class="cls-160" d="M840.29,502A335.52,335.52,0,0,1,502,840.3C314.05,839.18,160.81,685.92,159.71,498A335.48,335.48,0,0,1,498,159.7C685.94,160.8,839.18,314.06,840.29,502Z"/><path class="cls-161" d="M840,502A335.2,335.2,0,0,1,502,840c-187.76-1.13-340.84-154.24-341.94-342A335.13,335.13,0,0,1,498,160C685.76,161.14,838.84,314.24,840,502Z"/><path class="cls-162" d="M839.62,502A334.87,334.87,0,0,1,502,839.63C314.42,838.5,161.48,685.55,160.38,498A334.82,334.82,0,0,1,498,160.37C685.57,161.47,838.5,314.43,839.62,502Z"/><path class="cls-163" d="M839.28,502A334.53,334.53,0,0,1,502,839.29C314.6,838.17,161.82,685.36,160.72,498A334.48,334.48,0,0,1,498,160.71C685.39,161.81,838.17,314.61,839.28,502Z"/><path class="cls-164" d="M838.94,502A334.2,334.2,0,0,1,502,839c-187.2-1.13-339.82-153.78-340.92-341A334.13,334.13,0,0,1,498,161.05C685.2,162.14,837.83,314.8,838.94,502Z"/><path class="cls-165" d="M838.61,502A333.88,333.88,0,0,1,502,838.62C315,837.5,162.49,685,161.39,498A333.83,333.83,0,0,1,498,161.38C685,162.48,837.5,315,838.61,502Z"/><path class="cls-166" d="M838.27,502A333.54,333.54,0,0,1,502,838.28C315.15,837.16,162.83,684.81,161.73,498A333.49,333.49,0,0,1,498,161.72C684.84,162.82,837.16,315.16,838.27,502Z"/><path class="cls-167" d="M837.93,502A333.19,333.19,0,0,1,502,837.94c-186.64-1.12-338.82-153.31-339.91-340A333.14,333.14,0,0,1,498,162.06C684.65,163.15,836.83,315.35,837.93,502Z"/><path class="cls-168" d="M837.6,502A332.88,332.88,0,0,1,502,837.61C315.52,836.49,163.5,684.44,162.41,498A332.79,332.79,0,0,1,498,162.4C684.47,163.49,836.49,315.53,837.6,502Z"/><path class="cls-169" d="M837.26,502A332.54,332.54,0,0,1,502,837.27C315.7,836.15,163.84,684.26,162.74,498A332.49,332.49,0,0,1,498,162.73C684.28,163.82,836.15,315.72,837.26,502Z"/><path class="cls-170" d="M836.92,502A332.2,332.2,0,0,1,502,836.93C315.89,835.82,164.17,684.08,163.08,498A332.15,332.15,0,0,1,498,163.07C684.1,164.16,835.82,315.9,836.92,502Z"/><path class="cls-171" d="M836.58,502A331.88,331.88,0,0,1,502,836.6C316.07,835.48,164.51,683.89,163.42,498A331.81,331.81,0,0,1,498,163.41C683.92,164.5,835.48,316.08,836.58,502Z"/><path class="cls-172" d="M836.25,502A331.54,331.54,0,0,1,502,836.26C316.26,835.15,164.84,683.71,163.75,498A331.5,331.5,0,0,1,498,163.74C683.73,164.83,835.15,316.27,836.25,502Z"/><path class="cls-173" d="M835.91,502A331.2,331.2,0,0,1,502,835.92C316.44,834.81,165.18,683.52,164.09,498A331.15,331.15,0,0,1,498,164.08C683.55,165.17,834.81,316.45,835.91,502Z"/><path class="cls-174" d="M835.57,502A330.87,330.87,0,0,1,502,835.59C316.63,834.47,165.51,683.34,164.43,498A330.81,330.81,0,0,1,498,164.42C683.36,165.5,834.48,316.64,835.57,502Z"/><path class="cls-175" d="M835.24,502A330.55,330.55,0,0,1,502,835.25C316.81,834.14,165.85,683.16,164.76,498A330.5,330.5,0,0,1,498,164.75C683.18,165.84,834.14,316.82,835.24,502Z"/><path class="cls-176" d="M834.9,502A330.22,330.22,0,0,1,502,834.91C317,833.8,166.19,683,165.1,498A330.16,330.16,0,0,1,498,165.09C683,166.18,833.8,317,834.9,502Z"/><path class="cls-177" d="M834.56,502A329.87,329.87,0,0,1,502,834.57C317.18,833.47,166.52,682.79,165.44,498A329.82,329.82,0,0,1,498,165.43C682.81,166.51,833.47,317.19,834.56,502Z"/><path class="cls-178" d="M834.23,502A329.56,329.56,0,0,1,502,834.24C317.36,833.13,166.86,682.6,165.77,498A329.5,329.5,0,0,1,498,165.76C682.63,166.85,833.13,317.37,834.23,502Z"/><path class="cls-179" d="M833.89,502A329.21,329.21,0,0,1,502,833.9C317.55,832.79,167.19,682.42,166.11,498A329.16,329.16,0,0,1,498,166.1C682.44,167.18,832.8,317.56,833.89,502Z"/><path class="cls-180" d="M833.55,502A328.87,328.87,0,0,1,502,833.56C317.73,832.46,167.53,682.24,166.45,498A328.83,328.83,0,0,1,498,166.44C682.26,167.52,832.46,317.74,833.55,502Z"/><path class="cls-181" d="M833.22,502A328.57,328.57,0,0,1,502,833.23c-184-1.11-334.09-151.18-335.17-335.21A328.51,328.51,0,0,1,498,166.77C682.07,167.86,832.13,317.93,833.22,502Z"/><path class="cls-182" d="M832.88,502A328.22,328.22,0,0,1,502,832.89C318.1,831.79,168.2,681.87,167.12,498A328.17,328.17,0,0,1,498.05,167.11C681.89,168.19,831.79,318.11,832.88,502Z"/><path class="cls-183" d="M832.54,502a327.88,327.88,0,0,1-330.6,330.59C318.28,831.45,168.54,681.68,167.46,498A327.82,327.82,0,0,1,498.05,167.45C681.71,168.53,831.45,318.29,832.54,502Z"/><path class="cls-184" d="M832.2,502A327.56,327.56,0,0,1,501.94,832.22C318.47,831.11,168.87,681.5,167.8,498A327.5,327.5,0,0,1,498.05,167.78C681.52,168.86,831.12,318.48,832.2,502Z"/><path class="cls-185" d="M831.87,502A327.23,327.23,0,0,1,501.94,831.88C318.65,830.78,169.21,681.31,168.13,498A327.18,327.18,0,0,1,498.05,168.12C681.34,169.2,830.78,318.66,831.87,502Z"/><path class="cls-186" d="M831.53,502A326.89,326.89,0,0,1,501.94,831.54c-183.1-1.1-332.4-150.41-333.47-333.51A326.84,326.84,0,0,1,498.05,168.46C681.15,169.53,830.45,318.85,831.53,502Z"/><path class="cls-187" d="M831.19,502A326.55,326.55,0,0,1,501.94,831.2C319,830.11,169.88,681,168.81,498A326.49,326.49,0,0,1,498.06,168.8C681,169.87,830.11,319,831.19,502Z"/><path class="cls-188" d="M830.86,502A326.23,326.23,0,0,1,501.93,830.87C319.2,829.77,170.22,680.76,169.14,498a326.17,326.17,0,0,1,328.92-328.9C680.79,170.21,829.78,319.21,830.86,502Z"/><path class="cls-189" d="M830.52,502A325.89,325.89,0,0,1,501.93,830.53C319.39,829.44,170.55,680.58,169.48,498A325.84,325.84,0,0,1,498.06,169.47C680.6,170.54,829.44,319.4,830.52,502Z"/><path class="cls-190" d="M830.18,502A325.55,325.55,0,0,1,501.93,830.19c-182.36-1.09-331-149.8-332.11-332.15A325.5,325.5,0,0,1,498.06,169.81C680.42,170.88,829.1,319.58,830.18,502Z"/><path class="cls-191" d="M829.85,501.94A325.24,325.24,0,0,1,501.93,829.86C319.76,828.76,171.22,680.21,170.15,498a325.19,325.19,0,0,1,327.91-327.9C680.23,171.21,828.77,319.77,829.85,501.94Z"/><path class="cls-192" d="M829.51,501.94A324.9,324.9,0,0,1,501.92,829.52C319.94,828.43,171.56,680,170.49,498A324.84,324.84,0,0,1,498.07,170.48C680.05,171.55,828.43,320,829.51,501.94Z"/><path class="cls-193" d="M829.17,501.94A324.55,324.55,0,0,1,501.92,829.18c-181.8-1.09-330-149.34-331.09-331.14A324.5,324.5,0,0,1,498.07,170.82C679.87,171.89,828.1,320.13,829.17,501.94Z"/><path class="cls-194" d="M828.84,501.94a324.23,324.23,0,0,1-326.92,326.9C320.31,827.76,172.23,679.66,171.16,498A324.19,324.19,0,0,1,498.07,171.15C679.68,172.22,827.76,320.32,828.84,501.94Z"/><path class="cls-195" d="M828.5,501.94A323.9,323.9,0,0,1,501.92,828.51c-181.43-1.09-329.35-149-330.42-330.46A323.85,323.85,0,0,1,498.07,171.49C679.5,172.56,827.43,320.5,828.5,501.94Z"/><path class="cls-196" d="M828.16,501.93A323.57,323.57,0,0,1,501.92,828.17c-181.24-1.09-329-148.88-330.08-330.12A323.51,323.51,0,0,1,498.07,171.83C679.31,172.89,827.09,320.69,828.16,501.93Z"/><path class="cls-197" d="M827.82,501.93a323.23,323.23,0,0,1-325.91,325.9c-181-1.08-328.67-148.72-329.73-329.78a323.18,323.18,0,0,1,325.9-325.89C679.13,173.23,826.75,320.87,827.82,501.93Z"/><path class="cls-198" d="M827.49,501.93A322.91,322.91,0,0,1,501.91,827.5c-180.86-1.09-328.34-148.58-329.4-329.45A322.85,322.85,0,0,1,498.08,172.5C679,173.57,826.42,321.05,827.49,501.93Z"/><path class="cls-199" d="M827.15,501.93A322.57,322.57,0,0,1,501.91,827.16c-180.68-1.08-328-148.42-329.06-329.11A322.51,322.51,0,0,1,498.08,172.84C678.76,173.9,826.08,321.24,827.15,501.93Z"/><path class="cls-200" d="M826.81,501.93a322.22,322.22,0,0,1-324.9,324.89c-180.5-1.08-327.67-148.27-328.72-328.76A322.19,322.19,0,0,1,498.08,173.17C678.58,174.24,825.75,321.42,826.81,501.93Z"/><path class="cls-201" d="M826.48,501.92A321.92,321.92,0,0,1,501.91,826.49C321.6,825.4,174.58,678.37,173.52,498.06A321.86,321.86,0,0,1,498.08,173.51C678.39,174.57,825.41,321.61,826.48,501.92Z"/><path class="cls-202" d="M826.14,501.92A321.58,321.58,0,0,1,501.9,826.15c-180.12-1.08-327-148-328-328.09A321.52,321.52,0,0,1,498.09,173.85C678.21,174.91,825.08,321.79,826.14,501.92Z"/><path class="cls-203" d="M825.8,501.92A321.23,321.23,0,0,1,501.9,825.81C322,824.73,175.25,678,174.2,498.06A321.19,321.19,0,0,1,498.09,174.18C678,175.25,824.74,322,825.8,501.92Z"/><path class="cls-204" d="M825.47,501.92A320.91,320.91,0,0,1,501.9,825.47C322.15,824.4,175.59,677.82,174.53,498.06A320.86,320.86,0,0,1,498.09,174.52C677.84,175.58,824.4,322.16,825.47,501.92Z"/><path class="cls-205" d="M825.13,501.92A320.58,320.58,0,0,1,501.9,825.14c-179.57-1.08-326-147.51-327-327.07A320.53,320.53,0,0,1,498.09,174.86C677.66,175.92,824.07,322.34,825.13,501.92Z"/><path class="cls-206" d="M824.79,501.92A320.24,320.24,0,0,1,501.9,824.8c-179.38-1.07-325.64-147.35-326.69-326.73A320.19,320.19,0,0,1,498.09,175.2C677.47,176.25,823.73,322.53,824.79,501.92Z"/><path class="cls-207" d="M824.46,501.91A319.92,319.92,0,0,1,501.89,824.46C322.7,823.39,176.6,677.27,175.54,498.07A319.87,319.87,0,0,1,498.1,175.53C677.29,176.59,823.4,322.71,824.46,501.91Z"/><path class="cls-208" d="M824.12,501.91A319.59,319.59,0,0,1,501.89,824.13c-179-1.08-325-147-326-326.06A319.52,319.52,0,0,1,498.1,175.87C677.1,176.92,823.06,322.9,824.12,501.91Z"/><path class="cls-209" d="M823.78,501.91A319.24,319.24,0,0,1,501.89,823.79C323.07,822.72,177.27,676.9,176.22,498.07A319.19,319.19,0,0,1,498.1,176.21C676.92,177.26,822.73,323.08,823.78,501.91Z"/><path class="cls-210" d="M823.44,501.91A318.9,318.9,0,0,1,501.89,823.45C323.26,822.38,177.6,676.71,176.56,498.08A318.87,318.87,0,0,1,498.1,176.54C676.74,177.6,822.39,323.26,823.44,501.91Z"/><path class="cls-211" d="M823.11,501.91A318.59,318.59,0,0,1,501.89,823.12c-178.45-1.07-323.95-146.59-325-325A318.53,318.53,0,0,1,498.1,176.88C676.55,177.93,822.05,323.45,823.11,501.91Z"/><path class="cls-212" d="M822.77,501.9A318.26,318.26,0,0,1,501.88,822.78c-178.26-1.07-323.61-146.43-324.65-324.7A318.2,318.2,0,0,1,498.11,177.22C676.37,178.27,821.72,323.63,822.77,501.9Z"/><path class="cls-213" d="M822.43,501.9A317.91,317.91,0,0,1,501.88,822.44c-178.07-1.07-323.27-146.28-324.31-324.36A317.86,317.86,0,0,1,498.11,177.55C676.18,178.6,821.38,323.82,822.43,501.9Z"/><path class="cls-214" d="M822.1,501.9A317.58,317.58,0,0,1,501.88,822.1C324,821,179,676,177.9,498.08A317.54,317.54,0,0,1,498.11,177.89C676,178.94,821.05,324,822.1,501.9Z"/><path class="cls-215" d="M821.76,501.9A317.25,317.25,0,0,1,501.88,821.77c-177.7-1.07-322.6-146-323.64-323.68A317.2,317.2,0,0,1,498.11,178.23C675.82,179.28,820.71,324.18,821.76,501.9Z"/><path class="cls-216" d="M821.42,501.9A316.91,316.91,0,0,1,501.88,821.43c-177.52-1.06-322.26-145.82-323.3-323.34A316.87,316.87,0,0,1,498.11,178.56C675.63,179.61,820.38,324.37,821.42,501.9Z"/><path class="cls-217" d="M821.09,501.89a316.6,316.6,0,0,1-319.22,319.2c-177.33-1.06-321.92-145.66-323-323A316.55,316.55,0,0,1,498.12,178.9C675.45,180,820,324.55,821.09,501.89Z"/><path class="cls-218" d="M820.75,501.89A316.26,316.26,0,0,1,501.87,820.76c-177.14-1.07-321.58-145.52-322.62-322.67A316.2,316.2,0,0,1,498.12,179.24C675.26,180.28,819.7,324.74,820.75,501.89Z"/><path class="cls-219" d="M820.41,501.89A315.92,315.92,0,0,1,501.87,820.42c-177-1.06-321.24-145.36-322.28-322.33A315.88,315.88,0,0,1,498.12,179.57C675.08,180.62,819.37,324.92,820.41,501.89Z"/><path class="cls-220" d="M820.08,501.89A315.6,315.6,0,0,1,501.87,820.08C325.1,819,181,674.87,179.92,498.1a315.56,315.56,0,0,1,318.2-318.19C674.9,181,819,325.1,820.08,501.89Z"/><path class="cls-221" d="M819.74,501.89A315.27,315.27,0,0,1,501.87,819.75C325.28,818.69,181.3,674.69,180.26,498.1A315.21,315.21,0,0,1,498.12,180.25C674.71,181.29,818.7,325.29,819.74,501.89Z"/><path class="cls-222" d="M819.4,501.88A314.93,314.93,0,0,1,501.86,819.41C325.47,818.35,181.63,674.51,180.6,498.1A314.89,314.89,0,0,1,498.13,180.58C674.53,181.63,818.36,325.47,819.4,501.88Z"/><path class="cls-223" d="M819.06,501.88a314.58,314.58,0,0,1-317.2,317.19C325.65,818,182,674.32,180.94,498.1A314.54,314.54,0,0,1,498.13,180.92C674.34,182,818,325.66,819.06,501.88Z"/><path class="cls-224" d="M818.73,501.88A314.26,314.26,0,0,1,501.86,818.73c-176-1.05-319.56-144.59-320.59-320.63A314.21,314.21,0,0,1,498.13,181.26C674.16,182.3,817.69,325.84,818.73,501.88Z"/><path class="cls-225" d="M818.39,501.88A313.93,313.93,0,0,1,501.86,818.4C326,817.34,182.64,674,181.61,498.11A313.88,313.88,0,0,1,498.13,181.6C674,182.64,817.35,326,818.39,501.88Z"/><path class="cls-226" d="M818.05,501.88A313.59,313.59,0,0,1,501.86,818.06C326.2,817,183,673.77,182,498.11A313.55,313.55,0,0,1,498.14,181.93C673.79,183,817,326.21,818.05,501.88Z"/><path class="cls-227" d="M817.72,501.87A313.27,313.27,0,0,1,501.85,817.72c-175.46-1.05-318.54-144.14-319.57-319.61A313.22,313.22,0,0,1,498.14,182.27C673.61,183.31,816.68,326.39,817.72,501.87Z"/><path class="cls-228" d="M817.38,501.87A312.94,312.94,0,0,1,501.85,817.39c-175.28-1-318.2-144-319.23-319.28a312.88,312.88,0,0,1,315.52-315.5C673.42,183.64,816.35,326.58,817.38,501.87Z"/><path class="cls-229" d="M817,501.87A312.6,312.6,0,0,1,501.85,817.05C326.75,816,184,673.22,183,498.11A312.55,312.55,0,0,1,498.14,182.94C673.24,184,816,326.76,817,501.87Z"/><path class="cls-230" d="M816.71,501.87A312.27,312.27,0,0,1,501.85,816.71C326.94,815.66,184.32,673,183.29,498.11A312.22,312.22,0,0,1,498.14,183.28C673.05,184.31,815.68,327,816.71,501.87Z"/><path class="cls-231" d="M816.37,501.87a311.93,311.93,0,0,1-314.52,314.5c-174.73-1-317.2-143.52-318.22-318.25a311.89,311.89,0,0,1,314.52-314.5C672.87,184.65,815.34,327.13,816.37,501.87Z"/><path class="cls-232" d="M816,501.86A311.61,311.61,0,0,1,501.84,816C327.31,815,185,672.66,184,498.12A311.56,311.56,0,0,1,498.15,184C672.69,185,815,327.31,816,501.86Z"/><path class="cls-233" d="M815.7,501.86A311.27,311.27,0,0,1,501.84,815.7c-174.35-1-316.51-143.22-317.54-317.58A311.23,311.23,0,0,1,498.15,184.29C672.5,185.32,814.67,327.5,815.7,501.86Z"/><path class="cls-234" d="M815.36,501.86a310.94,310.94,0,0,1-313.52,313.5c-174.16-1-316.18-143.06-317.2-317.24A310.89,310.89,0,0,1,498.15,184.63C672.32,185.66,814.33,327.68,815.36,501.86Z"/><path class="cls-235" d="M815,501.86A310.61,310.61,0,0,1,501.84,815C327.86,814,186,672.11,185,498.12A310.56,310.56,0,0,1,498.15,185C672.13,186,814,327.87,815,501.86Z"/><path class="cls-236" d="M814.69,501.86A310.28,310.28,0,0,1,501.84,814.69c-173.8-1-315.51-142.76-316.52-316.56A310.23,310.23,0,0,1,498.16,185.3C672,186.33,813.66,328.05,814.69,501.86Z"/><path class="cls-237" d="M814.35,501.85a310,310,0,0,1-312.52,312.5c-173.6-1-315.16-142.61-316.18-316.22A309.9,309.9,0,0,1,498.16,185.64C671.77,186.67,813.33,328.23,814.35,501.85Z"/><path class="cls-238" d="M814,501.85A309.61,309.61,0,0,1,501.83,814C328.41,813,187,671.56,186,498.13A309.58,309.58,0,0,1,498.16,186C671.58,187,813,328.42,814,501.85Z"/><path class="cls-239" d="M813.67,501.85A309.27,309.27,0,0,1,501.83,813.68c-173.23-1-314.49-142.3-315.5-315.55A309.23,309.23,0,0,1,498.16,186.31C671.4,187.34,812.65,328.6,813.67,501.85Z"/><path class="cls-240" d="M813.34,501.85A309,309,0,0,1,501.83,813.34c-173-1-314.15-142.15-315.17-315.21a308.9,308.9,0,0,1,311.5-311.48C671.21,187.67,812.32,328.79,813.34,501.85Z"/><path class="cls-241" d="M813,501.85A308.6,308.6,0,0,1,501.83,813C329,812,188,671,187,498.14A308.58,308.58,0,0,1,498.17,187C671,188,812,329,813,501.85Z"/><path class="cls-242" d="M812.66,501.84A308.28,308.28,0,0,1,501.82,812.67c-172.67-1-313.47-141.85-314.48-314.53A308.24,308.24,0,0,1,498.17,187.32C670.85,188.35,811.65,329.15,812.66,501.84Z"/><path class="cls-243" d="M812.33,501.84A308,308,0,0,1,501.82,812.33c-172.49-1-313.14-141.69-314.15-314.19a307.91,307.91,0,0,1,310.5-310.48C670.66,188.68,811.31,329.34,812.33,501.84Z"/><path class="cls-244" d="M812,501.84A307.61,307.61,0,0,1,501.82,812C329.52,811,189,670.46,188,498.14A307.56,307.56,0,0,1,498.17,188C670.48,189,811,329.52,812,501.84Z"/><path class="cls-245" d="M811.65,501.84A307.29,307.29,0,0,1,501.82,811.66c-172.12-1-312.46-141.39-313.47-313.52A307.24,307.24,0,0,1,498.17,188.33C670.29,189.35,810.64,329.71,811.65,501.84Z"/><path class="cls-246" d="M811.32,501.84a307,307,0,0,1-309.5,309.48c-171.93-1-312.13-141.23-313.14-313.17a306.92,306.92,0,0,1,309.5-309.48C670.11,189.69,810.3,329.89,811.32,501.84Z"/><path class="cls-247" d="M811,501.83A306.62,306.62,0,0,1,501.81,811C330.07,810,190,669.9,189,498.15A306.57,306.57,0,0,1,498.18,189C669.93,190,810,330.07,811,501.83Z"/><path class="cls-248" d="M810.64,501.83A306.29,306.29,0,0,1,501.81,810.65c-171.56-1-311.45-140.93-312.45-312.5A306.25,306.25,0,0,1,498.18,189.34C669.74,190.36,809.63,330.26,810.64,501.83Z"/><path class="cls-249" d="M810.31,501.83a306,306,0,0,1-308.5,308.48c-171.37-1-311.11-140.77-312.12-312.16A305.92,305.92,0,0,1,498.18,189.68C669.56,190.7,809.3,330.44,810.31,501.83Z"/><path class="cls-250" d="M810,501.83A305.63,305.63,0,0,1,501.81,810C330.62,809,191,669.35,190,498.15A305.57,305.57,0,0,1,498.18,190C669.37,191,809,330.63,810,501.83Z"/><path class="cls-251" d="M809.63,501.83a305.29,305.29,0,0,1-307.82,307.8c-171-1-310.44-140.46-311.44-311.47A305.25,305.25,0,0,1,498.19,190.35C669.19,191.37,808.63,330.81,809.63,501.83Z"/><path class="cls-252" d="M809.29,501.82A305,305,0,0,1,501.8,809.3C331,808.27,191.71,669,190.71,498.16A304.91,304.91,0,0,1,498.19,190.69C669,191.7,808.29,331,809.29,501.82Z"/><path class="cls-253" d="M809,501.82A304.62,304.62,0,0,1,501.8,809C331.17,807.94,192,668.8,191,498.16A304.59,304.59,0,0,1,498.19,191C668.82,192,808,331.18,809,501.82Z"/><path class="cls-254" d="M808.62,501.82A304.29,304.29,0,0,1,501.8,808.62c-170.44-1-309.42-140-310.42-310.46a304.25,304.25,0,0,1,306.81-306.8C668.64,192.38,807.62,331.36,808.62,501.82Z"/><path class="cls-255" d="M808.28,501.82A304,304,0,0,1,501.8,808.29c-170.26-1-309.09-139.86-310.08-310.13A303.91,303.91,0,0,1,498.19,191.7C668.45,192.71,807.28,331.55,808.28,501.82Z"/><path class="cls-256" d="M808,501.82A303.64,303.64,0,0,1,501.8,808c-170.07-1-308.75-139.7-309.75-309.78A303.59,303.59,0,0,1,498.2,192C668.27,193.05,807,331.73,808,501.82Z"/><path class="cls-257" d="M807.61,501.81a303.3,303.3,0,0,1-305.82,305.8c-169.88-1-308.4-139.55-309.4-309.44A303.26,303.26,0,0,1,498.2,192.37C668.08,193.38,806.61,331.92,807.61,501.81Z"/><path class="cls-258" d="M807.27,501.81A303,303,0,0,1,501.79,807.27c-169.69-1-308.07-139.39-309.06-309.1A302.93,302.93,0,0,1,498.2,192.71C667.9,193.72,806.28,332.1,807.27,501.81Z"/><path class="cls-259" d="M806.94,501.81A302.64,302.64,0,0,1,501.79,806.94c-169.51-1-307.73-139.24-308.73-308.77A302.59,302.59,0,0,1,498.2,193.05C667.72,194.06,805.94,332.28,806.94,501.81Z"/><path class="cls-260" d="M806.6,501.81A302.3,302.3,0,0,1,501.79,806.6c-169.33-1-307.4-139.09-308.39-308.43A302.26,302.26,0,0,1,498.2,193.38C667.53,194.39,805.6,332.47,806.6,501.81Z"/><path class="cls-261" d="M806.26,501.81A302,302,0,0,1,501.79,806.26c-169.14-1-307.06-138.93-308-308.08A301.93,301.93,0,0,1,498.21,193.72C667.35,194.73,805.27,332.65,806.26,501.81Z"/><path class="cls-262" d="M805.93,501.8A301.65,301.65,0,0,1,501.78,805.93c-168.95-1-306.72-138.79-307.71-307.75A301.6,301.6,0,0,1,498.21,194.06C667.16,195.06,804.93,332.84,805.93,501.8Z"/><path class="cls-263" d="M805.59,501.8A301.3,301.3,0,0,1,501.78,805.59C333,804.58,195.4,667,194.41,498.18A301.26,301.26,0,0,1,498.21,194.4C667,195.4,804.6,333,805.59,501.8Z"/><path class="cls-264" d="M805.25,501.8A301,301,0,0,1,501.78,805.25c-168.58-1-306-138.47-307-307.07A300.92,300.92,0,0,1,498.21,194.73C666.8,195.74,804.26,333.2,805.25,501.8Z"/><path class="cls-265" d="M804.91,501.8A300.64,300.64,0,0,1,501.78,804.92c-168.39-1-305.71-138.33-306.69-306.74A300.59,300.59,0,0,1,498.21,195.07C666.61,196.07,803.93,333.39,804.91,501.8Z"/><path class="cls-266" d="M804.58,501.8A300.32,300.32,0,0,1,501.77,804.58c-168.2-1-305.36-138.17-306.35-306.39a300.27,300.27,0,0,1,302.8-302.78C666.43,196.41,803.59,333.57,804.58,501.8Z"/><path class="cls-267" d="M804.24,501.79A300,300,0,0,1,501.77,804.24c-168-1-305-138-306-306A299.94,299.94,0,0,1,498.22,195.74C666.24,196.74,803.25,333.76,804.24,501.79Z"/><path class="cls-268" d="M803.9,501.79A299.63,299.63,0,0,1,501.77,803.9C333.94,802.9,197.08,666,196.1,498.19A299.6,299.6,0,0,1,498.22,196.08C666.06,197.08,802.92,333.94,803.9,501.79Z"/><path class="cls-269" d="M803.57,501.79a299.31,299.31,0,0,1-301.8,301.78c-167.65-1-304.35-137.72-305.34-305.38A299.27,299.27,0,0,1,498.22,196.42C665.88,197.41,802.58,334.12,803.57,501.79Z"/><path class="cls-270" d="M803.23,501.79A299,299,0,0,1,501.77,803.23c-167.46-1-304-137.56-305-305A298.94,298.94,0,0,1,498.22,196.75C665.69,197.75,802.25,334.31,803.23,501.79Z"/><path class="cls-271" d="M802.89,501.79a298.64,298.64,0,0,1-301.13,301.1c-167.27-1-303.67-137.4-304.65-304.69A298.61,298.61,0,0,1,498.23,197.09C665.51,198.09,801.91,334.49,802.89,501.79Z"/><path class="cls-272" d="M802.56,501.78a298.33,298.33,0,0,1-300.8,300.78c-167.09-1-303.34-137.26-304.32-304.36A298.28,298.28,0,0,1,498.23,197.43C665.32,198.42,801.58,334.68,802.56,501.78Z"/><path class="cls-273" d="M802.22,501.78A298,298,0,0,1,501.76,802.22c-166.9-1-303-137.1-304-304A298,298,0,0,1,498.23,197.76C665.14,198.76,801.24,334.86,802.22,501.78Z"/><path class="cls-274" d="M801.88,501.78a297.64,297.64,0,0,1-300.12,300.1c-166.72-1-302.67-137-303.64-303.68A297.6,297.6,0,0,1,498.23,198.1C665,199.09,800.9,335.05,801.88,501.78Z"/><path class="cls-275" d="M801.55,501.78A297.33,297.33,0,0,1,501.76,801.55c-166.53-1-302.33-136.8-303.31-303.35A297.28,297.28,0,0,1,498.23,198.44C664.77,199.43,800.57,335.23,801.55,501.78Z"/><path class="cls-276" d="M801.21,501.78A297,297,0,0,1,501.75,801.21c-166.34-1-302-136.64-303-303A297,297,0,0,1,498.24,198.77C664.59,199.77,800.23,335.41,801.21,501.78Z"/><path class="cls-277" d="M800.87,501.77a296.65,296.65,0,0,1-299.12,299.1c-166.15-1-301.65-136.49-302.62-302.66a296.61,296.61,0,0,1,299.11-299.1C664.4,200.1,799.9,335.6,800.87,501.77Z"/><path class="cls-278" d="M800.53,501.77A296.3,296.3,0,0,1,501.75,800.53c-166-1-301.31-136.33-302.28-302.32A296.27,296.27,0,0,1,498.24,199.45C664.22,200.44,799.56,335.78,800.53,501.77Z"/><path class="cls-279" d="M800.2,501.77A296,296,0,0,1,501.75,800.2c-165.79-1-301-136.19-301.95-302A296,296,0,0,1,498.24,199.78C664,200.77,799.22,336,800.2,501.77Z"/><path class="cls-280" d="M799.86,501.77A295.65,295.65,0,0,1,501.75,799.86c-165.6-1-300.64-136-301.61-301.65a295.61,295.61,0,0,1,298.1-298.09C663.85,201.11,798.89,336.15,799.86,501.77Z"/><path class="cls-281" d="M799.52,501.77A295.32,295.32,0,0,1,501.74,799.52c-165.41-1-300.3-135.87-301.26-301.3A295.28,295.28,0,0,1,498.25,200.46C663.67,201.45,798.55,336.33,799.52,501.77Z"/><path class="cls-282" d="M799.19,501.76A295,295,0,0,1,501.74,799.19c-165.22-1-300-135.73-300.93-301A295,295,0,0,1,498.25,200.8C663.48,201.78,798.22,336.52,799.19,501.76Z"/><path class="cls-283" d="M798.85,501.76A294.66,294.66,0,0,1,501.74,798.85c-165-1-299.62-135.57-300.59-300.63a294.62,294.62,0,0,1,297.1-297.09C663.3,202.12,797.88,336.7,798.85,501.76Z"/><path class="cls-284" d="M798.51,501.76A294.31,294.31,0,0,1,501.74,798.51c-164.86-1-299.29-135.42-300.25-300.29A294.28,294.28,0,0,1,498.25,201.47C663.11,202.45,797.55,336.89,798.51,501.76Z"/><path class="cls-285" d="M798.18,501.76A294,294,0,0,1,501.74,798.18c-164.67-1-299-135.27-299.92-300A294,294,0,0,1,498.25,201.81C662.93,202.79,797.21,337.07,798.18,501.76Z"/><path class="cls-286" d="M797.84,501.76A293.67,293.67,0,0,1,501.73,797.84c-164.48-1-298.61-135.11-299.57-299.61a293.63,293.63,0,0,1,296.1-296.09C662.75,203.13,796.87,337.25,797.84,501.76Z"/><path class="cls-287" d="M797.5,501.75A293.33,293.33,0,0,1,501.73,797.5c-164.29-1-298.27-135-299.23-299.27A293.29,293.29,0,0,1,498.26,202.48C662.56,203.46,796.54,337.44,797.5,501.75Z"/><path class="cls-288" d="M797.17,501.75A293,293,0,0,1,501.73,797.16c-164.11-1-297.93-134.8-298.9-298.93A293,293,0,0,1,498.26,202.82C662.38,203.8,796.2,337.62,797.17,501.75Z"/><path class="cls-289" d="M796.83,501.75a292.66,292.66,0,0,1-295.1,295.08c-163.92-1-297.6-134.66-298.56-298.6A292.64,292.64,0,0,1,498.26,203.15C662.19,204.13,795.87,337.81,796.83,501.75Z"/><path class="cls-290" d="M796.49,501.75A292.33,292.33,0,0,1,501.73,796.49C338,795.51,204.47,662,203.51,498.23A292.29,292.29,0,0,1,498.26,203.49C662,204.47,795.53,338,796.49,501.75Z"/><path class="cls-291" d="M796.15,501.75a292,292,0,0,1-294.43,294.4c-163.55-1-296.92-134.34-297.87-297.91A292,292,0,0,1,498.27,203.83C661.83,204.8,795.2,338.17,796.15,501.75Z"/><path class="cls-292" d="M795.82,501.74a291.69,291.69,0,0,1-294.1,294.08c-163.36-1-296.58-134.2-297.54-297.58A291.64,291.64,0,0,1,498.27,204.16C661.64,205.14,794.86,338.36,795.82,501.74Z"/><path class="cls-293" d="M795.48,501.74A291.34,291.34,0,0,1,501.72,795.48c-163.18-1-296.25-134-297.2-297.24A291.3,291.3,0,0,1,498.27,204.5C661.46,205.48,794.52,338.54,795.48,501.74Z"/><path class="cls-294" d="M795.14,501.74a291,291,0,0,1-293.42,293.4c-163-1-295.91-133.89-296.86-296.9a291,291,0,0,1,293.41-293.4C661.27,205.81,794.19,338.73,795.14,501.74Z"/><path class="cls-295" d="M794.81,501.74A290.67,290.67,0,0,1,501.72,794.8c-162.81-1-295.57-133.73-296.53-296.56A290.64,290.64,0,0,1,498.27,205.17C661.09,206.15,793.85,338.91,794.81,501.74Z"/><path class="cls-296" d="M794.47,501.74A290.34,290.34,0,0,1,501.71,794.47c-162.62-1-295.23-133.58-296.18-296.22A290.31,290.31,0,0,1,498.28,205.51C660.91,206.48,793.52,339.09,794.47,501.74Z"/><path class="cls-297" d="M794.13,501.73a290,290,0,0,1-292.42,292.4c-162.43-1-294.89-133.43-295.84-295.88a290,290,0,0,1,292.41-292.4C660.72,206.82,793.18,339.28,794.13,501.73Z"/><path class="cls-298" d="M793.8,501.73A289.68,289.68,0,0,1,501.71,793.79c-162.25-1-294.56-133.27-295.51-295.54A289.65,289.65,0,0,1,498.28,206.18C660.54,207.16,792.85,339.46,793.8,501.73Z"/><path class="cls-299" d="M793.46,501.73A289.34,289.34,0,0,1,501.71,793.46c-162.06-1-294.22-133.13-295.17-295.21A289.31,289.31,0,0,1,498.28,206.52C660.35,207.49,792.51,339.65,793.46,501.73Z"/><path class="cls-300" d="M793.12,501.73A289,289,0,0,1,501.71,793.12c-161.88-1-293.89-133-294.83-294.87a289,289,0,0,1,291.4-291.39C660.17,207.83,792.17,339.83,793.12,501.73Z"/><path class="cls-301" d="M792.79,501.73a288.68,288.68,0,0,1-291.09,291C340,791.82,208.16,660,207.21,498.26A288.64,288.64,0,0,1,498.29,207.2C660,208.16,791.84,340,792.79,501.73Z"/><path class="cls-302" d="M792.45,501.72A288.36,288.36,0,0,1,501.7,792.45c-161.5-1-293.2-132.67-294.15-294.19A288.31,288.31,0,0,1,498.29,207.53C659.8,208.5,791.5,340.2,792.45,501.72Z"/><path class="cls-303" d="M792.11,501.72A288,288,0,0,1,501.7,792.11c-161.32-1-292.87-132.51-293.81-293.85a288,288,0,0,1,290.4-290.39C659.62,208.84,791.17,340.38,792.11,501.72Z"/><path class="cls-304" d="M791.78,501.72a287.68,287.68,0,0,1-290.08,290c-161.13-1-292.53-132.36-293.47-293.51a287.64,287.64,0,0,1,290.06-290C659.43,209.17,790.83,340.57,791.78,501.72Z"/><path class="cls-305" d="M791.44,501.72A287.34,287.34,0,0,1,501.7,791.43c-160.95-1-292.2-132.2-293.14-293.17A287.32,287.32,0,0,1,498.29,208.54C659.25,209.51,790.5,340.75,791.44,501.72Z"/><path class="cls-306" d="M791.1,501.72A287,287,0,0,1,501.69,791.1c-160.75-1-291.85-132.05-292.79-292.83A287,287,0,0,1,498.3,208.88C659.06,209.84,790.16,340.94,791.1,501.72Z"/><path class="cls-307" d="M790.76,501.71A286.68,286.68,0,0,1,501.69,790.76c-160.57-1-291.51-131.9-292.45-292.49a286.63,286.63,0,0,1,289.06-289C658.88,210.18,789.82,341.12,790.76,501.71Z"/><path class="cls-308" d="M790.43,501.71A286.36,286.36,0,0,1,501.69,790.42c-160.39-.95-291.18-131.74-292.12-292.15A286.32,286.32,0,0,1,498.3,209.55C658.7,210.52,789.49,341.3,790.43,501.71Z"/><path class="cls-309" d="M498.3,209.89A286,286,0,0,0,209.91,498.27c.94,160.22,131.58,290.86,291.78,291.82a286,286,0,0,0,288.4-288.38C789.15,341.49,658.51,210.85,498.3,209.89Z"/></svg>