<svg id="Layer_1" data-name="Layer 1" xmlns="http://www.w3.org/2000/svg" xmlns:xlink="http://www.w3.org/1999/xlink" viewBox="0 0 1000 1000"><defs><style>.cls-1{fill:url(#未命名的渐变_304);}.cls-2{fill:url(#未命名的渐变_293);}.cls-3{fill:url(#未命名的渐变_258);}</style><linearGradient id="未命名的渐变_304" x1="500" y1="154.64" x2="500" y2="845.44" gradientTransform="translate(500 -207.11) rotate(45)" gradientUnits="userSpaceOnUse"><stop offset="0.01" stop-color="#bcbbbb"/><stop offset="0.23" stop-color="#a1a0a0"/><stop offset="0.55" stop-color="#818181"/><stop offset="0.82" stop-color="#6d6d6d"/><stop offset="1" stop-color="#666"/></linearGradient><linearGradient id="未命名的渐变_293" x1="659.77" y1="776.72" x2="340.23" y2="223.28" gradientTransform="translate(500 -207.11) rotate(45)" gradientUnits="userSpaceOnUse"><stop offset="0" stop-color="#c4bfbe"/><stop offset="0.5" stop-color="#666"/></linearGradient><linearGradient id="未命名的渐变_258" x1="309.26" y1="309.16" x2="690.9" y2="690.8" gradientUnits="userSpaceOnUse"><stop offset="0" stop-color="#f0f0f0"/><stop offset="1" stop-color="#666"/></linearGradient></defs><title>18</title><circle class="cls-1" cx="500" cy="500" r="400" transform="translate(-207.11 500) rotate(-45)"/><circle class="cls-2" cx="500" cy="500" r="319.48" transform="translate(-207.11 500) rotate(-45)"/><path class="cls-3" d="M762.82,460.62H714.19a219,219,0,0,0-8.65-32.69l42.28-24.41a7.51,7.51,0,0,0,2.74-10.21l-32.38-56.1A7.51,7.51,0,0,0,708,334.47l-42.16,24.34a227.64,227.64,0,0,0-23.84-24l24.47-42.34a7.51,7.51,0,0,0-2.74-10.21l-56.1-32.38a7.52,7.52,0,0,0-10.22,2.74L573,294.8A213,213,0,0,0,540.41,286V237.14a7.5,7.5,0,0,0-7.47-7.47H468.18a7.5,7.5,0,0,0-7.47,7.47v48.7A221.32,221.32,0,0,0,428,294.49l-24.41-42.28a7.51,7.51,0,0,0-10.21-2.74l-56.1,32.38a7.51,7.51,0,0,0-2.74,10.21l24.35,42.16a220.43,220.43,0,0,0-24,23.85l-42.34-24.41a7.51,7.51,0,0,0-10.21,2.74L250,392.5a7.51,7.51,0,0,0,2.74,10.21L294.83,427A221.4,221.4,0,0,0,286,459.68H237.18a7.51,7.51,0,0,0-7.48,7.47v64.76a7.5,7.5,0,0,0,7.48,7.47h48.56a221.78,221.78,0,0,0,8.66,32.75l-42.22,24.35a7.51,7.51,0,0,0-2.74,10.21l32.38,56.1A7.51,7.51,0,0,0,292,665.53l42.09-24.28a218.21,218.21,0,0,0,23.91,24l-24.34,42.22a7.5,7.5,0,0,0,2.74,10.21L392.53,750a7.51,7.51,0,0,0,10.21-2.74l24.22-42a219.39,219.39,0,0,0,32.75,8.84v48.7a7.51,7.51,0,0,0,7.48,7.47h64.75a7.5,7.5,0,0,0,7.47-7.47V714.35a220.26,220.26,0,0,0,32.76-8.65l24.34,42.15a7.51,7.51,0,0,0,10.21,2.74l56.11-32.38A7.51,7.51,0,0,0,665.56,708l-24.28-42.09a217.34,217.34,0,0,0,24-23.91l42.22,24.41a7.52,7.52,0,0,0,10.21-2.74l32.38-56.11a7.52,7.52,0,0,0-2.74-10.21l-42-24.28a211.2,211.2,0,0,0,8.78-32.69h48.75a7.5,7.5,0,0,0,7.48-7.47V468.09a7.5,7.5,0,0,0-7.48-7.47Z"/></svg>