<?xml version="1.0" encoding="utf-8"?>
<!-- Generator: Adobe Illustrator 23.0.3, SVG Export Plug-In . SVG Version: 6.00 Build 0)  -->
<svg version="1.1" id="图层_1" xmlns="http://www.w3.org/2000/svg" xmlns:xlink="http://www.w3.org/1999/xlink" x="0px" y="0px"
	 viewBox="0 0 70 70" style="enable-background:new 0 0 70 70;" xml:space="preserve">
<style type="text/css">
	.st0{fill:#BBBBBB;}
	.st1{fill:#AAAAAA;}
	.st2{fill:#DDDDDD;}
	.st3{fill:#999999;}
	.st4{fill:#CCCCCC;}
	.st5{fill:url(#SVGID_1_);}
	.st6{fill:url(#SVGID_2_);}
	.st7{fill:url(#SVGID_3_);}
	.st8{fill:url(#SVGID_4_);}
	.st9{fill:url(#SVGID_5_);}
	.st10{fill:url(#SVGID_6_);}
</style>
<g>
	<g>
		<rect x="15.5" y="15.2" class="st0" width="1" height="7.6"/>
		<path class="st1" d="M23.3,15.2v7.6h-1v-7.6H23.3z"/>
		<path class="st2" d="M19.4,15.2v7.6h-2.9v-7.6H19.4z"/>
		<path class="st0" d="M22.3,15.2v7.6h-2.9v-7.6H22.3z"/>
	</g>
	<g>
		<rect x="4.2" y="31.9" class="st0" width="7.5" height="1"/>
		<path class="st1" d="M4.2,38.8h7.5v1H4.2V38.8z"/>
		<path class="st2" d="M4.2,32.9h7.5v3H4.2V32.9z"/>
		<path class="st0" d="M4.2,35.9h7.5v3H4.2V35.9z"/>
	</g>
	<g>
		<rect x="27.1" y="25.8" class="st0" width="7" height="2.5"/>
		<path class="st1" d="M27.1,43.5h7V46h-7V43.5z"/>
		<path class="st2" d="M27.1,28.3h7v7.6h-7V28.3z"/>
		<path class="st0" d="M27.1,35.9h7v7.6h-7V35.9z"/>
	</g>
	<g>
		<path class="st2" d="M66.4,40c0,2.1-2.1,3.8-4.6,3.8h-4.4c-2.6,0-4.6-1.7-4.6-3.8v-8.2c0-2.1,2.1-3.8,4.6-3.8h4.4
			c2.6,0,4.6,1.7,4.6,3.8V40z"/>
		<path class="st1" d="M66.4,40c0,2.1-2.1,3.8-4.6,3.8h-4.4c-2.6,0-4.6-1.7-4.6-3.8v-1.8c0-2.1,2.1-3.8,4.6-3.8h4.4
			c2.6,0,4.6,1.7,4.6,3.8V40z"/>
		<path class="st0" d="M52.7,33.3h13.7V39H52.7V33.3z"/>
	</g>
	<rect x="51.9" y="47.6" class="st3" width="6.3" height="5.1"/>
	<path class="st0" d="M49.8,52.6h10.4v1.5H49.8L49.8,52.6z"/>
	<g>
		<path class="st2" d="M34.9,24h24.6v1.6H34.9V24z"/>
		<path class="st4" d="M34.9,25.6h24.6v1.6H34.9V25.6z"/>
		<path class="st2" d="M34.9,27.2h24.6v1.6H34.9V27.2z"/>
		<path class="st4" d="M34.9,28.7h24.6v1.6H34.9V28.7z"/>
		<path class="st2" d="M34.9,30.3h24.6v1.6H34.9V30.3z"/>
		<path class="st0" d="M34.9,31.9h24.6v1.6H34.9V31.9z"/>
		<path class="st4" d="M34.9,33.5h24.6V35H34.9V33.5z"/>
		<path class="st0" d="M34.9,35.1h24.6v1.6H34.9V35.1z"/>
		<path class="st4" d="M34.9,36.7h24.6v1.6H34.9V36.7z"/>
		<path class="st0" d="M34.9,38.1h24.6v1.6H34.9V38.1z"/>
		<path class="st1" d="M34.9,39.6h24.6v1.8H34.9V39.6z"/>
		<path class="st0" d="M34.9,41.4h24.6V43H34.9V41.4z"/>
		<path class="st1" d="M34.9,43h24.6v1.6H34.9V43z"/>
		<path class="st0" d="M34.9,44.6h24.6v1.6H34.9V44.6z"/>
		<path class="st1" d="M34.9,46.2h24.6v1.6H34.9V46.2z"/>
	</g>
	<linearGradient id="SVGID_1_" gradientUnits="userSpaceOnUse" x1="3.3852" y1="55.0685" x2="67.5" y2="55.0685">
		<stop  offset="1.347931e-06" style="stop-color:#A5A5A5"/>
		<stop  offset="0.5" style="stop-color:#AAAAAA"/>
		<stop  offset="1" style="stop-color:#9D9D9D"/>
	</linearGradient>
	<rect x="3.4" y="54.1" class="st5" width="64.1" height="1.9"/>
	<linearGradient id="SVGID_2_" gradientUnits="userSpaceOnUse" x1="13.7612" y1="14.8493" x2="25.0756" y2="14.8493">
		<stop  offset="9.003964e-07" style="stop-color:#A5A5A5"/>
		<stop  offset="0.5" style="stop-color:#EFEFEF"/>
		<stop  offset="1" style="stop-color:#9D9D9D"/>
	</linearGradient>
	<path class="st6" d="M24.3,14c0.4,0,0.8,0.4,0.8,0.8v0.1c0,0.5-0.4,0.8-0.8,0.8h-9.7c-0.4,0-0.8-0.4-0.8-0.8v-0.1
		c0-0.4,0.4-0.8,0.8-0.8H24.3z"/>
	<linearGradient id="SVGID_3_" gradientUnits="userSpaceOnUse" x1="13.7612" y1="14.8493" x2="25.0756" y2="14.8493">
		<stop  offset="1.347931e-06" style="stop-color:#A5A5A5"/>
		<stop  offset="0.5" style="stop-color:#A1A1A1"/>
		<stop  offset="1" style="stop-color:#BBBBBB"/>
	</linearGradient>
	<path class="st7" d="M24.3,14c0.4,0,0.8,0.4,0.8,0.8v0.1c0,0.5-0.4,0.8-0.8,0.8h-9.7c-0.4,0-0.8-0.4-0.8-0.8v-0.1
		c0-0.4,0.4-0.8,0.8-0.8H24.3z"/>
	<linearGradient id="SVGID_4_" gradientUnits="userSpaceOnUse" x1="3.3351" y1="41.6487" x2="3.3351" y2="30.1145">
		<stop  offset="1.347931e-06" style="stop-color:#A5A5A5"/>
		<stop  offset="0.5" style="stop-color:#A1A1A1"/>
		<stop  offset="1" style="stop-color:#BBBBBB"/>
	</linearGradient>
	<path class="st8" d="M4.2,40.8c0,0.5-0.4,0.8-0.8,0.8H3.3c-0.4,0-0.8-0.4-0.8-0.8v-9.9c0-0.5,0.4-0.8,0.8-0.8h0.1
		c0.4,0,0.8,0.4,0.8,0.8V40.8z"/>
	<path class="st3" d="M16.3,47.6h6.3v5.1h-6.3V47.6z"/>
	<path class="st0" d="M14.2,52.6h10.4v1.5H14.2L14.2,52.6z"/>
	<path class="st1" d="M24.9,49.7h-11c-1.5,0-2.7-1.2-2.7-2.7V24.8c0-1.5,1.2-2.7,2.7-2.7h11c1.5,0,2.7,1.2,2.7,2.7V47
		C27.6,48.5,26.4,49.7,24.9,49.7z"/>
	<linearGradient id="SVGID_5_" gradientUnits="userSpaceOnUse" x1="33.1431" y1="35.8816" x2="35.7831" y2="35.8816">
		<stop  offset="1.347931e-06" style="stop-color:#A5A5A5"/>
		<stop  offset="0.5" style="stop-color:#A1A1A1"/>
		<stop  offset="1" style="stop-color:#BBBBBB"/>
	</linearGradient>
	<path class="st9" d="M35.8,49.6c0,0.5-0.4,0.8-0.8,0.8h-1c-0.4,0-0.8-0.4-0.8-0.8V22.2c0-0.4,0.4-0.8,0.8-0.8h1
		c0.4,0,0.8,0.4,0.8,0.8L35.8,49.6z"/>
	<linearGradient id="SVGID_6_" gradientUnits="userSpaceOnUse" x1="58.8563" y1="35.8816" x2="60.6882" y2="35.8816">
		<stop  offset="1.347931e-06" style="stop-color:#A5A5A5"/>
		<stop  offset="0.5" style="stop-color:#A4A4A4"/>
		<stop  offset="1" style="stop-color:#BBBBBB"/>
	</linearGradient>
	<path class="st10" d="M60.7,47.8c0,0.5-0.4,0.8-0.8,0.8h-0.2c-0.4,0-0.8-0.4-0.8-0.8V23.9c0-0.5,0.4-0.8,0.8-0.8h0.2
		c0.4,0,0.8,0.4,0.8,0.8V47.8z"/>
	<g>
		<path class="st0" d="M11.2,32.7h16.4v1.5H11.2V32.7z"/>
		<path class="st4" d="M11.2,28.1h16.4v4.6H11.2V28.1z"/>
	</g>
</g>
</svg>
