<?xml version="1.0" encoding="utf-8"?>
<!-- Generator: Adobe Illustrator 23.0.3, SVG Export Plug-In . SVG Version: 6.00 Build 0)  -->
<svg version="1.1" id="图层_1" xmlns="http://www.w3.org/2000/svg" xmlns:xlink="http://www.w3.org/1999/xlink" x="0px" y="0px"
	 viewBox="0 0 70 70" style="enable-background:new 0 0 70 70;" xml:space="preserve">
<style type="text/css">
	.st0{fill:url(#SVGID_1_);}
	.st1{fill:url(#SVGID_2_);}
	.st2{fill:url(#SVGID_3_);}
	.st3{fill:url(#SVGID_4_);}
	.st4{fill:#999999;}
	.st5{fill:url(#SVGID_5_);}
	.st6{fill:url(#SVGID_6_);}
	.st7{fill:#F74343;}
	.st8{fill:#FF8533;}
	.st9{fill:#FFD766;}
	.st10{fill:#FFE98D;}
</style>
<g>
	<linearGradient id="SVGID_1_" gradientUnits="userSpaceOnUse" x1="16.0532" y1="13.0035" x2="53.6218" y2="13.0035">
		<stop  offset="0.1" style="stop-color:#B7B7B7"/>
		<stop  offset="0.3" style="stop-color:#C0C0C0"/>
		<stop  offset="0.7" style="stop-color:#FBFBFB"/>
		<stop  offset="0.9" style="stop-color:#B7B7B7"/>
	</linearGradient>
	<rect x="16.1" y="7.1" class="st0" width="37.6" height="11.7"/>
	<linearGradient id="SVGID_2_" gradientUnits="userSpaceOnUse" x1="6.4671" y1="36.9274" x2="61.1172" y2="17.0364">
		<stop  offset="9.999953e-02" style="stop-color:#B7B7B7"/>
		<stop  offset="0.3" style="stop-color:#C0C0C0"/>
		<stop  offset="0.7" style="stop-color:#FBFBFB"/>
		<stop  offset="0.9" style="stop-color:#B7B7B7"/>
	</linearGradient>
	<polygon class="st1" points="65.8,29.9 3.9,29.9 16,18.9 53.7,18.9 65.8,29.9 	"/>
	<linearGradient id="SVGID_3_" gradientUnits="userSpaceOnUse" x1="3.8986" y1="45.8344" x2="65.7989" y2="45.8344">
		<stop  offset="0.1" style="stop-color:#B7B7B7"/>
		<stop  offset="0.3" style="stop-color:#C0C0C0"/>
		<stop  offset="0.7" style="stop-color:#E9E9E9"/>
		<stop  offset="0.9" style="stop-color:#B7B7B7"/>
	</linearGradient>
	<path class="st2" d="M4.2,61.8H3.9V29.9h61.9v31.9"/>
	<linearGradient id="SVGID_4_" gradientUnits="userSpaceOnUse" x1="7.8107" y1="45.8344" x2="62.1893" y2="45.8344">
		<stop  offset="0" style="stop-color:#7E7E7E"/>
		<stop  offset="0.2421" style="stop-color:#A9A9A9"/>
		<stop  offset="1" style="stop-color:#777777"/>
	</linearGradient>
	<path class="st3" d="M8.1,57H7.8V34.6h54.1V57h0.3"/>
	<path class="st4" d="M4.2,62.3H3.9v-0.5h61.9v0.5"/>
	<linearGradient id="SVGID_5_" gradientUnits="userSpaceOnUse" x1="2.5" y1="63.331" x2="67.5" y2="63.331">
		<stop  offset="0.1" style="stop-color:#B7B7B7"/>
		<stop  offset="0.4" style="stop-color:#C0C0C0"/>
		<stop  offset="0.7" style="stop-color:#F5F5F5"/>
		<stop  offset="0.9" style="stop-color:#BEBEBE"/>
	</linearGradient>
	<path class="st5" d="M66.5,64.4H3.5c-0.5,0-1-0.4-1-1v-0.1c0-0.5,0.4-1,1-1h63.1c0.5,0,1,0.4,1,1v0.1
		C67.5,63.9,67.1,64.4,66.5,64.4z"/>
	<path class="st4" d="M16.2,7.7h-0.2v-1l37.6,0v1"/>
	<linearGradient id="SVGID_6_" gradientUnits="userSpaceOnUse" x1="15.1399" y1="6.4099" x2="54.5351" y2="6.4099">
		<stop  offset="0" style="stop-color:#BFBFBF"/>
		<stop  offset="0.2421" style="stop-color:#C0C0C0"/>
		<stop  offset="0.6853" style="stop-color:#FBFBFB"/>
		<stop  offset="1" style="stop-color:#C6C6C6"/>
	</linearGradient>
	<path class="st6" d="M53.9,7.2H15.8c-0.4,0-0.7-0.3-0.7-0.7V6.3c0-0.4,0.3-0.7,0.7-0.7h38.1c0.4,0,0.7,0.3,0.7,0.7v0.3
		C54.5,6.9,54.2,7.2,53.9,7.2z"/>
	<g>
		<g>
			<path class="st7" d="M18.1,42.2c0.6-0.8-0.1-1.4-1-1.9c-1.1-0.6-1.6-0.9-1.5-1.9c-0.1,0.7,1.2,1.2,1.9,1.5
				c-0.4-0.4-0.4-1-0.1-1.4c0.1,0.7,1.1,1,1.4,1.6C19.1,40.8,18.8,41.7,18.1,42.2"/>
		</g>
		<g>
			<path class="st7" d="M23.2,45.2c0-0.5-0.7-0.8-1-1.3c-0.3-0.5-0.2-1,0.1-1.5C22.2,43.4,23.9,44.1,23.2,45.2"/>
		</g>
		<g>
			<path class="st7" d="M38.1,40.2c0.6-2.9,5.7-1.6,6.1-4.4c-0.8,0.8-2.1,1.3-3.4,1.4c0.8-0.1,1.4-0.7,1.4-1.3
				c-0.7,0.8-2.3,0.9-3.2,1.6C38,38.2,37.7,39.3,38.1,40.2"/>
		</g>
		<g>
			<path class="st7" d="M54.1,42.4c-0.3-0.9,2-1.6,1.9-2.6c0.3,0.5,0.3,1.1-0.2,1.5C55.4,41.7,54.3,41.8,54.1,42.4"/>
		</g>
		<g>
			<path class="st7" d="M51,40.9c-0.4-0.6-1.7-0.5-2.3-0.7c-0.8-0.3-1.1-0.7-1.1-1.3C47.8,40.6,51.2,39.1,51,40.9"/>
		</g>
		<g>
			<path class="st7" d="M58.8,43.5c1.3,0,1.5-0.8,1.4-1.4C60.9,42.5,60.6,44.4,58.8,43.5"/>
		</g>
		<g>
			<path class="st7" d="M61.9,50c-0.5-0.5-1.4-1.9-1.5-2.5c-0.2-1.3,1-1.5,0.3-2.5c-0.5-0.8-3.2,0.6-3.5-0.6c-0.8,0.5-0.2,0.9,0.2,1
				c0.6,0.2,1.3-0.5,1.6,0.1c0.4,0.7-1,1.3-1.8,1.2c-3.1-0.2-2-3.6,0.5-3.9c-1.4-0.3-2.9,0.2-3.8,1c-0.5,0.5-1,2.5-1.9,2.5
				c-1.6,0,0.1-2,0.1-2.5c0-1-1.1-1.9-2.6-2.1c0.8,0.5,1.1,1.4,0.7,2.1c-0.8-1.2-1.8-2.6-3.8-3c0.3,1.3,1.7,2.1,1.3,3.5
				c-0.4,1.3-1.4,2-0.7,3.4c0.2,0.3,1.9,3.4-0.2,2.6c-1.1-0.4-0.5-1.7-1.6-2.2c0.2,0.9-0.1,2.9-1.8,3c-2,0.2-0.9-1.4-0.4-1.9
				c0.8-0.9,1.2-1.9,0.5-2.9c-0.6-0.9-2.4-1.6-2-2.7c0.5,0.8,1.6,1.4,2.9,1.6c-2.5-1.3-2.9-3.9-0.9-5.6c-1.6,0.5-2.7,1.6-2.8,2.8
				c-0.4-1.5-0.2-3.4,1.9-4.1c-1.9,0.6-3.8,1.8-4.3,3.3c-0.4,1.5,1.5,2.8,1.9,4.2c0.5,1.6,0,3.2-1.3,4.5c-0.7,0.7-2.7,2.4-4.3,1.5
				c-1.3-0.7,0.5-2.2,1.2-2.8c0.9-0.8,2-1.8,1.7-2.9c-0.3-1-1.9-1.4-2.2-2.5c-0.3-0.8,0.2-1.7,1.2-2.1c-1.8-0.3-3.6,0.7-3.5,2.1
				c-2.1-0.8,1.8-2.8,0.6-3.9c-1.1-1.1-5.2,0-5.3-1.7c-0.3,0.7-0.7,1.8,0.6,2.2c0.8,0.2,2.4-0.5,3,0.2c0.9,1-1.8,0.4-2.2,0.4
				c-1.1,0-2.2,0.3-2.7,1.1c2.1-0.2,5,0.1,4,2.1c-0.4,0.7-1,1.2-1.1,2c-0.1,0.7,0.1,1.4-0.2,2.1c-0.2,0.5-0.9,1.2-1.6,0.6
				c-0.5-0.4,0.5-1.8,0.5-2.2c0.3-1.3-0.4-3-2.6-3.1c2.3,0.8,0.5,2.9-0.5,3.9c-0.7,0.6-1.5,1.3-1.6,2.1c-0.1,0.8,0.5,1.6,0.1,2.4
				c-0.8,1.8-4.5,1.3-3.6-0.7c0.6-1.4,3-3,1.2-4.5c-0.1,0.9-0.8,2.2-2.2,2.4c-1.4,0.2-1.9-0.8-1.2-1.5c0.7-0.7,2-0.8,2.3-1.7
				c0.3-0.9-0.7-1.8-2.1-1.8c1.6,1.1,0,3.2-1.7,1.9c-1.5-1.2,0.1-3-0.5-4.4c0.1,1.2-2.6,1.4-2.4,2.6c-0.8-0.3-0.8-1.3-0.1-1.7
				c-0.8,0.4-1.9,0.9-1.9,1.7c0,0.8,0.7,0.8,1.4,1.2c0.8,0.4,0.9,0.9-0.2,0.9c-1.1,0.1-1.9-0.2-3,0.2c3-0.2,3.8,2.2,2.3,3.4
				c-1.4,1.1-4.3,0.2-4.7,2.4V57h54c0-1.4,0-2.9,0.1-4.3V50z"/>
		</g>
		<path class="st8" d="M61.9,52.3c-0.3-0.1-0.6-0.3-0.8-0.4c-0.5-0.3-1.1-0.6-1.5-1c-0.5-0.3-1-0.7-1.4-1.1c-0.4-0.4-0.8-1-0.3-1.5
			c0.1-0.1,0-0.2-0.2-0.1c-1.4,0.3-3-0.3-3.6-1.2c-0.1-0.1-0.2,0-0.2,0c-0.4,0.7-1.5,1.1-2.5,0.9c-1-0.1-1.8-0.8-1.9-1.5
			c0-0.4,0.1-0.9,0.5-1.2c0.1-0.1-0.1-0.2-0.2-0.1c-0.8,0.5-1.2,1.2-1.3,1.9c0,0.4,0,0.7,0.2,1.1c0.2,0.4,0.5,0.8,0.7,1.2
			c0.2,0.3,0.3,0.7,0.3,1.1c0,0.3-0.1,0.7-0.4,1c-0.2,0.3-0.6,0.5-1,0.7c-0.5,0.2-1.1,0.3-1.7,0.3c-0.7,0.1-1.3,0.2-1.9,0.4
			c-0.5,0.2-1,0.4-1.4,0.7c0,0-0.1,0-0.1,0c-0.5,0.3-1.4,0.5-2,0.3c-0.3-0.1-0.5-0.3-0.7-0.5c-0.2-0.2-0.1-0.5,0-0.8
			c0.1-0.3,0.3-0.6,0.5-0.8c0.2-0.3,0.3-0.6,0.5-0.9c0.3-0.6,0.5-1.2,0.6-1.8c0.1-0.6,0.2-1.2-0.3-1.7c-0.1-0.1-0.3,0-0.2,0.1
			c0.7,1.5-0.4,2.9-1.5,4.1c-0.5,0.6-1,1.2-1.8,1.6c-0.7,0.4-1.6,0.6-2.6,0.6c-1.6,0-3.8-0.8-3.8-2.1c0-0.7,0.6-1.4,1.2-1.9
			c0.5-0.5,1.1-1.1,1.2-1.8c0.1-0.6-0.2-1.1-0.7-1.6c-0.4-0.5-1-0.9-1.3-1.4c-0.1-0.1-0.1-0.3-0.1-0.4c0-0.1-0.2-0.1-0.3,0
			c-0.2,0.4-0.1,0.8,0.1,1.2c0.1,0.4,0.2,0.7,0.3,1.1c0.1,0.7-0.1,1.4-0.5,2.1c-0.2,0.3-0.4,0.7-0.7,1c-0.3,0.3-0.6,0.6-1,0.8
			c-0.4,0.2-0.9,0.3-1.3,0.2c-0.5-0.1-0.9-0.3-1.2-0.5c-0.8-0.6-0.9-1.6-0.9-2.4c0-0.1-0.1-0.1-0.2-0.1c-1.1,0.7-0.9,1.8-0.6,2.7
			c0.4,0.9,1.1,2.1,0.2,3c-0.4,0.4-1,0.6-1.6,0.8c-0.6,0.1-1.2,0.1-1.8,0.1c-1.2-0.1-2.3-0.5-3.1-1.1c-0.9-0.8-1.3-2-0.4-2.8
			c0.1-0.1-0.1-0.2-0.2-0.1c-0.4,0.2-0.9,0.1-1.3,0c-0.4-0.2-0.7-0.5-0.9-0.8c-0.2-0.3-0.4-0.7-0.6-1.1c-0.2-0.4-0.3-0.8-0.5-1.2
			c-0.1-0.4-0.3-0.9-0.4-1.4c0-0.1-0.1-0.1-0.2-0.1c0,0-0.1,0-0.1,0.1c-0.4,0.8-0.2,1.6-0.3,2.4c0,0.7-0.3,1.4-0.8,2.1
			c-0.4,0.7-1,1.3-1.7,1.8c-0.7,0.6-1.6,1-2.4,1.5c-0.8,0.5-1.6,1-2.2,1.7c0,0,0,0,0,0V57h54.1V52.3z M30,50.8
			C30,50.8,30,50.8,30,50.8C29.9,50.8,29.9,50.8,30,50.8C29.9,50.8,29.9,50.8,30,50.8C30,50.8,30,50.8,30,50.8z"/>
		<path class="st9" d="M61.9,57c-0.5-0.5-1-1.1-1.3-1.7c-0.4-0.7-0.2-1.4-0.4-2.1c-0.1-0.3-0.2-0.6-0.4-0.9
			c-0.2-0.3-0.5-0.5-0.8-0.7c-0.7-0.4-1.6-0.7-2.3-1.1c-0.8-0.4-1.6-0.9-1.8-1.6c0-0.1-0.2-0.1-0.2,0c-0.3,0.2-0.2,0.6,0,0.8
			c0.2,0.3,0.6,0.5,0.8,0.9c0.1,0.2,0.1,0.3,0,0.5c0,0.1-0.1,0.3-0.3,0.4c-0.2,0.1-0.5-0.1-0.7-0.1c-0.2-0.1-0.4-0.2-0.6-0.4
			c-0.4-0.3-0.9-0.6-1.3-0.9c-0.1-0.1-0.3,0-0.2,0.1c0,0.8-0.3,1.6-1.1,2.1c-0.9,0.6-2.3,0.8-3.5,1c-0.6,0.1-1.3,0.2-1.9,0.4
			c-0.6,0.2-1.1,0.5-1.7,0.7c-0.6,0.3-1.1,0.5-1.8,0.6c-0.6,0.2-1.3,0.2-1.9,0.3c-0.7,0-1.5,0-2.1-0.2c-0.6-0.2-1.1-0.5-1.3-1v0
			c0,0,0-0.1-0.1-0.1c0,0,0,0-0.1,0c0,0-0.1,0-0.1,0c-0.1,0-0.1,0-0.1,0c0,0,0,0-0.1,0.1c0,0,0,0,0,0c-0.7,0.7-2.2,0.8-3.3,0.6
			c-0.6-0.1-1.2-0.3-1.7-0.6c-0.5-0.3-0.8-0.7-0.9-1.2c-0.1-0.5,0-1.1,0.3-1.5c0.1-0.1-0.1-0.2-0.2-0.1c-0.3,0.2-0.5,0.4-0.8,0.6
			c-0.3,0.2-0.6,0.4-0.9,0.5c-0.3,0.1-0.7,0.1-1-0.1c-0.3-0.2-0.5-0.4-0.6-0.7c-0.1-0.1-0.2,0-0.3,0c0,0.5,0.3,1,0.5,1.4
			c0.2,0.5,0.1,1-0.3,1.4c-0.7,0.8-2.2,1.2-3.5,1.3c-1.3,0.1-2.6-0.1-3.8-0.5C19,55,18,54.3,17.3,53.5c-0.8-0.9-1.2-1.9-1.3-3
			c0,0,0,0,0-0.1c0,0,0,0,0,0c0-0.1-0.3-0.1-0.3,0c0,0.6-0.4,1.1-0.9,1.6c-0.5,0.5-1.1,1-1.7,1.4c-1.1,0.8-2.4,1.7-2.9,2.8
			c-0.1,0.2-0.1,0.5-0.1,0.8H61.9z"/>
		<path class="st10" d="M59.4,57c0,0,0-0.1-0.1-0.1c-0.3-0.4-0.4-0.8-0.8-1.2c-0.4-0.4-0.9-0.8-1.4-1.1c-0.6-0.3-1.2-0.6-1.7-0.9
			c-0.6-0.4-1-0.8-1.2-1.3c0,0,0-0.1-0.1-0.1c-0.1-0.1-0.2-0.1-0.2,0c-0.2,0.6-0.6,1.1-1.2,1.5c-0.7,0.4-1.5,0.6-2.3,0.9
			c-0.4,0.1-0.8,0.2-1.2,0.4c-0.4,0.2-0.7,0.3-1,0.6c-0.6,0.4-1.1,1-1.7,1.4H59.4z"/>
		<path class="st10" d="M22.1,57c-0.3,0-0.6-0.1-0.9-0.1C20,56.8,18.9,56.5,18,56c-1-0.5-1.7-1.1-2.2-1.9c-0.1-0.1-0.3-0.1-0.3,0
			c-0.1,0.3-0.3,0.6-0.6,0.9c-0.3,0.3-0.7,0.5-1,0.7c-0.5,0.4-1,0.8-1.3,1.3H22.1z"/>
		<path class="st10" d="M39.8,57c-0.7-0.2-1.3-0.4-2.1-0.5c-1.2-0.2-2.4,0.1-3.6,0.1c-1.1,0-2.3,0-3.3-0.4c-0.9-0.4-1.7-1-1.8-1.8
			c0-0.1-0.2-0.1-0.3,0c-0.3,0.7-0.8,1.5-1.6,2c-0.6,0.3-1.2,0.5-2,0.6H39.8z"/>
		<path class="st8" d="M18.4,40.4c-0.1-0.3-0.2-0.5-0.4-0.7c-0.1-0.1-0.2-0.2-0.3-0.4c0,0,0,0,0,0c0,0,0,0,0,0c0,0,0,0,0,0
			c0,0,0,0,0,0c0,0,0,0.1,0,0.1c0,0.3,0.3,0.5,0.4,0.8c-0.2,0-0.4-0.1-0.6-0.1c0,0,0,0,0,0c0,0,0,0,0,0c-0.1-0.1-0.2-0.1-0.3-0.2
			c0,0,0,0,0,0c0.1,0.3,0.4,0.4,0.7,0.6c0.3,0.2,0.5,0.4,0.7,0.7c0,0,0,0,0,0c0,0,0-0.1,0.1-0.1c0-0.1,0-0.2,0-0.2
			C18.4,40.6,18.4,40.5,18.4,40.4z"/>
		<path class="st8" d="M32.4,39.9C32.4,39.9,32.3,39.9,32.4,39.9c-0.4-0.4-1.2-0.4-1.8-0.4c-0.6,0-1.3,0.1-1.7-0.2c0,0,0,0,0,0
			c0,0,0,0,0,0c-0.1-0.1-0.2-0.1-0.2-0.2c0,0,0,0,0,0c0,0,0,0-0.1,0c-0.2,0.5,0.5,0.9,1.2,0.9c0.4,0,0.9-0.1,1.3-0.1
			c0.2,0,0.5-0.1,0.7,0C31.9,39.7,32.1,39.8,32.4,39.9C32.3,39.9,32.3,39.9,32.4,39.9C32.3,40,32.4,39.9,32.4,39.9z"/>
		<path class="st8" d="M41.4,44.9c-0.1-0.3-0.4-0.5-0.6-0.8c-0.2-0.3-0.4-0.5-0.5-0.8c-0.3-0.6-0.4-1.2-0.4-1.8c0-0.3,0-0.7,0.3-1
			c0,0,0,0,0,0c0,0,0,0,0,0c0,0,0-0.1,0,0c0,0,0,0,0,0c0,0,0,0,0,0c-0.3,0.2-0.5,0.4-0.6,0.7c-0.2,0.3-0.2,0.7-0.3,1
			c0,0.4,0,0.7,0.2,1.1c0.2,0.3,0.4,0.6,0.7,0.9C40.6,44.4,41,44.7,41.4,44.9C41.4,44.9,41.5,44.9,41.4,44.9z"/>
		<path class="st9" d="M17.9,39.8C17.9,39.8,17.9,39.8,17.9,39.8c0,0.1,0.1,0.1,0.1,0.2c0,0.1,0.1,0.2,0,0.2c0,0-0.1,0-0.1,0
			c-0.1,0-0.1,0-0.2,0c-0.1,0-0.2-0.1-0.3-0.1c0,0,0,0,0,0c0,0,0,0,0,0c0,0,0,0,0,0c0,0,0,0,0,0c0.1,0.1,0.2,0.2,0.3,0.2
			c0.1,0.1,0.3,0.1,0.4,0.3c0,0,0,0,0,0C18.2,40.4,18.2,40.1,17.9,39.8z"/>
		<path class="st9" d="M42,37.4c-1.1,0-2.3,0.2-3.1,0.8c-0.2,0.2-0.3,0.3-0.4,0.5c0,0,0,0,0,0h0c0,0,0,0,0,0c0,0,0,0,0,0
			c0.5-0.7,1.5-1,2.5-1.2C41.3,37.5,41.7,37.4,42,37.4C42,37.4,42,37.4,42,37.4L42,37.4C42,37.4,42,37.4,42,37.4
			C42,37.4,42,37.4,42,37.4C42.1,37.4,42.1,37.4,42,37.4z"/>
	</g>
</g>
</svg>
