<?xml version="1.0" encoding="utf-8"?>
<!-- Generator: Adobe Illustrator 23.0.3, SVG Export Plug-In . SVG Version: 6.00 Build 0)  -->
<svg version="1.1" id="图层_1" xmlns="http://www.w3.org/2000/svg" xmlns:xlink="http://www.w3.org/1999/xlink" x="0px" y="0px"
	 viewBox="0 0 70 70" style="enable-background:new 0 0 70 70;" xml:space="preserve">
<style type="text/css">
	.st0{fill:url(#SVGID_1_);}
	.st1{fill:url(#SVGID_2_);}
	.st2{fill:url(#SVGID_3_);}
	.st3{fill:url(#SVGID_4_);}
	.st4{fill:url(#SVGID_5_);}
	.st5{fill:url(#SVGID_6_);}
	.st6{fill:url(#SVGID_7_);}
	.st7{fill:url(#SVGID_8_);}
	.st8{fill:url(#SVGID_9_);}
</style>
<g>
	<linearGradient id="SVGID_1_" gradientUnits="userSpaceOnUse" x1="7.1439" y1="35" x2="16.4317" y2="35">
		<stop  offset="0" style="stop-color:#8F8F8F"/>
		<stop  offset="0.5" style="stop-color:#EFEFEF"/>
		<stop  offset="1" style="stop-color:#9B9B9B"/>
	</linearGradient>
	<path class="st0" d="M11.8,5C9.2,5,7.1,7.1,7.1,9.6v50.8c0,2.5,2.1,4.6,4.6,4.6c2.6,0,4.6-2.1,4.6-4.6V9.6C16.4,7.1,14.3,5,11.8,5z
		"/>
	<linearGradient id="SVGID_2_" gradientUnits="userSpaceOnUse" x1="18.3515" y1="35" x2="28.0378" y2="35">
		<stop  offset="0" style="stop-color:#9F9F9F"/>
		<stop  offset="0.5" style="stop-color:#EFEFEF"/>
		<stop  offset="1" style="stop-color:#A7A7A7"/>
	</linearGradient>
	<path class="st1" d="M23.4,5H23c-2.6,0-4.6,2.1-4.6,4.6v50.8c0,2.5,2.1,4.6,4.6,4.6h0.4c2.6,0,4.6-2.1,4.6-4.6V9.6
		C28,7.1,26,5,23.4,5z"/>
	<linearGradient id="SVGID_3_" gradientUnits="userSpaceOnUse" x1="30.3561" y1="35" x2="39.6439" y2="35">
		<stop  offset="0" style="stop-color:#9B9B9B"/>
		<stop  offset="0.5" style="stop-color:#EFEFEF"/>
		<stop  offset="1" style="stop-color:#A3A3A3"/>
	</linearGradient>
	<path class="st2" d="M35,5c-2.6,0-4.6,2.1-4.6,4.6v50.8c0,2.5,2.1,4.6,4.6,4.6c2.6,0,4.6-2.1,4.6-4.6V9.6C39.6,7.1,37.6,5,35,5z"/>
	<linearGradient id="SVGID_4_" gradientUnits="userSpaceOnUse" x1="41.9622" y1="35" x2="51.25" y2="35">
		<stop  offset="0" style="stop-color:#9A9A9A"/>
		<stop  offset="0.5" style="stop-color:#EFEFEF"/>
		<stop  offset="1" style="stop-color:#A4A4A4"/>
	</linearGradient>
	<path class="st3" d="M46.6,5C44.1,5,42,7.1,42,9.6v50.8c0,2.5,2.1,4.6,4.6,4.6c2.6,0,4.6-2.1,4.6-4.6V9.6C51.3,7.1,49.2,5,46.6,5z"
		/>
	<linearGradient id="SVGID_5_" gradientUnits="userSpaceOnUse" x1="53.5683" y1="35" x2="62.8561" y2="35">
		<stop  offset="0" style="stop-color:#9D9D9D"/>
		<stop  offset="0.5" style="stop-color:#EFEFEF"/>
		<stop  offset="1" style="stop-color:#A4A4A4"/>
	</linearGradient>
	<path class="st4" d="M58.2,5c-2.6,0-4.6,2.1-4.6,4.6v50.8c0,2.5,2.1,4.6,4.6,4.6c2.6,0,4.6-2.1,4.6-4.6V9.6C62.9,7.1,60.8,5,58.2,5
		z"/>
	<linearGradient id="SVGID_6_" gradientUnits="userSpaceOnUse" x1="62.8561" y1="23.3634" x2="67.5" y2="23.3634">
		<stop  offset="4.422065e-07" style="stop-color:#A2A2A2"/>
		<stop  offset="0.5" style="stop-color:#A7A7A7"/>
		<stop  offset="1" style="stop-color:#A8A8A8"/>
	</linearGradient>
	<path class="st5" d="M62.9,18.7V28c2.6,0,4.6-2.1,4.6-4.6C67.5,20.8,65.4,18.7,62.9,18.7z"/>
	<linearGradient id="SVGID_7_" gradientUnits="userSpaceOnUse" x1="62.8561" y1="49.4489" x2="67.5" y2="49.4489">
		<stop  offset="4.422065e-07" style="stop-color:#A2A2A2"/>
		<stop  offset="0.5" style="stop-color:#A7A7A7"/>
		<stop  offset="1" style="stop-color:#A8A8A8"/>
	</linearGradient>
	<path class="st6" d="M62.9,44.8v9.2c2.6,0,4.6-2.1,4.6-4.6C67.5,46.9,65.4,44.8,62.9,44.8z"/>
	
		<linearGradient id="SVGID_8_" gradientUnits="userSpaceOnUse" x1="-5.6596" y1="23.3634" x2="-1.0157" y2="23.3634" gradientTransform="matrix(-1 0 0 1 1.4843 0)">
		<stop  offset="4.422065e-07" style="stop-color:#A2A2A2"/>
		<stop  offset="0.5" style="stop-color:#A7A7A7"/>
		<stop  offset="1" style="stop-color:#A8A8A8"/>
	</linearGradient>
	<path class="st7" d="M2.5,23.4c0,2.5,2.1,4.6,4.6,4.6v-9.2C4.6,18.7,2.5,20.8,2.5,23.4z"/>
	
		<linearGradient id="SVGID_9_" gradientUnits="userSpaceOnUse" x1="-5.6596" y1="49.4489" x2="-1.0157" y2="49.4489" gradientTransform="matrix(-1 0 0 1 1.4843 0)">
		<stop  offset="4.422065e-07" style="stop-color:#A2A2A2"/>
		<stop  offset="0.5" style="stop-color:#A7A7A7"/>
		<stop  offset="1" style="stop-color:#A8A8A8"/>
	</linearGradient>
	<path class="st8" d="M2.5,49.4c0,2.5,2.1,4.6,4.6,4.6v-9.2C4.6,44.8,2.5,46.9,2.5,49.4z"/>
</g>
</svg>
