<?xml version="1.0" encoding="utf-8"?>
<!-- Generator: Adobe Illustrator 23.0.3, SVG Export Plug-In . SVG Version: 6.00 Build 0)  -->
<svg version="1.1" id="图层_1" xmlns="http://www.w3.org/2000/svg" xmlns:xlink="http://www.w3.org/1999/xlink" x="0px" y="0px"
	 viewBox="0 0 200 200" style="enable-background:new 0 0 200 200;" xml:space="preserve">
<style type="text/css">
	.st0{fill:url(#SVGID_1_);}
	.st1{fill:url(#SVGID_2_);}
	.st2{fill:url(#SVGID_3_);}
	.st3{fill:url(#SVGID_4_);}
	.st4{fill:url(#SVGID_5_);}
	.st5{fill:url(#SVGID_6_);}
	.st6{fill:url(#SVGID_7_);}
	.st7{fill:url(#SVGID_8_);}
	.st8{fill:url(#SVGID_9_);}
	.st9{fill:url(#SVGID_10_);}
	.st10{fill:url(#SVGID_11_);}
	.st11{fill:url(#SVGID_12_);}
	.st12{fill:url(#SVGID_13_);}
	.st13{fill:url(#SVGID_14_);}
</style>
<g>
	
		<linearGradient id="SVGID_1_" gradientUnits="userSpaceOnUse" x1="15.875" y1="-15.875" x2="184.125" y2="-184.125" gradientTransform="matrix(1 0 0 -1 0 0)">
		<stop  offset="0" style="stop-color:#A7A7A7"/>
		<stop  offset="0.9" style="stop-color:#808080"/>
	</linearGradient>
	<path class="st0" d="M170,190H30c-11,0-20-9-20-20V30c0-11,9-20,20-20h140c11,0,20,9,20,20v140C190,181,181,190,170,190z"/>
	<linearGradient id="SVGID_2_" gradientUnits="userSpaceOnUse" x1="100" y1="30.831" x2="100" y2="169.0571">
		<stop  offset="5.617890e-03" style="stop-color:#7D7D7D"/>
		<stop  offset="1" style="stop-color:#737373"/>
	</linearGradient>
	<circle class="st1" cx="100" cy="100" r="80"/>
	<radialGradient id="SVGID_3_" cx="100" cy="100" r="75" gradientUnits="userSpaceOnUse">
		<stop  offset="0" style="stop-color:#7B7B7B"/>
		<stop  offset="1" style="stop-color:#303030"/>
	</radialGradient>
	<circle class="st2" cx="100" cy="100" r="75"/>
	<g>
		<g>
			
				<linearGradient id="SVGID_4_" gradientUnits="userSpaceOnUse" x1="176.2496" y1="-85.9138" x2="215.424" y2="-85.9138" gradientTransform="matrix(0.7071 0.7071 0.7071 -0.7071 42.3316 -128.6581)">
				<stop  offset="0" style="stop-color:#D7D7D7"/>
				<stop  offset="0.3" style="stop-color:#707070"/>
				<stop  offset="0.6" style="stop-color:#2B2C2B"/>
			</linearGradient>
			<path class="st3" d="M100,99.4c0,0-7-38.1,27.6-62.6c3.9-2.8,29.6,19.5,29.6,24.2C157.2,64,134.1,53.6,100,99.4z"/>
			
				<linearGradient id="SVGID_5_" gradientUnits="userSpaceOnUse" x1="74.0772" y1="-65.033" x2="113.1329" y2="-65.033" gradientTransform="matrix(1 0 0 -1 0 0)">
				<stop  offset="0" style="stop-color:#D7D7D7"/>
				<stop  offset="0.3" style="stop-color:#707070"/>
				<stop  offset="0.6" style="stop-color:#2B2C2B"/>
			</linearGradient>
			<path class="st4" d="M99.4,99.8c0,0-31.6-21.9-24.2-64c0.8-4.8,34.5-7.3,37.8-4.1C115.1,33.8,91.5,43,99.4,99.8z"/>
			
				<linearGradient id="SVGID_6_" gradientUnits="userSpaceOnUse" x1="263.2875" y1="-27.6467" x2="302.7455" y2="-27.6467" gradientTransform="matrix(0 1 1 0 163.2373 -189.7012)">
				<stop  offset="0" style="stop-color:#D7D7D7"/>
				<stop  offset="0.3" style="stop-color:#707070"/>
				<stop  offset="0.6" style="stop-color:#2B2C2B"/>
			</linearGradient>
			<path class="st5" d="M101.2,99.2c0,0,21.7-31.9,63.3-24.5c4.7,0.8,7.3,34.9,4,38.2C166.4,115.1,157.4,91.3,101.2,99.2z"/>
			
				<linearGradient id="SVGID_7_" gradientUnits="userSpaceOnUse" x1="324.9694" y1="136.4465" x2="363.9926" y2="136.4465" gradientTransform="matrix(-1 -2.215213e-03 -2.215213e-03 1 451.0345 -0.6659)">
				<stop  offset="0" style="stop-color:#D7D7D7"/>
				<stop  offset="0.3" style="stop-color:#707070"/>
				<stop  offset="0.6" style="stop-color:#2B2C2B"/>
			</linearGradient>
			<path class="st6" d="M100.5,100.2c0,0,31.5,22,24.1,64.1c-0.8,4.8-34.6,7.3-37.8,4C84.7,166.1,108.2,157,100.5,100.2z"/>
			
				<linearGradient id="SVGID_8_" gradientUnits="userSpaceOnUse" x1="335.8263" y1="-12.0271" x2="375.1879" y2="-12.0271" gradientTransform="matrix(-0.7087 0.7055 0.7055 0.7087 390.2858 -121.6868)">
				<stop  offset="0" style="stop-color:#D7D7D7"/>
				<stop  offset="0.3" style="stop-color:#707070"/>
				<stop  offset="0.6" style="stop-color:#2B2C2B"/>
			</linearGradient>
			<path class="st7" d="M101.5,100c0,0,37.7-7,61.8,28.1c2.7,4-19.4,29.9-23.9,29.9C136.4,157.9,146.8,134.6,101.5,100z"/>
			
				<linearGradient id="SVGID_9_" gradientUnits="userSpaceOnUse" x1="211.0923" y1="234.1647" x2="250.2474" y2="234.1647" gradientTransform="matrix(-0.7055 -0.7087 -0.7087 0.7055 408.438 127.925)">
				<stop  offset="0" style="stop-color:#D7D7D7"/>
				<stop  offset="0.3" style="stop-color:#707070"/>
				<stop  offset="0.6" style="stop-color:#2B2C2B"/>
			</linearGradient>
			<path class="st8" d="M99.9,100.9c0,0,6.9,38.1-27.8,62.5c-3.9,2.8-29.5-19.6-29.5-24.2C42.6,136.2,65.7,146.6,99.9,100.9z"/>
			
				<linearGradient id="SVGID_10_" gradientUnits="userSpaceOnUse" x1="123.5859" y1="159.4616" x2="163.117" y2="159.4616" gradientTransform="matrix(4.324653e-02 -0.9991 -0.9991 -4.324653e-02 217.0896 255.7607)">
				<stop  offset="0" style="stop-color:#D7D7D7"/>
				<stop  offset="0.3" style="stop-color:#707070"/>
				<stop  offset="0.6" style="stop-color:#2B2C2B"/>
			</linearGradient>
			<path class="st9" d="M98.6,101.3c0,0-23,31-64.3,21.7c-4.7-1.1-5.8-35.2-2.4-38.4C34.1,82.6,42.1,106.8,98.6,101.3z"/>
			
				<linearGradient id="SVGID_11_" gradientUnits="userSpaceOnUse" x1="53.7272" y1="107.9069" x2="93.0671" y2="107.9069" gradientTransform="matrix(0.737 -0.6759 -0.6759 -0.737 90.3641 207.9224)">
				<stop  offset="0" style="stop-color:#D7D7D7"/>
				<stop  offset="0.3" style="stop-color:#707070"/>
				<stop  offset="0.6" style="stop-color:#2B2C2B"/>
			</linearGradient>
			<path class="st10" d="M98.9,100.6c0,0-37.9,5.4-60.6-30.6c-2.6-4.1,20.6-29,25.1-28.8C66.4,41.2,55.2,64.1,98.9,100.6z"/>
		</g>
		
			<radialGradient id="SVGID_12_" cx="85.1046" cy="95.4121" r="26.0715" gradientTransform="matrix(0.9589 0 0 0.9589 18.1932 8.1093)" gradientUnits="userSpaceOnUse">
			<stop  offset="5.618212e-03" style="stop-color:#EFEFF0"/>
			<stop  offset="1" style="stop-color:#9C9D9D"/>
		</radialGradient>
		<circle class="st11" cx="99.8" cy="99.6" r="25"/>
		
			<radialGradient id="SVGID_13_" cx="79.4744" cy="92.3502" r="23.3983" gradientTransform="matrix(0.9412 0 0 0.9412 24.9538 12.68)" gradientUnits="userSpaceOnUse">
			<stop  offset="5.618212e-03" style="stop-color:#CBD0D4"/>
			<stop  offset="1" style="stop-color:#545555"/>
		</radialGradient>
		<circle class="st12" cx="99.8" cy="99.6" r="22"/>
		
			<radialGradient id="SVGID_14_" cx="92.4348" cy="98.0962" r="19.478" gradientTransform="matrix(0.9765 0 0 0.9765 9.4969 3.8091)" gradientUnits="userSpaceOnUse">
			<stop  offset="5.618212e-03" style="stop-color:#CBD0D4"/>
			<stop  offset="1" style="stop-color:#7C7C7C"/>
		</radialGradient>
		<circle class="st13" cx="99.8" cy="99.6" r="19"/>
	</g>
</g>
</svg>
