<?xml version="1.0" encoding="utf-8"?>
<!-- Generator: Adobe Illustrator 23.0.3, SVG Export Plug-In . SVG Version: 6.00 Build 0)  -->
<svg version="1.1" id="图层_1" xmlns="http://www.w3.org/2000/svg" xmlns:xlink="http://www.w3.org/1999/xlink" x="0px" y="0px"
	 viewBox="0 0 200 200" style="enable-background:new 0 0 200 200;" xml:space="preserve">
<style type="text/css">
	.st0{fill:url(#SVGID_1_);}
	.st1{fill:url(#SVGID_2_);}
	.st2{fill:url(#SVGID_3_);}
	.st3{fill:url(#SVGID_4_);}
	.st4{fill:url(#SVGID_5_);}
	.st5{fill:url(#SVGID_6_);}
	.st6{fill:url(#SVGID_7_);}
	.st7{fill:url(#SVGID_8_);}
	.st8{fill:url(#SVGID_9_);}
	.st9{fill:url(#SVGID_10_);}
	.st10{fill:url(#SVGID_11_);}
	.st11{fill:url(#SVGID_12_);}
	.st12{fill:url(#SVGID_13_);}
	.st13{fill:url(#SVGID_14_);}
	.st14{fill:url(#SVGID_15_);}
	.st15{fill:url(#SVGID_16_);}
	.st16{fill:url(#SVGID_17_);}
	.st17{fill:url(#SVGID_18_);}
	.st18{fill:url(#SVGID_19_);}
	.st19{fill:url(#SVGID_20_);}
</style>
<g>
	
		<linearGradient id="SVGID_1_" gradientUnits="userSpaceOnUse" x1="351.3958" y1="-30.3492" x2="351.3958" y2="-88.7964" gradientTransform="matrix(1 0 0 1 -217.9966 117.0581)">
		<stop  offset="0" style="stop-color:#4E4E4E"/>
		<stop  offset="0.1" style="stop-color:#707070"/>
		<stop  offset="0.5" style="stop-color:#D7D7D7"/>
		<stop  offset="1" style="stop-color:#666666"/>
	</linearGradient>
	<rect x="79.6" y="28.3" class="st0" width="107.6" height="58.4"/>
	
		<linearGradient id="SVGID_2_" gradientUnits="userSpaceOnUse" x1="79.8236" y1="-38.0508" x2="79.8236" y2="-166.8322" gradientTransform="matrix(1 0 0 -1 0 0)">
		<stop  offset="5.618340e-03" style="stop-color:#7D7D7D"/>
		<stop  offset="0.3977" style="stop-color:#BEBEBE"/>
		<stop  offset="1" style="stop-color:#AEAEAE"/>
	</linearGradient>
	<ellipse class="st1" cx="79.8" cy="102.5" rx="74.8" ry="74.5"/>
	
		<linearGradient id="SVGID_3_" gradientUnits="userSpaceOnUse" x1="79.8236" y1="-159.3911" x2="79.8236" y2="-45.4654" gradientTransform="matrix(1 0 0 -1 0 0)">
		<stop  offset="5.618335e-03" style="stop-color:#A1A1A1"/>
		<stop  offset="0.6" style="stop-color:#AEAEAE"/>
		<stop  offset="1" style="stop-color:#C2C2C2"/>
	</linearGradient>
	<ellipse class="st2" cx="79.8" cy="102.5" rx="66.2" ry="65.9"/>
	
		<linearGradient id="SVGID_4_" gradientUnits="userSpaceOnUse" x1="79.8236" y1="-48.7495" x2="79.8236" y2="-156.1311" gradientTransform="matrix(1 0 0 -1 0 0)">
		<stop  offset="5.617890e-03" style="stop-color:#979797"/>
		<stop  offset="0.5" style="stop-color:#A0A0A0"/>
		<stop  offset="1" style="stop-color:#DFDFDF"/>
	</linearGradient>
	<ellipse class="st3" cx="79.8" cy="102.5" rx="62.4" ry="62.1"/>
	
		<linearGradient id="SVGID_5_" gradientUnits="userSpaceOnUse" x1="79.8236" y1="-146.2009" x2="79.8236" y2="-58.669" gradientTransform="matrix(1 0 0 -1 0 0)">
		<stop  offset="5.618335e-03" style="stop-color:#A1A1A1"/>
		<stop  offset="0.6" style="stop-color:#AEAEAE"/>
		<stop  offset="1" style="stop-color:#C2C2C2"/>
	</linearGradient>
	<ellipse class="st4" cx="79.8" cy="102.5" rx="50.8" ry="50.7"/>
	
		<linearGradient id="SVGID_6_" gradientUnits="userSpaceOnUse" x1="79.8236" y1="-148.6069" x2="79.8236" y2="-56.3074" gradientTransform="matrix(1 0 0 -1 0 0)">
		<stop  offset="0" style="stop-color:#E2E2E2"/>
		<stop  offset="0.2" style="stop-color:#B1B2B2"/>
		<stop  offset="0.9529" style="stop-color:#545555"/>
	</linearGradient>
	<ellipse class="st5" cx="79.8" cy="102.5" rx="46.3" ry="46.1"/>
	
		<radialGradient id="SVGID_7_" cx="79.8236" cy="-103.1443" r="32.756" gradientTransform="matrix(1 0 0 -0.9962 0 -0.3002)" gradientUnits="userSpaceOnUse">
		<stop  offset="0.5" style="stop-color:#EFEFF0"/>
		<stop  offset="1" style="stop-color:#9C9D9D"/>
	</radialGradient>
	<ellipse class="st6" cx="79.8" cy="102.5" rx="32.8" ry="32.6"/>
	<g>
		
			<linearGradient id="SVGID_8_" gradientUnits="userSpaceOnUse" x1="179.3283" y1="122.7405" x2="195.1972" y2="122.7405" gradientTransform="matrix(0.7071 0.7071 -0.7071 0.7071 42.3302 -128.6581)">
			<stop  offset="0" style="stop-color:#D7D7D7"/>
			<stop  offset="0.3" style="stop-color:#707070"/>
			<stop  offset="0.6" style="stop-color:#2B2C2B"/>
		</linearGradient>
		<path class="st7" d="M79.8,102.2c0,0-2.8-15.4,11.2-25.4c1.6-1.1,12,7.9,12,9.8C103,87.9,93.7,83.7,79.8,102.2z"/>
		<linearGradient id="SVGID_9_" gradientUnits="userSpaceOnUse" x1="69.3254" y1="88.2961" x2="85.1404" y2="88.2961">
			<stop  offset="0" style="stop-color:#D7D7D7"/>
			<stop  offset="0.3" style="stop-color:#707070"/>
			<stop  offset="0.6" style="stop-color:#2B2C2B"/>
		</linearGradient>
		<path class="st8" d="M79.6,102.4c0,0-12.8-8.9-9.8-25.9c0.3-1.9,14-3,15.3-1.6C85.9,75.7,76.4,79.4,79.6,102.4z"/>
		
			<linearGradient id="SVGID_10_" gradientUnits="userSpaceOnUse" x1="281.4781" y1="68.986" x2="297.4751" y2="68.986" gradientTransform="matrix(0 1 -1 0 163.2373 -189.7012)">
			<stop  offset="0" style="stop-color:#D7D7D7"/>
			<stop  offset="0.3" style="stop-color:#707070"/>
			<stop  offset="0.6" style="stop-color:#2B2C2B"/>
		</linearGradient>
		<path class="st9" d="M80.3,102.2c0,0,8.8-12.9,25.6-9.9c1.9,0.3,2.9,14.2,1.6,15.5C106.7,108.6,103.1,98.9,80.3,102.2z"/>
		
			<linearGradient id="SVGID_11_" gradientUnits="userSpaceOnUse" x1="360.5149" y1="-118.1086" x2="376.3297" y2="-118.1086" gradientTransform="matrix(-1 -2.215213e-03 2.215213e-03 -1 451.0345 -0.6659)">
			<stop  offset="0" style="stop-color:#D7D7D7"/>
			<stop  offset="0.3" style="stop-color:#707070"/>
			<stop  offset="0.6" style="stop-color:#2B2C2B"/>
		</linearGradient>
		<path class="st10" d="M80,102.5c0,0,12.8,8.9,9.8,26c-0.3,1.9-14,2.9-15.3,1.6C73.6,129.2,83.2,125.6,80,102.5z"/>
		
			<linearGradient id="SVGID_12_" gradientUnits="userSpaceOnUse" x1="367.5006" y1="45.7365" x2="383.4442" y2="45.7365" gradientTransform="matrix(-0.7087 0.7055 -0.7055 -0.7087 390.2791 -121.6878)">
			<stop  offset="0" style="stop-color:#D7D7D7"/>
			<stop  offset="0.3" style="stop-color:#707070"/>
			<stop  offset="0.6" style="stop-color:#2B2C2B"/>
		</linearGradient>
		<path class="st11" d="M80.5,102.5c0,0,15.3-2.8,25,11.4c1.1,1.6-7.8,12.1-9.7,12.1C94.6,125.9,98.8,116.5,80.5,102.5z"/>
		
			<linearGradient id="SVGID_13_" gradientUnits="userSpaceOnUse" x1="239.2149" y1="-229.1959" x2="255.0842" y2="-229.1959" gradientTransform="matrix(-0.7055 -0.7087 0.7087 -0.7055 408.439 127.9182)">
			<stop  offset="0" style="stop-color:#D7D7D7"/>
			<stop  offset="0.3" style="stop-color:#707070"/>
			<stop  offset="0.6" style="stop-color:#2B2C2B"/>
		</linearGradient>
		<path class="st12" d="M79.8,102.8c0,0,2.8,15.4-11.2,25.3c-1.6,1.1-12-7.9-12-9.8C56.6,117.1,65.9,121.4,79.8,102.8z"/>
		
			<linearGradient id="SVGID_14_" gradientUnits="userSpaceOnUse" x1="136.2994" y1="-158.2226" x2="152.2992" y2="-158.2226" gradientTransform="matrix(4.324653e-02 -0.9991 0.9991 4.324653e-02 217.0862 255.7573)">
			<stop  offset="0" style="stop-color:#D7D7D7"/>
			<stop  offset="0.3" style="stop-color:#707070"/>
			<stop  offset="0.6" style="stop-color:#2B2C2B"/>
		</linearGradient>
		<path class="st13" d="M79.3,103c0,0-9.3,12.5-26,8.8c-1.9-0.4-2.3-14.3-1-15.5C53.2,95.4,56.4,105.2,79.3,103z"/>
		
			<linearGradient id="SVGID_15_" gradientUnits="userSpaceOnUse" x1="52.8435" y1="-98.9717" x2="68.7795" y2="-98.9717" gradientTransform="matrix(0.737 -0.6759 0.6759 0.737 90.3582 207.9215)">
			<stop  offset="0" style="stop-color:#D7D7D7"/>
			<stop  offset="0.3" style="stop-color:#707070"/>
			<stop  offset="0.6" style="stop-color:#2B2C2B"/>
		</linearGradient>
		<path class="st14" d="M79.4,102.7c0,0-15.4,2.2-24.6-12.4c-1-1.7,8.3-11.8,10.2-11.7C66.2,78.7,61.7,87.9,79.4,102.7z"/>
	</g>
	
		<linearGradient id="SVGID_16_" gradientUnits="userSpaceOnUse" x1="409.0854" y1="-25.8696" x2="409.0854" y2="-94.0581" gradientTransform="matrix(1 0 0 1 -217.9966 117.0581)">
		<stop  offset="0" style="stop-color:#666666"/>
		<stop  offset="0.5" style="stop-color:#D7D7D7"/>
		<stop  offset="1" style="stop-color:#666666"/>
	</linearGradient>
	<path class="st15" d="M194,91.2h-5.9c-0.5,0-1-0.4-1-1V24c0-0.5,0.4-1,1-1h5.9c0.5,0,1,0.4,1,1v66.2C195,90.8,194.6,91.2,194,91.2z
		"/>
	
		<linearGradient id="SVGID_17_" gradientUnits="userSpaceOnUse" x1="278.5616" y1="-76.5001" x2="337.0089" y2="-76.5001" gradientTransform="matrix(6.123234e-17 1 1 -6.123234e-17 262.7 -250.3)">
		<stop  offset="3.178914e-07" style="stop-color:#3E3F3F"/>
		<stop  offset="0.5" style="stop-color:#D1D1D1"/>
		<stop  offset="1" style="stop-color:#3E3F3F"/>
	</linearGradient>
	<rect x="185.2" y="28.3" class="st16" width="2" height="58.4"/>
	
		<radialGradient id="SVGID_18_" cx="79.682" cy="-103.0027" r="12.2513" gradientTransform="matrix(1 0 0 -0.9962 0 -0.3002)" gradientUnits="userSpaceOnUse">
		<stop  offset="5.618212e-03" style="stop-color:#EFEFF0"/>
		<stop  offset="1" style="stop-color:#9C9D9D"/>
	</radialGradient>
	<ellipse class="st17" cx="79.7" cy="102.3" rx="12.3" ry="12.2"/>
	
		<radialGradient id="SVGID_19_" cx="79.682" cy="-103.0027" r="10.9839" gradientTransform="matrix(1 0 0 -0.9962 0 -0.3002)" gradientUnits="userSpaceOnUse">
		<stop  offset="5.618212e-03" style="stop-color:#CBD0D4"/>
		<stop  offset="1" style="stop-color:#545555"/>
	</radialGradient>
	<ellipse class="st18" cx="79.7" cy="102.3" rx="11" ry="10.9"/>
	
		<radialGradient id="SVGID_20_" cx="79.682" cy="-103.0027" r="9.1433" gradientTransform="matrix(1 0 0 -0.9962 0 -0.3002)" gradientUnits="userSpaceOnUse">
		<stop  offset="5.618212e-03" style="stop-color:#CBD0D4"/>
		<stop  offset="1" style="stop-color:#7C7C7C"/>
	</radialGradient>
	<ellipse class="st19" cx="79.7" cy="102.3" rx="9.1" ry="9.1"/>
</g>
</svg>
