<?xml version="1.0" encoding="utf-8"?>
<!-- Generator: Adobe Illustrator 23.0.3, SVG Export Plug-In . SVG Version: 6.00 Build 0)  -->
<svg version="1.1" id="图层_1" xmlns="http://www.w3.org/2000/svg" xmlns:xlink="http://www.w3.org/1999/xlink" x="0px" y="0px"
	 viewBox="0 0 200 200" style="enable-background:new 0 0 200 200;" xml:space="preserve">
<style type="text/css">
	.st0{fill:url(#SVGID_1_);}
	.st1{fill:#999999;}
	.st2{fill:url(#SVGID_2_);}
	.st3{fill:url(#SVGID_3_);}
	.st4{fill:url(#SVGID_4_);}
	.st5{fill:url(#SVGID_5_);}
	.st6{fill:url(#SVGID_6_);}
	.st7{fill:url(#SVGID_7_);}
	.st8{fill:none;stroke:#999999;stroke-width:1.8598;stroke-miterlimit:10;}
	.st9{fill:none;stroke:#999999;stroke-width:1.25;stroke-miterlimit:10;}
	.st10{fill:#D2D2D2;stroke:#999999;stroke-miterlimit:10;}
	.st11{fill:url(#SVGID_8_);}
	.st12{fill:url(#SVGID_9_);}
	.st13{fill:url(#SVGID_10_);}
	.st14{fill:url(#SVGID_11_);}
	.st15{fill:url(#SVGID_12_);}
	.st16{fill:url(#SVGID_13_);}
	.st17{fill:url(#SVGID_14_);}
	.st18{fill:url(#SVGID_15_);}
	.st19{fill:url(#SVGID_16_);}
	.st20{fill:url(#SVGID_17_);}
	.st21{fill:url(#SVGID_18_);}
	.st22{fill:url(#SVGID_19_);}
	.st23{fill:url(#SVGID_20_);}
	.st24{fill:url(#SVGID_21_);}
	.st25{fill:url(#SVGID_22_);}
	.st26{opacity:0.5;fill:#961D32;}
	.st27{fill:#961D32;}
	.st28{opacity:0.5;fill:#6AC2C6;}
	.st29{fill:#65BEC2;}
	.st30{fill:#F8EBBD;}
	.st31{fill:#F8CF81;}
</style>
<g>
	<g>
		
			<linearGradient id="SVGID_1_" gradientUnits="userSpaceOnUse" x1="110.6814" y1="114.1684" x2="142.8577" y2="114.1684" gradientTransform="matrix(1 0 0 -1 0 132)">
			<stop  offset="0.2" style="stop-color:#B7B7B7"/>
			<stop  offset="0.8" style="stop-color:#EAEAEA"/>
			<stop  offset="0.9589" style="stop-color:#B7B7B7"/>
		</linearGradient>
		<rect x="110.8" y="13.3" class="st0" width="32.2" height="9.1"/>
		<path class="st1" d="M110.9,13.3L110.9,13.3l-0.1-1.2h32.2v1.2"/>
		
			<linearGradient id="SVGID_2_" gradientUnits="userSpaceOnUse" x1="106.2758" y1="191.4325" x2="147.2358" y2="191.4325" gradientTransform="matrix(1 0 0 -1 0 200)">
			<stop  offset="0.2" style="stop-color:#B7B7B7"/>
			<stop  offset="0.75" style="stop-color:#EAEAEA"/>
			<stop  offset="0.9589" style="stop-color:#B7B7B7"/>
		</linearGradient>
		<path class="st2" d="M143.8,12.1H110c-2,0-3.6-1.6-3.6-3.6l0,0c0-2,1.6-3.6,3.6-3.6h33.7c2,0,3.6,1.6,3.6,3.6l0,0
			C147.4,10.4,145.7,12.1,143.8,12.1z"/>
	</g>
	
		<linearGradient id="SVGID_3_" gradientUnits="userSpaceOnUse" x1="123.3387" y1="-45.25" x2="123.3387" y2="82.75" gradientTransform="matrix(6.123234e-17 1 1 -6.123234e-17 81.25 -14.65)">
		<stop  offset="0" style="stop-color:#999999"/>
		<stop  offset="4.999992e-02" style="stop-color:#DEDEDE"/>
		<stop  offset="0.7" style="stop-color:#DEDEDE"/>
		<stop  offset="0.97" style="stop-color:#EAEAEA"/>
		<stop  offset="1" style="stop-color:#999999"/>
	</linearGradient>
	<path class="st3" d="M36.1,23.2v-0.8H164V195H36"/>
	<linearGradient id="SVGID_4_" gradientUnits="userSpaceOnUse" x1="36.4787" y1="25.8298" x2="164.6307" y2="25.8298">
		<stop  offset="0" style="stop-color:#676768"/>
		<stop  offset="5.000000e-02" style="stop-color:#A1A2A2"/>
		<stop  offset="0.7" style="stop-color:#BDBDBD"/>
		<stop  offset="0.97" style="stop-color:#EAEAEA"/>
		<stop  offset="1" style="stop-color:#676768"/>
	</linearGradient>
	<rect x="36" y="22.4" class="st4" width="128" height="6.9"/>
	
		<linearGradient id="SVGID_5_" gradientUnits="userSpaceOnUse" x1="36" y1="123.189" x2="164" y2="123.189" gradientTransform="matrix(1 0 0 -1 0 200)">
		<stop  offset="0" style="stop-color:#676768"/>
		<stop  offset="5.000000e-02" style="stop-color:#A1A2A2"/>
		<stop  offset="0.9" style="stop-color:#BDBDBD"/>
		<stop  offset="0.97" style="stop-color:#E9E9E9"/>
		<stop  offset="1" style="stop-color:#676768"/>
	</linearGradient>
	<path class="st5" d="M36.5,77.3H36v-1h128v1"/>
	
		<linearGradient id="SVGID_6_" gradientUnits="userSpaceOnUse" x1="36" y1="73.7038" x2="164" y2="73.7038" gradientTransform="matrix(1 0 0 -1 0 200)">
		<stop  offset="0" style="stop-color:#676768"/>
		<stop  offset="5.000000e-02" style="stop-color:#A1A2A2"/>
		<stop  offset="0.9" style="stop-color:#BDBDBD"/>
		<stop  offset="0.97" style="stop-color:#E9E9E9"/>
		<stop  offset="1" style="stop-color:#676768"/>
	</linearGradient>
	<path class="st6" d="M36.5,126.8H36v-1h128v1"/>
	
		<linearGradient id="SVGID_7_" gradientUnits="userSpaceOnUse" x1="36" y1="34" x2="164" y2="34" gradientTransform="matrix(1 0 0 -1 0 200)">
		<stop  offset="0" style="stop-color:#676768"/>
		<stop  offset="5.000000e-02" style="stop-color:#A1A2A2"/>
		<stop  offset="0.9" style="stop-color:#BDBDBD"/>
		<stop  offset="0.97" style="stop-color:#E9E9E9"/>
		<stop  offset="1" style="stop-color:#676768"/>
	</linearGradient>
	<path class="st7" d="M36.5,166.5H36v-1h128v1"/>
	<g>
		<circle class="st8" cx="102.4" cy="147.5" r="20.2"/>
		<ellipse class="st9" cx="102.6" cy="147.1" rx="16.7" ry="16.7"/>
		<g>
			<path class="st10" d="M114.7,137.6v19.6c0,1.1-1,2.1-2,2.1H92.8c-1.1,0-2-1-2-2.1v-19.6c0-1.1,1-2.1,2-2.1h19.9
				C113.8,135.5,114.7,136.4,114.7,137.6z"/>
			
				<linearGradient id="SVGID_8_" gradientUnits="userSpaceOnUse" x1="91.7259" y1="-41.4911" x2="113.7546" y2="-41.4911" gradientTransform="matrix(1 0 0 -1 0 132)">
				<stop  offset="0" style="stop-color:#474747"/>
				<stop  offset="5.944417e-02" style="stop-color:#585858"/>
				<stop  offset="0.9" style="stop-color:#6A6A6A"/>
				<stop  offset="0.9528" style="stop-color:#7A7A7A"/>
				<stop  offset="1" style="stop-color:#515151"/>
			</linearGradient>
			<path class="st11" d="M91.7,177.5L91.7,177.5v-8h22v8"/>
			
				<linearGradient id="SVGID_9_" gradientUnits="userSpaceOnUse" x1="10.4878" y1="-93.7046" x2="32.5969" y2="-93.7046" gradientTransform="matrix(6.123234e-17 -1 -1 -6.123234e-17 9.0214 168.8696)">
				<stop  offset="0" style="stop-color:#121212"/>
				<stop  offset="1" style="stop-color:#060203"/>
			</linearGradient>
			<path class="st12" d="M113.9,138.3v18.2c0,1-0.9,2-1.9,2H93.5c-1,0-1.9-0.9-1.9-2v-18.2c0-1,0.9-2,1.9-2H112
				C113,136.3,113.9,137.2,113.9,138.3z"/>
			
				<linearGradient id="SVGID_10_" gradientUnits="userSpaceOnUse" x1="11.6389" y1="-93.7046" x2="31.5011" y2="-93.7046" gradientTransform="matrix(6.123234e-17 -1 -1 -6.123234e-17 9.0214 168.8696)">
				<stop  offset="0" style="stop-color:#999999"/>
				<stop  offset="0.827" style="stop-color:#DEDEDE"/>
				<stop  offset="0.8805" style="stop-color:#FAFAFA"/>
				<stop  offset="0.97" style="stop-color:#FFFFFF"/>
				<stop  offset="1" style="stop-color:#999999"/>
			</linearGradient>
			<path class="st13" d="M112.8,139.2v16.3c0,0.9-0.8,1.7-1.7,1.7H94.4c-0.9,0-1.7-0.8-1.7-1.7v-16.3c0-0.9,0.8-1.7,1.7-1.7h16.7
				C112,137.6,112.8,138.3,112.8,139.2z"/>
			<linearGradient id="SVGID_11_" gradientUnits="userSpaceOnUse" x1="89.3577" y1="152.6768" x2="116.3897" y2="152.6768">
				<stop  offset="0" style="stop-color:#676768"/>
				<stop  offset="6.611084e-02" style="stop-color:#868686"/>
				<stop  offset="0.9" style="stop-color:#898989"/>
				<stop  offset="0.97" style="stop-color:#A1A1A1"/>
				<stop  offset="1" style="stop-color:#676768"/>
			</linearGradient>
			<path class="st14" d="M114.3,162.7H91.1c-1.1,0-1.9-0.7-1.9-1.5v-4.8v-12.4c0-0.8,0.9-1.5,1.9-1.5h23.2c1.1,0,1.9,0.7,1.9,1.5
				v17.2C116.2,162.1,115.4,162.7,114.3,162.7z"/>
			<linearGradient id="SVGID_12_" gradientUnits="userSpaceOnUse" x1="105.8844" y1="141.0954" x2="109.8891" y2="141.0954">
				<stop  offset="0" style="stop-color:#121212"/>
				<stop  offset="1" style="stop-color:#060203"/>
			</linearGradient>
			<path class="st15" d="M109.1,141.8h-2.5c-0.4,0-0.8-0.3-0.8-0.8l0,0c0-0.4,0.3-0.8,0.8-0.8h2.5c0.4,0,0.8,0.3,0.8,0.8l0,0
				C109.9,141.5,109.5,141.8,109.1,141.8z"/>
			<g>
				<g>
					<linearGradient id="SVGID_13_" gradientUnits="userSpaceOnUse" x1="95.517" y1="151.5057" x2="99.1061" y2="151.5057">
						<stop  offset="0" style="stop-color:#121212"/>
						<stop  offset="1" style="stop-color:#060203"/>
					</linearGradient>
					<ellipse class="st16" cx="97.3" cy="151.5" rx="1.8" ry="4.1"/>
					<ellipse class="st1" cx="97.3" cy="151.5" rx="1" ry="2.6"/>
				</g>
				<g>
					<linearGradient id="SVGID_14_" gradientUnits="userSpaceOnUse" x1="106.3849" y1="151.5057" x2="109.9741" y2="151.5057">
						<stop  offset="0" style="stop-color:#121212"/>
						<stop  offset="1" style="stop-color:#060203"/>
					</linearGradient>
					<ellipse class="st17" cx="108.2" cy="151.5" rx="1.8" ry="4.1"/>
					<ellipse class="st1" cx="108.2" cy="151.5" rx="1" ry="2.6"/>
				</g>
			</g>
			<linearGradient id="SVGID_15_" gradientUnits="userSpaceOnUse" x1="89.3577" y1="165.4539" x2="116.3897" y2="165.4539">
				<stop  offset="0" style="stop-color:#676768"/>
				<stop  offset="5.000000e-02" style="stop-color:#868686"/>
				<stop  offset="0.1" style="stop-color:#959595"/>
				<stop  offset="0.8" style="stop-color:#959595"/>
				<stop  offset="0.9" style="stop-color:#939393"/>
				<stop  offset="0.97" style="stop-color:#A1A1A1"/>
				<stop  offset="1" style="stop-color:#676768"/>
			</linearGradient>
			<path class="st18" d="M114.3,169.8H91.1c-1.1,0-1.9-0.3-1.9-0.6v-2.1v-5.4c0-0.4,0.9-0.6,1.9-0.6h23.2c1.1,0,1.9,0.3,1.9,0.6v7.5
				C116.2,169.5,115.4,169.8,114.3,169.8z"/>
		</g>
		<linearGradient id="SVGID_16_" gradientUnits="userSpaceOnUse" x1="106.8649" y1="123.451" x2="108.8649" y2="123.451">
			<stop  offset="0.1" style="stop-color:#5B7069"/>
			<stop  offset="0.5" style="stop-color:#7D938C"/>
			<stop  offset="0.9" style="stop-color:#D4E1DD"/>
			<stop  offset="1" style="stop-color:#8A9E9A"/>
		</linearGradient>
		<path class="st19" d="M108.4,141.5h-1c-0.3,0-0.5-0.2-0.5-0.5v-24.6v-10.9h2v10.9V141C108.9,141.2,108.6,141.5,108.4,141.5z"/>
		<linearGradient id="SVGID_17_" gradientUnits="userSpaceOnUse" x1="106.3649" y1="104.25" x2="109.3649" y2="104.25">
			<stop  offset="0.1" style="stop-color:#5B7069"/>
			<stop  offset="0.5" style="stop-color:#7D938C"/>
			<stop  offset="0.75" style="stop-color:#D4E1DD"/>
			<stop  offset="1" style="stop-color:#687E77"/>
		</linearGradient>
		<path class="st20" d="M109,105.8h-2.2c-0.2,0-0.4-0.2-0.4-0.4v-2.6h3v2.6C109.4,105.6,109.2,105.8,109,105.8z"/>
	</g>
	<g>
		
			<linearGradient id="SVGID_18_" gradientUnits="userSpaceOnUse" x1="93.475" y1="1.9255" x2="93.475" y2="40.4839" gradientTransform="matrix(6.123234e-17 1 1 -6.123234e-17 81.25 -14.65)">
			<stop  offset="0" style="stop-color:#999999"/>
			<stop  offset="4.999992e-02" style="stop-color:#DEDEDE"/>
			<stop  offset="0.7" style="stop-color:#DEDEDE"/>
			<stop  offset="0.97" style="stop-color:#EAEAEA"/>
			<stop  offset="1" style="stop-color:#999999"/>
		</linearGradient>
		<path class="st21" d="M83.2,54.6v-0.2h38.5v48.9H83.2"/>
		<linearGradient id="SVGID_19_" gradientUnits="userSpaceOnUse" x1="83.3172" y1="56.9019" x2="121.9215" y2="56.9019">
			<stop  offset="0" style="stop-color:#676768"/>
			<stop  offset="5.000000e-02" style="stop-color:#A1A2A2"/>
			<stop  offset="0.7" style="stop-color:#BDBDBD"/>
			<stop  offset="0.97" style="stop-color:#EAEAEA"/>
			<stop  offset="1" style="stop-color:#676768"/>
		</linearGradient>
		<rect x="83.2" y="54.3" class="st22" width="38.5" height="5.3"/>
		<g>
			
				<linearGradient id="SVGID_20_" gradientUnits="userSpaceOnUse" x1="91.4424" y1="129.7551" x2="113.5515" y2="129.7551" gradientTransform="matrix(1 0 0 -1 0 200)">
				<stop  offset="0" style="stop-color:#121212"/>
				<stop  offset="1" style="stop-color:#060203"/>
			</linearGradient>
			<path class="st23" d="M111.5,76.9H93.4c-1,0-2-0.9-2-1.9v-9.5c0-1,0.9-1.9,2-1.9h18.2c1,0,2,0.9,2,1.9V75
				C113.5,76,112.7,76.9,111.5,76.9z"/>
			
				<linearGradient id="SVGID_21_" gradientUnits="userSpaceOnUse" x1="109.5734" y1="122.6154" x2="95.1395" y2="137.0494" gradientTransform="matrix(1 0 0 -1 0 200)">
				<stop  offset="0" style="stop-color:#494546"/>
				<stop  offset="1" style="stop-color:#3D393A"/>
			</linearGradient>
			<path class="st24" d="M110.6,75.8H94.3c-0.9,0-1.7-0.8-1.7-1.7v-7.7c0-0.9,0.8-1.7,1.7-1.7h16.3c0.9,0,1.7,0.8,1.7,1.7v7.7
				C112.2,75,111.5,75.8,110.6,75.8z"/>
		</g>
		<linearGradient id="SVGID_22_" gradientUnits="userSpaceOnUse" x1="83.3172" y1="100.6329" x2="121.9215" y2="100.6329">
			<stop  offset="0" style="stop-color:#676768"/>
			<stop  offset="5.000000e-02" style="stop-color:#A1A2A2"/>
			<stop  offset="0.7" style="stop-color:#BDBDBD"/>
			<stop  offset="0.97" style="stop-color:#EAEAEA"/>
			<stop  offset="1" style="stop-color:#676768"/>
		</linearGradient>
		<rect x="83.2" y="98" class="st25" width="38.5" height="5.3"/>
		<g>
			<circle class="st26" cx="90.8" cy="82.9" r="3"/>
			<circle class="st27" cx="90.8" cy="82.9" r="2"/>
			<circle class="st28" cx="99.4" cy="82.9" r="3"/>
			<circle class="st29" cx="99.4" cy="82.9" r="2"/>
			<circle class="st30" cx="108" cy="82.9" r="3"/>
			<circle class="st31" cx="108" cy="82.9" r="2"/>
		</g>
		<g>
			<circle class="st26" cx="90.8" cy="91.9" r="3"/>
			<circle class="st27" cx="90.8" cy="91.9" r="2"/>
			<circle class="st28" cx="99.4" cy="91.9" r="3"/>
			<circle class="st29" cx="99.4" cy="91.9" r="2"/>
			<circle class="st30" cx="108" cy="91.9" r="3"/>
			<circle class="st31" cx="108" cy="91.9" r="2"/>
		</g>
	</g>
</g>
</svg>
