<?xml version="1.0" encoding="utf-8"?>
<!-- Generator: Adobe Illustrator 23.0.3, SVG Export Plug-In . SVG Version: 6.00 Build 0)  -->
<svg version="1.1" id="图层_1" xmlns="http://www.w3.org/2000/svg" xmlns:xlink="http://www.w3.org/1999/xlink" x="0px" y="0px"
	 viewBox="0 0 200 200" style="enable-background:new 0 0 200 200;" xml:space="preserve">
<style type="text/css">
	.st0{fill:url(#SVGID_1_);}
	.st1{fill:url(#SVGID_2_);}
	.st2{fill:#638492;}
	.st3{fill:url(#SVGID_3_);}
	.st4{fill:url(#SVGID_4_);}
	.st5{fill:url(#SVGID_5_);}
	.st6{fill:#91A1AF;}
	.st7{fill:url(#SVGID_6_);}
	.st8{fill:#3E3938;}
	.st9{fill:#516674;}
	.st10{fill:#6DBFC1;}
	.st11{fill:url(#SVGID_7_);}
	.st12{fill:url(#SVGID_8_);}
	.st13{fill:url(#SVGID_9_);}
	.st14{fill:url(#SVGID_10_);}
</style>
<g>
	<g>
		<g>
			
				<linearGradient id="SVGID_1_" gradientUnits="userSpaceOnUse" x1="116.6932" y1="79.0033" x2="125.9152" y2="79.0033" gradientTransform="matrix(1 0 0 1 0 -68)">
				<stop  offset="0.2" style="stop-color:#809299"/>
				<stop  offset="0.8" style="stop-color:#E3F2F8"/>
				<stop  offset="1" style="stop-color:#8A9DA6"/>
			</linearGradient>
			<rect x="116.7" y="5" class="st0" width="9.2" height="12"/>
			
				<linearGradient id="SVGID_2_" gradientUnits="userSpaceOnUse" x1="114.3707" y1="93.8116" x2="128.2037" y2="93.8116" gradientTransform="matrix(1 0 0 1 0 -68)">
				<stop  offset="0.2" style="stop-color:#809299"/>
				<stop  offset="0.8" style="stop-color:#E3F2F8"/>
				<stop  offset="1" style="stop-color:#8A9DA6"/>
			</linearGradient>
			<rect x="114.4" y="17" class="st1" width="13.8" height="17.6"/>
			<ellipse class="st2" cx="121.3" cy="11" rx="3.1" ry="3.2"/>
		</g>
		<g>
			
				<linearGradient id="SVGID_3_" gradientUnits="userSpaceOnUse" x1="74.0057" y1="79.0033" x2="83.2276" y2="79.0033" gradientTransform="matrix(1 0 0 1 0 -68)">
				<stop  offset="0.2" style="stop-color:#809299"/>
				<stop  offset="0.8" style="stop-color:#E3F2F8"/>
				<stop  offset="1" style="stop-color:#8A9DA6"/>
			</linearGradient>
			<rect x="74" y="5" class="st3" width="9.2" height="12"/>
			
				<linearGradient id="SVGID_4_" gradientUnits="userSpaceOnUse" x1="71.6832" y1="93.8116" x2="85.5162" y2="93.8116" gradientTransform="matrix(1 0 0 1 0 -68)">
				<stop  offset="0.2" style="stop-color:#809299"/>
				<stop  offset="0.8" style="stop-color:#E3F2F8"/>
				<stop  offset="1" style="stop-color:#8A9DA6"/>
			</linearGradient>
			<rect x="71.7" y="17" class="st4" width="13.8" height="17.6"/>
			<ellipse class="st2" cx="78.7" cy="11" rx="3.1" ry="3.2"/>
		</g>
	</g>
	
		<linearGradient id="SVGID_5_" gradientUnits="userSpaceOnUse" x1="72.1784" y1="229.25" x2="72.1784" y2="133.2612" gradientTransform="matrix(6.123234e-17 1 -1 6.123234e-17 281.25 -14.65)">
		<stop  offset="0" style="stop-color:#8F969B"/>
		<stop  offset="5.000000e-02" style="stop-color:#B1B9BF"/>
		<stop  offset="0.94" style="stop-color:#B6BEC5"/>
		<stop  offset="0.985" style="stop-color:#CAD1D7"/>
		<stop  offset="1" style="stop-color:#979EA3"/>
	</linearGradient>
	<path class="st5" d="M52.1,34.8v-0.2H148v45.8H52"/>
	<rect x="60" y="34.6" class="st6" width="80" height="37.5"/>
	
		<linearGradient id="SVGID_6_" gradientUnits="userSpaceOnUse" x1="152.3702" y1="229.2388" x2="152.3702" y2="133.1044" gradientTransform="matrix(6.123234e-17 1 -1 6.123234e-17 281.25 -14.65)">
		<stop  offset="0" style="stop-color:#72808B"/>
		<stop  offset="5.000000e-02" style="stop-color:#8D9DAB"/>
		<stop  offset="0.94" style="stop-color:#92A3B1"/>
		<stop  offset="0.985" style="stop-color:#B0BDC9"/>
		<stop  offset="1" style="stop-color:#999999"/>
	</linearGradient>
	<path class="st7" d="M52,80.9v-0.5h96V195H52"/>
	<g>
		<path class="st8" d="M127,61H73c-0.6,0-1-0.5-1-1V43.3c0-0.6,0.5-1,1-1h54c0.6,0,1,0.5,1,1V60C128,60.5,127.5,61,127,61z"/>
		<path class="st9" d="M108,56.8H77.2c-0.3,0-0.6-0.3-0.6-0.6V47c0-0.3,0.3-0.6,0.6-0.6H108c0.3,0,0.6,0.3,0.6,0.6v9.3
			C108.6,56.6,108.3,56.8,108,56.8z"/>
	</g>
	<g>
		<g>
			<ellipse class="st10" cx="107.1" cy="66.9" rx="3" ry="3.1"/>
			<linearGradient id="SVGID_7_" gradientUnits="userSpaceOnUse" x1="107.0611" y1="68.9765" x2="107.0611" y2="64.8107">
				<stop  offset="0.2" style="stop-color:#B7B7B7"/>
				<stop  offset="0.8" style="stop-color:#F4F4F4"/>
				<stop  offset="1" style="stop-color:#B7B7B7"/>
			</linearGradient>
			<ellipse class="st11" cx="107.1" cy="66.9" rx="2" ry="2.1"/>
		</g>
		<g>
			<ellipse class="st10" cx="115.7" cy="66.9" rx="3" ry="3.1"/>
			<linearGradient id="SVGID_8_" gradientUnits="userSpaceOnUse" x1="115.6601" y1="68.9765" x2="115.6601" y2="64.8107">
				<stop  offset="0.2" style="stop-color:#B7B7B7"/>
				<stop  offset="0.8" style="stop-color:#F4F4F4"/>
				<stop  offset="1" style="stop-color:#B7B7B7"/>
			</linearGradient>
			<ellipse class="st12" cx="115.7" cy="66.9" rx="2" ry="2.1"/>
		</g>
		<g>
			<ellipse class="st10" cx="124.3" cy="66.9" rx="3" ry="3.1"/>
			<linearGradient id="SVGID_9_" gradientUnits="userSpaceOnUse" x1="124.2591" y1="68.9765" x2="124.2591" y2="64.8107">
				<stop  offset="0.2" style="stop-color:#B7B7B7"/>
				<stop  offset="0.8" style="stop-color:#F4F4F4"/>
				<stop  offset="1" style="stop-color:#B7B7B7"/>
			</linearGradient>
			<ellipse class="st13" cx="124.3" cy="66.9" rx="2" ry="2.1"/>
		</g>
	</g>
	
		<linearGradient id="SVGID_10_" gradientUnits="userSpaceOnUse" x1="152.3702" y1="221.2397" x2="152.3702" y2="141.2491" gradientTransform="matrix(6.123234e-17 1 -1 6.123234e-17 281.25 -14.65)">
		<stop  offset="0" style="stop-color:#8F969B"/>
		<stop  offset="5.000000e-02" style="stop-color:#B1B9BF"/>
		<stop  offset="0.94" style="stop-color:#B6BEC5"/>
		<stop  offset="0.985" style="stop-color:#CAD1D7"/>
		<stop  offset="1" style="stop-color:#979EA3"/>
	</linearGradient>
	<path class="st14" d="M60.1,92.3v-0.4H140v91.6H60"/>
	<g>
		<path d="M81.9,100.6h-12c-0.8,0-1.5-0.7-1.5-1.5V99c0-0.8,0.7-1.5,1.5-1.5h12c0.8,0,1.5,0.7,1.5,1.5v0.1
			C83.4,99.9,82.7,100.6,81.9,100.6z"/>
		<path d="M106,100.6H94c-0.8,0-1.5-0.7-1.5-1.5V99c0-0.8,0.7-1.5,1.5-1.5h12c0.8,0,1.5,0.7,1.5,1.5v0.1
			C107.5,99.9,106.8,100.6,106,100.6z"/>
		<path d="M130.1,100.6h-12c-0.8,0-1.5-0.7-1.5-1.5V99c0-0.8,0.7-1.5,1.5-1.5h12c0.8,0,1.5,0.7,1.5,1.5v0.1
			C131.6,99.9,130.9,100.6,130.1,100.6z"/>
		<g>
			<path d="M81.9,109.3h-12c-0.8,0-1.5-0.7-1.5-1.5v-0.1c0-0.8,0.7-1.5,1.5-1.5h12c0.8,0,1.5,0.7,1.5,1.5v0.1
				C83.4,108.7,82.7,109.3,81.9,109.3z"/>
			<path d="M106,109.3H94c-0.8,0-1.5-0.7-1.5-1.5v-0.1c0-0.8,0.7-1.5,1.5-1.5h12c0.8,0,1.5,0.7,1.5,1.5v0.1
				C107.5,108.7,106.8,109.3,106,109.3z"/>
			<path d="M130.1,109.3h-12c-0.8,0-1.5-0.7-1.5-1.5v-0.1c0-0.8,0.7-1.5,1.5-1.5h12c0.8,0,1.5,0.7,1.5,1.5v0.1
				C131.6,108.7,130.9,109.3,130.1,109.3z"/>
		</g>
		<g>
			<path d="M81.9,117.9h-12c-0.8,0-1.5-0.7-1.5-1.5v-0.1c0-0.8,0.7-1.5,1.5-1.5h12c0.8,0,1.5,0.7,1.5,1.5v0.1
				C83.4,117.2,82.7,117.9,81.9,117.9z"/>
			<path d="M106,117.9H94c-0.8,0-1.5-0.7-1.5-1.5v-0.1c0-0.8,0.7-1.5,1.5-1.5h12c0.8,0,1.5,0.7,1.5,1.5v0.1
				C107.5,117.2,106.8,117.9,106,117.9z"/>
			<path d="M130.1,117.9h-12c-0.8,0-1.5-0.7-1.5-1.5v-0.1c0-0.8,0.7-1.5,1.5-1.5h12c0.8,0,1.5,0.7,1.5,1.5v0.1
				C131.6,117.2,130.9,117.9,130.1,117.9z"/>
		</g>
		<path d="M81.9,126.6h-12c-0.8,0-1.5-0.7-1.5-1.5V125c0-0.8,0.7-1.5,1.5-1.5h12c0.8,0,1.5,0.7,1.5,1.5v0.1
			C83.4,126,82.7,126.6,81.9,126.6z"/>
		<path d="M106,126.6H94c-0.8,0-1.5-0.7-1.5-1.5V125c0-0.8,0.7-1.5,1.5-1.5h12c0.8,0,1.5,0.7,1.5,1.5v0.1
			C107.5,126,106.8,126.6,106,126.6z"/>
		<path d="M130.1,126.6h-12c-0.8,0-1.5-0.7-1.5-1.5V125c0-0.8,0.7-1.5,1.5-1.5h12c0.8,0,1.5,0.7,1.5,1.5v0.1
			C131.6,126,130.9,126.6,130.1,126.6z"/>
		<g>
			<path d="M81.9,135.4h-12c-0.8,0-1.5-0.7-1.5-1.5v-0.1c0-0.8,0.7-1.5,1.5-1.5h12c0.8,0,1.5,0.7,1.5,1.5v0.1
				C83.4,134.7,82.7,135.4,81.9,135.4z"/>
			<path d="M106,135.4H94c-0.8,0-1.5-0.7-1.5-1.5v-0.1c0-0.8,0.7-1.5,1.5-1.5h12c0.8,0,1.5,0.7,1.5,1.5v0.1
				C107.5,134.7,106.8,135.4,106,135.4z"/>
			<path d="M130.1,135.4h-12c-0.8,0-1.5-0.7-1.5-1.5v-0.1c0-0.8,0.7-1.5,1.5-1.5h12c0.8,0,1.5,0.7,1.5,1.5v0.1
				C131.6,134.7,130.9,135.4,130.1,135.4z"/>
		</g>
		<g>
			<path d="M81.9,143.9h-12c-0.8,0-1.5-0.7-1.5-1.5v-0.1c0-0.8,0.7-1.5,1.5-1.5h12c0.8,0,1.5,0.7,1.5,1.5v0.1
				C83.4,143.3,82.7,143.9,81.9,143.9z"/>
			<path d="M106,143.9H94c-0.8,0-1.5-0.7-1.5-1.5v-0.1c0-0.8,0.7-1.5,1.5-1.5h12c0.8,0,1.5,0.7,1.5,1.5v0.1
				C107.5,143.3,106.8,143.9,106,143.9z"/>
			<path d="M130.1,143.9h-12c-0.8,0-1.5-0.7-1.5-1.5v-0.1c0-0.8,0.7-1.5,1.5-1.5h12c0.8,0,1.5,0.7,1.5,1.5v0.1
				C131.6,143.3,130.9,143.9,130.1,143.9z"/>
		</g>
		<path d="M81.9,152.2h-12c-0.8,0-1.5-0.7-1.5-1.5v-0.1c0-0.8,0.7-1.5,1.5-1.5h12c0.8,0,1.5,0.7,1.5,1.5v0.1
			C83.4,151.5,82.7,152.2,81.9,152.2z"/>
		<path d="M106,152.2H94c-0.8,0-1.5-0.7-1.5-1.5v-0.1c0-0.8,0.7-1.5,1.5-1.5h12c0.8,0,1.5,0.7,1.5,1.5v0.1
			C107.5,151.5,106.8,152.2,106,152.2z"/>
		<path d="M130.1,152.2h-12c-0.8,0-1.5-0.7-1.5-1.5v-0.1c0-0.8,0.7-1.5,1.5-1.5h12c0.8,0,1.5,0.7,1.5,1.5v0.1
			C131.6,151.5,130.9,152.2,130.1,152.2z"/>
		<g>
			<path d="M81.9,160.9h-12c-0.8,0-1.5-0.7-1.5-1.5v-0.1c0-0.8,0.7-1.5,1.5-1.5h12c0.8,0,1.5,0.7,1.5,1.5v0.1
				C83.4,160.3,82.7,160.9,81.9,160.9z"/>
			<path d="M106,160.9H94c-0.8,0-1.5-0.7-1.5-1.5v-0.1c0-0.8,0.7-1.5,1.5-1.5h12c0.8,0,1.5,0.7,1.5,1.5v0.1
				C107.5,160.3,106.8,160.9,106,160.9z"/>
			<path d="M130.1,160.9h-12c-0.8,0-1.5-0.7-1.5-1.5v-0.1c0-0.8,0.7-1.5,1.5-1.5h12c0.8,0,1.5,0.7,1.5,1.5v0.1
				C131.6,160.3,130.9,160.9,130.1,160.9z"/>
		</g>
		<g>
			<path d="M81.9,169.5h-12c-0.8,0-1.5-0.7-1.5-1.5v-0.1c0-0.8,0.7-1.5,1.5-1.5h12c0.8,0,1.5,0.7,1.5,1.5v0.1
				C83.4,168.8,82.7,169.5,81.9,169.5z"/>
			<path d="M106,169.5H94c-0.8,0-1.5-0.7-1.5-1.5v-0.1c0-0.8,0.7-1.5,1.5-1.5h12c0.8,0,1.5,0.7,1.5,1.5v0.1
				C107.5,168.8,106.8,169.5,106,169.5z"/>
			<path d="M130.1,169.5h-12c-0.8,0-1.5-0.7-1.5-1.5v-0.1c0-0.8,0.7-1.5,1.5-1.5h12c0.8,0,1.5,0.7,1.5,1.5v0.1
				C131.6,168.8,130.9,169.5,130.1,169.5z"/>
		</g>
		<g>
			<path d="M81.9,177.9h-12c-0.8,0-1.5-0.7-1.5-1.5v-0.1c0-0.8,0.7-1.5,1.5-1.5h12c0.8,0,1.5,0.7,1.5,1.5v0.1
				C83.4,177.3,82.7,177.9,81.9,177.9z"/>
			<path d="M106,177.9H94c-0.8,0-1.5-0.7-1.5-1.5v-0.1c0-0.8,0.7-1.5,1.5-1.5h12c0.8,0,1.5,0.7,1.5,1.5v0.1
				C107.5,177.3,106.8,177.9,106,177.9z"/>
			<path d="M130.1,177.9h-12c-0.8,0-1.5-0.7-1.5-1.5v-0.1c0-0.8,0.7-1.5,1.5-1.5h12c0.8,0,1.5,0.7,1.5,1.5v0.1
				C131.6,177.3,130.9,177.9,130.1,177.9z"/>
		</g>
	</g>
</g>
</svg>
