<?xml version="1.0" encoding="utf-8"?>
<!-- Generator: Adobe Illustrator 23.0.3, SVG Export Plug-In . SVG Version: 6.00 Build 0)  -->
<svg version="1.1" id="图层_1" xmlns="http://www.w3.org/2000/svg" xmlns:xlink="http://www.w3.org/1999/xlink" x="0px" y="0px"
	 viewBox="0 0 200 200" style="enable-background:new 0 0 200 200;" xml:space="preserve">
<style type="text/css">
	.st0{fill:url(#SVGID_1_);}
	.st1{fill:url(#SVGID_2_);}
	.st2{fill:url(#SVGID_3_);}
	.st3{fill:url(#SVGID_4_);}
	.st4{fill:url(#SVGID_5_);}
	.st5{fill:url(#SVGID_6_);}
	.st6{fill:url(#SVGID_7_);}
	.st7{fill:url(#SVGID_8_);}
	.st8{fill:url(#SVGID_9_);}
	.st9{fill:url(#SVGID_10_);}
	.st10{fill:url(#SVGID_11_);}
	.st11{fill:url(#SVGID_12_);}
	.st12{fill:url(#SVGID_13_);}
	.st13{fill:url(#SVGID_14_);}
	.st14{fill:url(#SVGID_15_);}
	.st15{fill:url(#SVGID_16_);}
	.st16{fill:url(#SVGID_17_);}
</style>
<g>
	
		<linearGradient id="SVGID_1_" gradientUnits="userSpaceOnUse" x1="75.471" y1="-99.1245" x2="75.471" y2="70.8755" gradientTransform="matrix(0 1 1 0 114.1245 28.0877)">
		<stop  offset="0" style="stop-color:#666666"/>
		<stop  offset="5.000000e-02" style="stop-color:#999999"/>
		<stop  offset="0.8" style="stop-color:#A1A1A1"/>
		<stop  offset="0.96" style="stop-color:#B9B9B9"/>
		<stop  offset="0.98" style="stop-color:#C5C5C5"/>
		<stop  offset="1" style="stop-color:#878787"/>
	</linearGradient>
	<polygon class="st0" points="15,156 15,51.2 185,51.2 185,156 	"/>
	
		<linearGradient id="SVGID_2_" gradientUnits="userSpaceOnUse" x1="7.1882" y1="-75.1245" x2="7.1882" y2="46.8755" gradientTransform="matrix(0 1 1 0 114.1245 28.0877)">
		<stop  offset="0" style="stop-color:#666666"/>
		<stop  offset="0.6" style="stop-color:#EFEFEF"/>
		<stop  offset="1" style="stop-color:#666666"/>
	</linearGradient>
	<polygon class="st1" points="39,46.3 39,24.2 161,24.2 161,46.3 	"/>
	<linearGradient id="SVGID_3_" gradientUnits="userSpaceOnUse" x1="15" y1="155.7125" x2="185" y2="155.7125">
		<stop  offset="1.811981e-07" style="stop-color:#6F6F6F"/>
		<stop  offset="0.8817" style="stop-color:#888888"/>
		<stop  offset="1" style="stop-color:#6F6F6F"/>
	</linearGradient>
	<rect x="15" y="155.5" class="st2" width="170" height="0.5"/>
	
		<linearGradient id="SVGID_4_" gradientUnits="userSpaceOnUse" x1="35" y1="178.4902" x2="165" y2="178.4902" gradientTransform="matrix(1 0 0 -1 0 200)">
		<stop  offset="0" style="stop-color:#666666"/>
		<stop  offset="0.6" style="stop-color:#EFEFEF"/>
		<stop  offset="1" style="stop-color:#666666"/>
	</linearGradient>
	<path class="st3" d="M163.7,24H36.4c-0.7,0-1.4-0.5-1.4-1.1v-2.8c0-0.6,0.6-1.1,1.4-1.1h127.3c0.7,0,1.4,0.5,1.4,1.1v2.8
		C165.1,23.5,164.5,24,163.7,24z"/>
	<linearGradient id="SVGID_5_" gradientUnits="userSpaceOnUse" x1="100" y1="160.9831" x2="100" y2="155.9635">
		<stop  offset="0" style="stop-color:#666666"/>
		<stop  offset="5.000000e-02" style="stop-color:#979797"/>
		<stop  offset="0.94" style="stop-color:#BABABA"/>
		<stop  offset="0.99" style="stop-color:#D3D3D3"/>
		<stop  offset="1" style="stop-color:#878787"/>
	</linearGradient>
	<path class="st4" d="M184.1,161H15.9c-0.5,0-0.9-0.4-0.9-0.9V156h170v4.1C185,160.6,184.6,161,184.1,161z"/>
	<linearGradient id="SVGID_6_" gradientUnits="userSpaceOnUse" x1="100" y1="51.2771" x2="100" y2="46.2575">
		<stop  offset="0" style="stop-color:#666666"/>
		<stop  offset="5.000000e-02" style="stop-color:#979797"/>
		<stop  offset="0.94" style="stop-color:#BABABA"/>
		<stop  offset="0.99" style="stop-color:#D3D3D3"/>
		<stop  offset="1" style="stop-color:#878787"/>
	</linearGradient>
	<path class="st5" d="M185,51.3H15v-4c0-0.6,0.4-1,1-1h168c0.6,0,1,0.4,1,1V51.3z"/>
	<linearGradient id="SVGID_7_" gradientUnits="userSpaceOnUse" x1="15" y1="51.4049" x2="185" y2="51.4049">
		<stop  offset="1.811981e-07" style="stop-color:#6F6F6F"/>
		<stop  offset="0.8817" style="stop-color:#888888"/>
		<stop  offset="1" style="stop-color:#6F6F6F"/>
	</linearGradient>
	<rect x="15" y="51.2" class="st6" width="170" height="0.5"/>
	<g>
		<linearGradient id="SVGID_8_" gradientUnits="userSpaceOnUse" x1="20.7358" y1="170.9608" x2="28.7358" y2="170.9608">
			<stop  offset="0" style="stop-color:#666666"/>
			<stop  offset="5.000000e-02" style="stop-color:#979797"/>
			<stop  offset="0.94" style="stop-color:#BABABA"/>
			<stop  offset="0.99" style="stop-color:#D3D3D3"/>
			<stop  offset="1" style="stop-color:#878787"/>
		</linearGradient>
		<rect x="20.7" y="160.9" class="st7" width="8" height="20.1"/>
		<linearGradient id="SVGID_9_" gradientUnits="userSpaceOnUse" x1="96" y1="170.9608" x2="104" y2="170.9608">
			<stop  offset="0" style="stop-color:#666666"/>
			<stop  offset="5.000000e-02" style="stop-color:#979797"/>
			<stop  offset="0.94" style="stop-color:#BABABA"/>
			<stop  offset="0.99" style="stop-color:#D3D3D3"/>
			<stop  offset="1" style="stop-color:#878787"/>
		</linearGradient>
		<rect x="96" y="160.9" class="st8" width="8" height="20.1"/>
		<linearGradient id="SVGID_10_" gradientUnits="userSpaceOnUse" x1="171.2641" y1="170.9608" x2="179.2641" y2="170.9608">
			<stop  offset="0" style="stop-color:#666666"/>
			<stop  offset="5.000000e-02" style="stop-color:#979797"/>
			<stop  offset="0.94" style="stop-color:#BABABA"/>
			<stop  offset="0.99" style="stop-color:#D3D3D3"/>
			<stop  offset="1" style="stop-color:#878787"/>
		</linearGradient>
		<rect x="171.3" y="160.9" class="st9" width="8" height="20.1"/>
	</g>
	<g>
		<linearGradient id="SVGID_11_" gradientUnits="userSpaceOnUse" x1="24.8991" y1="103.5587" x2="33.0423" y2="103.5587">
			<stop  offset="0" style="stop-color:#8A8482"/>
			<stop  offset="6.999986e-02" style="stop-color:#A5A5A5"/>
			<stop  offset="0.97" style="stop-color:#D8D6D6"/>
			<stop  offset="1" style="stop-color:#857F7D"/>
		</linearGradient>
		<path class="st10" d="M29.1,148.7h-0.5c-2.1,0-3.7-1.7-3.7-3.7V62.1c0-2.1,1.7-3.7,3.7-3.7h0.5c2.1,0,3.7,1.7,3.7,3.7V145
			C32.9,147.1,31.2,148.7,29.1,148.7z"/>
		<linearGradient id="SVGID_12_" gradientUnits="userSpaceOnUse" x1="48.6098" y1="103.5587" x2="56.753" y2="103.5587">
			<stop  offset="0" style="stop-color:#8A8482"/>
			<stop  offset="6.000000e-02" style="stop-color:#A5A5A5"/>
			<stop  offset="0.96" style="stop-color:#D8D6D6"/>
			<stop  offset="1" style="stop-color:#857F7D"/>
		</linearGradient>
		<path class="st11" d="M52.8,148.7h-0.5c-2.1,0-3.7-1.7-3.7-3.7V62.1c0-2.1,1.7-3.7,3.7-3.7h0.5c2.1,0,3.7,1.7,3.7,3.7V145
			C56.6,147.1,54.9,148.7,52.8,148.7z"/>
		<linearGradient id="SVGID_13_" gradientUnits="userSpaceOnUse" x1="72.3205" y1="103.5587" x2="80.4637" y2="103.5587">
			<stop  offset="0" style="stop-color:#8A8482"/>
			<stop  offset="6.000000e-02" style="stop-color:#AAAAAA"/>
			<stop  offset="0.95" style="stop-color:#D8D6D6"/>
			<stop  offset="1" style="stop-color:#857F7D"/>
		</linearGradient>
		<path class="st12" d="M76.5,148.7H76c-2.1,0-3.7-1.7-3.7-3.7V62.1c0-2.1,1.7-3.7,3.7-3.7h0.5c2.1,0,3.7,1.7,3.7,3.7V145
			C80.3,147.1,78.6,148.7,76.5,148.7z"/>
		<linearGradient id="SVGID_14_" gradientUnits="userSpaceOnUse" x1="119.7419" y1="103.5587" x2="127.8851" y2="103.5587">
			<stop  offset="0" style="stop-color:#8A8482"/>
			<stop  offset="6.000000e-02" style="stop-color:#ABABAB"/>
			<stop  offset="0.93" style="stop-color:#D8D6D6"/>
			<stop  offset="1" style="stop-color:#857F7D"/>
		</linearGradient>
		<path class="st13" d="M124,148.7h-0.5c-2.1,0-3.7-1.7-3.7-3.7V62.1c0-2.1,1.7-3.7,3.7-3.7h0.5c2.1,0,3.7,1.7,3.7,3.7V145
			C127.7,147.1,126,148.7,124,148.7z"/>
		<linearGradient id="SVGID_15_" gradientUnits="userSpaceOnUse" x1="143.4526" y1="103.5587" x2="151.5957" y2="103.5587">
			<stop  offset="0" style="stop-color:#8A8482"/>
			<stop  offset="6.000000e-02" style="stop-color:#A9A9A9"/>
			<stop  offset="0.9" style="stop-color:#D8D6D6"/>
			<stop  offset="1" style="stop-color:#857F7D"/>
		</linearGradient>
		<path class="st14" d="M147.7,148.7h-0.5c-2.1,0-3.7-1.7-3.7-3.7V62.1c0-2.1,1.7-3.7,3.7-3.7h0.5c2.1,0,3.7,1.7,3.7,3.7V145
			C151.4,147.1,149.7,148.7,147.7,148.7z"/>
		<linearGradient id="SVGID_16_" gradientUnits="userSpaceOnUse" x1="167.1633" y1="103.5587" x2="175.3064" y2="103.5587">
			<stop  offset="0" style="stop-color:#8A8482"/>
			<stop  offset="6.000000e-02" style="stop-color:#ABABAB"/>
			<stop  offset="0.89" style="stop-color:#D8D6D6"/>
			<stop  offset="1" style="stop-color:#857F7D"/>
		</linearGradient>
		<path class="st15" d="M171.4,148.7h-0.5c-2.1,0-3.7-1.7-3.7-3.7V62.1c0-2.1,1.7-3.7,3.7-3.7h0.5c2.1,0,3.7,1.7,3.7,3.7V145
			C175.1,147.1,173.4,148.7,171.4,148.7z"/>
		<linearGradient id="SVGID_17_" gradientUnits="userSpaceOnUse" x1="96.0312" y1="103.5587" x2="104.1744" y2="103.5587">
			<stop  offset="0" style="stop-color:#8A8482"/>
			<stop  offset="6.000000e-02" style="stop-color:#ADACAC"/>
			<stop  offset="0.94" style="stop-color:#D8D6D6"/>
			<stop  offset="1" style="stop-color:#857F7D"/>
		</linearGradient>
		<path class="st16" d="M100.3,148.7h-0.5c-2.1,0-3.7-1.7-3.7-3.7V62.1c0-2.1,1.7-3.7,3.7-3.7h0.5c2.1,0,3.7,1.7,3.7,3.7V145
			C104,147.1,102.3,148.7,100.3,148.7z"/>
	</g>
</g>
</svg>
