<?xml version="1.0" encoding="utf-8"?>
<!-- Generator: Adobe Illustrator 23.0.3, SVG Export Plug-In . SVG Version: 6.00 Build 0)  -->
<svg version="1.1" id="图层_1" xmlns="http://www.w3.org/2000/svg" xmlns:xlink="http://www.w3.org/1999/xlink" x="0px" y="0px"
	 viewBox="0 0 200 200" style="enable-background:new 0 0 200 200;" xml:space="preserve">
<style type="text/css">
	.st0{fill:url(#SVGID_1_);}
	.st1{fill:url(#SVGID_2_);}
	.st2{fill:url(#SVGID_3_);}
	.st3{fill:url(#SVGID_4_);}
	.st4{fill:url(#SVGID_5_);}
	.st5{fill:url(#SVGID_6_);}
	.st6{fill:url(#SVGID_7_);}
	.st7{fill:url(#SVGID_8_);}
	.st8{fill:url(#SVGID_9_);}
	.st9{fill:url(#SVGID_10_);}
	.st10{fill:url(#SVGID_11_);}
	.st11{fill:url(#SVGID_12_);}
	.st12{fill:url(#SVGID_13_);}
	.st13{fill:url(#SVGID_14_);}
	.st14{fill:url(#SVGID_15_);}
	.st15{fill:url(#SVGID_16_);}
	.st16{fill:url(#SVGID_17_);}
	.st17{fill:url(#SVGID_18_);}
	.st18{fill:url(#SVGID_19_);}
	.st19{fill:url(#SVGID_20_);}
	.st20{fill:url(#SVGID_21_);}
</style>
<g>
	<g>
		
			<linearGradient id="SVGID_1_" gradientUnits="userSpaceOnUse" x1="20.4222" y1="282.3199" x2="26.4222" y2="282.3199" gradientTransform="matrix(6.123234e-17 -1 1 6.123234e-17 -260.317 151.483)">
			<stop  offset="0.2" style="stop-color:#BBBDBD"/>
			<stop  offset="0.85" style="stop-color:#FBFCFD"/>
			<stop  offset="0.95" style="stop-color:#D2D3D4"/>
		</linearGradient>
		<rect x="18" y="125" class="st0" width="8" height="6"/>
		<linearGradient id="SVGID_2_" gradientUnits="userSpaceOnUse" x1="16.5006" y1="134.0829" x2="16.5006" y2="122.0829">
			<stop  offset="0.2" style="stop-color:#9AAFB7"/>
			<stop  offset="0.7" style="stop-color:#D5E4EB"/>
			<stop  offset="0.8" style="stop-color:#E3F1F7"/>
			<stop  offset="0.92" style="stop-color:#A6BDC7"/>
		</linearGradient>
		<path class="st1" d="M17.5,134h-2c-0.3,0-0.5-0.2-0.5-0.5v-11c0-0.3,0.2-0.5,0.5-0.5h2c0.3,0,0.5,0.2,0.5,0.5v11
			C18,133.8,17.8,134,17.5,134z"/>
	</g>
	
		<linearGradient id="SVGID_3_" gradientUnits="userSpaceOnUse" x1="53.5813" y1="93" x2="155.6005" y2="93" gradientTransform="matrix(1 0 0 1 0 -68)">
		<stop  offset="0.2" style="stop-color:#BBBDBD"/>
		<stop  offset="0.8" style="stop-color:#FBFCFD"/>
		<stop  offset="0.9589" style="stop-color:#D2D3D4"/>
	</linearGradient>
	<rect x="54" y="12" class="st2" width="102" height="26"/>
	
		<linearGradient id="SVGID_4_" gradientUnits="userSpaceOnUse" x1="126.65" y1="255.3162" x2="126.65" y2="97.2504" gradientTransform="matrix(6.123234e-17 1 -1 6.123234e-17 281.25 -14.65)">
		<stop  offset="0" style="stop-color:#999999"/>
		<stop  offset="4.999992e-02" style="stop-color:#DEDEDE"/>
		<stop  offset="0.8972" style="stop-color:#E5E5E5"/>
		<stop  offset="0.9439" style="stop-color:#F5F5F5"/>
		<stop  offset="0.99" style="stop-color:#FFFFFF"/>
		<stop  offset="1" style="stop-color:#999999"/>
	</linearGradient>
	<path class="st3" d="M26,37.7V37h158v150H25.9"/>
	<linearGradient id="SVGID_5_" gradientUnits="userSpaceOnUse" x1="51.6348" y1="11" x2="157.7994" y2="11">
		<stop  offset="0.2" style="stop-color:#B7B7B7"/>
		<stop  offset="0.75" style="stop-color:#FAFBFC"/>
		<stop  offset="0.9589" style="stop-color:#B7B7B7"/>
	</linearGradient>
	<path class="st4" d="M157,12H53c-0.5,0-1-0.4-1-1v0c0-0.5,0.5-1,1-1h104c0.6,0,1,0.4,1,1v0C158,11.6,157.5,12,157,12z"/>
	
		<linearGradient id="SVGID_6_" gradientUnits="userSpaceOnUse" x1="26.525" y1="131.9849" x2="184.7784" y2="131.9849" gradientTransform="matrix(1 0 0 -1 0 200)">
		<stop  offset="0" style="stop-color:#CDCDCD"/>
		<stop  offset="1" style="stop-color:#CCCCCC"/>
	</linearGradient>
	<rect x="25.9" y="67" class="st5" width="158.1" height="2"/>
	<g>
		
			<linearGradient id="SVGID_7_" gradientUnits="userSpaceOnUse" x1="69.1392" y1="282.3199" x2="75.1392" y2="282.3199" gradientTransform="matrix(6.123234e-17 -1 1 6.123234e-17 -260.317 151.483)">
			<stop  offset="0.2" style="stop-color:#BBBDBD"/>
			<stop  offset="0.85" style="stop-color:#FBFCFD"/>
			<stop  offset="0.95" style="stop-color:#D2D3D4"/>
		</linearGradient>
		<rect x="18" y="76.3" class="st6" width="8" height="6"/>
		<linearGradient id="SVGID_8_" gradientUnits="userSpaceOnUse" x1="16.5006" y1="85.3659" x2="16.5006" y2="73.3659">
			<stop  offset="0.2" style="stop-color:#9AAFB7"/>
			<stop  offset="0.7" style="stop-color:#D5E4EB"/>
			<stop  offset="0.8" style="stop-color:#E3F1F7"/>
			<stop  offset="0.92" style="stop-color:#A6BDC7"/>
		</linearGradient>
		<path class="st7" d="M17.5,85.3h-2c-0.3,0-0.5-0.2-0.5-0.5v-11c0-0.3,0.2-0.5,0.5-0.5h2c0.3,0,0.5,0.2,0.5,0.5v11
			C18,85.1,17.8,85.3,17.5,85.3z"/>
	</g>
	
		<linearGradient id="SVGID_9_" gradientUnits="userSpaceOnUse" x1="26.525" y1="98.9849" x2="184.7784" y2="98.9849" gradientTransform="matrix(1 0 0 -1 0 200)">
		<stop  offset="0" style="stop-color:#CDCDCD"/>
		<stop  offset="1" style="stop-color:#CCCCCC"/>
	</linearGradient>
	<rect x="25.9" y="100" class="st8" width="158.1" height="2"/>
	
		<linearGradient id="SVGID_10_" gradientUnits="userSpaceOnUse" x1="26.525" y1="63.9849" x2="184.7784" y2="63.9849" gradientTransform="matrix(1 0 0 -1 0 200)">
		<stop  offset="0" style="stop-color:#CDCDCD"/>
		<stop  offset="1" style="stop-color:#CCCCCC"/>
	</linearGradient>
	<rect x="25.9" y="135" class="st9" width="158.1" height="2"/>
	
		<linearGradient id="SVGID_11_" gradientUnits="userSpaceOnUse" x1="26.525" y1="36.4189" x2="184.7784" y2="36.4189" gradientTransform="matrix(1 0 0 -1 0 200)">
		<stop  offset="0" style="stop-color:#CDCDCD"/>
		<stop  offset="1" style="stop-color:#CCCCCC"/>
	</linearGradient>
	<rect x="25.9" y="162.6" class="st10" width="158.1" height="2"/>
	
		<linearGradient id="SVGID_12_" gradientUnits="userSpaceOnUse" x1="26.525" y1="162" x2="184.7784" y2="162" gradientTransform="matrix(1 0 0 -1 0 200)">
		<stop  offset="0" style="stop-color:#CDCDCD"/>
		<stop  offset="1" style="stop-color:#CCCCCC"/>
	</linearGradient>
	<rect x="25.9" y="37" class="st11" width="158.1" height="2"/>
	<linearGradient id="SVGID_13_" gradientUnits="userSpaceOnUse" x1="104.9667" y1="190" x2="104.9667" y2="184">
		<stop  offset="0" style="stop-color:#999999"/>
		<stop  offset="4.999992e-02" style="stop-color:#DEDEDE"/>
		<stop  offset="0.9" style="stop-color:#E5E5E5"/>
		<stop  offset="0.99" style="stop-color:#F5F5F5"/>
		<stop  offset="1" style="stop-color:#999999"/>
	</linearGradient>
	<rect x="24.9" y="184" class="st12" width="160.1" height="6"/>
	<g>
		
			<linearGradient id="SVGID_14_" gradientUnits="userSpaceOnUse" x1="164.2559" y1="255.3162" x2="164.2559" y2="97.2504" gradientTransform="matrix(6.123234e-17 1 -1 6.123234e-17 281.25 -14.65)">
			<stop  offset="0" style="stop-color:#2E2A29"/>
			<stop  offset="4.999999e-02" style="stop-color:#373332"/>
			<stop  offset="0.9439" style="stop-color:#383433"/>
			<stop  offset="0.99" style="stop-color:#848281"/>
			<stop  offset="1" style="stop-color:#373332"/>
		</linearGradient>
		<path class="st13" d="M26,139.7L26,139.7l158-0.1v20H25.9"/>
		<g>
			<linearGradient id="SVGID_15_" gradientUnits="userSpaceOnUse" x1="104.9667" y1="150.6059" x2="104.9667" y2="148.6059">
				<stop  offset="0.2" style="stop-color:#373332"/>
				<stop  offset="0.6" style="stop-color:#848281"/>
				<stop  offset="0.9" style="stop-color:#373332"/>
			</linearGradient>
			<rect x="25.9" y="148.6" class="st14" width="158.1" height="2"/>
			<linearGradient id="SVGID_16_" gradientUnits="userSpaceOnUse" x1="104.9667" y1="147.0696" x2="104.9667" y2="145.0696">
				<stop  offset="0.2" style="stop-color:#373332"/>
				<stop  offset="0.6" style="stop-color:#848281"/>
				<stop  offset="0.9" style="stop-color:#373332"/>
			</linearGradient>
			<rect x="25.9" y="145.1" class="st15" width="158.1" height="2"/>
			<linearGradient id="SVGID_17_" gradientUnits="userSpaceOnUse" x1="104.9667" y1="157.6785" x2="104.9667" y2="155.6785">
				<stop  offset="0.2" style="stop-color:#373332"/>
				<stop  offset="0.6" style="stop-color:#848281"/>
				<stop  offset="0.9" style="stop-color:#373332"/>
			</linearGradient>
			<rect x="25.9" y="155.7" class="st16" width="158.1" height="2"/>
			<linearGradient id="SVGID_18_" gradientUnits="userSpaceOnUse" x1="104.9667" y1="154.1422" x2="104.9667" y2="152.1422">
				<stop  offset="0.2" style="stop-color:#373332"/>
				<stop  offset="0.6" style="stop-color:#848281"/>
				<stop  offset="0.9" style="stop-color:#373332"/>
			</linearGradient>
			<rect x="25.9" y="152.1" class="st17" width="158.1" height="2"/>
			<linearGradient id="SVGID_19_" gradientUnits="userSpaceOnUse" x1="104.9667" y1="143.5332" x2="104.9667" y2="141.5332">
				<stop  offset="0.2" style="stop-color:#373332"/>
				<stop  offset="0.6" style="stop-color:#848281"/>
				<stop  offset="0.9" style="stop-color:#373332"/>
			</linearGradient>
			<rect x="25.9" y="141.5" class="st18" width="158.1" height="2"/>
		</g>
		<g>
			
				<linearGradient id="SVGID_20_" gradientUnits="userSpaceOnUse" x1="108.6667" y1="167.0871" x2="108.6667" y2="165.0863" gradientTransform="matrix(6.123234e-17 1 -1 6.123234e-17 229.8098 40.9392)">
				<stop  offset="0.2" style="stop-color:#373332"/>
				<stop  offset="0.6" style="stop-color:#848281"/>
				<stop  offset="0.9" style="stop-color:#373332"/>
			</linearGradient>
			<polygon class="st19" points="62.7,159.6 62.7,139.6 64.7,139.6 64.7,159.6 			"/>
			
				<linearGradient id="SVGID_21_" gradientUnits="userSpaceOnUse" x1="108.6667" y1="84.6" x2="108.6667" y2="82.5991" gradientTransform="matrix(6.123234e-17 1 -1 6.123234e-17 229.8098 40.9392)">
				<stop  offset="0.2" style="stop-color:#373332"/>
				<stop  offset="0.6" style="stop-color:#848281"/>
				<stop  offset="0.9" style="stop-color:#373332"/>
			</linearGradient>
			<polygon class="st20" points="145.2,159.6 145.2,139.6 147.2,139.6 147.2,159.6 			"/>
		</g>
	</g>
</g>
</svg>
