<?xml version="1.0" encoding="utf-8"?>
<!-- Generator: Adobe Illustrator 23.0.3, SVG Export Plug-In . SVG Version: 6.00 Build 0)  -->
<svg version="1.1" id="图层_1" xmlns="http://www.w3.org/2000/svg" xmlns:xlink="http://www.w3.org/1999/xlink" x="0px" y="0px"
	 viewBox="0 0 200 200" style="enable-background:new 0 0 200 200;" xml:space="preserve">
<style type="text/css">
	.st0{fill:url(#SVGID_1_);}
	.st1{fill:url(#SVGID_2_);}
	.st2{fill:url(#SVGID_3_);}
	.st3{fill:url(#SVGID_4_);}
	.st4{fill:url(#SVGID_5_);}
	.st5{fill:url(#SVGID_6_);}
	.st6{fill:url(#SVGID_7_);}
	.st7{fill:url(#SVGID_8_);}
	.st8{fill:url(#SVGID_9_);}
	.st9{fill:url(#SVGID_10_);}
	.st10{fill:url(#SVGID_11_);}
	.st11{fill:url(#SVGID_12_);}
	.st12{fill:url(#SVGID_13_);}
	.st13{fill:url(#SVGID_14_);}
</style>
<g>
	
		<linearGradient id="SVGID_1_" gradientUnits="userSpaceOnUse" x1="101.0623" y1="260.1016" x2="101.0623" y2="168.0574" gradientTransform="matrix(0 1 -1 0 314.1245 28.0877)">
		<stop  offset="3.178914e-07" style="stop-color:#3E3F3F"/>
		<stop  offset="0.8" style="stop-color:#DFDFDF"/>
		<stop  offset="1" style="stop-color:#3E3F3F"/>
	</linearGradient>
	<polygon class="st0" points="90.1,139.2 54,119.1 146.1,119.1 110,139.2 	"/>
	<linearGradient id="SVGID_2_" gradientUnits="userSpaceOnUse" x1="54.0229" y1="11.4155" x2="146.0671" y2="11.4155">
		<stop  offset="3.178914e-07" style="stop-color:#3E3F3F"/>
		<stop  offset="0.8" style="stop-color:#DFDFDF"/>
		<stop  offset="1" style="stop-color:#3E3F3F"/>
	</linearGradient>
	<path class="st1" d="M54,17.6V9c0-2.2,1.8-4,4-4h84c2.2,0,4,1.8,4,4v8.6C146.1,18,54.2,17.8,54,17.6z"/>
	
		<linearGradient id="SVGID_3_" gradientUnits="userSpaceOnUse" x1="37.6123" y1="260.1016" x2="37.6123" y2="168.0574" gradientTransform="matrix(0 1 -1 0 314.1245 28.0877)">
		<stop  offset="0" style="stop-color:#666666"/>
		<stop  offset="0.8" style="stop-color:#EFEFEF"/>
		<stop  offset="1" style="stop-color:#666666"/>
	</linearGradient>
	<polygon class="st2" points="54,117.9 54,13.5 146.1,13.5 146.1,117.9 	"/>
	
		<linearGradient id="SVGID_4_" gradientUnits="userSpaceOnUse" x1="100.0587" y1="270.9474" x2="100.0587" y2="274.5069" gradientTransform="matrix(1 0 0 -1 -6.428157e-02 364.1999)">
		<stop  offset="0" style="stop-color:#8A8482"/>
		<stop  offset="0.7" style="stop-color:#FFFFFF"/>
		<stop  offset="1" style="stop-color:#857F7D"/>
	</linearGradient>
	<path class="st3" d="M141.1,93.3H58.8c-0.4,0-0.8-0.7-0.8-1.5v-0.5c0-0.8,0.4-1.5,0.8-1.5h82.4c0.4,0,0.8,0.7,0.8,1.5v0.5
		C142,92.5,141.6,93.3,141.1,93.3z"/>
	
		<linearGradient id="SVGID_5_" gradientUnits="userSpaceOnUse" x1="100.0587" y1="242.7619" x2="100.0587" y2="246.3214" gradientTransform="matrix(1 0 0 -1 -6.428157e-02 364.1999)">
		<stop  offset="0" style="stop-color:#8A8482"/>
		<stop  offset="0.7" style="stop-color:#FFFFFF"/>
		<stop  offset="1" style="stop-color:#857F7D"/>
	</linearGradient>
	<path class="st4" d="M141.1,121.4H58.8c-0.4,0-0.8-0.7-0.8-1.5v-0.5c0-0.8,0.4-1.5,0.8-1.5h82.4c0.4,0,0.8,0.7,0.8,1.5v0.5
		C142,120.7,141.6,121.4,141.1,121.4z"/>
	
		<linearGradient id="SVGID_6_" gradientUnits="userSpaceOnUse" x1="182.5668" y1="105.6236" x2="182.5668" y2="111.6292" gradientTransform="matrix(6.123234e-17 1 1 -6.123234e-17 -8.5341 -19.6168)">
		<stop  offset="0" style="stop-color:#8A8482"/>
		<stop  offset="0.7" style="stop-color:#FFFFFF"/>
		<stop  offset="1" style="stop-color:#857F7D"/>
	</linearGradient>
	<path class="st5" d="M97,186.1v-46.3c0-0.3,1.2-0.6,2.5-0.6h0.9c1.3,0,2.5,0.3,2.5,0.6v46.3c0,0.3-1.2,0.6-2.5,0.6h-0.9
		C98.2,186.6,97,186.4,97,186.1z"/>
	<linearGradient id="SVGID_7_" gradientUnits="userSpaceOnUse" x1="85.6733" y1="186.7" x2="114.5114" y2="186.7">
		<stop  offset="0" style="stop-color:#8A8482"/>
		<stop  offset="0.7" style="stop-color:#FFFFFF"/>
		<stop  offset="1" style="stop-color:#857F7D"/>
	</linearGradient>
	<path class="st6" d="M113.3,189.1H86.8c-0.7,0-1.2-0.5-1.2-1.2v-2.4c0-0.7,0.5-1.2,1.2-1.2h26.4c0.7,0,1.2,0.5,1.2,1.2v2.4
		C114.5,188.5,113.9,189.1,113.3,189.1z"/>
	<linearGradient id="SVGID_8_" gradientUnits="userSpaceOnUse" x1="89.2223" y1="138.85" x2="110.8425" y2="138.85">
		<stop  offset="0" style="stop-color:#8A8482"/>
		<stop  offset="0.7" style="stop-color:#FFFFFF"/>
		<stop  offset="1" style="stop-color:#857F7D"/>
	</linearGradient>
	<path class="st7" d="M110,140.6H90.1c-0.5,0-0.9-0.4-0.9-0.9V138c0-0.5,0.4-0.9,0.9-0.9H110c0.5,0,0.9,0.4,0.9,0.9v1.8
		C110.9,140.2,110.5,140.6,110,140.6z"/>
	
		<linearGradient id="SVGID_9_" gradientUnits="userSpaceOnUse" x1="54.0229" y1="182.8" x2="146.0671" y2="182.8" gradientTransform="matrix(1 0 0 -1 0 200)">
		<stop  offset="3.178914e-07" style="stop-color:#3E3F3F"/>
		<stop  offset="0.8" style="stop-color:#DFDFDF"/>
		<stop  offset="1" style="stop-color:#3E3F3F"/>
	</linearGradient>
	<rect x="54" y="16.6" class="st8" width="92" height="1.2"/>
	
		<linearGradient id="SVGID_10_" gradientUnits="userSpaceOnUse" x1="54.0229" y1="92" x2="146.0671" y2="92" gradientTransform="matrix(1 0 0 -1 0 200)">
		<stop  offset="3.178914e-07" style="stop-color:#3E3F3F"/>
		<stop  offset="0.8" style="stop-color:#DFDFDF"/>
		<stop  offset="1" style="stop-color:#3E3F3F"/>
	</linearGradient>
	<rect x="54" y="107.4" class="st9" width="92" height="1.2"/>
	
		<linearGradient id="SVGID_11_" gradientUnits="userSpaceOnUse" x1="54.0229" y1="86.2" x2="146.0671" y2="86.2" gradientTransform="matrix(1 0 0 -1 0 200)">
		<stop  offset="3.178914e-07" style="stop-color:#3E3F3F"/>
		<stop  offset="0.8" style="stop-color:#DFDFDF"/>
		<stop  offset="1" style="stop-color:#3E3F3F"/>
	</linearGradient>
	<rect x="54" y="113.2" class="st10" width="92" height="1.2"/>
	
		<linearGradient id="SVGID_12_" gradientUnits="userSpaceOnUse" x1="151.8168" y1="62.5571" x2="151.8168" y2="68.5627" gradientTransform="matrix(6.123234e-17 1 1 -6.123234e-17 -8.5341 -19.6168)">
		<stop  offset="0" style="stop-color:#8A8482"/>
		<stop  offset="0.7" style="stop-color:#FFFFFF"/>
		<stop  offset="1" style="stop-color:#857F7D"/>
	</linearGradient>
	<path class="st11" d="M54,190.1V74.3c0-0.8,1.2-1.4,2.5-1.4h0.9c1.3,0,2.5,0.7,2.5,1.4v115.8c0,0.8-1.2,1.4-2.5,1.4h-0.9
		C55.2,191.5,54,190.8,54,190.1z"/>
	
		<linearGradient id="SVGID_13_" gradientUnits="userSpaceOnUse" x1="151.8168" y1="148.6186" x2="151.8168" y2="154.6242" gradientTransform="matrix(6.123234e-17 1 1 -6.123234e-17 -8.5341 -19.6168)">
		<stop  offset="0" style="stop-color:#8A8482"/>
		<stop  offset="0.7" style="stop-color:#FFFFFF"/>
		<stop  offset="1" style="stop-color:#857F7D"/>
	</linearGradient>
	<path class="st12" d="M140.1,190.1V74.3c0-0.8,1.2-1.4,2.5-1.4h0.9c1.3,0,2.5,0.7,2.5,1.4v115.8c0,0.8-1.2,1.4-2.5,1.4h-0.9
		C141.3,191.5,140.1,190.8,140.1,190.1z"/>
	<linearGradient id="SVGID_14_" gradientUnits="userSpaceOnUse" x1="52" y1="192.05" x2="148" y2="192.05">
		<stop  offset="0" style="stop-color:#8A8482"/>
		<stop  offset="0.1" style="stop-color:#B1ADAB"/>
		<stop  offset="0.9" style="stop-color:#D5D3D2"/>
		<stop  offset="0.95" style="stop-color:#EEEDED"/>
		<stop  offset="1" style="stop-color:#857F7D"/>
	</linearGradient>
	<path class="st13" d="M146.8,195H53.3c-0.7,0-1.3-0.6-1.3-1.3v-3.3c0-0.7,0.6-1.3,1.3-1.3h93.4c0.7,0,1.3,0.6,1.3,1.3v3.3
		C148.1,194.4,147.5,195,146.8,195z"/>
</g>
</svg>
