<?xml version="1.0" encoding="utf-8"?>
<!-- Generator: Adobe Illustrator 23.0.3, SVG Export Plug-In . SVG Version: 6.00 Build 0)  -->
<svg version="1.1" id="图层_1" xmlns="http://www.w3.org/2000/svg" xmlns:xlink="http://www.w3.org/1999/xlink" x="0px" y="0px"
	 viewBox="0 0 200 200" style="enable-background:new 0 0 200 200;" xml:space="preserve">
<style type="text/css">
	.st0{fill:url(#SVGID_1_);}
	.st1{fill:url(#SVGID_2_);}
	.st2{fill:url(#SVGID_3_);}
	.st3{fill:url(#SVGID_4_);}
	.st4{fill:url(#SVGID_5_);}
	.st5{fill:url(#SVGID_6_);}
	.st6{fill:url(#SVGID_7_);}
	.st7{fill:url(#SVGID_8_);}
	.st8{fill:url(#SVGID_9_);}
	.st9{fill:url(#SVGID_10_);}
	.st10{fill:url(#SVGID_11_);}
</style>
<g>
	
		<linearGradient id="SVGID_1_" gradientUnits="userSpaceOnUse" x1="131.5233" y1="263.4588" x2="131.5233" y2="164.8997" gradientTransform="matrix(0 1 -1 0 314.1245 28.0877)">
		<stop  offset="0" style="stop-color:#666666"/>
		<stop  offset="0.8" style="stop-color:#EFEFEF"/>
		<stop  offset="1" style="stop-color:#666666"/>
	</linearGradient>
	<polygon class="st0" points="86.1,186.6 50.7,132.6 149.2,132.6 113.9,186.6 	"/>
	
		<linearGradient id="SVGID_2_" gradientUnits="userSpaceOnUse" x1="46.7192" y1="263.4588" x2="46.7192" y2="164.8997" gradientTransform="matrix(0 1 -1 0 314.1245 28.0877)">
		<stop  offset="0" style="stop-color:#666666"/>
		<stop  offset="0.8" style="stop-color:#EFEFEF"/>
		<stop  offset="1" style="stop-color:#666666"/>
	</linearGradient>
	<polygon class="st1" points="50.7,129.8 50.7,19.8 149.2,19.8 149.2,129.8 	"/>
	
		<linearGradient id="SVGID_3_" gradientUnits="userSpaceOnUse" x1="47.0519" y1="186.4764" x2="152.9481" y2="186.4764" gradientTransform="matrix(1 0 0 -1 0 200)">
		<stop  offset="3.178914e-07" style="stop-color:#3E3F3F"/>
		<stop  offset="0.8" style="stop-color:#DFDFDF"/>
		<stop  offset="1" style="stop-color:#3E3F3F"/>
	</linearGradient>
	<rect x="47.1" y="12.4" class="st2" width="105.9" height="2.2"/>
	
		<linearGradient id="SVGID_4_" gradientUnits="userSpaceOnUse" x1="43" y1="191.2237" x2="157" y2="191.2237" gradientTransform="matrix(1 0 0 -1 0 200)">
		<stop  offset="0" style="stop-color:#666666"/>
		<stop  offset="0.76" style="stop-color:#EFEFEF"/>
		<stop  offset="1" style="stop-color:#666666"/>
	</linearGradient>
	<path class="st3" d="M155.9,12.6H44.1c-0.5,0-1.1-0.4-1.1-1.1V6.1C43,5.5,43.4,5,44.1,5h111.8c0.5,0,1.1,0.4,1.1,1.1v5.4
		C156.9,12.1,156.5,12.6,155.9,12.6z"/>
	
		<linearGradient id="SVGID_5_" gradientUnits="userSpaceOnUse" x1="47.0519" y1="183.0238" x2="152.9481" y2="183.0238" gradientTransform="matrix(1 0 0 -1 0 200)">
		<stop  offset="0" style="stop-color:#666666"/>
		<stop  offset="0.78" style="stop-color:#EFEFEF"/>
		<stop  offset="1" style="stop-color:#666666"/>
	</linearGradient>
	<path class="st4" d="M151.9,19.7H48.1c-0.7,0-1.1-0.4-1.1-1.1v-4.3h105.9v4.3C152.9,19.2,152.4,19.7,151.9,19.7z"/>
	
		<linearGradient id="SVGID_6_" gradientUnits="userSpaceOnUse" x1="50.6657" y1="179.1397" x2="149.2248" y2="179.1397" gradientTransform="matrix(1 0 0 -1 0 200)">
		<stop  offset="3.178914e-07" style="stop-color:#3E3F3F"/>
		<stop  offset="0.8" style="stop-color:#DFDFDF"/>
		<stop  offset="1" style="stop-color:#3E3F3F"/>
	</linearGradient>
	<rect x="50.7" y="19.8" class="st5" width="98.6" height="2.2"/>
	
		<linearGradient id="SVGID_7_" gradientUnits="userSpaceOnUse" x1="50.6657" y1="78.799" x2="149.2248" y2="78.799" gradientTransform="matrix(1 0 0 -1 0 200)">
		<stop  offset="3.178914e-07" style="stop-color:#3E3F3F"/>
		<stop  offset="0.8" style="stop-color:#DFDFDF"/>
		<stop  offset="1" style="stop-color:#3E3F3F"/>
	</linearGradient>
	<rect x="50.7" y="120.1" class="st6" width="98.6" height="2.2"/>
	
		<linearGradient id="SVGID_8_" gradientUnits="userSpaceOnUse" x1="47.0519" y1="72.5412" x2="152.9481" y2="72.5412" gradientTransform="matrix(1 0 0 -1 0 200)">
		<stop  offset="0" style="stop-color:#666666"/>
		<stop  offset="0.78" style="stop-color:#EFEFEF"/>
		<stop  offset="1" style="stop-color:#666666"/>
	</linearGradient>
	<path class="st7" d="M151.9,132.9H48.1c-0.7,0-1.1-0.4-1.1-1.1v-8.6c0-0.6,0.4-1.1,1.1-1.1h103.7c0.7,0,1.1,0.4,1.1,1.1v8.6
		C152.9,132.3,152.4,132.9,151.9,132.9z"/>
	
		<linearGradient id="SVGID_9_" gradientUnits="userSpaceOnUse" x1="47.0519" y1="72.5412" x2="152.9481" y2="72.5412" gradientTransform="matrix(1 0 0 -1 0 200)">
		<stop  offset="3.178914e-07" style="stop-color:#3E3F3F"/>
		<stop  offset="0.8" style="stop-color:#DFDFDF"/>
		<stop  offset="1" style="stop-color:#3E3F3F"/>
	</linearGradient>
	<rect x="47.1" y="126.4" class="st8" width="105.9" height="2.2"/>
	
		<linearGradient id="SVGID_10_" gradientUnits="userSpaceOnUse" x1="85.9279" y1="9.3157" x2="113.9857" y2="9.3157" gradientTransform="matrix(1 0 0 -1 0 200)">
		<stop  offset="0" style="stop-color:#8A8482"/>
		<stop  offset="0.7" style="stop-color:#FFFFFF"/>
		<stop  offset="1" style="stop-color:#857F7D"/>
	</linearGradient>
	<rect x="85.9" y="186.4" class="st9" width="28.1" height="8.6"/>
	
		<linearGradient id="SVGID_11_" gradientUnits="userSpaceOnUse" x1="50.8847" y1="66.0676" x2="149.1153" y2="66.0676" gradientTransform="matrix(1 0 0 -1 0 200)">
		<stop  offset="3.178914e-07" style="stop-color:#3E3F3F"/>
		<stop  offset="0.8" style="stop-color:#DFDFDF"/>
		<stop  offset="1" style="stop-color:#3E3F3F"/>
	</linearGradient>
	<polygon class="st10" points="147.7,135 149.1,132.9 50.9,132.9 52.3,135 	"/>
</g>
</svg>
