<?xml version="1.0" encoding="utf-8"?>
<!-- Generator: Adobe Illustrator 23.0.3, SVG Export Plug-In . SVG Version: 6.00 Build 0)  -->
<svg version="1.1" id="图层_1" xmlns="http://www.w3.org/2000/svg" xmlns:xlink="http://www.w3.org/1999/xlink" x="0px" y="0px"
	 viewBox="0 0 200 200" style="enable-background:new 0 0 200 200;" xml:space="preserve">
<style type="text/css">
	.st0{fill:url(#SVGID_1_);}
	.st1{fill:url(#SVGID_2_);}
	.st2{fill:#999999;}
	.st3{fill:url(#SVGID_3_);}
	.st4{fill:url(#SVGID_4_);}
	.st5{fill:url(#SVGID_5_);}
	.st6{fill:url(#SVGID_6_);}
	.st7{fill:url(#SVGID_7_);}
	.st8{fill:url(#SVGID_8_);}
	.st9{fill:url(#SVGID_9_);}
	.st10{fill:url(#SVGID_10_);}
	.st11{fill:url(#SVGID_11_);}
	.st12{fill:url(#SVGID_12_);}
	.st13{fill:url(#SVGID_13_);}
	.st14{fill:url(#SVGID_14_);}
	.st15{fill:url(#SVGID_15_);}
	.st16{fill:url(#SVGID_16_);}
	.st17{fill:url(#SVGID_17_);}
	.st18{fill:url(#SVGID_18_);}
	.st19{fill:url(#SVGID_19_);}
	.st20{fill:url(#SVGID_20_);}
	.st21{fill:url(#SVGID_21_);}
	.st22{fill:url(#SVGID_22_);}
</style>
<g>
	
		<linearGradient id="SVGID_1_" gradientUnits="userSpaceOnUse" x1="114.45" y1="224" x2="114.45" y2="206.2769" gradientTransform="matrix(1 0 0 1 0 -68)">
		<stop  offset="0" style="stop-color:#474747"/>
		<stop  offset="0.1" style="stop-color:#7C7C7D"/>
		<stop  offset="0.86" style="stop-color:#7D7D7E"/>
		<stop  offset="0.9" style="stop-color:#AAAAAA"/>
		<stop  offset="0.95" style="stop-color:#7D7D7E"/>
		<stop  offset="1" style="stop-color:#7D7D7E"/>
	</linearGradient>
	<path class="st0" d="M34.8,156h-0.9l9.9-17.7h141.3L195,156"/>
	<g>
		
			<linearGradient id="SVGID_2_" gradientUnits="userSpaceOnUse" x1="84.0265" y1="123.45" x2="111.678" y2="123.45" gradientTransform="matrix(1 0 0 1 0 -68)">
			<stop  offset="0.2" style="stop-color:#B7B7B7"/>
			<stop  offset="0.7" style="stop-color:#EAEAEA"/>
			<stop  offset="0.9589" style="stop-color:#B7B7B7"/>
		</linearGradient>
		<rect x="84.1" y="51.5" class="st1" width="27.7" height="7.9"/>
		<path class="st2" d="M84.2,51.5L84.2,51.5l-0.1-1h27.7v1"/>
		
			<linearGradient id="SVGID_3_" gradientUnits="userSpaceOnUse" x1="82.0465" y1="151" x2="113.6465" y2="151" gradientTransform="matrix(1 0 0 -1 0 200)">
			<stop  offset="0.2" style="stop-color:#B7B7B7"/>
			<stop  offset="0.7" style="stop-color:#EAEAEA"/>
			<stop  offset="0.9589" style="stop-color:#B7B7B7"/>
		</linearGradient>
		<path class="st3" d="M112.4,50.5h-29c-0.7,0-1.3-0.6-1.3-1.3v-0.4c0-0.7,0.6-1.3,1.3-1.3h29c0.7,0,1.3,0.6,1.3,1.3v0.4
			C113.7,49.9,113.1,50.5,112.4,50.5z"/>
	</g>
	<g>
		
			<linearGradient id="SVGID_4_" gradientUnits="userSpaceOnUse" x1="58.2" y1="121.55" x2="72.0257" y2="121.55" gradientTransform="matrix(1 0 0 1 0 -68)">
			<stop  offset="0.2" style="stop-color:#B7B7B7"/>
			<stop  offset="0.7" style="stop-color:#EAEAEA"/>
			<stop  offset="0.9589" style="stop-color:#B7B7B7"/>
		</linearGradient>
		<rect x="58.2" y="47.8" class="st4" width="13.8" height="11.5"/>
		<path class="st2" d="M58.3,48.1L58.3,48.1l-0.1-1H72v1"/>
		
			<linearGradient id="SVGID_5_" gradientUnits="userSpaceOnUse" x1="56.229" y1="154.4" x2="74.0049" y2="154.4" gradientTransform="matrix(1 0 0 -1 0 200)">
			<stop  offset="0.2" style="stop-color:#B7B7B7"/>
			<stop  offset="0.7" style="stop-color:#EAEAEA"/>
			<stop  offset="0.9589" style="stop-color:#B7B7B7"/>
		</linearGradient>
		<path class="st5" d="M72.6,47.1H57.7c-0.8,0-1.5-0.7-1.5-1.5l0,0c0-0.8,0.7-1.5,1.5-1.5h14.8c0.8,0,1.5,0.7,1.5,1.5l0,0
			C74,46.4,73.4,47.1,72.6,47.1z"/>
	</g>
	<g>
		
			<linearGradient id="SVGID_6_" gradientUnits="userSpaceOnUse" x1="118.7664" y1="119.5" x2="132.5922" y2="119.5" gradientTransform="matrix(1 0 0 1 0 -68)">
			<stop  offset="0.2" style="stop-color:#B7B7B7"/>
			<stop  offset="0.7" style="stop-color:#EAEAEA"/>
			<stop  offset="0.9589" style="stop-color:#B7B7B7"/>
		</linearGradient>
		<rect x="118.8" y="43.6" class="st6" width="13.8" height="15.8"/>
		<path class="st2" d="M118.9,45.9L118.9,45.9l-0.1-1h13.8v1"/>
		
			<linearGradient id="SVGID_7_" gradientUnits="userSpaceOnUse" x1="116.8" y1="156.5" x2="134.5759" y2="156.5" gradientTransform="matrix(1 0 0 -1 0 200)">
			<stop  offset="0.2" style="stop-color:#B7B7B7"/>
			<stop  offset="0.7" style="stop-color:#EAEAEA"/>
			<stop  offset="0.9589" style="stop-color:#B7B7B7"/>
		</linearGradient>
		<path class="st7" d="M133.1,45h-14.8c-0.8,0-1.5-0.7-1.5-1.5l0,0c0-0.8,0.7-1.5,1.5-1.5h14.8c0.8,0,1.5,0.7,1.5,1.5l0,0
			C134.6,44.3,133.9,45,133.1,45z"/>
	</g>
	<g>
		
			<linearGradient id="SVGID_8_" gradientUnits="userSpaceOnUse" x1="137.7" y1="119.5" x2="151.5257" y2="119.5" gradientTransform="matrix(1 0 0 1 0 -68)">
			<stop  offset="0.2" style="stop-color:#B7B7B7"/>
			<stop  offset="0.7" style="stop-color:#EAEAEA"/>
			<stop  offset="0.9589" style="stop-color:#B7B7B7"/>
		</linearGradient>
		<rect x="137.7" y="43.6" class="st8" width="13.8" height="15.8"/>
		<path class="st2" d="M137.8,45.9L137.8,45.9l-0.1-1h13.8v1"/>
		
			<linearGradient id="SVGID_9_" gradientUnits="userSpaceOnUse" x1="135.7" y1="156.5" x2="153.4759" y2="156.5" gradientTransform="matrix(1 0 0 -1 0 200)">
			<stop  offset="0.2" style="stop-color:#B7B7B7"/>
			<stop  offset="0.7" style="stop-color:#EAEAEA"/>
			<stop  offset="0.9589" style="stop-color:#B7B7B7"/>
		</linearGradient>
		<path class="st9" d="M152,45h-14.8c-0.8,0-1.5-0.7-1.5-1.5l0,0c0-0.8,0.7-1.5,1.5-1.5H152c0.8,0,1.5,0.7,1.5,1.5l0,0
			C153.5,44.3,152.8,45,152,45z"/>
	</g>
	<g>
		
			<linearGradient id="SVGID_10_" gradientUnits="userSpaceOnUse" x1="158.5681" y1="123.45" x2="186.2195" y2="123.45" gradientTransform="matrix(1 0 0 1 0 -68)">
			<stop  offset="0" style="stop-color:#999999"/>
			<stop  offset="4.999983e-02" style="stop-color:#C9C9C9"/>
			<stop  offset="0.9" style="stop-color:#C9C9C9"/>
			<stop  offset="0.9366" style="stop-color:#CFCFCF"/>
			<stop  offset="0.95" style="stop-color:#D3D3D3"/>
			<stop  offset="0.9505" style="stop-color:#D2D2D2"/>
			<stop  offset="0.9708" style="stop-color:#B3B3B3"/>
			<stop  offset="0.9881" style="stop-color:#A0A0A0"/>
			<stop  offset="1" style="stop-color:#999999"/>
		</linearGradient>
		<rect x="158.6" y="51.5" class="st10" width="27.7" height="7.9"/>
		<path class="st2" d="M158.7,51.5h-0.1v-1h27.7v1"/>
		
			<linearGradient id="SVGID_11_" gradientUnits="userSpaceOnUse" x1="156.6" y1="151" x2="188.2" y2="151" gradientTransform="matrix(1 0 0 -1 0 200)">
			<stop  offset="0" style="stop-color:#999999"/>
			<stop  offset="4.999983e-02" style="stop-color:#C9C9C9"/>
			<stop  offset="0.9" style="stop-color:#C9C9C9"/>
			<stop  offset="0.9366" style="stop-color:#CFCFCF"/>
			<stop  offset="0.95" style="stop-color:#D3D3D3"/>
			<stop  offset="0.9505" style="stop-color:#D2D2D2"/>
			<stop  offset="0.9708" style="stop-color:#B3B3B3"/>
			<stop  offset="0.9881" style="stop-color:#A0A0A0"/>
			<stop  offset="1" style="stop-color:#999999"/>
		</linearGradient>
		<path class="st11" d="M186.9,50.5h-29c-0.7,0-1.3-0.6-1.3-1.3v-0.4c0-0.7,0.6-1.3,1.3-1.3h29c0.7,0,1.3,0.6,1.3,1.3v0.4
			C188.2,49.9,187.7,50.5,186.9,50.5z"/>
	</g>
	
		<linearGradient id="SVGID_12_" gradientUnits="userSpaceOnUse" x1="113.95" y1="205.6172" x2="113.95" y2="126.8172" gradientTransform="matrix(1 0 0 1 0 -68)">
		<stop  offset="0" style="stop-color:#7D7D7E"/>
		<stop  offset="0.5" style="stop-color:#BBBBBB"/>
		<stop  offset="0.8" style="stop-color:#E9E9E9"/>
		<stop  offset="1" style="stop-color:#7D7D7E"/>
	</linearGradient>
	<path class="st12" d="M37.6,137.6h-0.7V58.9H191v78.8"/>
	
		<linearGradient id="SVGID_13_" gradientUnits="userSpaceOnUse" x1="192.9" y1="60.4" x2="192.9" y2="143.1" gradientTransform="matrix(1 0 0 -1 0 200)">
		<stop  offset="0.1" style="stop-color:#B7B7B7"/>
		<stop  offset="0.3" style="stop-color:#C0C0C0"/>
		<stop  offset="0.7" style="stop-color:#E9E9E9"/>
		<stop  offset="0.9" style="stop-color:#B7B7B7"/>
	</linearGradient>
	<path class="st13" d="M193.2,139.6h-0.6c-0.9,0-1.7-0.8-1.7-1.7V58.6c0-0.9,0.8-1.7,1.7-1.7h0.6c0.9,0,1.7,0.8,1.7,1.7V138
		C194.9,138.8,194.1,139.6,193.2,139.6z"/>
	
		<linearGradient id="SVGID_14_" gradientUnits="userSpaceOnUse" x1="34.9" y1="60.4" x2="34.9" y2="143.1" gradientTransform="matrix(1 0 0 -1 0 200)">
		<stop  offset="0.1" style="stop-color:#B7B7B7"/>
		<stop  offset="0.3" style="stop-color:#C0C0C0"/>
		<stop  offset="0.7" style="stop-color:#E9E9E9"/>
		<stop  offset="0.9" style="stop-color:#B7B7B7"/>
	</linearGradient>
	<path class="st14" d="M35.2,139.6h-0.6c-0.9,0-1.7-0.8-1.7-1.7V58.6c0-0.9,0.8-1.7,1.7-1.7h0.6c0.9,0,1.7,0.8,1.7,1.7V138
		C36.9,138.8,36.1,139.6,35.2,139.6z"/>
	
		<linearGradient id="SVGID_15_" gradientUnits="userSpaceOnUse" x1="114.5" y1="61.7231" x2="114.5" y2="67.6301" gradientTransform="matrix(1 0 0 -1 0 200)">
		<stop  offset="0" style="stop-color:#676768"/>
		<stop  offset="0.1" style="stop-color:#A1A2A2"/>
		<stop  offset="0.9" style="stop-color:#A1A2A2"/>
		<stop  offset="1" style="stop-color:#E9E9E9"/>
	</linearGradient>
	<rect x="43.9" y="132.4" class="st15" width="141.2" height="5.9"/>
	<g>
		
			<linearGradient id="SVGID_16_" gradientUnits="userSpaceOnUse" x1="91.3613" y1="-8.6057" x2="109.0824" y2="-8.6057" gradientTransform="matrix(6.123234e-17 -1 1 6.123234e-17 34.8557 182.4443)">
			<stop  offset="0" style="stop-color:#999999"/>
			<stop  offset="4.999983e-02" style="stop-color:#C9C9C9"/>
			<stop  offset="0.9" style="stop-color:#C9C9C9"/>
			<stop  offset="0.9366" style="stop-color:#CFCFCF"/>
			<stop  offset="0.95" style="stop-color:#D3D3D3"/>
			<stop  offset="0.9505" style="stop-color:#D2D2D2"/>
			<stop  offset="0.9708" style="stop-color:#B3B3B3"/>
			<stop  offset="0.9881" style="stop-color:#A0A0A0"/>
			<stop  offset="1" style="stop-color:#999999"/>
		</linearGradient>
		<rect x="22.3" y="73.3" class="st16" width="7.9" height="17.7"/>
		<path class="st2" d="M22.3,90.9L22.3,90.9l-1,0.1V73.3h1"/>
		
			<linearGradient id="SVGID_17_" gradientUnits="userSpaceOnUse" x1="90.3743" y1="282.5057" x2="110.0645" y2="282.5057" gradientTransform="matrix(6.123234e-17 -1 -1 -6.123234e-17 302.8557 182.4443)">
			<stop  offset="0" style="stop-color:#999999"/>
			<stop  offset="4.999983e-02" style="stop-color:#C9C9C9"/>
			<stop  offset="0.9" style="stop-color:#C9C9C9"/>
			<stop  offset="0.9366" style="stop-color:#CFCFCF"/>
			<stop  offset="0.95" style="stop-color:#D3D3D3"/>
			<stop  offset="0.9505" style="stop-color:#D2D2D2"/>
			<stop  offset="0.9708" style="stop-color:#B3B3B3"/>
			<stop  offset="0.9881" style="stop-color:#A0A0A0"/>
			<stop  offset="1" style="stop-color:#999999"/>
		</linearGradient>
		<path class="st17" d="M21.3,73.3v17.8c0,0.5-0.4,0.9-0.9,0.9h-0.1c-0.5,0-0.9-0.4-0.9-0.9V73.3c0-0.5,0.4-0.9,0.9-0.9h0.1
			C20.9,72.4,21.3,72.8,21.3,73.3z"/>
	</g>
	
		<linearGradient id="SVGID_18_" gradientUnits="userSpaceOnUse" x1="31.4" y1="71.2" x2="31.4" y2="132.3" gradientTransform="matrix(1 0 0 -1 0 200)">
		<stop  offset="0" style="stop-color:#6B6B6C"/>
		<stop  offset="4.999975e-02" style="stop-color:#B1B1B1"/>
		<stop  offset="0.9" style="stop-color:#B1B1B1"/>
		<stop  offset="0.9167" style="stop-color:#B7B7B7"/>
		<stop  offset="0.9394" style="stop-color:#C8C8C8"/>
		<stop  offset="0.95" style="stop-color:#D3D3D3"/>
		<stop  offset="0.9653" style="stop-color:#A9A9AA"/>
		<stop  offset="0.9796" style="stop-color:#8A8A8B"/>
		<stop  offset="0.9917" style="stop-color:#777778"/>
		<stop  offset="1" style="stop-color:#707071"/>
	</linearGradient>
	<path class="st18" d="M32.9,128.8h-2.5c-0.3,0-0.5-0.2-0.5-0.5V68.2c0-0.3,0.2-0.5,0.5-0.5h2.5V128.8z"/>
	
		<linearGradient id="SVGID_19_" gradientUnits="userSpaceOnUse" x1="18.1641" y1="81.4972" x2="26.8889" y2="81.4972" gradientTransform="matrix(6.123234e-17 -1 1 6.123234e-17 -59.0472 127.0641)">
		<stop  offset="0.1" style="stop-color:#7D7D7E"/>
		<stop  offset="0.7" style="stop-color:#E0E0E0"/>
		<stop  offset="1" style="stop-color:#7C7C7D"/>
	</linearGradient>
	<rect x="14.9" y="100.2" class="st19" width="15.1" height="8.7"/>
	
		<linearGradient id="SVGID_20_" gradientUnits="userSpaceOnUse" x1="7.925" y1="-103.7855" x2="21.9133" y2="-117.7129" gradientTransform="matrix(0.9969 0 0 -1.0013 3.425911e-02 -0.886)">
		<stop  offset="0" style="stop-color:#CFCFCF"/>
		<stop  offset="1" style="stop-color:#D6D6D6"/>
	</linearGradient>
	<ellipse class="st20" cx="14.9" cy="110" rx="9.9" ry="9.8"/>
	
		<radialGradient id="SVGID_21_" cx="14.511" cy="-108.971" r="6.2313" gradientTransform="matrix(1.1058 0 0 -1.1083 -1.1708 -10.7726)" gradientUnits="userSpaceOnUse">
		<stop  offset="5.618212e-03" style="stop-color:#8B8B8C"/>
		<stop  offset="1" style="stop-color:#767677"/>
	</radialGradient>
	<ellipse class="st21" cx="14.9" cy="110" rx="6.9" ry="6.9"/>
	
		<linearGradient id="SVGID_22_" gradientUnits="userSpaceOnUse" x1="17.1991" y1="-103.6037" x2="11.6122" y2="-113.3173" gradientTransform="matrix(1.1457 0 0 -1.1414 -1.6126 -13.7829)">
		<stop  offset="5.618130e-03" style="stop-color:#D1D1D1"/>
		<stop  offset="0.5" style="stop-color:#ACACAD"/>
	</linearGradient>
	<ellipse class="st22" cx="14.9" cy="110" rx="6.4" ry="6.4"/>
</g>
</svg>
