<?xml version="1.0" encoding="utf-8"?>
<!-- Generator: Adobe Illustrator 23.0.3, SVG Export Plug-In . SVG Version: 6.00 Build 0)  -->
<svg version="1.1" id="图层_1" xmlns="http://www.w3.org/2000/svg" xmlns:xlink="http://www.w3.org/1999/xlink" x="0px" y="0px"
	 viewBox="0 0 200 200" style="enable-background:new 0 0 200 200;" xml:space="preserve">
<style type="text/css">
	.st0{fill:url(#SVGID_1_);}
	.st1{fill:url(#SVGID_2_);}
	.st2{fill:url(#SVGID_3_);}
	.st3{fill:url(#SVGID_4_);}
	.st4{fill:url(#SVGID_5_);}
	.st5{fill:url(#SVGID_6_);}
	.st6{fill:url(#SVGID_7_);}
	.st7{fill:url(#SVGID_8_);}
	.st8{fill:url(#SVGID_9_);}
	.st9{fill:url(#SVGID_10_);}
	.st10{fill:url(#SVGID_11_);}
	.st11{fill:url(#SVGID_12_);}
	.st12{fill:url(#SVGID_13_);}
	.st13{fill:url(#SVGID_14_);}
	.st14{fill:url(#SVGID_15_);}
	.st15{fill:url(#SVGID_16_);}
	.st16{fill:url(#SVGID_17_);}
	.st17{fill:url(#SVGID_18_);}
	.st18{fill:url(#SVGID_19_);}
	.st19{fill:url(#SVGID_20_);}
	.st20{fill:url(#SVGID_21_);}
	.st21{fill:url(#SVGID_22_);}
	.st22{fill:url(#SVGID_23_);}
	.st23{fill:url(#SVGID_24_);}
	.st24{fill:url(#SVGID_25_);}
	.st25{fill:url(#SVGID_26_);}
	.st26{fill:url(#SVGID_27_);}
	.st27{fill:url(#SVGID_28_);}
	.st28{fill:url(#SVGID_29_);}
	.st29{fill:url(#SVGID_30_);}
	.st30{fill:url(#SVGID_31_);}
	.st31{fill:url(#SVGID_32_);}
	.st32{fill:url(#SVGID_33_);}
	.st33{fill:url(#SVGID_34_);}
	.st34{fill:url(#SVGID_35_);}
	.st35{fill:url(#SVGID_36_);}
	.st36{fill:url(#SVGID_37_);}
	.st37{fill:url(#SVGID_38_);}
	.st38{fill:url(#SVGID_39_);}
	.st39{fill:url(#SVGID_40_);}
	.st40{fill:url(#SVGID_41_);}
	.st41{fill:url(#SVGID_42_);}
	.st42{fill:url(#SVGID_43_);}
	.st43{fill:url(#SVGID_44_);}
	.st44{fill:url(#SVGID_45_);}
	.st45{fill:url(#SVGID_46_);}
	.st46{fill:url(#SVGID_47_);}
	.st47{fill:url(#SVGID_48_);}
</style>
<g>
	
		<linearGradient id="SVGID_1_" gradientUnits="userSpaceOnUse" x1="148.2618" y1="54.3203" x2="148.2618" y2="86.3941" gradientTransform="matrix(-1 0 0 -1 341.8193 149.8222)">
		<stop  offset="0.2" style="stop-color:#999999"/>
		<stop  offset="0.6" style="stop-color:#D6D6D6"/>
		<stop  offset="0.8" style="stop-color:#FFFFFF"/>
		<stop  offset="1" style="stop-color:#CECECE"/>
	</linearGradient>
	<path class="st0" d="M192.1,63.4h2c0.5,0,0.8,0.4,0.8,0.8v30.3c0,0.5-0.4,0.8-0.8,0.8h-2V63.4z"/>
	
		<linearGradient id="SVGID_2_" gradientUnits="userSpaceOnUse" x1="156.4361" y1="63.393" x2="156.4361" y2="77.4252" gradientTransform="matrix(-1 0 0 -1 341.8193 149.8222)">
		<stop  offset="0.1" style="stop-color:#3D6384"/>
		<stop  offset="0.5198" style="stop-color:#5283AE"/>
		<stop  offset="0.8" style="stop-color:#B9CEE7"/>
		<stop  offset="1" style="stop-color:#3D6384"/>
	</linearGradient>
	<polygon class="st1" points="180.6,72.4 190.2,72.4 190.2,86.4 180.6,86.4 	"/>
	
		<linearGradient id="SVGID_3_" gradientUnits="userSpaceOnUse" x1="163.6487" y1="59.3607" x2="163.6487" y2="81.4114" gradientTransform="matrix(-1 0 0 -1 341.8193 149.8222)">
		<stop  offset="0.1" style="stop-color:#3D6384"/>
		<stop  offset="0.5198" style="stop-color:#5283AE"/>
		<stop  offset="0.8" style="stop-color:#B9CEE7"/>
		<stop  offset="1" style="stop-color:#3D6384"/>
	</linearGradient>
	<path class="st2" d="M175.8,68.4h4.2c0.3,0,0.6,0.3,0.6,0.6v20.9c0,0.3-0.3,0.6-0.6,0.6h-4.2V68.4z"/>
	
		<linearGradient id="SVGID_4_" gradientUnits="userSpaceOnUse" x1="150.1852" y1="54.3203" x2="150.1852" y2="86.3941" gradientTransform="matrix(-1 0 0 -1 341.8193 149.8222)">
		<stop  offset="0.1" style="stop-color:#3D6384"/>
		<stop  offset="0.5198" style="stop-color:#5283AE"/>
		<stop  offset="0.8" style="stop-color:#B9CEE7"/>
		<stop  offset="1" style="stop-color:#6090BC"/>
	</linearGradient>
	<path class="st3" d="M191,63.4h2v32h-2c-0.5,0-0.8-0.4-0.8-0.8V64.2C190.2,63.8,190.6,63.4,191,63.4z"/>
	
		<linearGradient id="SVGID_5_" gradientUnits="userSpaceOnUse" x1="177.0518" y1="-21.1936" x2="177.0518" y2="10.8801" gradientTransform="matrix(1 0 0 -1 15.544 74.244)">
		<stop  offset="0.2" style="stop-color:#24507B"/>
		<stop  offset="0.7" style="stop-color:#41678F"/>
		<stop  offset="0.8" style="stop-color:#9CBADB"/>
		<stop  offset="1" style="stop-color:#265683"/>
	</linearGradient>
	<rect x="192.1" y="63.4" class="st4" width="1" height="32"/>
	<linearGradient id="SVGID_6_" gradientUnits="userSpaceOnUse" x1="90.7817" y1="101.1131" x2="90.7817" y2="91.09">
		<stop  offset="0.1" style="stop-color:#826F51"/>
		<stop  offset="0.4" style="stop-color:#B09C79"/>
		<stop  offset="0.8" style="stop-color:#FDE7C5"/>
		<stop  offset="1" style="stop-color:#B2937D"/>
	</linearGradient>
	<rect x="86.5" y="91.1" class="st5" width="8.7" height="10"/>
	<linearGradient id="SVGID_7_" gradientUnits="userSpaceOnUse" x1="85.0116" y1="108.1696" x2="85.0116" y2="84.1143">
		<stop  offset="0.1" style="stop-color:#826F51"/>
		<stop  offset="0.4" style="stop-color:#B09C79"/>
		<stop  offset="0.8" style="stop-color:#FDE7C5"/>
		<stop  offset="1" style="stop-color:#B2937D"/>
	</linearGradient>
	<path class="st6" d="M86.3,108.1h-2.7v-24h2.7c0.1,0,0.2,0.1,0.2,0.2v23.7C86.5,108,86.4,108.1,86.3,108.1z"/>
	<linearGradient id="SVGID_8_" gradientUnits="userSpaceOnUse" x1="55.6804" y1="121.2745" x2="55.6804" y2="71.1593">
		<stop  offset="0.1" style="stop-color:#3D6384"/>
		<stop  offset="0.5198" style="stop-color:#5283AE"/>
		<stop  offset="0.8" style="stop-color:#B9CEE7"/>
		<stop  offset="1" style="stop-color:#5686AF"/>
	</linearGradient>
	<path class="st7" d="M82.6,121.1H27.8v-50h54.8c0.5,0,1,0.4,1,1v48C83.6,120.6,83.1,121.1,82.6,121.1z"/>
	
		<linearGradient id="SVGID_9_" gradientUnits="userSpaceOnUse" x1="283.6526" y1="121.0737" x2="283.6526" y2="71.1589" gradientTransform="matrix(-1 0 0 1 297.5 0)">
		<stop  offset="0.1" style="stop-color:#3D6384"/>
		<stop  offset="0.5198" style="stop-color:#5283AE"/>
		<stop  offset="0.8" style="stop-color:#B9CEE7"/>
		<stop  offset="1" style="stop-color:#5686AF"/>
	</linearGradient>
	<ellipse class="st8" cx="13.8" cy="96" rx="8.8" ry="24.9"/>
	
		<linearGradient id="SVGID_10_" gradientUnits="userSpaceOnUse" x1="218.0661" y1="121.0737" x2="218.0661" y2="71.1589" gradientTransform="matrix(-1 0 0 1 297.5 0)">
		<stop  offset="0.2" style="stop-color:#24507B"/>
		<stop  offset="0.7" style="stop-color:#41678F"/>
		<stop  offset="0.8" style="stop-color:#9CBADB"/>
		<stop  offset="1" style="stop-color:#265683"/>
	</linearGradient>
	<rect x="79" y="71.2" class="st9" width="1" height="49.8"/>
	
		<linearGradient id="SVGID_11_" gradientUnits="userSpaceOnUse" x1="260.7456" y1="57.517" x2="260.7456" y2="59.5907" gradientTransform="matrix(-1 0 0 -1 297.5 132)">
		<stop  offset="0.2" style="stop-color:#3D6384"/>
		<stop  offset="0.7" style="stop-color:#ACCFE5"/>
		<stop  offset="1" style="stop-color:#4F7594"/>
	</linearGradient>
	<rect x="27.8" y="72.4" class="st10" width="17.9" height="2.1"/>
	
		<linearGradient id="SVGID_12_" gradientUnits="userSpaceOnUse" x1="260.7456" y1="53.457" x2="260.7456" y2="55.5306" gradientTransform="matrix(-1 0 0 -1 297.5 132)">
		<stop  offset="0.2" style="stop-color:#3D6384"/>
		<stop  offset="0.7" style="stop-color:#ACCFE5"/>
		<stop  offset="1" style="stop-color:#4F7594"/>
	</linearGradient>
	<rect x="27.8" y="76.4" class="st11" width="17.9" height="2.1"/>
	
		<linearGradient id="SVGID_13_" gradientUnits="userSpaceOnUse" x1="245.8586" y1="49.397" x2="245.8586" y2="51.4706" gradientTransform="matrix(-1 0 0 -1 297.5 132)">
		<stop  offset="0.2" style="stop-color:#3D6384"/>
		<stop  offset="0.7" style="stop-color:#ACCFE5"/>
		<stop  offset="1" style="stop-color:#4F7594"/>
	</linearGradient>
	<rect x="27.8" y="80.5" class="st12" width="47.7" height="2.1"/>
	
		<linearGradient id="SVGID_14_" gradientUnits="userSpaceOnUse" x1="245.8586" y1="45.337" x2="245.8586" y2="47.4106" gradientTransform="matrix(-1 0 0 -1 297.5 132)">
		<stop  offset="0.2" style="stop-color:#3D6384"/>
		<stop  offset="0.7" style="stop-color:#ACCFE5"/>
		<stop  offset="1" style="stop-color:#4F7594"/>
	</linearGradient>
	<rect x="27.8" y="84.5" class="st13" width="47.7" height="2.1"/>
	
		<linearGradient id="SVGID_15_" gradientUnits="userSpaceOnUse" x1="245.8586" y1="41.2773" x2="245.8586" y2="43.351" gradientTransform="matrix(-1 0 0 -1 297.5 132)">
		<stop  offset="0.2" style="stop-color:#3D6384"/>
		<stop  offset="0.7" style="stop-color:#ACCFE5"/>
		<stop  offset="1" style="stop-color:#4F7594"/>
	</linearGradient>
	<rect x="27.8" y="88.6" class="st14" width="47.7" height="2.1"/>
	
		<linearGradient id="SVGID_16_" gradientUnits="userSpaceOnUse" x1="245.8586" y1="37.2169" x2="245.8586" y2="39.2905" gradientTransform="matrix(-1 0 0 -1 297.5 132)">
		<stop  offset="0.2" style="stop-color:#3D6384"/>
		<stop  offset="0.7" style="stop-color:#ACCFE5"/>
		<stop  offset="1" style="stop-color:#4F7594"/>
	</linearGradient>
	<rect x="27.8" y="92.7" class="st15" width="47.7" height="2.1"/>
	
		<linearGradient id="SVGID_17_" gradientUnits="userSpaceOnUse" x1="245.8586" y1="33.1569" x2="245.8586" y2="35.2305" gradientTransform="matrix(-1 0 0 -1 297.5 132)">
		<stop  offset="0.2" style="stop-color:#3D6384"/>
		<stop  offset="0.7" style="stop-color:#ACCFE5"/>
		<stop  offset="1" style="stop-color:#4F7594"/>
	</linearGradient>
	<rect x="27.8" y="96.7" class="st16" width="47.7" height="2.1"/>
	
		<linearGradient id="SVGID_18_" gradientUnits="userSpaceOnUse" x1="245.8586" y1="29.0969" x2="245.8586" y2="31.1705" gradientTransform="matrix(-1 0 0 -1 297.5 132)">
		<stop  offset="0.2" style="stop-color:#3D6384"/>
		<stop  offset="0.7" style="stop-color:#ACCFE5"/>
		<stop  offset="1" style="stop-color:#4F7594"/>
	</linearGradient>
	<rect x="27.8" y="100.8" class="st17" width="47.7" height="2.1"/>
	
		<linearGradient id="SVGID_19_" gradientUnits="userSpaceOnUse" x1="245.8586" y1="25.0368" x2="245.8586" y2="27.1105" gradientTransform="matrix(-1 0 0 -1 297.5 132)">
		<stop  offset="0.2" style="stop-color:#3D6384"/>
		<stop  offset="0.7" style="stop-color:#ACCFE5"/>
		<stop  offset="1" style="stop-color:#4F7594"/>
	</linearGradient>
	<rect x="27.8" y="104.8" class="st18" width="47.7" height="2.1"/>
	
		<linearGradient id="SVGID_20_" gradientUnits="userSpaceOnUse" x1="245.8586" y1="20.9773" x2="245.8586" y2="23.0509" gradientTransform="matrix(-1 0 0 -1 297.5 132)">
		<stop  offset="0.2" style="stop-color:#3D6384"/>
		<stop  offset="0.7" style="stop-color:#ACCFE5"/>
		<stop  offset="1" style="stop-color:#4F7594"/>
	</linearGradient>
	<rect x="27.8" y="108.9" class="st19" width="47.7" height="2.1"/>
	
		<linearGradient id="SVGID_21_" gradientUnits="userSpaceOnUse" x1="245.8586" y1="16.9168" x2="245.8586" y2="18.9904" gradientTransform="matrix(-1 0 0 -1 297.5 132)">
		<stop  offset="0.2" style="stop-color:#3D6384"/>
		<stop  offset="0.7" style="stop-color:#ACCFE5"/>
		<stop  offset="1" style="stop-color:#4F7594"/>
	</linearGradient>
	<rect x="27.8" y="113" class="st20" width="47.7" height="2.1"/>
	
		<linearGradient id="SVGID_22_" gradientUnits="userSpaceOnUse" x1="245.8586" y1="12.8568" x2="245.8586" y2="14.9304" gradientTransform="matrix(-1 0 0 -1 297.5 132)">
		<stop  offset="0.2" style="stop-color:#3D6384"/>
		<stop  offset="0.7" style="stop-color:#ACCFE5"/>
		<stop  offset="1" style="stop-color:#4F7594"/>
	</linearGradient>
	<rect x="27.8" y="117" class="st21" width="47.7" height="2.1"/>
	
		<linearGradient id="SVGID_23_" gradientUnits="userSpaceOnUse" x1="277.0651" y1="121.0737" x2="277.0651" y2="71.1589" gradientTransform="matrix(-1 0 0 1 297.5 0)">
		<stop  offset="0.1" style="stop-color:#3D6384"/>
		<stop  offset="0.5198" style="stop-color:#5283AE"/>
		<stop  offset="0.8" style="stop-color:#B9CEE7"/>
		<stop  offset="1" style="stop-color:#5686AF"/>
	</linearGradient>
	<rect x="13.5" y="71.1" class="st22" width="13.9" height="49.8"/>
	
		<linearGradient id="SVGID_24_" gradientUnits="userSpaceOnUse" x1="283.4602" y1="121.0737" x2="283.4602" y2="71.1589" gradientTransform="matrix(-1 0 0 1 297.5 0)">
		<stop  offset="0.2" style="stop-color:#24507B"/>
		<stop  offset="0.7" style="stop-color:#41678F"/>
		<stop  offset="0.8" style="stop-color:#9CBADB"/>
		<stop  offset="1" style="stop-color:#265683"/>
	</linearGradient>
	<rect x="13.6" y="71.1" class="st23" width="1" height="49.8"/>
	
		<linearGradient id="SVGID_25_" gradientUnits="userSpaceOnUse" x1="140.272" y1="-3.2632" x2="140.272" y2="54.9914" gradientTransform="matrix(-4.489665e-11 1 1 4.489665e-11 21.6871 -14.272)">
		<stop  offset="5.847346e-07" style="stop-color:#284863"/>
		<stop  offset="9.184959e-02" style="stop-color:#3D6588"/>
		<stop  offset="0.9292" style="stop-color:#4D7CA4"/>
		<stop  offset="0.9646" style="stop-color:#779BBE"/>
		<stop  offset="1" style="stop-color:#3B6185"/>
	</linearGradient>
	<polygon class="st24" points="18.9,131 18.9,121 76.6,121 76.6,131 	"/>
	
		<linearGradient id="SVGID_26_" gradientUnits="userSpaceOnUse" x1="173.5245" y1="77.365" x2="145.2557" y2="77.365" gradientTransform="matrix(-4.489665e-11 1 1 4.489665e-11 21.6871 -14.272)">
		<stop  offset="2.923673e-07" style="stop-color:#3D6384"/>
		<stop  offset="0.2" style="stop-color:#366FA7"/>
		<stop  offset="0.21" style="stop-color:#3D6384"/>
		<stop  offset="0.3019" style="stop-color:#477298"/>
		<stop  offset="0.95" style="stop-color:#4F7FA8"/>
		<stop  offset="0.98" style="stop-color:#83B7DD"/>
		<stop  offset="1" style="stop-color:#6090BC"/>
	</linearGradient>
	<polygon class="st25" points="14.4,159 14.4,131 183.7,131 183.7,159 	"/>
	<g>
		
			<linearGradient id="SVGID_27_" gradientUnits="userSpaceOnUse" x1="212.4884" y1="76.8962" x2="212.4884" y2="72.887" gradientTransform="matrix(-1 0 0 1 297.5 0)">
			<stop  offset="0.1" style="stop-color:#3D6384"/>
			<stop  offset="0.5198" style="stop-color:#5283AE"/>
			<stop  offset="0.8" style="stop-color:#B9CEE7"/>
			<stop  offset="1" style="stop-color:#6090BC"/>
		</linearGradient>
		<rect x="83.6" y="72.9" class="st26" width="2.9" height="4"/>
		
			<linearGradient id="SVGID_28_" gradientUnits="userSpaceOnUse" x1="212.4884" y1="91.0219" x2="212.4884" y2="87.0127" gradientTransform="matrix(-1 0 0 1 297.5 0)">
			<stop  offset="0.1" style="stop-color:#3D6384"/>
			<stop  offset="0.5198" style="stop-color:#5283AE"/>
			<stop  offset="0.8" style="stop-color:#B9CEE7"/>
			<stop  offset="1" style="stop-color:#6090BC"/>
		</linearGradient>
		<rect x="83.6" y="87" class="st27" width="2.9" height="4"/>
		
			<linearGradient id="SVGID_29_" gradientUnits="userSpaceOnUse" x1="212.4884" y1="105.1477" x2="212.4884" y2="101.1385" gradientTransform="matrix(-1 0 0 1 297.5 0)">
			<stop  offset="0.1" style="stop-color:#3D6384"/>
			<stop  offset="0.5198" style="stop-color:#5283AE"/>
			<stop  offset="0.8" style="stop-color:#B9CEE7"/>
			<stop  offset="1" style="stop-color:#6090BC"/>
		</linearGradient>
		<rect x="83.6" y="101.1" class="st28" width="2.9" height="4"/>
		
			<linearGradient id="SVGID_30_" gradientUnits="userSpaceOnUse" x1="212.4884" y1="119.2735" x2="212.4884" y2="115.2643" gradientTransform="matrix(-1 0 0 1 297.5 0)">
			<stop  offset="0.1" style="stop-color:#3D6384"/>
			<stop  offset="0.5198" style="stop-color:#5283AE"/>
			<stop  offset="0.8" style="stop-color:#B9CEE7"/>
			<stop  offset="1" style="stop-color:#6090BC"/>
		</linearGradient>
		<rect x="83.6" y="115.3" class="st29" width="2.9" height="4"/>
	</g>
	<linearGradient id="SVGID_31_" gradientUnits="userSpaceOnUse" x1="97.9943" y1="110.1857" x2="97.9943" y2="82.1212">
		<stop  offset="0.1" style="stop-color:#770B0B"/>
		<stop  offset="0.6" style="stop-color:#A24748"/>
		<stop  offset="0.8" style="stop-color:#FF8383"/>
		<stop  offset="1" style="stop-color:#8E1624"/>
	</linearGradient>
	<path class="st30" d="M100.9,110.1h-4.8c-0.5,0-1-0.4-1-1v-26c0-0.5,0.4-1,1-1h4.8V110.1z"/>
	<linearGradient id="SVGID_32_" gradientUnits="userSpaceOnUse" x1="104.0529" y1="110.1857" x2="104.0529" y2="82.1212">
		<stop  offset="0.1" style="stop-color:#770B0B"/>
		<stop  offset="0.6" style="stop-color:#A24748"/>
		<stop  offset="0.8" style="stop-color:#FF8383"/>
		<stop  offset="1" style="stop-color:#8E1624"/>
	</linearGradient>
	<path class="st31" d="M106,110.1h-4.8v-28h4.8c0.5,0,1,0.4,1,1v26C106.9,109.6,106.5,110.1,106,110.1z"/>
	<linearGradient id="SVGID_33_" gradientUnits="userSpaceOnUse" x1="108.3804" y1="101.1131" x2="108.3804" y2="91.09">
		<stop  offset="0.1" style="stop-color:#826F51"/>
		<stop  offset="0.4" style="stop-color:#B09C79"/>
		<stop  offset="0.8" style="stop-color:#FDE7C5"/>
		<stop  offset="1" style="stop-color:#B2937D"/>
	</linearGradient>
	<rect x="106.9" y="91.1" class="st32" width="2.9" height="10"/>
	<linearGradient id="SVGID_34_" gradientUnits="userSpaceOnUse" x1="135.051" y1="112.7342" x2="135.051" y2="79.6019">
		<stop  offset="0.3" style="stop-color:#3D6384"/>
		<stop  offset="0.55" style="stop-color:#5283AE"/>
		<stop  offset="0.8" style="stop-color:#B9CEE7"/>
		<stop  offset="1" style="stop-color:#5283AE"/>
	</linearGradient>
	<path class="st33" d="M140.2,79.5c-6,2.6-10.3,9-10.3,16.5c0,7.5,4.3,13.9,10.3,16.5V79.5z"/>
	<linearGradient id="SVGID_35_" gradientUnits="userSpaceOnUse" x1="141.6269" y1="116.9503" x2="141.6269" y2="72.8489">
		<stop  offset="0.1" style="stop-color:#3D6384"/>
		<stop  offset="0.5198" style="stop-color:#5283AE"/>
		<stop  offset="0.8" style="stop-color:#B9CEE7"/>
		<stop  offset="1" style="stop-color:#5686AF"/>
	</linearGradient>
	<path class="st34" d="M143.1,116.8h-2.3c-0.3,0-0.6-0.3-0.6-0.6V73.4c0-0.3,0.3-0.6,0.6-0.6h2.3V116.8z"/>
	
		<linearGradient id="SVGID_36_" gradientUnits="userSpaceOnUse" x1="72.7975" y1="165.6129" x2="39.7865" y2="165.6129" gradientTransform="matrix(-1 0 0 1 215.572 -74.6129)">
		<stop  offset="5.847346e-07" style="stop-color:#284863"/>
		<stop  offset="8.000000e-02" style="stop-color:#49759C"/>
		<stop  offset="0.92" style="stop-color:#4F7FA8"/>
		<stop  offset="0.95" style="stop-color:#779BBE"/>
		<stop  offset="1" style="stop-color:#3B6185"/>
	</linearGradient>
	<path class="st35" d="M144.1,61h30.7c0.6,0,1,0.5,1,1.1V121h-32.7V62C143.1,61.5,143.5,61,144.1,61z"/>
	
		<linearGradient id="SVGID_37_" gradientUnits="userSpaceOnUse" x1="75.7346" y1="200.6129" x2="36.8981" y2="200.6129" gradientTransform="matrix(-1 0 0 1 215.572 -74.6129)">
		<stop  offset="5.847346e-07" style="stop-color:#284863"/>
		<stop  offset="5.000000e-02" style="stop-color:#3D6588"/>
		<stop  offset="0.9" style="stop-color:#4D7CA4"/>
		<stop  offset="0.95" style="stop-color:#779BBE"/>
		<stop  offset="1" style="stop-color:#3B6185"/>
	</linearGradient>
	<path class="st36" d="M141.1,121h36.6c0.5,0,1,0.4,1,1v9h-38.5v-9C140.2,121.4,140.6,121,141.1,121z"/>
	<linearGradient id="SVGID_38_" gradientUnits="userSpaceOnUse" x1="120.4377" y1="103.1292" x2="120.4377" y2="89.097">
		<stop  offset="0.1" style="stop-color:#3D6384"/>
		<stop  offset="0.5198" style="stop-color:#5283AE"/>
		<stop  offset="0.8" style="stop-color:#B9CEE7"/>
		<stop  offset="1" style="stop-color:#3D6384"/>
	</linearGradient>
	<path class="st37" d="M131.3,103.1h-20.8c-0.5,0-1-0.4-1-1V90c0-0.5,0.4-1,1-1h20.8V103.1z"/>
	<g>
		
			<linearGradient id="SVGID_39_" gradientUnits="userSpaceOnUse" x1="178.248" y1="106.9866" x2="178.248" y2="76.142" gradientTransform="matrix(6.123234e-17 1 -1 6.123234e-17 250.8935 -135.748)">
			<stop  offset="0.2" style="stop-color:#999999"/>
			<stop  offset="0.6" style="stop-color:#D6D6D6"/>
			<stop  offset="0.8" style="stop-color:#FFFFFF"/>
			<stop  offset="1" style="stop-color:#CECECE"/>
		</linearGradient>
		<path class="st38" d="M144,44v-2.2c0-0.5,0.4-0.8,0.8-0.8H174c0.5,0,0.8,0.4,0.8,0.8V44H144z"/>
		
			<linearGradient id="SVGID_40_" gradientUnits="userSpaceOnUse" x1="186.748" y1="98.2617" x2="186.748" y2="84.7671" gradientTransform="matrix(6.123234e-17 1 -1 6.123234e-17 250.8935 -135.748)">
			<stop  offset="0.1" style="stop-color:#3D6384"/>
			<stop  offset="0.5198" style="stop-color:#5283AE"/>
			<stop  offset="0.8" style="stop-color:#B9CEE7"/>
			<stop  offset="1" style="stop-color:#3D6384"/>
		</linearGradient>
		<polygon class="st39" points="152.7,56 152.7,46 166.1,46 166.1,56 		"/>
		
			<linearGradient id="SVGID_41_" gradientUnits="userSpaceOnUse" x1="194.248" y1="102.1394" x2="194.248" y2="80.9337" gradientTransform="matrix(6.123234e-17 1 -1 6.123234e-17 250.8935 -135.748)">
			<stop  offset="0.1" style="stop-color:#3D6384"/>
			<stop  offset="0.5198" style="stop-color:#5283AE"/>
			<stop  offset="0.8" style="stop-color:#B9CEE7"/>
			<stop  offset="1" style="stop-color:#3D6384"/>
		</linearGradient>
		<path class="st40" d="M148.8,61v-4.4c0-0.3,0.3-0.6,0.6-0.6h20c0.3,0,0.6,0.3,0.6,0.6V61H148.8z"/>
		
			<linearGradient id="SVGID_42_" gradientUnits="userSpaceOnUse" x1="180.248" y1="106.9866" x2="180.248" y2="76.142" gradientTransform="matrix(6.123234e-17 1 -1 6.123234e-17 250.8935 -135.748)">
			<stop  offset="0.1" style="stop-color:#3D6384"/>
			<stop  offset="0.5198" style="stop-color:#5283AE"/>
			<stop  offset="0.8" style="stop-color:#B9CEE7"/>
			<stop  offset="1" style="stop-color:#6090BC"/>
		</linearGradient>
		<path class="st41" d="M144,45.2V43h30.8v2.2c0,0.5-0.4,0.8-0.8,0.8h-29.1C144.4,46,144,45.6,144,45.2z"/>
		
			<linearGradient id="SVGID_43_" gradientUnits="userSpaceOnUse" x1="147.0273" y1="31.3467" x2="147.0273" y2="0.502" gradientTransform="matrix(6.123234e-17 -1 -1 -6.123234e-17 175.3153 190.5273)">
			<stop  offset="0.2" style="stop-color:#24507B"/>
			<stop  offset="0.7" style="stop-color:#41678F"/>
			<stop  offset="0.8" style="stop-color:#9CBADB"/>
			<stop  offset="1" style="stop-color:#265683"/>
		</linearGradient>
		<rect x="144" y="43" class="st42" width="30.8" height="1"/>
	</g>
	
		<linearGradient id="SVGID_44_" gradientUnits="userSpaceOnUse" x1="164.6196" y1="144.0856" x2="141.3177" y2="144.0856" gradientTransform="matrix(-1 0 0 1 215.572 -74.6129)">
		<stop  offset="5.847346e-07" style="stop-color:#284863"/>
		<stop  offset="0.1" style="stop-color:#49759C"/>
		<stop  offset="0.92" style="stop-color:#4F7FA8"/>
		<stop  offset="0.95" style="stop-color:#779BBE"/>
		<stop  offset="1" style="stop-color:#3B6185"/>
	</linearGradient>
	<path class="st43" d="M51.9,60.5h21.7c0.4,0,0.7,0.1,0.7,0.3v17.7H51.2V60.8C51.2,60.6,51.5,60.5,51.9,60.5z"/>
	
		<linearGradient id="SVGID_45_" gradientUnits="userSpaceOnUse" x1="194.2208" y1="202.7344" x2="194.2208" y2="173.8176" gradientTransform="matrix(6.123234e-17 1 -1 6.123234e-17 250.8935 -135.748)">
		<stop  offset="0.1" style="stop-color:#3D6384"/>
		<stop  offset="0.5198" style="stop-color:#5283AE"/>
		<stop  offset="0.8" style="stop-color:#B9CEE7"/>
		<stop  offset="1" style="stop-color:#3D6384"/>
	</linearGradient>
	<path class="st44" d="M48.3,60.7v-5.2h28.9v5.2c0,0.4-0.4,0.8-0.8,0.8H49.1C48.6,61.5,48.3,61.1,48.3,60.7z"/>
	
		<linearGradient id="SVGID_46_" gradientUnits="userSpaceOnUse" x1="184.7208" y1="201.765" x2="184.7208" y2="174.7759" gradientTransform="matrix(6.123234e-17 1 -1 6.123234e-17 250.8935 -135.748)">
		<stop  offset="0.1" style="stop-color:#3D6384"/>
		<stop  offset="0.5198" style="stop-color:#5283AE"/>
		<stop  offset="0.8" style="stop-color:#B9CEE7"/>
		<stop  offset="1" style="stop-color:#3D6384"/>
	</linearGradient>
	<path class="st45" d="M49.2,50.5v-2.6c0-0.2,0.2-0.4,0.4-0.4h26.1c0.2,0,0.4,0.2,0.4,0.4v2.6H49.2z"/>
	
		<linearGradient id="SVGID_47_" gradientUnits="userSpaceOnUse" x1="188.7208" y1="205.6427" x2="188.7208" y2="170.9425" gradientTransform="matrix(6.123234e-17 1 -1 6.123234e-17 250.8935 -135.748)">
		<stop  offset="0.1" style="stop-color:#3D6384"/>
		<stop  offset="0.5198" style="stop-color:#5283AE"/>
		<stop  offset="0.8" style="stop-color:#B9CEE7"/>
		<stop  offset="1" style="stop-color:#436D91"/>
	</linearGradient>
	<path class="st46" d="M45.4,54.5v-3c0-0.5,0.4-1,1-1H79c0.5,0,1,0.4,1,1v3c0,0.5-0.4,1-1,1H46.4C45.8,55.5,45.4,55,45.4,54.5z"/>
	
		<linearGradient id="SVGID_48_" gradientUnits="userSpaceOnUse" x1="137.5545" y1="129.995" x2="137.5545" y2="95.2948" gradientTransform="matrix(6.123234e-17 -1 -1 -6.123234e-17 175.3153 190.5273)">
		<stop  offset="0.2" style="stop-color:#24507B"/>
		<stop  offset="0.7" style="stop-color:#41678F"/>
		<stop  offset="0.8" style="stop-color:#9CBADB"/>
		<stop  offset="1" style="stop-color:#265683"/>
	</linearGradient>
	<rect x="45.4" y="52.5" class="st47" width="34.6" height="1"/>
</g>
</svg>
