<?xml version="1.0" encoding="utf-8"?>
<!-- Generator: Adobe Illustrator 23.0.3, SVG Export Plug-In . SVG Version: 6.00 Build 0)  -->
<svg version="1.1" id="图层_1" xmlns="http://www.w3.org/2000/svg" xmlns:xlink="http://www.w3.org/1999/xlink" x="0px" y="0px"
	 viewBox="0 0 200 200" style="enable-background:new 0 0 200 200;" xml:space="preserve">
<style type="text/css">
	.st0{fill:url(#SVGID_1_);}
	.st1{fill:url(#SVGID_2_);}
	.st2{fill:url(#SVGID_3_);}
	.st3{fill:url(#SVGID_4_);}
	.st4{fill:url(#SVGID_5_);}
	.st5{fill:url(#SVGID_6_);}
	.st6{fill:url(#SVGID_7_);}
	.st7{fill:url(#SVGID_8_);}
	.st8{fill:url(#SVGID_9_);}
	.st9{fill:url(#SVGID_10_);}
	.st10{fill:url(#SVGID_11_);}
	.st11{fill:url(#SVGID_12_);}
	.st12{fill:url(#SVGID_13_);}
	.st13{fill:url(#SVGID_14_);}
	.st14{fill:url(#SVGID_15_);}
	.st15{fill:url(#SVGID_16_);}
	.st16{fill:url(#SVGID_17_);}
	.st17{fill:url(#SVGID_18_);}
	.st18{fill:url(#SVGID_19_);}
	.st19{fill:url(#SVGID_20_);}
	.st20{fill:url(#SVGID_21_);}
	.st21{fill:url(#SVGID_22_);}
	.st22{fill:url(#SVGID_23_);}
	.st23{fill:url(#SVGID_24_);}
	.st24{fill:url(#SVGID_25_);}
	.st25{fill:url(#SVGID_26_);}
	.st26{fill:url(#SVGID_27_);}
	.st27{fill:url(#SVGID_28_);}
	.st28{fill:url(#SVGID_29_);}
	.st29{fill:url(#SVGID_30_);}
	.st30{fill:url(#SVGID_31_);}
	.st31{fill:url(#SVGID_32_);}
	.st32{fill:url(#SVGID_33_);}
	.st33{fill:url(#SVGID_34_);}
</style>
<g>
	<linearGradient id="SVGID_1_" gradientUnits="userSpaceOnUse" x1="180.7946" y1="122.851" x2="180.7946" y2="72.9362">
		<stop  offset="0.1" style="stop-color:#3D6384"/>
		<stop  offset="0.5198" style="stop-color:#5283AE"/>
		<stop  offset="0.8" style="stop-color:#B9CEE7"/>
		<stop  offset="1" style="stop-color:#6090BC"/>
	</linearGradient>
	<ellipse class="st0" cx="180.8" cy="97.8" rx="9.2" ry="24.9"/>
	<linearGradient id="SVGID_2_" gradientUnits="userSpaceOnUse" x1="136.9376" y1="122.851" x2="136.9376" y2="72.9362">
		<stop  offset="0.1" style="stop-color:#3D6384"/>
		<stop  offset="0.5198" style="stop-color:#5283AE"/>
		<stop  offset="0.8" style="stop-color:#B9CEE7"/>
		<stop  offset="1" style="stop-color:#6090BC"/>
	</linearGradient>
	<rect x="107.5" y="72.9" class="st1" width="58.8" height="49.8"/>
	<linearGradient id="SVGID_3_" gradientUnits="userSpaceOnUse" x1="62.5305" y1="133.452" x2="87.4295" y2="65.0427">
		<stop  offset="0.2" style="stop-color:#3D6384"/>
		<stop  offset="0.5655" style="stop-color:#4F7EA7"/>
		<stop  offset="0.7687" style="stop-color:#AFC8E2"/>
		<stop  offset="0.9352" style="stop-color:#5C8CB8"/>
	</linearGradient>
	<polygon class="st2" points="87.6,125.4 67.9,135.1 67.9,57.8 87.6,67.5 	"/>
	<linearGradient id="SVGID_4_" gradientUnits="userSpaceOnUse" x1="13.101" y1="136.4436" x2="13.101" y2="59.4918">
		<stop  offset="0.2" style="stop-color:#999999"/>
		<stop  offset="0.6" style="stop-color:#D6D6D6"/>
		<stop  offset="0.85" style="stop-color:#FFFFFF"/>
		<stop  offset="1" style="stop-color:#CECECE"/>
	</linearGradient>
	<path class="st3" d="M15.4,136.1h-4.5c-0.5,0-0.8-0.4-0.8-0.8v-75c0-0.5,0.4-0.8,0.8-0.8h4.5c0.5,0,0.8,0.4,0.8,0.8v75
		C16.2,135.7,15.8,136.1,15.4,136.1z"/>
	<linearGradient id="SVGID_5_" gradientUnits="userSpaceOnUse" x1="22.4038" y1="118.6686" x2="22.4038" y2="77.073">
		<stop  offset="0.2" style="stop-color:#999999"/>
		<stop  offset="0.6" style="stop-color:#D6D6D6"/>
		<stop  offset="0.85" style="stop-color:#FFFFFF"/>
		<stop  offset="1" style="stop-color:#CECECE"/>
	</linearGradient>
	<rect x="16.2" y="77" class="st4" width="12.4" height="41.5"/>
	
		<linearGradient id="SVGID_6_" gradientUnits="userSpaceOnUse" x1="-44.0947" y1="176.7116" x2="-44.0947" y2="155.9771" gradientTransform="matrix(6.123234e-17 1 -1 6.123234e-17 205.2105 134.5939)">
		<stop  offset="0.2" style="stop-color:#999999"/>
		<stop  offset="0.6" style="stop-color:#D6D6D6"/>
		<stop  offset="0.85" style="stop-color:#FFFFFF"/>
		<stop  offset="1" style="stop-color:#CECECE"/>
	</linearGradient>
	<polygon class="st5" points="28.6,142.3 28.6,38.7 49.3,38.7 49.3,142.3 	"/>
	
		<linearGradient id="SVGID_7_" gradientUnits="userSpaceOnUse" x1="-98.9835" y1="185.0509" x2="-98.9835" y2="147.7287" gradientTransform="matrix(6.123234e-17 1 -1 6.123234e-17 205.2105 134.5939)">
		<stop  offset="0.2" style="stop-color:#999999"/>
		<stop  offset="0.6" style="stop-color:#D6D6D6"/>
		<stop  offset="0.85" style="stop-color:#FFFFFF"/>
		<stop  offset="1" style="stop-color:#CECECE"/>
	</linearGradient>
	<path class="st6" d="M20.3,36.7v-2.1c0-1.1,0.9-2.1,2.1-2.1h33.1c1.1,0,2.1,0.9,2.1,2.1v2.1c0,1.1-0.9,2.1-2.1,2.1H22.4
		C21.2,38.7,20.3,37.8,20.3,36.7z"/>
	
		<linearGradient id="SVGID_8_" gradientUnits="userSpaceOnUse" x1="17.1389" y1="181.9237" x2="17.1389" y2="150.8219" gradientTransform="matrix(6.123234e-17 1 -1 6.123234e-17 205.2105 134.5939)">
		<stop  offset="0.2" style="stop-color:#999999"/>
		<stop  offset="0.6" style="stop-color:#D6D6D6"/>
		<stop  offset="0.85" style="stop-color:#FFFFFF"/>
		<stop  offset="1" style="stop-color:#CECECE"/>
	</linearGradient>
	<polygon class="st7" points="23.4,161.1 28.6,142.4 49.3,142.4 54.4,161.1 	"/>
	
		<linearGradient id="SVGID_9_" gradientUnits="userSpaceOnUse" x1="29.7957" y1="185.0509" x2="29.7957" y2="147.7287" gradientTransform="matrix(6.123234e-17 1 -1 6.123234e-17 205.2105 134.5939)">
		<stop  offset="0.2" style="stop-color:#999999"/>
		<stop  offset="0.6" style="stop-color:#D6D6D6"/>
		<stop  offset="0.85" style="stop-color:#FFFFFF"/>
		<stop  offset="1" style="stop-color:#CECECE"/>
	</linearGradient>
	<path class="st8" d="M20.3,165.4v-2.1c0-1.1,0.9-2.1,2.1-2.1h33.1c1.1,0,2.1,0.9,2.1,2.1v2.1c0,1.1-0.9,2.1-2.1,2.1H22.4
		C21.2,167.5,20.3,166.6,20.3,165.4z"/>
	<linearGradient id="SVGID_10_" gradientUnits="userSpaceOnUse" x1="55.4744" y1="139.5804" x2="55.4744" y2="56.3892">
		<stop  offset="0.2" style="stop-color:#999999"/>
		<stop  offset="0.6" style="stop-color:#D6D6D6"/>
		<stop  offset="0.85" style="stop-color:#FFFFFF"/>
		<stop  offset="1" style="stop-color:#CECECE"/>
	</linearGradient>
	<rect x="49.3" y="56.3" class="st9" width="12.4" height="82.9"/>
	<linearGradient id="SVGID_11_" gradientUnits="userSpaceOnUse" x1="64.7773" y1="144.8083" x2="64.7773" y2="51.2182">
		<stop  offset="0.1" style="stop-color:#3D6384"/>
		<stop  offset="0.5198" style="stop-color:#5283AE"/>
		<stop  offset="0.8" style="stop-color:#B9CEE7"/>
		<stop  offset="1" style="stop-color:#6090BC"/>
	</linearGradient>
	<path class="st10" d="M65.8,144.4h-2.1c-1.1,0-2.1-0.9-2.1-2.1V53.2c0-1.1,0.9-2.1,2.1-2.1h2.1c1.1,0,2.1,0.9,2.1,2.1v89.2
		C67.9,143.5,67,144.4,65.8,144.4z"/>
	<g>
		<linearGradient id="SVGID_12_" gradientUnits="userSpaceOnUse" x1="69.9746" y1="60.4494" x2="69.9746" y2="56.2898">
			<stop  offset="0.2" style="stop-color:#999999"/>
			<stop  offset="0.6" style="stop-color:#D6D6D6"/>
			<stop  offset="0.85" style="stop-color:#FFFFFF"/>
			<stop  offset="1" style="stop-color:#CECECE"/>
		</linearGradient>
		<rect x="67.9" y="56.3" class="st11" width="4.1" height="4.1"/>
		<linearGradient id="SVGID_13_" gradientUnits="userSpaceOnUse" x1="69.9746" y1="86.7151" x2="69.9746" y2="82.5556">
			<stop  offset="0.2" style="stop-color:#999999"/>
			<stop  offset="0.6" style="stop-color:#D6D6D6"/>
			<stop  offset="0.85" style="stop-color:#FFFFFF"/>
			<stop  offset="1" style="stop-color:#CECECE"/>
		</linearGradient>
		<rect x="67.9" y="82.6" class="st12" width="4.1" height="4.1"/>
		<linearGradient id="SVGID_14_" gradientUnits="userSpaceOnUse" x1="69.9746" y1="112.9809" x2="69.9746" y2="108.8213">
			<stop  offset="0.2" style="stop-color:#999999"/>
			<stop  offset="0.6" style="stop-color:#D6D6D6"/>
			<stop  offset="0.85" style="stop-color:#FFFFFF"/>
			<stop  offset="1" style="stop-color:#CECECE"/>
		</linearGradient>
		<rect x="67.9" y="108.8" class="st13" width="4.1" height="4.1"/>
		<linearGradient id="SVGID_15_" gradientUnits="userSpaceOnUse" x1="69.9746" y1="139.2467" x2="69.9746" y2="135.0871">
			<stop  offset="0.2" style="stop-color:#999999"/>
			<stop  offset="0.6" style="stop-color:#D6D6D6"/>
			<stop  offset="0.85" style="stop-color:#FFFFFF"/>
			<stop  offset="1" style="stop-color:#CECECE"/>
		</linearGradient>
		<rect x="67.9" y="135.1" class="st14" width="4.1" height="4.1"/>
	</g>
	<linearGradient id="SVGID_16_" gradientUnits="userSpaceOnUse" x1="91.7299" y1="139.5804" x2="91.7299" y2="56.3892">
		<stop  offset="0.3" style="stop-color:#3D6384"/>
		<stop  offset="0.5198" style="stop-color:#5283AE"/>
		<stop  offset="0.7" style="stop-color:#B9CEE7"/>
		<stop  offset="0.9" style="stop-color:#6090BC"/>
	</linearGradient>
	<path class="st15" d="M94.8,139.2h-6.2c-0.6,0-1-0.5-1-1V57.3c0-0.6,0.5-1,1-1h6.2c0.6,0,1,0.5,1,1v80.9
		C95.9,138.8,95.4,139.2,94.8,139.2z"/>
	<linearGradient id="SVGID_17_" gradientUnits="userSpaceOnUse" x1="101.8275" y1="138.012" x2="101.8275" y2="57.9405">
		<stop  offset="0.3" style="stop-color:#3D6384"/>
		<stop  offset="0.5655" style="stop-color:#4F7EA7"/>
		<stop  offset="0.7" style="stop-color:#AFC8E2"/>
		<stop  offset="0.9" style="stop-color:#5C8CB8"/>
	</linearGradient>
	<polygon class="st16" points="107.5,122.6 96.1,137.7 96.1,57.8 107.5,72.9 	"/>
	<linearGradient id="SVGID_18_" gradientUnits="userSpaceOnUse" x1="108.0294" y1="122.851" x2="108.0294" y2="72.9362">
		<stop  offset="0.2" style="stop-color:#24507B"/>
		<stop  offset="0.7" style="stop-color:#41678F"/>
		<stop  offset="0.8" style="stop-color:#9CBADB"/>
		<stop  offset="1" style="stop-color:#265683"/>
	</linearGradient>
	<rect x="107.5" y="72.9" class="st17" width="1" height="49.8"/>
	<linearGradient id="SVGID_19_" gradientUnits="userSpaceOnUse" x1="112.6124" y1="122.851" x2="112.6124" y2="72.9362">
		<stop  offset="0.2" style="stop-color:#24507B"/>
		<stop  offset="0.7" style="stop-color:#41678F"/>
		<stop  offset="0.8" style="stop-color:#9CBADB"/>
		<stop  offset="1" style="stop-color:#265683"/>
	</linearGradient>
	<rect x="112.1" y="72.9" class="st18" width="1" height="49.8"/>
	
		<linearGradient id="SVGID_20_" gradientUnits="userSpaceOnUse" x1="141.5549" y1="55.7397" x2="141.5549" y2="57.8134" gradientTransform="matrix(1 0 0 -1 0 132)">
		<stop  offset="0.2" style="stop-color:#3D6384"/>
		<stop  offset="0.7" style="stop-color:#ACCFE5"/>
		<stop  offset="1" style="stop-color:#4F7594"/>
	</linearGradient>
	<rect x="116.7" y="74.2" class="st19" width="49.6" height="2.1"/>
	
		<linearGradient id="SVGID_21_" gradientUnits="userSpaceOnUse" x1="141.5549" y1="51.6797" x2="141.5549" y2="53.7533" gradientTransform="matrix(1 0 0 -1 0 132)">
		<stop  offset="0.2" style="stop-color:#3D6384"/>
		<stop  offset="0.7" style="stop-color:#ACCFE5"/>
		<stop  offset="1" style="stop-color:#4F7594"/>
	</linearGradient>
	<rect x="116.7" y="78.2" class="st20" width="49.6" height="2.1"/>
	
		<linearGradient id="SVGID_22_" gradientUnits="userSpaceOnUse" x1="141.5549" y1="47.6197" x2="141.5549" y2="49.6933" gradientTransform="matrix(1 0 0 -1 0 132)">
		<stop  offset="0.2" style="stop-color:#3D6384"/>
		<stop  offset="0.7" style="stop-color:#ACCFE5"/>
		<stop  offset="1" style="stop-color:#4F7594"/>
	</linearGradient>
	<rect x="116.7" y="82.3" class="st21" width="49.6" height="2.1"/>
	
		<linearGradient id="SVGID_23_" gradientUnits="userSpaceOnUse" x1="141.5549" y1="43.5597" x2="141.5549" y2="45.6333" gradientTransform="matrix(1 0 0 -1 0 132)">
		<stop  offset="0.2" style="stop-color:#3D6384"/>
		<stop  offset="0.7" style="stop-color:#ACCFE5"/>
		<stop  offset="1" style="stop-color:#4F7594"/>
	</linearGradient>
	<rect x="116.7" y="86.3" class="st22" width="49.6" height="2.1"/>
	
		<linearGradient id="SVGID_24_" gradientUnits="userSpaceOnUse" x1="141.5549" y1="39.4996" x2="141.5549" y2="41.5733" gradientTransform="matrix(1 0 0 -1 0 132)">
		<stop  offset="0.2" style="stop-color:#3D6384"/>
		<stop  offset="0.7" style="stop-color:#ACCFE5"/>
		<stop  offset="1" style="stop-color:#4F7594"/>
	</linearGradient>
	<rect x="116.7" y="90.4" class="st23" width="49.6" height="2.1"/>
	
		<linearGradient id="SVGID_25_" gradientUnits="userSpaceOnUse" x1="141.5549" y1="35.4396" x2="141.5549" y2="37.5132" gradientTransform="matrix(1 0 0 -1 0 132)">
		<stop  offset="0.2" style="stop-color:#3D6384"/>
		<stop  offset="0.7" style="stop-color:#ACCFE5"/>
		<stop  offset="1" style="stop-color:#4F7594"/>
	</linearGradient>
	<rect x="116.7" y="94.5" class="st24" width="49.6" height="2.1"/>
	
		<linearGradient id="SVGID_26_" gradientUnits="userSpaceOnUse" x1="141.5549" y1="31.3796" x2="141.5549" y2="33.4532" gradientTransform="matrix(1 0 0 -1 0 132)">
		<stop  offset="0.2" style="stop-color:#3D6384"/>
		<stop  offset="0.7" style="stop-color:#ACCFE5"/>
		<stop  offset="1" style="stop-color:#4F7594"/>
	</linearGradient>
	<rect x="116.7" y="98.5" class="st25" width="49.6" height="2.1"/>
	
		<linearGradient id="SVGID_27_" gradientUnits="userSpaceOnUse" x1="141.5549" y1="27.3196" x2="141.5549" y2="29.3932" gradientTransform="matrix(1 0 0 -1 0 132)">
		<stop  offset="0.2" style="stop-color:#3D6384"/>
		<stop  offset="0.7" style="stop-color:#ACCFE5"/>
		<stop  offset="1" style="stop-color:#4F7594"/>
	</linearGradient>
	<rect x="116.7" y="102.6" class="st26" width="49.6" height="2.1"/>
	
		<linearGradient id="SVGID_28_" gradientUnits="userSpaceOnUse" x1="141.5549" y1="23.2595" x2="141.5549" y2="25.3332" gradientTransform="matrix(1 0 0 -1 0 132)">
		<stop  offset="0.2" style="stop-color:#3D6384"/>
		<stop  offset="0.7" style="stop-color:#ACCFE5"/>
		<stop  offset="1" style="stop-color:#4F7594"/>
	</linearGradient>
	<rect x="116.7" y="106.6" class="st27" width="49.6" height="2.1"/>
	
		<linearGradient id="SVGID_29_" gradientUnits="userSpaceOnUse" x1="141.5549" y1="19.1995" x2="141.5549" y2="21.2731" gradientTransform="matrix(1 0 0 -1 0 132)">
		<stop  offset="0.2" style="stop-color:#3D6384"/>
		<stop  offset="0.7" style="stop-color:#ACCFE5"/>
		<stop  offset="1" style="stop-color:#4F7594"/>
	</linearGradient>
	<rect x="116.7" y="110.7" class="st28" width="49.6" height="2.1"/>
	
		<linearGradient id="SVGID_30_" gradientUnits="userSpaceOnUse" x1="141.5549" y1="15.1395" x2="141.5549" y2="17.2131" gradientTransform="matrix(1 0 0 -1 0 132)">
		<stop  offset="0.2" style="stop-color:#3D6384"/>
		<stop  offset="0.7" style="stop-color:#ACCFE5"/>
		<stop  offset="1" style="stop-color:#4F7594"/>
	</linearGradient>
	<rect x="116.7" y="114.8" class="st29" width="49.6" height="2.1"/>
	
		<linearGradient id="SVGID_31_" gradientUnits="userSpaceOnUse" x1="141.5549" y1="11.0795" x2="141.5549" y2="13.1531" gradientTransform="matrix(1 0 0 -1 0 132)">
		<stop  offset="0.2" style="stop-color:#3D6384"/>
		<stop  offset="0.7" style="stop-color:#ACCFE5"/>
		<stop  offset="1" style="stop-color:#4F7594"/>
	</linearGradient>
	<rect x="116.7" y="118.8" class="st30" width="49.6" height="2.1"/>
	<linearGradient id="SVGID_32_" gradientUnits="userSpaceOnUse" x1="173.915" y1="122.851" x2="173.915" y2="72.9362">
		<stop  offset="0.1" style="stop-color:#3D6384"/>
		<stop  offset="0.5198" style="stop-color:#5283AE"/>
		<stop  offset="0.8" style="stop-color:#B9CEE7"/>
		<stop  offset="1" style="stop-color:#5C8CB8"/>
	</linearGradient>
	<rect x="166.7" y="72.9" class="st31" width="14.5" height="49.8"/>
	<linearGradient id="SVGID_33_" gradientUnits="userSpaceOnUse" x1="180.6337" y1="122.851" x2="180.6337" y2="72.9362">
		<stop  offset="0.2" style="stop-color:#24507B"/>
		<stop  offset="0.7" style="stop-color:#41678F"/>
		<stop  offset="0.8" style="stop-color:#9CBADB"/>
		<stop  offset="1" style="stop-color:#265683"/>
	</linearGradient>
	<rect x="180.1" y="72.9" class="st32" width="1" height="49.8"/>
	
		<linearGradient id="SVGID_34_" gradientUnits="userSpaceOnUse" x1="147.3649" y1="132.1785" x2="136.966" y2="132.1785" gradientTransform="matrix(6.123234e-17 1 -1 6.123234e-17 275.8129 -14.272)">
		<stop  offset="0" style="stop-color:#3D6384"/>
		<stop  offset="0.1" style="stop-color:#477298"/>
		<stop  offset="0.9" style="stop-color:#4F7FA8"/>
		<stop  offset="1" style="stop-color:#6090BC"/>
	</linearGradient>
	<polygon class="st33" points="116.7,133 116.7,122.7 170.5,122.7 170.5,133 	"/>
</g>
</svg>
