<?xml version="1.0" encoding="utf-8"?>
<!-- Generator: Adobe Illustrator 23.0.3, SVG Export Plug-In . SVG Version: 6.00 Build 0)  -->
<svg version="1.1" id="图层_1" xmlns="http://www.w3.org/2000/svg" xmlns:xlink="http://www.w3.org/1999/xlink" x="0px" y="0px"
	 viewBox="0 0 200 200" style="enable-background:new 0 0 200 200;" xml:space="preserve">
<style type="text/css">
	.st0{fill:#415E72;}
	.st1{fill:url(#SVGID_1_);}
	.st2{fill:url(#SVGID_2_);}
	.st3{fill:url(#SVGID_3_);}
	.st4{fill:url(#SVGID_4_);}
	.st5{fill:url(#SVGID_5_);}
	.st6{fill:url(#SVGID_6_);}
	.st7{fill:url(#SVGID_7_);}
	.st8{fill:#4EBFED;}
</style>
<g>
	<rect x="18.4" y="109.3" class="st0" width="23" height="16.5"/>
	<rect x="66.5" y="109.3" class="st0" width="23" height="16.5"/>
	<linearGradient id="SVGID_1_" gradientUnits="userSpaceOnUse" x1="11.8573" y1="104.3624" x2="47.8871" y2="104.3624">
		<stop  offset="0" style="stop-color:#415E72"/>
		<stop  offset="0.1" style="stop-color:#536B7C"/>
		<stop  offset="0.8869" style="stop-color:#536B7C"/>
		<stop  offset="0.9456" style="stop-color:#6F7F87"/>
		<stop  offset="1" style="stop-color:#415E72"/>
	</linearGradient>
	<path class="st1" d="M11.9,111.7h36V97h-36V111.7z"/>
	<linearGradient id="SVGID_2_" gradientUnits="userSpaceOnUse" x1="59.9735" y1="104.3624" x2="96.0033" y2="104.3624">
		<stop  offset="0" style="stop-color:#415E72"/>
		<stop  offset="0.1" style="stop-color:#536B7C"/>
		<stop  offset="0.8869" style="stop-color:#536B7C"/>
		<stop  offset="0.9456" style="stop-color:#6F7F87"/>
		<stop  offset="1" style="stop-color:#415E72"/>
	</linearGradient>
	<path class="st2" d="M60,111.7h36V97H60C60,97,60,111.7,60,111.7z"/>
	<linearGradient id="SVGID_3_" gradientUnits="userSpaceOnUse" x1="0" y1="151.3949" x2="200" y2="151.3949">
		<stop  offset="0" style="stop-color:#A8AFB2"/>
		<stop  offset="3.000000e-02" style="stop-color:#CFDCE5"/>
		<stop  offset="0.966" style="stop-color:#CFDCE5"/>
		<stop  offset="0.9835" style="stop-color:#D9E3E8"/>
		<stop  offset="1" style="stop-color:#A4AEB2"/>
	</linearGradient>
	<path class="st3" d="M0,122.8V180h200v-57.2H0z M38,152H18.9v-10.9H38V152z M67.8,152H42.6c0,0,0-10.9,0-10.9h25.2V152z M97.7,152
		H72.4v-10.9h25.2V152z M127.6,152h-25.2v-10.9h25.2V152z M157.4,152h-25.2v-10.9h25.2V152z"/>
	<linearGradient id="SVGID_4_" gradientUnits="userSpaceOnUse" x1="159.1675" y1="77.542" x2="189.3075" y2="77.542">
		<stop  offset="0.3" style="stop-color:#BAC6CC"/>
		<stop  offset="0.7" style="stop-color:#CFDCE5"/>
		<stop  offset="0.8083" style="stop-color:#EDEDED"/>
		<stop  offset="0.8918" style="stop-color:#CFDCE5"/>
		<stop  offset="1" style="stop-color:#BAC6CC"/>
	</linearGradient>
	<path class="st4" d="M159.2,123.2l3.1-91.4h24l0.5,14.7l0.5,16l2,60.7"/>
	<linearGradient id="SVGID_5_" gradientUnits="userSpaceOnUse" x1="114.3882" y1="71.6219" x2="145.3175" y2="71.6219">
		<stop  offset="0.3" style="stop-color:#BAC6CC"/>
		<stop  offset="0.7" style="stop-color:#CFDCE5"/>
		<stop  offset="0.8083" style="stop-color:#EDEDED"/>
		<stop  offset="0.8918" style="stop-color:#CFDCE5"/>
		<stop  offset="1" style="stop-color:#BAC6CC"/>
	</linearGradient>
	<path class="st5" d="M141.8,20h-24l-3.5,103.2h30.9C145.3,123.2,141.8,20,141.8,20z"/>
	<linearGradient id="SVGID_6_" gradientUnits="userSpaceOnUse" x1="116.8281" y1="42.685" x2="142.8776" y2="42.685">
		<stop  offset="0.3" style="stop-color:#E25749"/>
		<stop  offset="0.7" style="stop-color:#FF6F52"/>
		<stop  offset="0.85" style="stop-color:#F8A190"/>
		<stop  offset="0.9278" style="stop-color:#FF6F52"/>
		<stop  offset="1" style="stop-color:#E25749"/>
	</linearGradient>
	<path class="st6" d="M142.9,50.7h-26l0.5-16h24.9L142.9,50.7L142.9,50.7z"/>
	<linearGradient id="SVGID_7_" gradientUnits="userSpaceOnUse" x1="161.2127" y1="54.5252" x2="187.2623" y2="54.5252">
		<stop  offset="0.3" style="stop-color:#E25749"/>
		<stop  offset="0.7" style="stop-color:#FF6F52"/>
		<stop  offset="0.85" style="stop-color:#F8A190"/>
		<stop  offset="0.9278" style="stop-color:#FF6F52"/>
		<stop  offset="1" style="stop-color:#E25749"/>
	</linearGradient>
	<path class="st7" d="M187.3,62.5h-26l0.5-16h24.9L187.3,62.5z"/>
	<path class="st0" d="M14.2,136.6v19.8h171.5v-19.8H14.2z M38,152H18.9v-10.9H38V152z M67.8,152H42.6c0,0,0-10.9,0-10.9h25.2V152z
		 M97.7,152H72.4v-10.9h25.2V152z M127.6,152h-25.2v-10.9h25.2V152z M157.4,152h-25.2v-10.9h25.2V152z"/>
	<rect x="162" y="141.1" class="st8" width="19.1" height="10.9"/>
</g>
</svg>
