<?xml version="1.0" encoding="utf-8"?>
<!-- Generator: Adobe Illustrator 23.0.3, SVG Export Plug-In . SVG Version: 6.00 Build 0)  -->
<svg version="1.1" id="图层_1" xmlns="http://www.w3.org/2000/svg" xmlns:xlink="http://www.w3.org/1999/xlink" x="0px" y="0px"
	 viewBox="0 0 200 200" style="enable-background:new 0 0 200 200;" xml:space="preserve">
<style type="text/css">
	.st0{fill:url(#SVGID_1_);}
	.st1{fill:#888889;}
	.st2{fill:#EEEEEE;}
	.st3{fill-rule:evenodd;clip-rule:evenodd;fill:#231815;}
	.st4{fill:#FFDEAD;}
	.st5{fill:#FDE9D0;}
	.st6{fill-rule:evenodd;clip-rule:evenodd;fill:url(#SVGID_2_);}
	.st7{fill-rule:evenodd;clip-rule:evenodd;fill:url(#SVGID_3_);}
	.st8{fill-rule:evenodd;clip-rule:evenodd;fill:#FFFFFF;}
</style>
<g>
	<linearGradient id="SVGID_1_" gradientUnits="userSpaceOnUse" x1="10" y1="100" x2="190" y2="100">
		<stop  offset="0" style="stop-color:#989899"/>
		<stop  offset="4.000000e-02" style="stop-color:#C3C3C4"/>
		<stop  offset="0.96" style="stop-color:#CBCBCB"/>
		<stop  offset="0.98" style="stop-color:#DBDBDB"/>
		<stop  offset="1" style="stop-color:#9A9A9B"/>
	</linearGradient>
	<path class="st0" d="M190,190H12c-1.1,0-2-0.9-2-2V12c0-1.1,0.9-2,2-2h178V190z"/>
	<path class="st1" d="M124,178.7L25.1,179c-2.2,0-3.9-1.8-3.9-3.9V24.9c0-2.1,1.8-3.9,3.9-3.9h151.9c2.2,0,3.9,1.8,3.9,3.9v98.4
		C180.9,124.1,126.2,178.7,124,178.7z"/>
	<path class="st2" d="M122.5,175H28.9c-2.1,0-3.7-1.7-3.7-3.7V28.7c0-2,1.7-3.7,3.7-3.7h144.2c2.1,0,3.7,1.7,3.7,3.7v92.6
		C176.8,123.3,124.6,175,122.5,175z"/>
	<g>
		<path class="st3" d="M133.6,140.2c-10.4-12.1-70.4-81.1-68.9-79.3l76.8,71.7"/>
	</g>
	<path class="st3" d="M63.7,102.1l-17.8-6.7c0.2-0.5,0.4-0.9,0.5-1.4l17.8,6.9C64,101.1,63.8,101.6,63.7,102.1"/>
	<path class="st3" d="M107.5,60.8l-5.7-12.2c0.4-0.1,0.6-0.3,1-0.4l5.7,12.2C108.2,60.5,107.9,60.6,107.5,60.8"/>
	<path class="st3" d="M144.9,59.6l0.1-13.5c0.4,0,0.7,0,1.1,0.1l-0.1,13.5C145.5,59.6,145.3,59.6,144.9,59.6"/>
	<path class="st3" d="M59.9,136.1l-19-0.3c0-0.5,0-1,0-1.5l19.2,0.4C59.9,135.1,59.9,135.6,59.9,136.1"/>
	<g>
		<path class="st4" d="M122.5,175c-15.7-15.5-16.9-40.1-1.6-55.4s40.2-13.8,55.9,1.7C178.5,122.9,123.6,176.1,122.5,175z"/>
		<path class="st5" d="M123.6,172.7c-14.6-14.4-14.9-37-0.6-51.1c14.3-14.1,37.1-14.1,51.7,0.2L123.6,172.7z"/>
	</g>
	<linearGradient id="SVGID_2_" gradientUnits="userSpaceOnUse" x1="93.4757" y1="166.5966" x2="105.7037" y2="159.5367">
		<stop  offset="0.3" style="stop-color:#3A3838"/>
		<stop  offset="0.7" style="stop-color:#A09F9F"/>
		<stop  offset="1" style="stop-color:#3E3D3D"/>
	</linearGradient>
	<ellipse class="st6" cx="99.6" cy="163.1" rx="7.1" ry="7"/>
	<linearGradient id="SVGID_3_" gradientUnits="userSpaceOnUse" x1="158.2586" y1="103.7821" x2="171.3601" y2="96.2179">
		<stop  offset="0.3" style="stop-color:#3A3838"/>
		<stop  offset="0.7" style="stop-color:#A09F9F"/>
		<stop  offset="1" style="stop-color:#3E3D3D"/>
	</linearGradient>
	<ellipse class="st7" cx="164.8" cy="100" rx="7.6" ry="7.5"/>
	<path class="st8" d="M86.9,55H36.2c-1,0-1.9-0.9-1.9-1.9V34.9c0-1,0.9-1.9,1.9-1.9h50.8c1,0,1.9,0.9,1.9,1.9v18.2
		C88.8,54.1,88,55,86.9,55z"/>
</g>
</svg>
