<?xml version="1.0" encoding="utf-8"?>
<!-- Generator: Adobe Illustrator 23.0.3, SVG Export Plug-In . SVG Version: 6.00 Build 0)  -->
<svg version="1.1" id="图层_1" xmlns="http://www.w3.org/2000/svg" xmlns:xlink="http://www.w3.org/1999/xlink" x="0px" y="0px"
	 viewBox="0 0 200 200" style="enable-background:new 0 0 200 200;" xml:space="preserve">
<style type="text/css">
	.st0{fill-rule:evenodd;clip-rule:evenodd;fill:#595757;}
	.st1{fill:url(#SVGID_1_);}
	.st2{clip-path:url(#SVGID_3_);fill:url(#SVGID_4_);}
	.st3{clip-path:url(#SVGID_6_);fill:url(#SVGID_7_);}
	.st4{clip-path:url(#SVGID_9_);fill:url(#SVGID_10_);}
	.st5{clip-path:url(#SVGID_12_);fill:url(#SVGID_13_);}
	.st6{clip-path:url(#SVGID_15_);fill:url(#SVGID_16_);}
	.st7{fill:none;}
	.st8{fill-rule:evenodd;clip-rule:evenodd;fill:#231815;}
	.st9{fill-rule:evenodd;clip-rule:evenodd;fill:#FFFFFF;}
	.st10{fill:url(#SVGID_17_);}
	.st11{fill-rule:evenodd;clip-rule:evenodd;fill:#9E9E9F;}
	.st12{fill-rule:evenodd;clip-rule:evenodd;fill:#464342;}
	.st13{fill:#231815;}
	.st14{fill-rule:evenodd;clip-rule:evenodd;fill:#C8C9CA;}
	.st15{clip-path:url(#SVGID_19_);fill:url(#SVGID_20_);}
	.st16{clip-path:url(#SVGID_22_);fill:url(#SVGID_23_);}
	.st17{clip-path:url(#SVGID_25_);fill:url(#SVGID_26_);}
	.st18{clip-path:url(#SVGID_28_);fill:url(#SVGID_29_);}
	.st19{clip-path:url(#SVGID_31_);fill:url(#SVGID_32_);}
	.st20{clip-path:url(#SVGID_34_);fill:url(#SVGID_35_);}
	.st21{clip-path:url(#SVGID_37_);fill:url(#SVGID_38_);}
	.st22{clip-path:url(#SVGID_40_);fill:url(#SVGID_41_);}
	.st23{clip-path:url(#SVGID_43_);fill:url(#SVGID_44_);}
	.st24{clip-path:url(#SVGID_46_);fill:url(#SVGID_47_);}
</style>
<g>
	<g>
		<path class="st0" d="M20,80.9C20,36.8,55.8,1,100,1s80,35.8,80,79.9s-35.8,79.9-80,79.9S20,125,20,80.9"/>
	</g>
	
		<radialGradient id="SVGID_1_" cx="147.8244" cy="121.1734" r="95.7483" gradientTransform="matrix(1 0 0 0.9989 0 0)" gradientUnits="userSpaceOnUse">
		<stop  offset="0" style="stop-color:#FFFFFF"/>
		<stop  offset="1" style="stop-color:#9E9E9F"/>
	</radialGradient>
	<ellipse class="st1" cx="100" cy="80.9" rx="77" ry="76.9"/>
	<g>
		<g>
			<g>
				<defs>
					<rect id="SVGID_2_" x="88.5" y="163.6" width="23" height="33.6"/>
				</defs>
				<clipPath id="SVGID_3_">
					<use xlink:href="#SVGID_2_"  style="overflow:visible;"/>
				</clipPath>
				
					<linearGradient id="SVGID_4_" gradientUnits="userSpaceOnUse" x1="-106.7595" y1="315.3484" x2="-103.5877" y2="315.3484" gradientTransform="matrix(-7.5463 0 0 7.5463 -692.4258 -2199.2932)">
					<stop  offset="0" style="stop-color:#231815"/>
					<stop  offset="0.19" style="stop-color:#9E9E9F"/>
					<stop  offset="0.4" style="stop-color:#E8E9E9"/>
					<stop  offset="0.68" style="stop-color:#9E9E9F"/>
					<stop  offset="1" style="stop-color:#484545"/>
				</linearGradient>
				<rect x="88.5" y="163.6" class="st2" width="23" height="33.6"/>
			</g>
		</g>
	</g>
	<g>
		<g>
			<g>
				<defs>
					<rect id="SVGID_5_" x="88.5" y="163.9" width="23" height="1"/>
				</defs>
				<clipPath id="SVGID_6_">
					<use xlink:href="#SVGID_5_"  style="overflow:visible;"/>
				</clipPath>
				
					<linearGradient id="SVGID_7_" gradientUnits="userSpaceOnUse" x1="-106.7672" y1="313.3651" x2="-103.5931" y2="313.3651" gradientTransform="matrix(-7.5408 0 0 7.5408 -691.8736 -2198.5859)">
					<stop  offset="0" style="stop-color:#231815"/>
					<stop  offset="0.19" style="stop-color:#807F80"/>
					<stop  offset="0.4" style="stop-color:#BCBDBD"/>
					<stop  offset="0.68" style="stop-color:#807F80"/>
					<stop  offset="1" style="stop-color:#3E3A39"/>
				</linearGradient>
				<rect x="88.5" y="163.9" class="st3" width="23" height="1"/>
			</g>
		</g>
	</g>
	<g>
		<g>
			<g>
				<defs>
					<rect id="SVGID_8_" x="88.5" y="166.6" width="23" height="1"/>
				</defs>
				<clipPath id="SVGID_9_">
					<use xlink:href="#SVGID_8_"  style="overflow:visible;"/>
				</clipPath>
				
					<linearGradient id="SVGID_10_" gradientUnits="userSpaceOnUse" x1="-106.7672" y1="313.6601" x2="-103.5931" y2="313.6601" gradientTransform="matrix(-7.5408 0 0 7.5408 -691.8736 -2198.1133)">
					<stop  offset="0" style="stop-color:#231815"/>
					<stop  offset="0.19" style="stop-color:#807F80"/>
					<stop  offset="0.4" style="stop-color:#BCBDBD"/>
					<stop  offset="0.68" style="stop-color:#807F80"/>
					<stop  offset="1" style="stop-color:#3E3A39"/>
				</linearGradient>
				<rect x="88.5" y="166.6" class="st4" width="23" height="1"/>
			</g>
		</g>
	</g>
	<g>
		<g>
			<g>
				<defs>
					<path id="SVGID_11_" d="M113.4,159.9H86.5c-2.1,0-2.1,4,0,4h26.9c1,0,1.6-1,1.6-2C114.9,160.9,114.4,159.9,113.4,159.9"/>
				</defs>
				<clipPath id="SVGID_12_">
					<use xlink:href="#SVGID_11_"  style="overflow:visible;"/>
				</clipPath>
				
					<linearGradient id="SVGID_13_" gradientUnits="userSpaceOnUse" x1="-117.464" y1="309.966" x2="-114.1695" y2="309.966" gradientTransform="matrix(-9.4811 0 0 9.4811 -996.4751 -2776.8779)">
					<stop  offset="0" style="stop-color:#231815"/>
					<stop  offset="0.19" style="stop-color:#9E9E9F"/>
					<stop  offset="0.4" style="stop-color:#E8E9E9"/>
					<stop  offset="0.68" style="stop-color:#9E9E9F"/>
					<stop  offset="1" style="stop-color:#484545"/>
				</linearGradient>
				<rect x="84.4" y="159.9" class="st5" width="30.5" height="4"/>
			</g>
		</g>
	</g>
	<g>
		<g>
			<g>
				<defs>
					<polygon id="SVGID_14_" points="87,195 87,196.5 87,197.3 87,199 113,199 113,197.3 113,195 					"/>
				</defs>
				<clipPath id="SVGID_15_">
					<use xlink:href="#SVGID_14_"  style="overflow:visible;"/>
				</clipPath>
				
					<linearGradient id="SVGID_16_" gradientUnits="userSpaceOnUse" x1="-125.3183" y1="349.1403" x2="-121.2594" y2="349.1403" gradientTransform="matrix(-6.6662 0 0 6.6662 -720.4362 -2130.4373)">
					<stop  offset="0" style="stop-color:#231815"/>
					<stop  offset="0.19" style="stop-color:#9E9E9F"/>
					<stop  offset="0.4" style="stop-color:#E8E9E9"/>
					<stop  offset="0.68" style="stop-color:#9E9E9F"/>
					<stop  offset="1" style="stop-color:#484545"/>
				</linearGradient>
				<rect x="87" y="195" class="st6" width="26" height="4"/>
			</g>
		</g>
	</g>
	<path class="st7" d="M21.9,81c0,43.1,35,77.9,78.1,77.9s78.1-34.9,78.1-77.9S143.1,3.1,100,3.1C56.9,3.1,21.9,38,21.9,81"/>
	<path class="st8" d="M152.3,132c-19,19-46,25.1-70.1,18.3c23.7,6,49.9-0.2,68.4-18.7c28-27.9,28-73.1,0-101.1
		c-9-9-19.8-15-31.2-18.3c12.1,3.1,23.5,9.3,32.9,18.7C180.3,58.9,180.3,104.1,152.3,132"/>
	<path class="st8" d="M100,15.6c36.8,0,66.6,29.8,66.6,66.4s-29.8,66.4-66.6,66.4S33.4,118.7,33.4,82C33.4,45.3,63.3,15.6,100,15.6"
		/>
	<path class="st9" d="M48.7,132c16.1,16.1,39.5,23,60.5,20.6c3.8-0.4,4.3-1,7.7-2.1c-1.2,0.4-4.1,1-7.2,1.4
		c-21.1,2.5-43.1-4.1-59.2-20.3c-28-27.9-28-73.1,0-101.1c9-9,19.8-15,31.2-18.3c-12.1,3.1-23.5,9.3-32.9,18.7
		C20.7,58.9,20.7,104.1,48.7,132"/>
	<g>
		
			<linearGradient id="SVGID_17_" gradientUnits="userSpaceOnUse" x1="35" y1="-81.0293" x2="165" y2="-81.0293" gradientTransform="matrix(1 0 0 -1 0 0)">
			<stop  offset="0" style="stop-color:#FFFFFF"/>
			<stop  offset="1" style="stop-color:#E5E5E6"/>
		</linearGradient>
		<ellipse class="st10" cx="100" cy="81" rx="65" ry="64.9"/>
		<path class="st11" d="M82.2,24.7l1.6,5c-0.3,0.1-0.6,0.2-0.8,0.3l-1.6-5C81.7,24.9,82,24.8,82.2,24.7 M87.1,28.8l-1.2-5.1
			c0.3-0.1,0.6-0.1,0.8-0.2l1.2,5.1C87.7,28.6,87.4,28.7,87.1,28.8 M91.3,27.9l-0.8-5.2c0.3-0.1,0.6-0.1,0.9-0.1l0.8,5.2
			C91.9,27.8,91.6,27.9,91.3,27.9 M95.5,27.4l-0.4-5.2c0.3,0,0.6-0.1,0.9-0.1l0.4,5.2C96.1,27.3,95.8,27.4,95.5,27.4 M104,27.3
			l0.4-5.2c0.3,0,0.6,0,0.9,0.1l-0.4,5.2C104.6,27.4,104.3,27.3,104,27.3 M108.2,27.8l0.8-5.2c0.3,0,0.6,0.1,0.9,0.1l-0.8,5.2
			C108.8,27.9,108.5,27.8,108.2,27.8 M112.4,28.6l1.2-5.1c0.3,0.1,0.6,0.1,0.8,0.2l-1.2,5.1C113,28.7,112.7,28.6,112.4,28.6
			 M116.5,29.7l1.6-5c0.3,0.1,0.6,0.2,0.8,0.3l-1.6,5C117.1,29.9,116.8,29.8,116.5,29.7 M124.4,32.9l2.4-4.7
			c0.3,0.1,0.5,0.3,0.8,0.4l-2.4,4.6C124.9,33.1,124.7,33,124.4,32.9 M128.2,34.9l2.7-4.5c0.2,0.1,0.5,0.3,0.7,0.5l-2.7,4.5
			C128.6,35.2,128.4,35.1,128.2,34.9 M131.7,37.3l3.1-4.2c0.2,0.2,0.5,0.3,0.7,0.5l-3.1,4.2C132.2,37.6,131.9,37.4,131.7,37.3
			 M135.1,39.9c0.2,0.2,0.4,0.4,0.7,0.5l3.4-4c-0.2-0.2-0.4-0.4-0.7-0.6L135.1,39.9z M141.1,45.8l4-3.4c0.2,0.2,0.4,0.4,0.6,0.6
			l-4,3.4C141.5,46.3,141.3,46,141.1,45.8 M143.8,49.1c0.2,0.2,0.3,0.5,0.5,0.7l4.2-3.1c-0.2-0.2-0.3-0.5-0.5-0.7L143.8,49.1z
			 M146.2,52.6l4.5-2.7c0.2,0.3,0.3,0.5,0.5,0.7l-4.5,2.7C146.5,53.1,146.3,52.9,146.2,52.6 M148.3,56.3l4.7-2.4
			c0.1,0.3,0.3,0.5,0.4,0.8l-4.7,2.4C148.6,56.8,148.4,56.6,148.3,56.3 M151.6,64l5-1.6c0.1,0.3,0.2,0.6,0.3,0.8l-5,1.6
			C151.8,64.6,151.7,64.3,151.6,64 M152.8,68.1l5.1-1.2c0.1,0.3,0.1,0.6,0.2,0.8l-5.1,1.2C153,68.7,152.9,68.4,152.8,68.1
			 M153.7,72.3l5.2-0.8c0,0.3,0.1,0.6,0.1,0.8l-5.2,0.8C153.8,72.9,153.7,72.6,153.7,72.3 M154.2,76.5l5.2-0.4c0,0.3,0,0.6,0.1,0.9
			l-5.2,0.4C154.2,77.1,154.2,76.8,154.2,76.5 M154.3,85l5.2,0.4c0,0.3,0,0.6-0.1,0.9l-5.2-0.4C154.2,85.6,154.2,85.3,154.3,85
			 M153.8,89.2L159,90c0,0.3-0.1,0.6-0.1,0.9l-5.2-0.8C153.7,89.8,153.8,89.5,153.8,89.2 M153,93.4l5.1,1.2
			c-0.1,0.3-0.1,0.6-0.2,0.8l-5.1-1.2C152.9,93.9,153,93.7,153,93.4 M151.9,97.5l5,1.6c-0.1,0.3-0.2,0.6-0.3,0.8l-5-1.6
			C151.7,98,151.8,97.8,151.9,97.5 M148.7,105.4l4.7,2.4c-0.1,0.3-0.3,0.5-0.4,0.8l-4.7-2.4C148.4,105.9,148.6,105.6,148.7,105.4
			 M146.6,109.1l4.5,2.7c-0.1,0.3-0.3,0.5-0.5,0.7l-4.5-2.7C146.3,109.6,146.5,109.3,146.6,109.1 M144.3,112.6l4.2,3.1
			c-0.2,0.2-0.3,0.5-0.5,0.7l-4.2-3.1C144,113.1,144.1,112.9,144.3,112.6 M141.7,116c-0.2,0.2-0.4,0.5-0.6,0.7l4,3.4
			c0.2-0.2,0.4-0.4,0.6-0.7L141.7,116z M59.3,116.7l-4,3.4c-0.2-0.2-0.4-0.5-0.6-0.7l4-3.4C58.9,116.2,59.1,116.4,59.3,116.7
			 M56.6,113.3c-0.2-0.2-0.3-0.5-0.5-0.7l-4.2,3.1c0.2,0.2,0.4,0.5,0.5,0.7L56.6,113.3z M54.2,109.8l-4.5,2.7
			c-0.2-0.3-0.3-0.5-0.5-0.7l4.5-2.7C53.9,109.3,54.1,109.6,54.2,109.8 M52.1,106.1l-4.7,2.4c-0.1-0.3-0.3-0.5-0.4-0.8l4.7-2.4
			C51.8,105.6,52,105.9,52.1,106.1 M48.8,98.3l-5,1.6c-0.1-0.3-0.2-0.6-0.3-0.8l5-1.6C48.6,97.8,48.7,98,48.8,98.3 M47.6,94.2
			l-5.1,1.2c-0.1-0.3-0.1-0.6-0.2-0.8l5.1-1.2C47.4,93.7,47.5,93.9,47.6,94.2 M46.7,90.1l-5.2,0.8c0-0.3-0.1-0.6-0.1-0.9l5.2-0.8
			C46.6,89.5,46.7,89.8,46.7,90.1 M46.2,85.9L41,86.3c0-0.3,0-0.6-0.1-0.9l5.2-0.4C46.1,85.3,46.2,85.6,46.2,85.9 M46.1,77.4
			L40.9,77c0-0.3,0-0.6,0.1-0.9l5.2,0.4C46.2,76.8,46.1,77.1,46.1,77.4 M46.6,73.1l-5.2-0.8c0-0.3,0.1-0.6,0.1-0.8l5.2,0.8
			C46.7,72.6,46.6,72.9,46.6,73.1 M47.4,69l-5.1-1.2c0.1-0.3,0.1-0.6,0.2-0.8l5.1,1.2C47.5,68.4,47.4,68.7,47.4,69 M48.5,64.9
			l-5-1.6c0.1-0.3,0.2-0.6,0.3-0.8l5,1.6C48.7,64.3,48.6,64.6,48.5,64.9 M51.7,57.1L47,54.7c0.1-0.3,0.3-0.5,0.4-0.8l4.7,2.4
			C52,56.6,51.8,56.8,51.7,57.1 M53.8,53.4l-4.5-2.7c0.2-0.3,0.3-0.5,0.5-0.7l4.5,2.7C54.1,52.9,53.9,53.1,53.8,53.4 M56.1,49.8
			l-4.2-3.1c0.2-0.2,0.4-0.5,0.5-0.7l4.2,3.1C56.4,49.4,56.3,49.6,56.1,49.8 M58.7,46.5c0.2-0.2,0.4-0.5,0.6-0.7l-4-3.4
			c-0.2,0.2-0.4,0.4-0.6,0.6L58.7,46.5z M64.7,40.4l-3.4-4c0.2-0.2,0.5-0.4,0.7-0.6l3.4,4C65.1,40,64.9,40.2,64.7,40.4 M68,37.8
			c0.2-0.2,0.5-0.4,0.7-0.5l-3.1-4.2c-0.2,0.2-0.5,0.3-0.7,0.5L68,37.8z M71.5,35.4l-2.7-4.5c0.2-0.2,0.5-0.3,0.7-0.5l2.7,4.5
			C72,35.1,71.8,35.2,71.5,35.4 M75.2,33.3l-2.4-4.6c0.3-0.1,0.5-0.3,0.8-0.4L76,33C75.7,33,75.5,33.1,75.2,33.3"/>
		<path class="st8" d="M100.6,22v10.8c-0.1,0-0.3,0-0.4,0s-0.3,0-0.4,0V22c0.2,0,0.3,0,0.4,0C100.3,21.9,100.5,22,100.6,22
			 M118.4,36.3l4.1-10c0.3,0.1,0.5,0.2,0.8,0.3l-4.2,10C118.9,36.5,118.7,36.4,118.4,36.3 M134.2,46.7l7.7-7.7
			c0.2,0.2,0.4,0.4,0.6,0.6l-7.7,7.6C134.7,47.1,134.5,46.9,134.2,46.7 M144.9,62.2l10-4.1c0.1,0.3,0.2,0.6,0.3,0.8l-10,4.1
			C145.2,62.7,145.1,62.5,144.9,62.2 M148.8,80.7h10.8c0,0.1,0,0.3,0,0.4c0,0.1,0,0.3,0,0.4h-10.8c0-0.1,0-0.3,0-0.4
			C148.8,81,148.8,80.9,148.8,80.7 M145.3,99.3l10,4.1c-0.1,0.3-0.2,0.6-0.3,0.8l-10-4.1C145.1,99.9,145.2,99.6,145.3,99.3
			 M134.9,115.2l7.7,7.6c-0.2,0.2-0.4,0.4-0.6,0.6l-7.7-7.6C134.5,115.6,134.7,115.4,134.9,115.2 M66.1,115.8l-7.7,7.6
			c-0.2-0.2-0.4-0.4-0.6-0.6l7.7-7.6C65.7,115.4,65.9,115.6,66.1,115.8 M55.5,100.2l-10,4.1c-0.1-0.3-0.2-0.5-0.3-0.8l10-4.1
			C55.2,99.6,55.3,99.9,55.5,100.2 M51.6,81.6H40.8v-0.4v-0.4h10.8v0.4C51.6,81.2,51.6,81.6,51.6,81.6z M55.1,63l-10-4.1
			c0.1-0.3,0.2-0.5,0.3-0.8l10,4.2C55.3,62.5,55.2,62.7,55.1,63 M65.5,47.3l-7.7-7.6c0.2-0.2,0.4-0.4,0.6-0.6l7.7,7.7
			C65.9,46.9,65.7,47.1,65.5,47.3 M81.2,36.6l-4.1-10c0.3-0.1,0.5-0.2,0.8-0.3l4.1,10C81.7,36.4,81.5,36.5,81.2,36.6"/>
		<path class="st8" d="M80.4,94.7c4.2-3.8,8.3-6,11.7-10.4c-2.3-6,2.4-12.1,8.7-11.7c9.3-12.4,18.5-24.9,27.8-37.3
			c1.3-0.7,1.8-0.2,1.8,1.2l-22.4,41c2.5,5.3-0.9,11.4-6.7,12.2c-2.8,5.1-3,9.4-4.6,15.1C93.9,114.5,72.9,101.5,80.4,94.7
			 M102.5,77.4L102.5,77.4c-4.3-2.8-8.6,3.8-4.2,6.6C102.6,86.8,106.8,80.2,102.5,77.4"/>
		<path class="st12" d="M126.9,39.9c-8.3,11.2-16.7,22.4-25,33.6l-0.5,0.6h-0.8c-5.3-0.4-9.1,4.8-7.2,9.7l0.3,0.7l-0.5,0.7
			c-3.3,4.5-7.8,7-11.9,10.6c-0.6,0.6-1,1.2-1.1,2c-0.6,5.3,13.2,13.2,15.1,6.7C96.9,99,97.2,94.1,100,89l0.3-0.6l0.7-0.1
			c4.8-0.7,7.7-5.8,5.6-10.2l-0.3-0.7L126.9,39.9z M103.3,76.3c5.9,3.8,0.2,12.8-5.8,9C91.6,81.5,97.3,72.5,103.3,76.3"/>
		<path class="st13" d="M66.5,111.3c0-0.9,0.1-1.7,0.3-2.3c0.2-0.6,0.5-1,0.9-1.3s0.9-0.5,1.4-0.5c0.4,0,0.8,0.1,1.1,0.3
			c0.3,0.2,0.6,0.4,0.8,0.7c0.2,0.3,0.4,0.7,0.5,1.2s0.2,1.1,0.2,1.9c0,0.9-0.1,1.7-0.3,2.3c-0.2,0.6-0.5,1-0.9,1.3
			s-0.9,0.5-1.5,0.5c-0.8,0-1.4-0.3-1.8-0.8C66.8,113.9,66.5,112.8,66.5,111.3 M67.5,111.3c0,1.3,0.2,2.2,0.5,2.6
			c0.3,0.4,0.7,0.7,1.1,0.7c0.5,0,0.8-0.2,1.1-0.7c0.3-0.4,0.5-1.3,0.5-2.6c0-1.3-0.2-2.2-0.5-2.6c-0.3-0.4-0.7-0.6-1.2-0.6
			s-0.8,0.2-1.1,0.6C67.7,109.1,67.5,110,67.5,111.3"/>
		<path class="st13" d="M55.8,85.1h-1v-6.3c-0.2,0.2-0.6,0.5-0.9,0.7c-0.4,0.2-0.7,0.4-1,0.5v-1c0.6-0.3,1-0.6,1.4-0.9
			c0.4-0.4,0.7-0.7,0.9-1.1h0.6V85.1z"/>
		<path class="st13" d="M71.5,53.6v0.9h-5.3c0-0.2,0-0.5,0.1-0.7c0.1-0.4,0.4-0.7,0.6-1.1c0.3-0.4,0.7-0.8,1.3-1.2
			c0.9-0.7,1.5-1.3,1.8-1.7s0.5-0.8,0.5-1.2c0-0.4-0.1-0.7-0.4-1s-0.6-0.4-1.1-0.4s-0.9,0.1-1.1,0.4c-0.3,0.3-0.4,0.7-0.4,1.2
			l-1-0.1c0.1-0.7,0.3-1.3,0.8-1.7c0.5-0.4,1.1-0.6,1.8-0.6s1.4,0.2,1.8,0.7c0.4,0.4,0.7,0.9,0.7,1.6c0,0.3-0.1,0.6-0.2,0.9
			c-0.1,0.3-0.4,0.6-0.6,1C70.5,51,70,51.4,69.3,52c-0.6,0.5-1,0.8-1.1,1c-0.2,0.2-0.3,0.4-0.4,0.6C67.8,53.6,71.5,53.6,71.5,53.6z"
			/>
		<path class="st13" d="M97.6,40.6l1-0.1c0.1,0.6,0.3,1,0.6,1.2c0.3,0.3,0.6,0.4,1,0.4c0.5,0,0.9-0.2,1.2-0.5
			c0.3-0.3,0.5-0.7,0.5-1.2c0-0.5-0.1-0.8-0.4-1.1s-0.7-0.4-1.1-0.4c-0.2,0-0.4,0-0.7,0.1l0.1-0.9c0.1,0,0.1,0,0.2,0
			c0.4,0,0.8-0.1,1.1-0.3c0.3-0.2,0.5-0.6,0.5-1c0-0.4-0.1-0.7-0.4-0.9c-0.2-0.2-0.6-0.4-0.9-0.4c-0.4,0-0.7,0.1-1,0.4
			c-0.3,0.2-0.4,0.6-0.5,1.1l-1-0.2c0.1-0.7,0.4-1.2,0.8-1.5c0.4-0.4,1-0.6,1.6-0.6c0.4,0,0.8,0.1,1.2,0.3c0.4,0.2,0.6,0.5,0.8,0.8
			c0.2,0.3,0.3,0.7,0.3,1c0,0.3-0.1,0.7-0.3,0.9c-0.2,0.3-0.5,0.5-0.8,0.7c0.5,0.1,0.8,0.3,1.1,0.7c0.3,0.3,0.4,0.8,0.4,1.3
			c0,0.7-0.2,1.3-0.8,1.8c-0.5,0.5-1.2,0.7-2,0.7c-0.7,0-1.3-0.2-1.8-0.6C97.9,41.9,97.6,41.3,97.6,40.6"/>
		<path class="st13" d="M132.6,52.9V51h-3.4v-0.9l3.7-5.2h0.8v5.2h1.1V51h-1.1v1.9H132.6z M132.6,50v-3.6l-2.5,3.6H132.6z"/>
		<path class="st13" d="M142.1,83.1l1-0.1c0.1,0.5,0.3,0.9,0.5,1.1c0.3,0.3,0.6,0.4,1,0.4c0.5,0,0.9-0.2,1.2-0.6s0.5-0.8,0.5-1.4
			s-0.2-1-0.5-1.3s-0.7-0.5-1.2-0.5c-0.3,0-0.6,0.1-0.9,0.2c-0.3,0.1-0.5,0.3-0.6,0.6l-0.9-0.1l0.8-4.1h4v0.9h-3.2l-0.4,2.1
			c0.5-0.3,1-0.5,1.5-0.5c0.7,0,1.3,0.3,1.8,0.7c0.5,0.5,0.7,1.1,0.7,1.9c0,0.7-0.2,1.3-0.6,1.9c-0.5,0.7-1.2,1-2.1,1
			c-0.7,0-1.3-0.2-1.8-0.6C142.4,84.3,142.2,83.8,142.1,83.1"/>
		<path class="st13" d="M134.2,108.7l-1,0.1c-0.1-0.4-0.2-0.7-0.4-0.8c-0.3-0.3-0.6-0.4-1-0.4c-0.3,0-0.6,0.1-0.8,0.3
			c-0.3,0.2-0.6,0.6-0.7,1c-0.2,0.4-0.3,1.1-0.3,1.9c0.2-0.4,0.5-0.6,0.9-0.8c0.3-0.2,0.7-0.3,1.1-0.3c0.7,0,1.2,0.3,1.7,0.7
			c0.5,0.5,0.7,1.1,0.7,1.9c0,0.5-0.1,1-0.3,1.4c-0.2,0.4-0.5,0.8-0.9,1c-0.4,0.2-0.8,0.4-1.3,0.4c-0.8,0-1.5-0.3-2-0.9
			c-0.5-0.6-0.8-1.6-0.8-3c0-1.6,0.3-2.7,0.9-3.4c0.5-0.6,1.2-0.9,2-0.9c0.6,0,1.1,0.2,1.5,0.6C133.8,107.6,134.1,108.1,134.2,108.7
			 M130.1,112.2c0,0.3,0.1,0.7,0.2,1c0.1,0.3,0.3,0.6,0.6,0.7c0.3,0.2,0.5,0.3,0.8,0.3c0.4,0,0.8-0.2,1.1-0.5s0.5-0.8,0.5-1.4
			s-0.1-1-0.4-1.3c-0.3-0.3-0.7-0.5-1.1-0.5c-0.4,0-0.8,0.2-1.1,0.5C130.3,111.2,130.1,111.7,130.1,112.2"/>
		<path class="st14" d="M120.2,123c-1-2-3.4-2.9-5.5-1.9c-2,1-2.9,3.4-1.9,5.5c1,2,3.4,2.9,5.5,1.9
			C120.3,127.5,121.2,125.1,120.2,123 M87.6,123c-1-2-3.4-2.9-5.5-1.9c-2,1-2.9,3.4-1.9,5.5c1,2,3.4,2.9,5.5,1.9
			C87.7,127.5,88.6,125.1,87.6,123"/>
	</g>
	<g>
		<g>
			<g>
				<defs>
					<rect id="SVGID_18_" x="88.5" y="169.4" width="23" height="1"/>
				</defs>
				<clipPath id="SVGID_19_">
					<use xlink:href="#SVGID_18_"  style="overflow:visible;"/>
				</clipPath>
				
					<linearGradient id="SVGID_20_" gradientUnits="userSpaceOnUse" x1="-106.7672" y1="314.0937" x2="-103.5931" y2="314.0937" gradientTransform="matrix(-7.5408 0 0 7.5408 -691.8736 -2198.5859)">
					<stop  offset="0" style="stop-color:#231815"/>
					<stop  offset="0.19" style="stop-color:#807F80"/>
					<stop  offset="0.4" style="stop-color:#BCBDBD"/>
					<stop  offset="0.68" style="stop-color:#807F80"/>
					<stop  offset="1" style="stop-color:#3E3A39"/>
				</linearGradient>
				<rect x="88.5" y="169.4" class="st15" width="23" height="1"/>
			</g>
		</g>
	</g>
	<g>
		<g>
			<g>
				<defs>
					<rect id="SVGID_21_" x="88.5" y="172.1" width="23" height="1"/>
				</defs>
				<clipPath id="SVGID_22_">
					<use xlink:href="#SVGID_21_"  style="overflow:visible;"/>
				</clipPath>
				
					<linearGradient id="SVGID_23_" gradientUnits="userSpaceOnUse" x1="-106.7672" y1="314.3887" x2="-103.5931" y2="314.3887" gradientTransform="matrix(-7.5408 0 0 7.5408 -691.8736 -2198.1133)">
					<stop  offset="0" style="stop-color:#231815"/>
					<stop  offset="0.19" style="stop-color:#807F80"/>
					<stop  offset="0.4" style="stop-color:#BCBDBD"/>
					<stop  offset="0.68" style="stop-color:#807F80"/>
					<stop  offset="1" style="stop-color:#3E3A39"/>
				</linearGradient>
				<rect x="88.5" y="172.1" class="st16" width="23" height="1"/>
			</g>
		</g>
	</g>
	<g>
		<g>
			<g>
				<defs>
					<rect id="SVGID_24_" x="88.5" y="174.8" width="23" height="1"/>
				</defs>
				<clipPath id="SVGID_25_">
					<use xlink:href="#SVGID_24_"  style="overflow:visible;"/>
				</clipPath>
				
					<linearGradient id="SVGID_26_" gradientUnits="userSpaceOnUse" x1="-106.7672" y1="314.809" x2="-103.5931" y2="314.809" gradientTransform="matrix(-7.5408 0 0 7.5408 -691.8736 -2198.5859)">
					<stop  offset="0" style="stop-color:#231815"/>
					<stop  offset="0.19" style="stop-color:#807F80"/>
					<stop  offset="0.4" style="stop-color:#BCBDBD"/>
					<stop  offset="0.68" style="stop-color:#807F80"/>
					<stop  offset="1" style="stop-color:#3E3A39"/>
				</linearGradient>
				<rect x="88.5" y="174.8" class="st17" width="23" height="1"/>
			</g>
		</g>
	</g>
	<g>
		<g>
			<g>
				<defs>
					<rect id="SVGID_27_" x="88.5" y="177.6" width="23" height="1"/>
				</defs>
				<clipPath id="SVGID_28_">
					<use xlink:href="#SVGID_27_"  style="overflow:visible;"/>
				</clipPath>
				
					<linearGradient id="SVGID_29_" gradientUnits="userSpaceOnUse" x1="-106.7672" y1="315.1172" x2="-103.5931" y2="315.1172" gradientTransform="matrix(-7.5408 0 0 7.5408 -691.8736 -2198.1133)">
					<stop  offset="0" style="stop-color:#231815"/>
					<stop  offset="0.19" style="stop-color:#807F80"/>
					<stop  offset="0.4" style="stop-color:#BCBDBD"/>
					<stop  offset="0.68" style="stop-color:#807F80"/>
					<stop  offset="1" style="stop-color:#3E3A39"/>
				</linearGradient>
				<rect x="88.5" y="177.6" class="st18" width="23" height="1"/>
			</g>
		</g>
	</g>
	<g>
		<g>
			<g>
				<defs>
					<rect id="SVGID_30_" x="88.5" y="180.3" width="23" height="1"/>
				</defs>
				<clipPath id="SVGID_31_">
					<use xlink:href="#SVGID_30_"  style="overflow:visible;"/>
				</clipPath>
				
					<linearGradient id="SVGID_32_" gradientUnits="userSpaceOnUse" x1="-106.7672" y1="315.5376" x2="-103.5931" y2="315.5376" gradientTransform="matrix(-7.5408 0 0 7.5408 -691.8736 -2198.5859)">
					<stop  offset="0" style="stop-color:#231815"/>
					<stop  offset="0.19" style="stop-color:#807F80"/>
					<stop  offset="0.4" style="stop-color:#BCBDBD"/>
					<stop  offset="0.68" style="stop-color:#807F80"/>
					<stop  offset="1" style="stop-color:#3E3A39"/>
				</linearGradient>
				<rect x="88.5" y="180.3" class="st19" width="23" height="1"/>
			</g>
		</g>
	</g>
	<g>
		<g>
			<g>
				<defs>
					<rect id="SVGID_33_" x="88.5" y="183.1" width="23" height="1"/>
				</defs>
				<clipPath id="SVGID_34_">
					<use xlink:href="#SVGID_33_"  style="overflow:visible;"/>
				</clipPath>
				
					<linearGradient id="SVGID_35_" gradientUnits="userSpaceOnUse" x1="-106.7672" y1="315.8458" x2="-103.5931" y2="315.8458" gradientTransform="matrix(-7.5408 0 0 7.5408 -691.8736 -2198.1133)">
					<stop  offset="0" style="stop-color:#231815"/>
					<stop  offset="0.19" style="stop-color:#807F80"/>
					<stop  offset="0.4" style="stop-color:#BCBDBD"/>
					<stop  offset="0.68" style="stop-color:#807F80"/>
					<stop  offset="1" style="stop-color:#3E3A39"/>
				</linearGradient>
				<rect x="88.5" y="183.1" class="st20" width="23" height="1"/>
			</g>
		</g>
	</g>
	<g>
		<g>
			<g>
				<defs>
					<rect id="SVGID_36_" x="88.5" y="185.8" width="23" height="1"/>
				</defs>
				<clipPath id="SVGID_37_">
					<use xlink:href="#SVGID_36_"  style="overflow:visible;"/>
				</clipPath>
				
					<linearGradient id="SVGID_38_" gradientUnits="userSpaceOnUse" x1="-106.7672" y1="316.2662" x2="-103.5931" y2="316.2662" gradientTransform="matrix(-7.5408 0 0 7.5408 -691.8736 -2198.5859)">
					<stop  offset="0" style="stop-color:#231815"/>
					<stop  offset="0.19" style="stop-color:#807F80"/>
					<stop  offset="0.4" style="stop-color:#BCBDBD"/>
					<stop  offset="0.68" style="stop-color:#807F80"/>
					<stop  offset="1" style="stop-color:#3E3A39"/>
				</linearGradient>
				<rect x="88.5" y="185.8" class="st21" width="23" height="1"/>
			</g>
		</g>
	</g>
	<g>
		<g>
			<g>
				<defs>
					<rect id="SVGID_39_" x="88.5" y="188.5" width="23" height="1"/>
				</defs>
				<clipPath id="SVGID_40_">
					<use xlink:href="#SVGID_39_"  style="overflow:visible;"/>
				</clipPath>
				
					<linearGradient id="SVGID_41_" gradientUnits="userSpaceOnUse" x1="-106.7672" y1="316.5611" x2="-103.5931" y2="316.5611" gradientTransform="matrix(-7.5408 0 0 7.5408 -691.8736 -2198.1133)">
					<stop  offset="0" style="stop-color:#231815"/>
					<stop  offset="0.19" style="stop-color:#807F80"/>
					<stop  offset="0.4" style="stop-color:#BCBDBD"/>
					<stop  offset="0.68" style="stop-color:#807F80"/>
					<stop  offset="1" style="stop-color:#3E3A39"/>
				</linearGradient>
				<rect x="88.5" y="188.5" class="st22" width="23" height="1"/>
			</g>
		</g>
	</g>
	<g>
		<g>
			<g>
				<defs>
					<rect id="SVGID_42_" x="88.5" y="191.3" width="23" height="1"/>
				</defs>
				<clipPath id="SVGID_43_">
					<use xlink:href="#SVGID_42_"  style="overflow:visible;"/>
				</clipPath>
				
					<linearGradient id="SVGID_44_" gradientUnits="userSpaceOnUse" x1="-106.7672" y1="316.9947" x2="-103.5931" y2="316.9947" gradientTransform="matrix(-7.5408 0 0 7.5408 -691.8736 -2198.5859)">
					<stop  offset="0" style="stop-color:#231815"/>
					<stop  offset="0.19" style="stop-color:#807F80"/>
					<stop  offset="0.4" style="stop-color:#BCBDBD"/>
					<stop  offset="0.68" style="stop-color:#807F80"/>
					<stop  offset="1" style="stop-color:#3E3A39"/>
				</linearGradient>
				<rect x="88.5" y="191.3" class="st23" width="23" height="1"/>
			</g>
		</g>
	</g>
	<g>
		<g>
			<g>
				<defs>
					<rect id="SVGID_45_" x="88.5" y="194" width="23" height="1"/>
				</defs>
				<clipPath id="SVGID_46_">
					<use xlink:href="#SVGID_45_"  style="overflow:visible;"/>
				</clipPath>
				
					<linearGradient id="SVGID_47_" gradientUnits="userSpaceOnUse" x1="-106.7672" y1="317.2897" x2="-103.5931" y2="317.2897" gradientTransform="matrix(-7.5408 0 0 7.5408 -691.8736 -2198.1133)">
					<stop  offset="0" style="stop-color:#231815"/>
					<stop  offset="0.19" style="stop-color:#807F80"/>
					<stop  offset="0.4" style="stop-color:#BCBDBD"/>
					<stop  offset="0.68" style="stop-color:#807F80"/>
					<stop  offset="1" style="stop-color:#3E3A39"/>
				</linearGradient>
				<rect x="88.5" y="194" class="st24" width="23" height="1"/>
			</g>
		</g>
	</g>
</g>
</svg>
