<?xml version="1.0" encoding="utf-8"?>
<!-- Generator: Adobe Illustrator 23.0.3, SVG Export Plug-In . SVG Version: 6.00 Build 0)  -->
<svg version="1.1" id="图层_1" xmlns="http://www.w3.org/2000/svg" xmlns:xlink="http://www.w3.org/1999/xlink" x="0px" y="0px"
	 viewBox="0 0 200 200" style="enable-background:new 0 0 200 200;" xml:space="preserve">
<style type="text/css">
	.st0{fill:url(#SVGID_1_);}
	.st1{fill:#383433;}
	.st2{fill:#FFFFFF;}
	.st3{fill-rule:evenodd;clip-rule:evenodd;fill:#231815;}
	.st4{fill:url(#SVGID_2_);}
	.st5{fill:url(#SVGID_3_);}
	.st6{fill:url(#SVGID_4_);}
	.st7{fill:url(#SVGID_5_);}
	.st8{fill:url(#SVGID_6_);}
	.st9{fill:url(#SVGID_7_);}
	.st10{fill:url(#SVGID_8_);}
	.st11{fill:url(#SVGID_9_);}
	.st12{fill:url(#SVGID_10_);}
	.st13{fill:url(#SVGID_11_);}
	.st14{fill:url(#SVGID_12_);}
	.st15{fill:url(#SVGID_13_);}
</style>
<g>
	
		<linearGradient id="SVGID_1_" gradientUnits="userSpaceOnUse" x1="186.5164" y1="100" x2="190.5" y2="100" gradientTransform="matrix(1 0 0 -1 0 200)">
		<stop  offset="0.175" style="stop-color:#383433"/>
		<stop  offset="0.5" style="stop-color:#605E5D"/>
		<stop  offset="0.9479" style="stop-color:#383433"/>
	</linearGradient>
	<path class="st0" d="M188.5,195h-2V5h2c1.1,0,2,0.9,2,2v186C190.5,194.1,189.6,195,188.5,195z"/>
	<path class="st1" d="M186.5,195h-175c-1.1,0-2-0.9-2-2V7c0-1.1,0.9-2,2-2h175V195z"/>
	<path class="st2" d="M181.3,108H17.7c-1.7,0-3.2-1.4-3.2-3.2V13.6c0-1.7,1.4-3.2,3.2-3.2h163.6c1.7,0,3.2,1.4,3.2,3.2v91.3
		C184.5,106.6,183.1,108,181.3,108z"/>
	<g>
		<g>
			<path class="st3" d="M73.3,108.4c-11.2-11.2-45.7-47-44-45.3l52.6,45.3"/>
		</g>
		<path class="st3" d="M51.2,57l-5.5-6.1c0.2-0.1,0.3-0.3,0.5-0.4l5.5,6.2C51.5,56.8,51.4,56.9,51.2,57"/>
		<path class="st3" d="M67.9,49.3L60.6,38c0.4-0.2,0.6-0.4,0.9-0.5l7.3,11.3C68.5,48.9,68.3,49.1,67.9,49.3"/>
		<path class="st3" d="M101,42V28.3c0.4,0,0.7,0,1.1,0L102,42C101.7,42,101.4,41.9,101,42"/>
		<path class="st3" d="M158.2,71.4L169,63c0.3,0.3,0.4,0.5,0.7,0.8l-11,8.3C158.6,72,158.4,71.7,158.2,71.4"/>
		<path class="st3" d="M150.6,56.6l6.1-5.5c0.1,0.2,0.3,0.3,0.4,0.5l-6.2,5.5C150.9,56.9,150.8,56.7,150.6,56.6"/>
		<path class="st3" d="M82.7,33.8l2.2,8c-0.2,0.1-0.4,0.1-0.6,0.2l-2.2-8C82.3,33.9,82.5,33.8,82.7,33.8"/>
		<path class="st3" d="M121.4,34l-3,7.7c-0.2-0.1-0.4-0.2-0.6-0.2l3-7.7C121,33.9,121.2,34,121.4,34"/>
		<path class="st3" d="M133.4,48.6l8.2-10.7c0.3,0.3,0.5,0.4,0.8,0.7l-8.2,10.7C133.9,49,133.7,48.9,133.4,48.6"/>
	</g>
	
		<linearGradient id="SVGID_2_" gradientUnits="userSpaceOnUse" x1="99.5" y1="83.4" x2="99.5" y2="87.4" gradientTransform="matrix(1 0 0 -1 0 200)">
		<stop  offset="0" style="stop-color:#8A8482"/>
		<stop  offset="0.5" style="stop-color:#FFFFFF"/>
		<stop  offset="1" style="stop-color:#857F7D"/>
	</linearGradient>
	<path class="st4" d="M182.8,116.6H16.2c-0.9,0-1.7-0.8-1.7-1.7v-0.6c0-0.9,0.8-1.7,1.7-1.7h166.6c0.9,0,1.7,0.8,1.7,1.7v0.6
		C184.5,115.8,183.7,116.6,182.8,116.6z"/>
	
		<linearGradient id="SVGID_3_" gradientUnits="userSpaceOnUse" x1="99.5" y1="74.9699" x2="99.5" y2="78.9699" gradientTransform="matrix(1 0 0 -1 0 200)">
		<stop  offset="0" style="stop-color:#8A8482"/>
		<stop  offset="0.5" style="stop-color:#FFFFFF"/>
		<stop  offset="1" style="stop-color:#857F7D"/>
	</linearGradient>
	<path class="st5" d="M182.8,125H16.2c-0.9,0-1.7-0.8-1.7-1.7v-0.6c0-0.9,0.8-1.7,1.7-1.7h166.6c0.9,0,1.7,0.8,1.7,1.7v0.6
		C184.5,124.3,183.7,125,182.8,125z"/>
	
		<linearGradient id="SVGID_4_" gradientUnits="userSpaceOnUse" x1="99.5" y1="66.5436" x2="99.5" y2="70.5436" gradientTransform="matrix(1 0 0 -1 0 200)">
		<stop  offset="0" style="stop-color:#8A8482"/>
		<stop  offset="0.5" style="stop-color:#FFFFFF"/>
		<stop  offset="1" style="stop-color:#857F7D"/>
	</linearGradient>
	<path class="st6" d="M182.8,133.5H16.2c-0.9,0-1.7-0.8-1.7-1.7v-0.6c0-0.9,0.8-1.7,1.7-1.7h166.6c0.9,0,1.7,0.8,1.7,1.7v0.6
		C184.5,132.7,183.7,133.5,182.8,133.5z"/>
	
		<linearGradient id="SVGID_5_" gradientUnits="userSpaceOnUse" x1="99.5" y1="58.1173" x2="99.5" y2="62.1173" gradientTransform="matrix(1 0 0 -1 0 200)">
		<stop  offset="0" style="stop-color:#8A8482"/>
		<stop  offset="0.5" style="stop-color:#FFFFFF"/>
		<stop  offset="1" style="stop-color:#857F7D"/>
	</linearGradient>
	<path class="st7" d="M182.8,141.9H16.2c-0.9,0-1.7-0.8-1.7-1.7v-0.6c0-0.9,0.8-1.7,1.7-1.7h166.6c0.9,0,1.7,0.8,1.7,1.7v0.6
		C184.5,141.1,183.7,141.9,182.8,141.9z"/>
	
		<linearGradient id="SVGID_6_" gradientUnits="userSpaceOnUse" x1="99.5" y1="49.691" x2="99.5" y2="53.691" gradientTransform="matrix(1 0 0 -1 0 200)">
		<stop  offset="0" style="stop-color:#8A8482"/>
		<stop  offset="0.5" style="stop-color:#FFFFFF"/>
		<stop  offset="1" style="stop-color:#857F7D"/>
	</linearGradient>
	<path class="st8" d="M182.8,150.3H16.2c-0.9,0-1.7-0.8-1.7-1.7V148c0-0.9,0.8-1.7,1.7-1.7h166.6c0.9,0,1.7,0.8,1.7,1.7v0.6
		C184.5,149.5,183.7,150.3,182.8,150.3z"/>
	
		<linearGradient id="SVGID_7_" gradientUnits="userSpaceOnUse" x1="99.5" y1="41.2647" x2="99.5" y2="45.2647" gradientTransform="matrix(1 0 0 -1 0 200)">
		<stop  offset="0" style="stop-color:#8A8482"/>
		<stop  offset="0.5" style="stop-color:#FFFFFF"/>
		<stop  offset="1" style="stop-color:#857F7D"/>
	</linearGradient>
	<path class="st9" d="M182.8,158.7H16.2c-0.9,0-1.7-0.8-1.7-1.7v-0.6c0-0.9,0.8-1.7,1.7-1.7h166.6c0.9,0,1.7,0.8,1.7,1.7v0.6
		C184.5,158,183.7,158.7,182.8,158.7z"/>
	
		<linearGradient id="SVGID_8_" gradientUnits="userSpaceOnUse" x1="99.5" y1="32.8384" x2="99.5" y2="36.8384" gradientTransform="matrix(1 0 0 -1 0 200)">
		<stop  offset="0" style="stop-color:#8A8482"/>
		<stop  offset="0.5" style="stop-color:#FFFFFF"/>
		<stop  offset="1" style="stop-color:#857F7D"/>
	</linearGradient>
	<path class="st10" d="M182.8,167.2H16.2c-0.9,0-1.7-0.8-1.7-1.7v-0.6c0-0.9,0.8-1.7,1.7-1.7h166.6c0.9,0,1.7,0.8,1.7,1.7v0.6
		C184.5,166.4,183.7,167.2,182.8,167.2z"/>
	
		<linearGradient id="SVGID_9_" gradientUnits="userSpaceOnUse" x1="99.5" y1="24.4122" x2="99.5" y2="28.4122" gradientTransform="matrix(1 0 0 -1 0 200)">
		<stop  offset="0" style="stop-color:#8A8482"/>
		<stop  offset="0.5" style="stop-color:#FFFFFF"/>
		<stop  offset="1" style="stop-color:#857F7D"/>
	</linearGradient>
	<path class="st11" d="M182.8,175.6H16.2c-0.9,0-1.7-0.8-1.7-1.7v-0.6c0-0.9,0.8-1.7,1.7-1.7h166.6c0.9,0,1.7,0.8,1.7,1.7v0.6
		C184.5,174.8,183.7,175.6,182.8,175.6z"/>
	
		<linearGradient id="SVGID_10_" gradientUnits="userSpaceOnUse" x1="99.5" y1="15.9859" x2="99.5" y2="19.9859" gradientTransform="matrix(1 0 0 -1 0 200)">
		<stop  offset="0" style="stop-color:#8A8482"/>
		<stop  offset="0.5" style="stop-color:#FFFFFF"/>
		<stop  offset="1" style="stop-color:#857F7D"/>
	</linearGradient>
	<path class="st12" d="M182.8,184H16.2c-0.9,0-1.7-0.8-1.7-1.7v-0.6c0-0.9,0.8-1.7,1.7-1.7h166.6c0.9,0,1.7,0.8,1.7,1.7v0.6
		C184.5,183.2,183.7,184,182.8,184z"/>
	<g>
		<path d="M88.3,70.8h5.5l3.5,9.7c0.8,2.2,1.3,4.2,2.2,6.5h0.2c0.8-2.2,1.4-4.2,2.2-6.5l3.4-9.7h5.3l-8,20h-6.2L88.3,70.8z"/>
	</g>
	<g>
		
			<linearGradient id="SVGID_11_" gradientUnits="userSpaceOnUse" x1="84.5" y1="43.3" x2="114.5" y2="43.3" gradientTransform="matrix(1 0 0 -1 0 200)">
			<stop  offset="0" style="stop-color:#845723"/>
			<stop  offset="0.45" style="stop-color:#CB8F39"/>
			<stop  offset="0.75" style="stop-color:#FFD8B3"/>
			<stop  offset="1" style="stop-color:#A36D33"/>
		</linearGradient>
		<circle class="st13" cx="99.5" cy="156.7" r="15"/>
		
			<linearGradient id="SVGID_12_" gradientUnits="userSpaceOnUse" x1="87" y1="43.3" x2="112" y2="43.3" gradientTransform="matrix(1 0 0 -1 0 200)">
			<stop  offset="0" style="stop-color:#846E51"/>
			<stop  offset="0.45" style="stop-color:#BDA47F"/>
			<stop  offset="0.75" style="stop-color:#FCEAD2"/>
			<stop  offset="1" style="stop-color:#B79C77"/>
		</linearGradient>
		<circle class="st14" cx="99.5" cy="156.7" r="12.5"/>
		
			<linearGradient id="SVGID_13_" gradientUnits="userSpaceOnUse" x1="97" y1="43.2493" x2="102" y2="43.2493" gradientTransform="matrix(1 0 0 -1 0 200)">
			<stop  offset="0" style="stop-color:#876D50"/>
			<stop  offset="0.45" style="stop-color:#B79E7A"/>
			<stop  offset="0.75" style="stop-color:#FDEACF"/>
			<stop  offset="1" style="stop-color:#B19976"/>
		</linearGradient>
		<path class="st15" d="M99.6,169.2L99.6,169.2c-1.4,0-2.6,0-2.6-1.5V146c0-1.5,1.1-1.7,2.5-1.7l0,0c1.4,0,2.5,0.2,2.5,1.7v21.8
			C102,169.3,101,169.2,99.6,169.2z"/>
	</g>
</g>
</svg>
