<?xml version="1.0" encoding="utf-8"?>
<!-- Generator: Adobe Illustrator 23.0.3, SVG Export Plug-In . SVG Version: 6.00 Build 0)  -->
<svg version="1.1" id="图层_1" xmlns="http://www.w3.org/2000/svg" xmlns:xlink="http://www.w3.org/1999/xlink" x="0px" y="0px"
	 viewBox="0 0 200 200" style="enable-background:new 0 0 200 200;" xml:space="preserve">
<style type="text/css">
	.st0{fill:url(#SVGID_1_);}
	.st1{fill:url(#SVGID_2_);}
</style>
<g>
	
		<linearGradient id="SVGID_1_" gradientUnits="userSpaceOnUse" x1="100" y1="31.9" x2="100" y2="158.1" gradientTransform="matrix(1 0 0 -1 0 200)">
		<stop  offset="0.2" style="stop-color:#A1D6ED"/>
		<stop  offset="1" style="stop-color:#E9F5FA"/>
	</linearGradient>
	<path class="st0" d="M184.3,168.1H15.7c-2,0-3.7-1.6-3.7-3.7V41.9h176v122.5C188,166.4,186.4,168.1,184.3,168.1z"/>
	
		<linearGradient id="SVGID_2_" gradientUnits="userSpaceOnUse" x1="5" y1="100" x2="195" y2="100" gradientTransform="matrix(1 0 0 -1 0 200)">
		<stop  offset="0" style="stop-color:#A8AFB2"/>
		<stop  offset="3.000000e-02" style="stop-color:#CFDCE5"/>
		<stop  offset="0.966" style="stop-color:#CFDCE5"/>
		<stop  offset="0.9835" style="stop-color:#D9E3E8"/>
		<stop  offset="1" style="stop-color:#A4AEB2"/>
	</linearGradient>
	<path class="st1" d="M188,25v138.7c0,2.2-1.8,4-4,4H16c-2.2,0-4-1.8-4-4V25H5v146.1c0,2.2,1.8,3.9,3.9,3.9h182.2
		c2.2,0,3.9-1.8,3.9-3.9V25H188z"/>
</g>
</svg>
