<?xml version="1.0" encoding="utf-8"?>
<!-- Generator: Adobe Illustrator 23.0.3, SVG Export Plug-In . SVG Version: 6.00 Build 0)  -->
<svg version="1.1" id="图层_1" xmlns="http://www.w3.org/2000/svg" xmlns:xlink="http://www.w3.org/1999/xlink" x="0px" y="0px"
	 viewBox="0 0 566.9 566.9" style="enable-background:new 0 0 566.9 566.9;" xml:space="preserve">
<style type="text/css">
	.st0{fill:url(#SVGID_1_);}
	.st1{fill:url(#SVGID_2_);}
	.st2{fill:#F74343;}
	.st3{fill:#FF8533;}
	.st4{fill:#FFD766;}
	.st5{fill:#FFE98D;}
</style>
<g>
	
		<linearGradient id="SVGID_1_" gradientUnits="userSpaceOnUse" x1="0" y1="213.3546" x2="566.9291" y2="213.3546" gradientTransform="matrix(1 0 0 -1 0 496.8191)">
		<stop  offset="0.1" style="stop-color:#B7B7B7"/>
		<stop  offset="0.3" style="stop-color:#C0C0C0"/>
		<stop  offset="0.7" style="stop-color:#E9E9E9"/>
		<stop  offset="0.9" style="stop-color:#B7B7B7"/>
	</linearGradient>
	<path class="st0" d="M2.7,411H0V155.9h566.9V411"/>
	<g>
		
			<linearGradient id="SVGID_2_" gradientUnits="userSpaceOnUse" x1="19.193" y1="213.8333" x2="547.7361" y2="213.8333" gradientTransform="matrix(1 0 0 -1 0 496.8191)">
			<stop  offset="0" style="stop-color:#7E7E7E"/>
			<stop  offset="0.2421" style="stop-color:#A9A9A9"/>
			<stop  offset="1" style="stop-color:#777777"/>
		</linearGradient>
		<path class="st1" d="M22.1,390.2h-2.9V175.8h525.6v214.5h2.9"/>
		<g>
			<g>
				<path class="st2" d="M121.2,248.5c5.8-7.7-1-13.4-9.7-18.2c-10.7-5.7-15.5-8.6-14.6-18.2c-1,6.7,11.7,11.5,18.5,14.4
					c-3.9-3.8-3.9-9.6-1-13.4c1,6.7,10.7,9.6,13.6,15.3C130.9,235.1,128,243.7,121.2,248.5"/>
			</g>
			<g>
				<path class="st2" d="M170.8,277.2c0-4.8-6.8-7.7-9.7-12.4s-1.9-9.6,1-14.4C161,260,177.6,266.7,170.8,277.2"/>
			</g>
			<g>
				<path class="st2" d="M315.5,229.4c5.8-27.8,55.4-15.3,59.3-42.1c-7.8,7.7-20.4,12.4-33,13.4c7.8-1,13.6-6.7,13.6-12.4
					c-6.8,7.7-22.3,8.6-31.1,15.3C314.6,210.2,311.6,220.8,315.5,229.4"/>
			</g>
			<g>
				<path class="st2" d="M471,250.4c-2.9-8.6,19.4-15.3,18.5-24.9c2.9,4.8,2.9,10.5-1.9,14.4C483.6,243.7,472.9,244.7,471,250.4"/>
			</g>
			<g>
				<path class="st2" d="M440.9,236.1c-3.9-5.7-16.5-4.8-22.3-6.7c-7.8-2.9-10.7-6.7-10.7-12.4C409.8,233.2,442.8,218.8,440.9,236.1
					"/>
			</g>
			<g>
				<path class="st2" d="M516.6,261c12.6,0,14.6-7.7,13.6-13.4C537,251.4,534.1,269.6,516.6,261"/>
			</g>
			<g>
				<path class="st2" d="M544.8,323.2c-4.9-4.8-11.6-18.2-12.6-23.9c-1.9-12.4,9.7-14.4,2.9-23.9c-4.9-7.7-31.1,5.7-34-5.7
					c-7.8,4.8-1.9,8.6,1.9,9.6c5.8,1.9,12.6-4.8,15.5,1c3.9,6.7-9.7,12.4-17.5,11.5c-30.1-1.9-19.4-34.5,4.9-37.3
					c-13.6-2.9-28.2,1.9-36.9,9.6c-4.9,4.8-9.7,23.9-18.5,23.9c-15.5,0,1-19.1,1-23.9c0-9.6-10.7-18.2-25.3-20.1
					c7.8,4.8,10.7,13.4,6.8,20.1c-7.8-11.5-17.5-24.9-36.9-28.7c2.9,12.4,16.5,20.1,12.6,33.5c-3.9,12.4-13.6,19.1-6.8,32.6
					c1.9,2.9,18.5,32.6-1.9,24.9c-10.7-3.8-4.9-16.3-15.5-21.1c1.9,8.6-1,27.8-17.5,28.7c-19.4,1.9-8.7-13.4-3.9-18.2
					c7.8-8.6,11.7-18.2,4.9-27.8c-5.8-8.6-23.3-15.3-19.4-25.9c4.9,7.7,15.5,13.4,28.2,15.3c-24.3-12.4-28.2-37.3-8.7-53.6
					c-15.5,4.8-26.2,15.3-27.2,26.8c-3.9-14.4-1.9-32.6,18.5-39.3c-18.5,5.7-36.9,17.2-41.8,31.6c-3.9,14.4,14.6,26.8,18.5,40.2
					c4.9,15.3,0,30.6-12.6,43.1c-6.8,6.7-26.2,23-41.8,14.4c-12.6-6.7,4.9-21.1,11.7-26.8c8.7-7.7,19.4-17.2,16.5-27.8
					c-2.9-9.6-18.5-13.4-21.4-23.9c-2.9-7.7,1.9-16.3,11.7-20.1c-17.5-2.9-35,6.7-34,20.1c-20.4-7.7,17.5-26.8,5.8-37.3
					c-10.7-10.5-50.5,0-51.5-16.3c-2.9,6.7-6.8,17.2,5.8,21.1c7.8,1.9,23.3-4.8,29.1,1.9c8.7,9.6-17.5,3.8-21.4,3.8
					c-10.7,0-21.4,2.9-26.2,10.5c20.4-1.9,48.6,1,38.9,20.1c-3.9,6.7-9.7,11.5-10.7,19.1c-1,6.7,1,13.4-1.9,20.1
					c-1.9,4.8-8.7,11.5-15.5,5.7c-4.9-3.8,4.9-17.2,4.9-21.1c2.9-12.4-3.9-28.7-25.3-29.7c22.3,7.7,4.9,27.8-4.9,37.3
					c-6.8,5.7-14.6,12.4-15.5,20.1c-1,7.7,4.9,15.3,1,23c-7.8,17.2-43.7,12.4-35-6.7c5.8-13.4,29.1-28.7,11.7-43.1
					c-1,8.6-7.8,21.1-21.4,23c-13.6,1.9-18.5-7.7-11.7-14.4c6.8-6.7,19.4-7.7,22.3-16.3c2.9-8.6-6.8-17.2-20.4-17.2
					c15.5,10.5,0,30.6-16.5,18.2c-14.6-11.5,1-28.7-4.9-42.1c1,11.5-25.3,13.4-23.3,24.9c-7.8-2.9-7.8-12.4-1-16.3
					c-7.8,3.8-18.5,8.6-18.5,16.3c0,7.7,6.8,7.7,13.6,11.5c7.8,3.8,8.7,8.6-1.9,8.6c-10.7,1-18.5-1.9-29.1,1.9
					c29.1-1.9,36.9,21.1,22.3,32.6c-13.6,10.5-41.8,1.9-45.7,23v46h524.7c0-13.4,0-27.8,1-41.2L544.8,323.2L544.8,323.2z"/>
			</g>
			<path class="st3" d="M544.8,345.2c-2.9-1-3.8-2.9-5.8-3.8c-4.9-2.9-10.7-5.7-14.6-9.6c-4.9-2.9-9.7-6.7-13.6-10.5
				c-3.9-3.8-7.8-9.6-2.9-14.4c1-1,0-1.9-1.9-1c-13.6,2.9-29.1-2.9-35-11.5c-1-1-1.9,0-1.9,0c-3.9,6.7-14.6,10.5-24.3,8.6
				c-9.7-1-17.5-7.7-18.5-14.4c0-3.8,1-8.6,4.9-11.5c1-1-1-1.9-1.9-1c-7.8,4.8-11.7,11.5-12.6,18.2c0,3.8,0,6.7,1.9,10.5
				c1.9,3.8,4.9,7.7,6.8,11.5c1.9,2.9,2.9,6.7,2.9,10.5c0,2.9-1,6.7-3.9,9.6c-1.9,2.9-5.8,4.8-9.7,6.7c-4.9,1.9-10.7,2.9-16.5,2.9
				c-6.8,1-12.6,1.9-18.5,3.8c-4.9,1.9-9.7,3.8-13.6,6.7h-1c-4.9,2.9-13.6,4.8-19.4,2.9c-2.9-1-4.9-2.9-6.8-4.8
				c-1.9-1.9-1-4.8,0-7.7c1-2.9,2.9-5.7,4.9-7.7c1.9-2.9,2.9-5.7,4.9-8.6c2.9-5.7,4.9-11.5,5.8-17.2c1-5.7,1.9-11.5-2.9-16.3
				c-1-1-2.9,0-1.9,1c6.8,14.4-3.9,27.8-14.6,39.3c-4.9,5.7-9.7,11.5-17.5,15.3c-6.8,3.8-15.5,5.7-25.3,5.7
				c-15.5,0-36.9-7.7-36.9-20.1c0-6.7,5.8-13.4,11.7-18.2c4.9-4.8,10.7-10.5,11.7-17.2c1-5.7-1.9-10.5-6.8-15.3
				c-3.9-4.8-9.7-8.6-12.6-13.4c-1-1-1-2.9-1-3.8c0-1-1.9-1-2.9,0c-1.9,3.8-1,7.7,1,11.5c1,3.8,1.9,6.7,2.9,10.5
				c1,6.7-1,13.4-4.9,20.1c-1.9,2.9-3.9,6.7-6.8,9.6c-2.9,2.9-5.8,5.7-9.7,7.7c-3.9,1.9-8.7,2.9-12.6,1.9c-4.9-1-8.7-2.9-11.7-4.8
				c-7.8-5.7-8.7-15.3-8.7-23c0-1-1-1-1.9-1c-10.7,6.7-8.7,17.2-5.8,25.9c3.9,8.6,10.7,20.1,1.9,28.7c-3.9,3.8-9.7,5.7-15.5,7.7
				c-5.8,1-11.7,1-17.5,1c-11.7-1-22.3-4.8-30.1-10.5c-8.7-7.7-12.6-19.1-3.9-26.8c1-1-1-1.9-1.9-1c-3.9,1.9-8.7,1-12.6,0
				c-3.9-1.9-6.8-4.8-8.7-7.7c-1.9-2.9-3.9-6.7-5.8-10.5c-1.9-3.8-2.9-7.7-4.9-11.5c-1-3.8-2.9-8.6-3.9-13.4c0-1-1-1-1.9-1
				c0,0-1,0-1,1c-3.9,7.7-1.9,15.3-2.9,23c0,6.7-2.9,13.4-7.8,20.1c-3.9,6.7-9.7,12.4-16.5,17.2c-6.8,5.7-15.5,9.6-23.3,14.4
				c-7.8,4.8-15.5,9.6-21.4,16.3l0,0v14.4h525.6L544.8,345.2L544.8,345.2z M236.8,330.9L236.8,330.9
				C235.9,330.9,235.9,330.9,236.8,330.9C235.9,330.9,235.9,330.9,236.8,330.9L236.8,330.9z"/>
			<path class="st4" d="M544.8,390.2c-4.9-4.8-7.7-10.5-10.6-16.3c-3.9-6.7-1.9-13.4-3.9-20.1c-1-2.9-1.9-5.7-3.9-8.6
				s-4.9-4.8-7.8-6.7c-6.8-3.8-15.5-6.7-22.3-10.5c-7.8-3.8-15.5-8.6-17.5-15.3c0-1-1.9-1-1.9,0c-2.9,1.9-1.9,5.7,0,7.7
				c1.9,2.9,5.8,4.8,7.8,8.6c1,1.9,1,2.9,0,4.8c0,1-1,2.9-2.9,3.8c-1.9,1-4.9-1-6.8-1c-1.9-1-3.9-1.9-5.8-3.8
				c-3.9-2.9-8.7-5.7-12.6-8.6c-1-1-2.9,0-1.9,1c0,7.7-2.9,15.3-10.7,20.1c-8.7,5.7-22.3,7.7-34,9.6c-5.8,1-12.6,1.9-18.5,3.8
				c-5.8,1.9-10.7,4.8-16.5,6.7c-5.8,2.9-10.7,4.8-17.5,5.7c-5.8,1.9-12.6,1.9-18.5,2.9c-6.8,0-14.6,0-20.4-1.9
				c-5.8-1.9-10.7-4.8-12.6-9.6l0,0c0,0,0-1-1-1c0,0,0,0-1,0h-1c-1,0-1,0-1,0s0,0-1,1l0,0c-6.8,6.7-21.4,7.7-32.1,5.7
				c-5.8-1-11.7-2.9-16.5-5.7c-4.9-2.9-7.8-6.7-8.7-11.5c-1-4.8,0-10.5,2.9-14.4c1-1-1-1.9-1.9-1c-2.9,1.9-4.9,3.8-7.8,5.7
				c-2.9,1.9-5.8,3.8-8.7,4.8c-2.9,1-6.8,1-9.7-1c-2.9-1.9-4.9-3.8-5.8-6.7c-1-1-1.9,0-2.9,0c0,4.8,2.9,9.6,4.9,13.4
				c1.9,4.8,1,9.6-2.9,13.4c-6.8,7.7-21.4,11.5-34,12.4s-25.3-1-36.9-4.8c-10.7-1.9-20.4-8.6-27.2-16.3
				c-7.8-8.6-11.7-18.2-12.6-28.7c0,0,0,0,0-1l0,0c0-1-2.9-1-2.9,0c0,5.7-3.9,10.5-8.7,15.3c-4.9,4.8-10.7,9.6-16.5,13.4
				c-10.7,7.7-23.3,16.3-28.2,26.8c-1,1.9-1,4.8-1,7.7H544.8z"/>
			<path class="st5" d="M522.5,390.2c0,0,0-1-1-1c-2.9-3.8-3.9-7.7-7.8-11.5c-3.9-3.8-8.7-7.7-13.6-10.5c-5.8-2.9-11.7-5.7-16.5-8.6
				c-5.8-3.8-9.7-7.7-11.7-12.4c0,0,0-1-1-1c-1-1-1.9-1-1.9,0c-1.9,5.7-5.8,10.5-11.7,14.4c-6.8,3.8-14.6,5.7-22.3,8.6
				c-3.9,1-7.8,1.9-11.7,3.8c-3.9,1.9-6.8,2.9-9.7,5.7c-5.8,3.8-10.7,9.6-16.5,13.4L522.5,390.2L522.5,390.2z"/>
			<path class="st5" d="M160.1,390.2c-2.9,0-5.8-1-8.7-1c-11.7-1-22.3-3.8-31.1-8.6c-9.7-4.8-16.5-10.5-21.4-18.2c-1-1-2.9-1-2.9,0
				c-1,2.9-2.9,5.7-5.8,8.6c-2.9,2.9-6.8,4.8-9.7,6.7c-4.9,3.8-9.7,7.7-12.6,12.4H160.1z"/>
			<path class="st5" d="M332,390.2c-6.8-1.9-12.6-3.8-20.4-4.8c-11.7-1.9-23.3,1-35,1c-10.7,0-22.3,0-32.1-3.8
				c-8.7-3.8-16.5-9.6-17.5-17.2c0-1-1.9-1-2.9,0c-2.9,6.7-7.8,14.4-15.5,19.1c-5.8,2.9-11.7,4.8-19.4,5.7
				C189.2,390.2,332,390.2,332,390.2z"/>
			<path class="st3" d="M124.1,231.3c-1-2.9-1.9-4.8-3.9-6.7c-1-1-1.9-1.9-2.9-3.8l0,0l0,0l0,0l0,0v1c0,2.9,2.9,4.8,3.9,7.7
				c-1.9,0-3.9-1-5.8-1l0,0l0,0c-1-1-1.9-1-2.9-1.9l0,0c1,2.9,3.9,3.8,6.8,5.7c2.9,1.9,4.9,3.8,6.8,6.7l0,0c0,0,0-1,1-1
				c0-1,0-1.9,0-1.9C124.1,233.2,124.1,232.2,124.1,231.3z"/>
			<path class="st3" d="M260.1,226.5C260.1,226.5,259.2,226.5,260.1,226.5c-3.9-3.8-11.7-3.8-17.5-3.8s-12.6,1-16.5-1.9l0,0l0,0
				c-1-1-1.9-1-1.9-1.9l0,0c0,0,0,0-1,0c-1.9,4.8,4.9,8.6,11.7,8.6c3.9,0,8.7-1,12.6-1c1.9,0,4.9-1,6.8,0
				C255.3,224.6,257.2,225.5,260.1,226.5C259.2,226.5,259.2,226.5,260.1,226.5C259.2,227.5,260.1,226.5,260.1,226.5z"/>
			<path class="st3" d="M347.6,274.4c-1-2.9-3.9-4.8-5.8-7.7c-1.9-2.9-3.9-4.8-4.9-7.7c-2.9-5.7-3.9-11.5-3.9-17.2
				c0-2.9,0-6.7,2.9-9.6l0,0l0,0c0,0,0-1,0,0l0,0l0,0c-2.9,1.9-4.9,3.8-5.8,6.7c-1.9,2.9-1.9,6.7-2.9,9.6c0,3.8,0,6.7,1.9,10.5
				c1.9,2.9,3.9,5.7,6.8,8.6C339.8,269.6,343.7,272.5,347.6,274.4C347.6,274.4,348.6,274.4,347.6,274.4z"/>
			<path class="st4" d="M119.3,225.5L119.3,225.5c0,1,1,1,1,1.9c0,1,1,1.9,0,1.9h-1c-1,0-1,0-1.9,0s-1.9-1-2.9-1l0,0l0,0l0,0l0,0
				c1,1,1.9,1.9,2.9,1.9c1,1,2.9,1,3.9,2.9l0,0C122.2,231.3,122.2,228.4,119.3,225.5z"/>
			<path class="st4" d="M353.4,202.6c-10.7,0-22.3,1.9-30.1,7.7c-1.9,1.9-2.9,2.9-3.9,4.8l0,0l0,0l0,0l0,0
				c4.9-6.7,14.6-9.6,24.3-11.5C346.6,203.5,350.5,202.6,353.4,202.6L353.4,202.6L353.4,202.6L353.4,202.6L353.4,202.6
				C354.4,202.6,354.4,202.6,353.4,202.6z"/>
		</g>
	</g>
</g>
</svg>
