<?xml version="1.0" encoding="utf-8"?>
<!-- Generator: Adobe Illustrator 23.0.3, SVG Export Plug-In . SVG Version: 6.00 Build 0)  -->
<svg version="1.1" id="图层_1" xmlns="http://www.w3.org/2000/svg" xmlns:xlink="http://www.w3.org/1999/xlink" x="0px" y="0px"
	 viewBox="0 0 566.9 566.9" style="enable-background:new 0 0 566.9 566.9;" xml:space="preserve">
<style type="text/css">
	.st0{fill:url(#SVGID_1_);}
	.st1{fill:url(#SVGID_2_);}
	.st2{fill:url(#SVGID_3_);}
	.st3{fill:url(#SVGID_4_);}
	.st4{fill:url(#SVGID_5_);}
	.st5{fill:url(#SVGID_6_);}
	.st6{fill:url(#SVGID_7_);}
</style>
<g>
	
		<linearGradient id="SVGID_1_" gradientUnits="userSpaceOnUse" x1="709.2482" y1="396.4276" x2="709.2482" y2="578.0325" gradientTransform="matrix(0 1 1 0 -203.7655 -295.9123)">
		<stop  offset="0.1" style="stop-color:#666666"/>
		<stop  offset="0.5" style="stop-color:#EFEFEF"/>
		<stop  offset="0.9" style="stop-color:#666666"/>
	</linearGradient>
	<polygon class="st0" points="267.7,444.7 192.7,382 374.3,382 299.4,444.7 	"/>
	
		<linearGradient id="SVGID_2_" gradientUnits="userSpaceOnUse" x1="209.3795" y1="1025.696" x2="358.3101" y2="1025.696" gradientTransform="matrix(1 0 0 1 0 -641.89)">
		<stop  offset="3.178914e-07" style="stop-color:#5A5A5A"/>
		<stop  offset="1" style="stop-color:#5D5E5E"/>
	</linearGradient>
	<rect x="209.4" y="380.7" class="st1" width="148.9" height="6.2"/>
	
		<linearGradient id="SVGID_3_" gradientUnits="userSpaceOnUse" x1="529.0066" y1="240.8016" x2="529.0066" y2="733.4413" gradientTransform="matrix(0 1 1 0 -203.7655 -295.9123)">
		<stop  offset="0" style="stop-color:#666666"/>
		<stop  offset="0.5" style="stop-color:#EFEFEF"/>
		<stop  offset="1" style="stop-color:#666666"/>
	</linearGradient>
	<polygon class="st2" points="37,380.9 37,85.3 529.7,85.3 529.7,380.9 	"/>
	
		<linearGradient id="SVGID_4_" gradientUnits="userSpaceOnUse" x1="37.2533" y1="1019.6972" x2="529.8931" y2="1019.6972" gradientTransform="matrix(1 0 0 1 0 -641.89)">
		<stop  offset="3.178914e-07" style="stop-color:#3E3F3F"/>
		<stop  offset="0.5" style="stop-color:#DFDFDF"/>
		<stop  offset="1" style="stop-color:#3E3F3F"/>
	</linearGradient>
	<rect x="37.3" y="374.7" class="st3" width="492.6" height="6.2"/>
	
		<linearGradient id="SVGID_5_" gradientUnits="userSpaceOnUse" x1="267.4138" y1="1105.0428" x2="299.5371" y2="1105.0428" gradientTransform="matrix(1 0 0 1 0 -641.89)">
		<stop  offset="0" style="stop-color:#ABABAB"/>
		<stop  offset="0.5" style="stop-color:#EFEFEF"/>
		<stop  offset="1" style="stop-color:#A0A0A0"/>
	</linearGradient>
	<rect x="267.4" y="444.7" class="st4" width="32.2" height="36.9"/>
	
		<linearGradient id="SVGID_6_" gradientUnits="userSpaceOnUse" x1="688.9554" y1="324.4819" x2="676.6394" y2="324.4819" gradientTransform="matrix(0 1 1 0 -203.7655 -295.9123)">
		<stop  offset="0" style="stop-color:#666666"/>
		<stop  offset="0.5857" style="stop-color:#D7D7D7"/>
		<stop  offset="0.6496" style="stop-color:#CECECE"/>
		<stop  offset="0.754" style="stop-color:#B6B6B6"/>
		<stop  offset="0.8849" style="stop-color:#8E8E8E"/>
		<stop  offset="1" style="stop-color:#666666"/>
	</linearGradient>
	<path class="st5" d="M28.3,388.9v-4.1c0-2.3,2.7-4.1,5.9-4.1h172.9c3.3,0,5.9,1.8,5.9,4.1v4.1c0,2.3-2.7,4.1-5.9,4.1H34.3
		C31,393,28.3,391.2,28.3,388.9z"/>
	
		<linearGradient id="SVGID_7_" gradientUnits="userSpaceOnUse" x1="688.9554" y1="649.9782" x2="676.6394" y2="649.9782" gradientTransform="matrix(0 1 1 0 -203.7655 -295.9123)">
		<stop  offset="0" style="stop-color:#666666"/>
		<stop  offset="0.5857" style="stop-color:#D7D7D7"/>
		<stop  offset="0.6496" style="stop-color:#CECECE"/>
		<stop  offset="0.754" style="stop-color:#B6B6B6"/>
		<stop  offset="0.8849" style="stop-color:#8E8E8E"/>
		<stop  offset="1" style="stop-color:#666666"/>
	</linearGradient>
	<path class="st6" d="M353.8,388.9v-4.1c0-2.3,2.7-4.1,5.9-4.1h172.9c3.3,0,5.9,1.8,5.9,4.1v4.1c0,2.3-2.7,4.1-5.9,4.1H359.8
		C356.5,393,353.8,391.2,353.8,388.9z"/>
</g>
</svg>
