<?xml version="1.0" encoding="utf-8"?>
<!-- Generator: Adobe Illustrator 23.0.3, SVG Export Plug-In . SVG Version: 6.00 Build 0)  -->
<svg version="1.1" id="图层_1" xmlns="http://www.w3.org/2000/svg" xmlns:xlink="http://www.w3.org/1999/xlink" x="0px" y="0px"
	 viewBox="0 0 566.9 566.9" style="enable-background:new 0 0 566.9 566.9;" xml:space="preserve">
<style type="text/css">
	.st0{fill:url(#SVGID_1_);}
	.st1{fill:url(#SVGID_2_);}
	.st2{fill:url(#SVGID_3_);}
	.st3{fill:url(#SVGID_4_);}
	.st4{fill:url(#SVGID_5_);}
	.st5{fill:url(#SVGID_6_);}
	.st6{fill:url(#SVGID_7_);}
	.st7{fill:url(#SVGID_8_);}
	.st8{fill:url(#SVGID_9_);}
	.st9{fill:url(#SVGID_10_);}
	.st10{fill:url(#SVGID_11_);}
	.st11{fill:url(#SVGID_12_);}
	.st12{fill:url(#SVGID_13_);}
	.st13{fill:url(#SVGID_14_);}
	.st14{fill:url(#SVGID_15_);}
	.st15{fill:url(#SVGID_16_);}
	.st16{fill:url(#SVGID_17_);}
	.st17{fill:url(#SVGID_18_);}
	.st18{fill:url(#SVGID_19_);}
	.st19{fill:url(#SVGID_20_);}
	.st20{fill:url(#SVGID_21_);}
	.st21{fill:url(#SVGID_22_);}
	.st22{fill:url(#SVGID_23_);}
</style>
<g>
	
		<linearGradient id="SVGID_1_" gradientUnits="userSpaceOnUse" x1="168.5168" y1="-198.9162" x2="168.5168" y2="8.4902" gradientTransform="matrix(4.489653e-11 -1 1 4.489653e-11 372.9811 633.9257)">
		<stop  offset="0" style="stop-color:#4E4E4E"/>
		<stop  offset="0.1" style="stop-color:#707070"/>
		<stop  offset="0.5" style="stop-color:#B1B1B1"/>
		<stop  offset="1" style="stop-color:#666666"/>
	</linearGradient>
	<rect x="174.1" y="413.1" class="st0" width="207.4" height="104.6"/>
	
		<linearGradient id="SVGID_2_" gradientUnits="userSpaceOnUse" x1="466.1621" y1="-59.5987" x2="466.1621" y2="71.4656" gradientTransform="matrix(4.489653e-11 -1 1 4.489653e-11 372.9811 633.9257)">
		<stop  offset="0" style="stop-color:#4E4E4E"/>
		<stop  offset="0.1" style="stop-color:#707070"/>
		<stop  offset="0.5" style="stop-color:#D7D7D7"/>
		<stop  offset="1" style="stop-color:#666666"/>
	</linearGradient>
	<rect x="313.4" y="46" class="st1" width="131.1" height="243.6"/>
	
		<linearGradient id="SVGID_3_" gradientUnits="userSpaceOnUse" x1="596.6688" y1="-69.6461" x2="596.6688" y2="83.3969" gradientTransform="matrix(4.489653e-11 -1 1 4.489653e-11 372.9811 633.9257)">
		<stop  offset="0" style="stop-color:#666666"/>
		<stop  offset="0.5" style="stop-color:#D7D7D7"/>
		<stop  offset="1" style="stop-color:#666666"/>
	</linearGradient>
	<path class="st2" d="M305.6,28.3h148.6c1.3,0,2.2,1.2,2.2,2.3v13.3c0,1.4-1.2,2.3-2.2,2.3H305.6c-1.3,0-2.2-1.2-2.2-2.3V30.6
		C303.3,29.2,304.2,28.3,305.6,28.3z"/>
	
		<linearGradient id="SVGID_4_" gradientUnits="userSpaceOnUse" x1="792.7824" y1="391.8984" x2="923.8467" y2="391.8984" gradientTransform="matrix(-1 0 0 1 1237.2291 -343.6609)">
		<stop  offset="3.178914e-07" style="stop-color:#3E3F3F"/>
		<stop  offset="0.5" style="stop-color:#D1D1D1"/>
		<stop  offset="1" style="stop-color:#3E3F3F"/>
	</linearGradient>
	<rect x="313.4" y="46" class="st3" width="131.1" height="4.5"/>
	<g>
		
			<linearGradient id="SVGID_5_" gradientUnits="userSpaceOnUse" x1="126.8392" y1="1310.4451" x2="126.8392" y2="1599.5084" gradientTransform="matrix(4.489653e-11 -1 -1 -4.489653e-11 1732.89 415.9291)">
			<stop  offset="5.618340e-03" style="stop-color:#7D7D7D"/>
			<stop  offset="0.3977" style="stop-color:#BEBEBE"/>
			<stop  offset="1" style="stop-color:#AEAEAE"/>
		</linearGradient>
		<ellipse class="st4" cx="277.8" cy="289.1" rx="167.2" ry="169.3"/>
		
			<linearGradient id="SVGID_6_" gradientUnits="userSpaceOnUse" x1="126.8392" y1="1582.8062" x2="126.8392" y2="1327.0879" gradientTransform="matrix(4.489653e-11 -1 -1 -4.489653e-11 1732.89 415.9291)">
			<stop  offset="5.618335e-03" style="stop-color:#A1A1A1"/>
			<stop  offset="0.6" style="stop-color:#AEAEAE"/>
			<stop  offset="1" style="stop-color:#C2C2C2"/>
		</linearGradient>
		<ellipse class="st5" cx="277.8" cy="289.1" rx="147.9" ry="149.9"/>
		
			<linearGradient id="SVGID_7_" gradientUnits="userSpaceOnUse" x1="126.8392" y1="1334.4595" x2="126.8392" y2="1575.4886" gradientTransform="matrix(4.489653e-11 -1 -1 -4.489653e-11 1732.89 415.9291)">
			<stop  offset="5.617890e-03" style="stop-color:#979797"/>
			<stop  offset="0.5" style="stop-color:#A0A0A0"/>
			<stop  offset="1" style="stop-color:#DFDFDF"/>
		</linearGradient>
		<ellipse class="st6" cx="277.8" cy="289.1" rx="139.4" ry="141.2"/>
		
			<linearGradient id="SVGID_8_" gradientUnits="userSpaceOnUse" x1="126.8392" y1="1553.1992" x2="126.8392" y2="1356.7247" gradientTransform="matrix(4.489653e-11 -1 -1 -4.489653e-11 1732.89 415.9291)">
			<stop  offset="5.618335e-03" style="stop-color:#A1A1A1"/>
			<stop  offset="0.6" style="stop-color:#AEAEAE"/>
			<stop  offset="1" style="stop-color:#C2C2C2"/>
		</linearGradient>
		<ellipse class="st7" cx="277.8" cy="289.1" rx="113.8" ry="115"/>
		
			<linearGradient id="SVGID_9_" gradientUnits="userSpaceOnUse" x1="126.8392" y1="1558.556" x2="126.8392" y2="1351.3801" gradientTransform="matrix(4.489653e-11 -1 -1 -4.489653e-11 1732.89 415.9291)">
			<stop  offset="0" style="stop-color:#E2E2E2"/>
			<stop  offset="0.2" style="stop-color:#B1B2B2"/>
			<stop  offset="0.9529" style="stop-color:#545555"/>
		</linearGradient>
		<ellipse class="st8" cx="277.8" cy="289.1" rx="103.4" ry="104.8"/>
		
			<radialGradient id="SVGID_10_" cx="183.5096" cy="1462.3048" r="49.4484" gradientTransform="matrix(6.678566e-11 -1.5001 -1.4819 -6.709234e-11 2444.7529 564.374)" gradientUnits="userSpaceOnUse">
			<stop  offset="0.5" style="stop-color:#EFEFF0"/>
			<stop  offset="1" style="stop-color:#9C9D9D"/>
		</radialGradient>
		<ellipse class="st9" cx="277.8" cy="289.1" rx="73.2" ry="74.3"/>
		<g>
			
				<linearGradient id="SVGID_11_" gradientUnits="userSpaceOnUse" x1="680.0154" y1="120.7986" x2="715.8839" y2="120.7986" gradientTransform="matrix(-0.7071 -0.7071 0.7071 -0.7071 712.6537 849.4853)">
				<stop  offset="0" style="stop-color:#D7D7D7"/>
				<stop  offset="0.3" style="stop-color:#707070"/>
				<stop  offset="0.6" style="stop-color:#2B2C2B"/>
			</linearGradient>
			<path class="st10" d="M313.5,236.6c4.3,0,24.5,23.6,22,27.2c-22.4,31.7-57.1,25.4-57.1,25.4C320,257.7,310.5,236.6,313.5,236.6z"
				/>
			
				<linearGradient id="SVGID_12_" gradientUnits="userSpaceOnUse" x1="103.1358" y1="-180.4289" x2="138.9173" y2="-180.4289" gradientTransform="matrix(4.489653e-11 -1 1 4.489653e-11 490.0391 415.9291)">
				<stop  offset="0" style="stop-color:#D7D7D7"/>
				<stop  offset="0.3" style="stop-color:#707070"/>
				<stop  offset="0.6" style="stop-color:#2B2C2B"/>
			</linearGradient>
			<path class="st11" d="M339.8,277.1c3.1,3,0.7,33.9-3.6,34.7c-38.1,6.8-58.1-22.1-58.1-22.1C329.6,296.8,338,275.3,339.8,277.1z"
				/>
			
				<linearGradient id="SVGID_13_" gradientUnits="userSpaceOnUse" x1="874.7792" y1="742.1002" x2="910.7053" y2="742.1002" gradientTransform="matrix(-1 0 0 -1 1176.6304 998.6527)">
				<stop  offset="0" style="stop-color:#D7D7D7"/>
				<stop  offset="0.3" style="stop-color:#707070"/>
				<stop  offset="0.6" style="stop-color:#2B2C2B"/>
			</linearGradient>
			<path class="st12" d="M265.9,226.4c3-3,34.1-0.7,34.8,3.6c6.7,38.1-22.2,58-22.2,58C285.8,236.3,264.1,228.2,265.9,226.4z"/>
			
				<linearGradient id="SVGID_14_" gradientUnits="userSpaceOnUse" x1="49.5183" y1="1487.8064" x2="85.2997" y2="1487.8064" gradientTransform="matrix(2.215213e-03 1 -1 2.215213e-03 1733.8318 212.5889)">
				<stop  offset="0" style="stop-color:#D7D7D7"/>
				<stop  offset="0.3" style="stop-color:#707070"/>
				<stop  offset="0.6" style="stop-color:#2B2C2B"/>
			</linearGradient>
			<path class="st13" d="M215.9,301.1c-3-3-0.7-33.9,3.6-34.7c38.4-6.8,58.4,22.1,58.4,22.1C225.9,281.4,217.8,303.1,215.9,301.1z"
				/>
			
				<linearGradient id="SVGID_15_" gradientUnits="userSpaceOnUse" x1="623.6096" y1="1233.1858" x2="659.5118" y2="1233.1858" gradientTransform="matrix(-0.7055 0.7087 -0.7087 -0.7055 1585.6969 676.8594)">
				<stop  offset="0" style="stop-color:#D7D7D7"/>
				<stop  offset="0.3" style="stop-color:#707070"/>
				<stop  offset="0.6" style="stop-color:#2B2C2B"/>
			</linearGradient>
			<path class="st14" d="M225,252.9c0-4.3,23.6-24.5,27.2-22c31.8,22,25.6,56.6,25.6,56.6C246.4,246.1,225.3,255.6,225,252.9z"/>
			
				<linearGradient id="SVGID_16_" gradientUnits="userSpaceOnUse" x1="-537.7164" y1="1262.6921" x2="-501.869" y2="1262.6921" gradientTransform="matrix(0.7087 0.7055 -0.7055 0.7087 1510.2203 -220.5189)">
				<stop  offset="0" style="stop-color:#D7D7D7"/>
				<stop  offset="0.3" style="stop-color:#707070"/>
				<stop  offset="0.6" style="stop-color:#2B2C2B"/>
			</linearGradient>
			<path class="st15" d="M242.3,341.7c-4.3,0-24.5-23.6-22-27.2c22.2-31.7,56.8-25.4,56.8-25.4C235.3,320.6,245,341.7,242.3,341.7z"
				/>
			
				<linearGradient id="SVGID_17_" gradientUnits="userSpaceOnUse" x1="-724.8619" y1="594.7846" x2="-688.9534" y2="594.7846" gradientTransform="matrix(0.9991 -4.324653e-02 4.324653e-02 0.9991 953.256 -302.8736)">
				<stop  offset="0" style="stop-color:#D7D7D7"/>
				<stop  offset="0.3" style="stop-color:#707070"/>
				<stop  offset="0.6" style="stop-color:#2B2C2B"/>
			</linearGradient>
			<path class="st16" d="M291.7,351.4c-2.7,3-33.9,2.1-34.8-2.3c-8.3-37.8,19.7-58.9,19.7-58.9C271.8,342.1,293.7,349.3,291.7,351.4
				z"/>
			
				<linearGradient id="SVGID_18_" gradientUnits="userSpaceOnUse" x1="-452.9875" y1="83.3229" x2="-417.1171" y2="83.3229" gradientTransform="matrix(0.6759 -0.737 0.737 0.6759 529.726 -61.6977)">
				<stop  offset="0" style="stop-color:#D7D7D7"/>
				<stop  offset="0.3" style="stop-color:#707070"/>
				<stop  offset="0.6" style="stop-color:#2B2C2B"/>
			</linearGradient>
			<path class="st17" d="M331.4,322.6c0.3,4.3-22.4,25.4-26.3,23.1c-32.7-20.8-27.8-55.7-27.8-55.7
				C310.5,330,331.2,319.9,331.4,322.6z"/>
		</g>
		<g>
			
				<radialGradient id="SVGID_19_" cx="183.3297" cy="1462.0021" r="18.5016" gradientTransform="matrix(6.678566e-11 -1.5001 -1.4819 -6.709234e-11 2444.7529 564.374)" gradientUnits="userSpaceOnUse">
				<stop  offset="5.618212e-03" style="stop-color:#EFEFF0"/>
				<stop  offset="1" style="stop-color:#9C9D9D"/>
			</radialGradient>
			<ellipse class="st18" cx="278.2" cy="289.4" rx="27.4" ry="27.8"/>
			
				<radialGradient id="SVGID_20_" cx="183.3297" cy="1462.0021" r="16.5731" gradientTransform="matrix(6.678566e-11 -1.5001 -1.4819 -6.709234e-11 2444.7529 564.374)" gradientUnits="userSpaceOnUse">
				<stop  offset="5.618212e-03" style="stop-color:#CBD0D4"/>
				<stop  offset="1" style="stop-color:#545555"/>
			</radialGradient>
			<ellipse class="st19" cx="278.2" cy="289.4" rx="24.5" ry="24.9"/>
			
				<radialGradient id="SVGID_21_" cx="183.3297" cy="1462.0021" r="13.8005" gradientTransform="matrix(6.678566e-11 -1.5001 -1.4819 -6.709234e-11 2444.7529 564.374)" gradientUnits="userSpaceOnUse">
				<stop  offset="5.618212e-03" style="stop-color:#CBD0D4"/>
				<stop  offset="1" style="stop-color:#7C7C7C"/>
			</radialGradient>
			<ellipse class="st20" cx="278.2" cy="289.4" rx="20.5" ry="20.6"/>
		</g>
	</g>
	
		<linearGradient id="SVGID_22_" gradientUnits="userSpaceOnUse" x1="548.4396" y1="-234.6203" x2="548.4396" y2="41.8618" gradientTransform="matrix(4.489653e-11 1 1 -4.489653e-11 372.9811 -20.2975)">
		<stop  offset="0" style="stop-color:#666666"/>
		<stop  offset="0.5" style="stop-color:#B0B0B0"/>
		<stop  offset="1" style="stop-color:#666666"/>
	</linearGradient>
	<path class="st21" d="M142.4,538.6h268.4c2.4,0,4-1.4,4-2.6v-15.7c0-1.6-2.1-2.6-4-2.6H142.4c-2.4,0-4,1.4-4,2.6V536
		C138.4,537.6,140,538.6,142.4,538.6z"/>
	
		<linearGradient id="SVGID_23_" gradientUnits="userSpaceOnUse" x1="855.7579" y1="859.1124" x2="1063.1642" y2="859.1124" gradientTransform="matrix(-1 0 0 1 1237.2291 -343.6609)">
		<stop  offset="3.178914e-07" style="stop-color:#3E3F3F"/>
		<stop  offset="0.5" style="stop-color:#B0B0B0"/>
		<stop  offset="1" style="stop-color:#3E3F3F"/>
	</linearGradient>
	<rect x="174.1" y="513.2" class="st22" width="207.4" height="4.5"/>
</g>
</svg>
