<?xml version="1.0" encoding="utf-8"?>
<!-- Generator: Adobe Illustrator 23.0.3, SVG Export Plug-In . SVG Version: 6.00 Build 0)  -->
<svg version="1.1" id="图层_1" xmlns="http://www.w3.org/2000/svg" xmlns:xlink="http://www.w3.org/1999/xlink" x="0px" y="0px"
	 viewBox="0 0 566.9 566.9" style="enable-background:new 0 0 566.9 566.9;" xml:space="preserve">
<style type="text/css">
	.st0{fill:url(#SVGID_1_);}
	.st1{fill:url(#SVGID_2_);}
	.st2{fill:url(#SVGID_3_);}
	.st3{fill:url(#SVGID_4_);}
	.st4{fill:url(#SVGID_5_);}
	.st5{fill:url(#SVGID_6_);}
	.st6{fill:url(#SVGID_7_);}
	.st7{fill:url(#SVGID_8_);}
	.st8{fill:url(#SVGID_9_);}
	.st9{fill:url(#SVGID_10_);}
	.st10{fill:url(#SVGID_11_);}
	.st11{fill:url(#SVGID_12_);}
	.st12{fill:url(#SVGID_13_);}
	.st13{fill:url(#SVGID_14_);}
	.st14{fill:url(#SVGID_15_);}
	.st15{fill:url(#SVGID_16_);}
	.st16{fill:url(#SVGID_17_);}
	.st17{fill:url(#SVGID_18_);}
	.st18{fill:url(#SVGID_19_);}
	.st19{fill:url(#SVGID_20_);}
	.st20{fill:url(#SVGID_21_);}
	.st21{fill:url(#SVGID_22_);}
	.st22{fill:url(#SVGID_23_);}
</style>
<g>
	
		<linearGradient id="SVGID_1_" gradientUnits="userSpaceOnUse" x1="17.5111" y1="884.8065" x2="17.5111" y2="677.4066" gradientTransform="matrix(4.489653e-11 -1 -1 -4.489653e-11 1063.8711 482.9257)">
		<stop  offset="0" style="stop-color:#4E4E4E"/>
		<stop  offset="0.1" style="stop-color:#707070"/>
		<stop  offset="0.5" style="stop-color:#B1B1B1"/>
		<stop  offset="1" style="stop-color:#666666"/>
	</linearGradient>
	<rect x="179.1" y="413.1" class="st0" width="207.4" height="104.6"/>
	<g>
		
			<linearGradient id="SVGID_2_" gradientUnits="userSpaceOnUse" x1="315.1111" y1="750.4357" x2="315.1111" y2="619.3357" gradientTransform="matrix(-4.489653e-11 -1 1 -4.489653e-11 -496.8711 482.9257)">
			<stop  offset="0" style="stop-color:#4E4E4E"/>
			<stop  offset="0.1" style="stop-color:#707070"/>
			<stop  offset="0.5" style="stop-color:#D7D7D7"/>
			<stop  offset="1" style="stop-color:#666666"/>
		</linearGradient>
		<rect x="122.5" y="46" class="st1" width="131.1" height="243.6"/>
		
			<linearGradient id="SVGID_3_" gradientUnits="userSpaceOnUse" x1="445.6611" y1="760.4432" x2="445.6611" y2="607.4357" gradientTransform="matrix(-4.489653e-11 -1 1 -4.489653e-11 -496.8711 482.9257)">
			<stop  offset="0" style="stop-color:#666666"/>
			<stop  offset="0.5" style="stop-color:#D7D7D7"/>
			<stop  offset="1" style="stop-color:#666666"/>
		</linearGradient>
		<path class="st2" d="M261.4,28.3H112.8c-1.3,0-2.2,1.2-2.2,2.3v13.3c0,1.4,1.2,2.3,2.2,2.3h148.6c1.3,0,2.2-1.2,2.2-2.3V30.6
			C263.7,29.2,262.8,28.3,261.4,28.3z"/>
		
			<linearGradient id="SVGID_4_" gradientUnits="userSpaceOnUse" x1="764.6937" y1="175.9645" x2="895.7937" y2="175.9645" gradientTransform="matrix(1 0 0 -1 -642.2291 224.2291)">
			<stop  offset="3.178914e-07" style="stop-color:#3E3F3F"/>
			<stop  offset="0.5" style="stop-color:#D1D1D1"/>
			<stop  offset="1" style="stop-color:#3E3F3F"/>
		</linearGradient>
		<rect x="122.5" y="46" class="st3" width="131.1" height="4.5"/>
		<g>
			
				<linearGradient id="SVGID_5_" gradientUnits="userSpaceOnUse" x1="-24.1855" y1="-591.5197" x2="-24.1855" y2="-880.583" gradientTransform="matrix(-4.489653e-11 -1 -1 4.489653e-11 -447 264.9291)">
				<stop  offset="5.618340e-03" style="stop-color:#7D7D7D"/>
				<stop  offset="0.3977" style="stop-color:#BEBEBE"/>
				<stop  offset="1" style="stop-color:#AEAEAE"/>
			</linearGradient>
			<ellipse class="st4" cx="289.2" cy="289.1" rx="167.2" ry="169.3"/>
			
				<linearGradient id="SVGID_6_" gradientUnits="userSpaceOnUse" x1="-24.1855" y1="-863.8807" x2="-24.1855" y2="-608.1625" gradientTransform="matrix(-4.489653e-11 -1 -1 4.489653e-11 -447 264.9291)">
				<stop  offset="5.618335e-03" style="stop-color:#A1A1A1"/>
				<stop  offset="0.6" style="stop-color:#AEAEAE"/>
				<stop  offset="1" style="stop-color:#C2C2C2"/>
			</linearGradient>
			<ellipse class="st5" cx="289.2" cy="289.1" rx="147.9" ry="149.9"/>
			
				<linearGradient id="SVGID_7_" gradientUnits="userSpaceOnUse" x1="-24.1855" y1="-615.5341" x2="-24.1855" y2="-856.5632" gradientTransform="matrix(-4.489653e-11 -1 -1 4.489653e-11 -447 264.9291)">
				<stop  offset="5.617890e-03" style="stop-color:#979797"/>
				<stop  offset="0.5" style="stop-color:#A0A0A0"/>
				<stop  offset="1" style="stop-color:#DFDFDF"/>
			</linearGradient>
			<ellipse class="st6" cx="289.2" cy="289.1" rx="139.4" ry="141.2"/>
			
				<linearGradient id="SVGID_8_" gradientUnits="userSpaceOnUse" x1="-24.1855" y1="-834.2738" x2="-24.1855" y2="-637.7993" gradientTransform="matrix(-4.489653e-11 -1 -1 4.489653e-11 -447 264.9291)">
				<stop  offset="5.618335e-03" style="stop-color:#A1A1A1"/>
				<stop  offset="0.6" style="stop-color:#AEAEAE"/>
				<stop  offset="1" style="stop-color:#C2C2C2"/>
			</linearGradient>
			<ellipse class="st7" cx="289.2" cy="289.1" rx="113.8" ry="115"/>
			
				<linearGradient id="SVGID_9_" gradientUnits="userSpaceOnUse" x1="-24.1855" y1="-839.5646" x2="-24.1855" y2="-632.3887" gradientTransform="matrix(-4.489653e-11 -1 -1 4.489653e-11 -447 264.9291)">
				<stop  offset="0" style="stop-color:#E2E2E2"/>
				<stop  offset="0.2" style="stop-color:#B1B2B2"/>
				<stop  offset="0.9529" style="stop-color:#545555"/>
			</linearGradient>
			<ellipse class="st8" cx="289.2" cy="289.1" rx="103.4" ry="104.8"/>
			
				<radialGradient id="SVGID_10_" cx="78.1668" cy="-747.9189" r="49.4631" gradientTransform="matrix(-6.678566e-11 -1.5001 -1.4819 6.709234e-11 -819.1765 406.3726)" gradientUnits="userSpaceOnUse">
				<stop  offset="0.5" style="stop-color:#EFEFF0"/>
				<stop  offset="1" style="stop-color:#9C9D9D"/>
			</radialGradient>
			<ellipse class="st9" cx="289.2" cy="289.1" rx="73.2" ry="74.3"/>
			<g>
				
					<linearGradient id="SVGID_11_" gradientUnits="userSpaceOnUse" x1="559.2059" y1="671.043" x2="595.0744" y2="671.043" gradientTransform="matrix(0.7071 -0.7071 0.7071 0.7071 -620.1819 204.1582)">
					<stop  offset="0" style="stop-color:#D7D7D7"/>
					<stop  offset="0.3" style="stop-color:#707070"/>
					<stop  offset="0.6" style="stop-color:#2B2C2B"/>
				</linearGradient>
				<path class="st10" d="M253.5,236.6c-4.3,0-24.5,23.6-22,27.2c22.4,31.7,57.1,25.4,57.1,25.4C247,257.7,256.5,236.6,253.5,236.6z
					"/>
				
					<linearGradient id="SVGID_12_" gradientUnits="userSpaceOnUse" x1="-47.8788" y1="871.2413" x2="-12.0973" y2="871.2413" gradientTransform="matrix(-4.489653e-11 -1 1 -4.489653e-11 -613.9291 264.9291)">
					<stop  offset="0" style="stop-color:#D7D7D7"/>
					<stop  offset="0.3" style="stop-color:#707070"/>
					<stop  offset="0.6" style="stop-color:#2B2C2B"/>
				</linearGradient>
				<path class="st11" d="M227.2,277.1c-3.1,3-0.7,33.9,3.6,34.7c38.1,6.8,58.1-22.1,58.1-22.1C237.4,296.8,229,275.3,227.2,277.1z"
					/>
				
					<linearGradient id="SVGID_13_" gradientUnits="userSpaceOnUse" x1="846.7437" y1="99.7716" x2="882.6581" y2="99.7716" gradientTransform="matrix(1 0 0 1 -581.6304 156.7627)">
					<stop  offset="0" style="stop-color:#D7D7D7"/>
					<stop  offset="0.3" style="stop-color:#707070"/>
					<stop  offset="0.6" style="stop-color:#2B2C2B"/>
				</linearGradient>
				<path class="st12" d="M301.1,226.4c-3-3-34.1-0.7-34.8,3.6c-6.7,38.1,22.2,58,22.2,58C281.2,236.3,302.9,228.2,301.1,226.4z"/>
				
					<linearGradient id="SVGID_14_" gradientUnits="userSpaceOnUse" x1="172.5633" y1="-769.1548" x2="208.3447" y2="-769.1548" gradientTransform="matrix(-2.215213e-03 1 -1 -2.215213e-03 -447.9728 91.1504)">
					<stop  offset="0" style="stop-color:#D7D7D7"/>
					<stop  offset="0.3" style="stop-color:#707070"/>
					<stop  offset="0.6" style="stop-color:#2B2C2B"/>
				</linearGradient>
				<path class="st13" d="M351.1,301.1c3-3,0.7-33.9-3.6-34.7c-38.4-6.8-58.4,22.1-58.4,22.1C341.1,281.4,349.2,303.1,351.1,301.1z"
					/>
				
					<linearGradient id="SVGID_15_" gradientUnits="userSpaceOnUse" x1="696.8111" y1="-421.7009" x2="732.737" y2="-421.7009" gradientTransform="matrix(0.7055 0.7087 -0.7087 0.7055 -495.2643 52.4813)">
					<stop  offset="0" style="stop-color:#D7D7D7"/>
					<stop  offset="0.3" style="stop-color:#707070"/>
					<stop  offset="0.6" style="stop-color:#2B2C2B"/>
				</linearGradient>
				<path class="st14" d="M342,252.9c0-4.3-23.6-24.5-27.2-22c-31.8,22-25.6,56.6-25.6,56.6C320.6,246.1,341.7,255.6,342,252.9z"/>
				
					<linearGradient id="SVGID_16_" gradientUnits="userSpaceOnUse" x1="-445.0927" y1="-645.0484" x2="-409.2453" y2="-645.0484" gradientTransform="matrix(-0.7087 0.7055 -0.7055 -0.7087 -441.8422 151.9136)">
					<stop  offset="0" style="stop-color:#D7D7D7"/>
					<stop  offset="0.3" style="stop-color:#707070"/>
					<stop  offset="0.6" style="stop-color:#2B2C2B"/>
				</linearGradient>
				<path class="st15" d="M324.7,341.7c4.3,0,24.5-23.6,22-27.2c-22.2-31.7-56.8-25.4-56.8-25.4C331.7,320.6,322,341.7,324.7,341.7z
					"/>
				
					<linearGradient id="SVGID_17_" gradientUnits="userSpaceOnUse" x1="-730.7728" y1="-27.3759" x2="-694.8644" y2="-27.3759" gradientTransform="matrix(-0.9991 -4.324653e-02 4.324653e-02 -0.9991 -416.7274 263.7766)">
					<stop  offset="0" style="stop-color:#D7D7D7"/>
					<stop  offset="0.3" style="stop-color:#707070"/>
					<stop  offset="0.6" style="stop-color:#2B2C2B"/>
				</linearGradient>
				<path class="st16" d="M275.3,351.4c2.7,3,33.9,2.1,34.8-2.3c8.3-37.8-19.7-58.9-19.7-58.9C295.2,342.1,273.3,349.3,275.3,351.4z
					"/>
				
					<linearGradient id="SVGID_18_" gradientUnits="userSpaceOnUse" x1="-558.4798" y1="518.6102" x2="-522.6094" y2="518.6102" gradientTransform="matrix(-0.6759 -0.737 0.737 -0.6759 -477.6925 267.4194)">
					<stop  offset="0" style="stop-color:#D7D7D7"/>
					<stop  offset="0.3" style="stop-color:#707070"/>
					<stop  offset="0.6" style="stop-color:#2B2C2B"/>
				</linearGradient>
				<path class="st17" d="M235.6,322.6c-0.3,4.3,22.4,25.4,26.3,23.1c32.7-20.8,27.8-55.7,27.8-55.7
					C256.5,330,235.8,319.9,235.6,322.6z"/>
			</g>
			<g>
				
					<radialGradient id="SVGID_19_" cx="77.9668" cy="-747.649" r="18.5109" gradientTransform="matrix(-6.678566e-11 -1.5001 -1.4819 6.709234e-11 -819.1765 406.3726)" gradientUnits="userSpaceOnUse">
					<stop  offset="5.618212e-03" style="stop-color:#EFEFF0"/>
					<stop  offset="1" style="stop-color:#9C9D9D"/>
				</radialGradient>
				<ellipse class="st18" cx="288.8" cy="289.4" rx="27.4" ry="27.8"/>
				
					<radialGradient id="SVGID_20_" cx="77.9668" cy="-747.649" r="16.5902" gradientTransform="matrix(-6.678566e-11 -1.5001 -1.4819 6.709234e-11 -819.1765 406.3726)" gradientUnits="userSpaceOnUse">
					<stop  offset="5.618212e-03" style="stop-color:#CBD0D4"/>
					<stop  offset="1" style="stop-color:#545555"/>
				</radialGradient>
				<ellipse class="st19" cx="288.8" cy="289.4" rx="24.5" ry="24.9"/>
				
					<radialGradient id="SVGID_21_" cx="77.9668" cy="-747.649" r="13.8175" gradientTransform="matrix(-6.678566e-11 -1.5001 -1.4819 6.709234e-11 -819.1765 406.3726)" gradientUnits="userSpaceOnUse">
					<stop  offset="5.618212e-03" style="stop-color:#CBD0D4"/>
					<stop  offset="1" style="stop-color:#7C7C7C"/>
				</radialGradient>
				<ellipse class="st20" cx="288.8" cy="289.4" rx="20.5" ry="20.6"/>
			</g>
		</g>
	</g>
	
		<linearGradient id="SVGID_22_" gradientUnits="userSpaceOnUse" x1="671.4621" y1="920.5065" x2="671.4621" y2="644.1066" gradientTransform="matrix(4.489653e-11 1 -1 4.489653e-11 1063.8711 -143.2975)">
		<stop  offset="0" style="stop-color:#666666"/>
		<stop  offset="0.5" style="stop-color:#B0B0B0"/>
		<stop  offset="1" style="stop-color:#666666"/>
	</linearGradient>
	<path class="st21" d="M147.4,538.6h268.4c2.4,0,4-1.4,4-2.6v-15.7c0-1.6-2.1-2.6-4-2.6H147.4c-2.4,0-4,1.4-4,2.6V536
		C143.4,537.6,145,538.6,147.4,538.6z"/>
	
		<linearGradient id="SVGID_23_" gradientUnits="userSpaceOnUse" x1="822.7646" y1="-291.2355" x2="1030.1646" y2="-291.2355" gradientTransform="matrix(-1 0 0 -1 1209.2291 224.2291)">
		<stop  offset="3.178914e-07" style="stop-color:#3E3F3F"/>
		<stop  offset="0.5" style="stop-color:#B0B0B0"/>
		<stop  offset="1" style="stop-color:#3E3F3F"/>
	</linearGradient>
	<rect x="179.1" y="513.2" class="st22" width="207.4" height="4.5"/>
</g>
</svg>
