<?xml version="1.0" encoding="utf-8"?>
<!-- Generator: Adobe Illustrator 23.0.3, SVG Export Plug-In . SVG Version: 6.00 Build 0)  -->
<svg version="1.1" id="图层_1" xmlns="http://www.w3.org/2000/svg" xmlns:xlink="http://www.w3.org/1999/xlink" x="0px" y="0px"
	 viewBox="0 0 566.9 566.9" style="enable-background:new 0 0 566.9 566.9;" xml:space="preserve">
<style type="text/css">
	.st0{fill:url(#SVGID_1_);}
	.st1{fill:url(#SVGID_2_);}
	.st2{fill:url(#SVGID_3_);}
	.st3{fill:url(#SVGID_4_);}
	.st4{fill:url(#SVGID_5_);}
	.st5{fill:url(#SVGID_6_);}
	.st6{fill:url(#SVGID_7_);}
	.st7{fill:url(#SVGID_8_);}
	.st8{fill:url(#SVGID_9_);}
	.st9{fill:url(#SVGID_10_);}
	.st10{fill:url(#SVGID_11_);}
	.st11{fill:url(#SVGID_12_);}
	.st12{fill:url(#SVGID_13_);}
	.st13{fill:url(#SVGID_14_);}
	.st14{fill:url(#SVGID_15_);}
	.st15{fill:url(#SVGID_16_);}
	.st16{fill:url(#SVGID_17_);}
	.st17{fill:url(#SVGID_18_);}
	.st18{fill:url(#SVGID_19_);}
	.st19{fill:url(#SVGID_20_);}
	.st20{fill:url(#SVGID_21_);}
	.st21{fill:url(#SVGID_22_);}
	.st22{fill:url(#SVGID_23_);}
</style>
<g>
	
		<linearGradient id="SVGID_1_" gradientUnits="userSpaceOnUse" x1="-91.3889" y1="-211.1665" x2="-91.3889" y2="-3.7665" gradientTransform="matrix(4.489653e-11 -1 1 4.489653e-11 344.9811 331.9257)">
		<stop  offset="0" style="stop-color:#4E4E4E"/>
		<stop  offset="0.1" style="stop-color:#707070"/>
		<stop  offset="0.5" style="stop-color:#B1B1B1"/>
		<stop  offset="1" style="stop-color:#666666"/>
	</linearGradient>
	<rect x="133.8" y="371" class="st0" width="207.4" height="104.6"/>
	<g>
		
			<linearGradient id="SVGID_2_" gradientUnits="userSpaceOnUse" x1="315.0903" y1="91.3543" x2="315.0903" y2="222.4543" gradientTransform="matrix(1 0 0 -1 43.9243 304.7689)">
			<stop  offset="0" style="stop-color:#4E4E4E"/>
			<stop  offset="0.1" style="stop-color:#707070"/>
			<stop  offset="0.5" style="stop-color:#D7D7D7"/>
			<stop  offset="1" style="stop-color:#666666"/>
		</linearGradient>
		<rect x="237.2" y="82.3" class="st1" width="243.6" height="131.1"/>
		
			<linearGradient id="SVGID_3_" gradientUnits="userSpaceOnUse" x1="445.6403" y1="81.3467" x2="445.6403" y2="234.3543" gradientTransform="matrix(1 0 0 -1 43.9243 304.7689)">
			<stop  offset="0" style="stop-color:#666666"/>
			<stop  offset="0.5" style="stop-color:#D7D7D7"/>
			<stop  offset="1" style="stop-color:#666666"/>
		</linearGradient>
		<path class="st2" d="M498.5,221.2V72.6c0-1.3-1.2-2.2-2.3-2.2h-13.3c-1.4,0-2.3,1.2-2.3,2.2v148.6c0,1.3,1.2,2.2,2.3,2.2h13.3
			C497.6,223.5,498.5,222.6,498.5,221.2z"/>
		
			<linearGradient id="SVGID_4_" gradientUnits="userSpaceOnUse" x1="613.7936" y1="514.9464" x2="744.8937" y2="514.9464" gradientTransform="matrix(-6.123234e-17 1 -1 -6.123234e-17 993.5109 -531.4791)">
			<stop  offset="3.178914e-07" style="stop-color:#3E3F3F"/>
			<stop  offset="0.5" style="stop-color:#D1D1D1"/>
			<stop  offset="1" style="stop-color:#3E3F3F"/>
		</linearGradient>
		<rect x="476.3" y="82.3" class="st3" width="4.5" height="131.1"/>
		<g>
			
				<linearGradient id="SVGID_5_" gradientUnits="userSpaceOnUse" x1="-24.2063" y1="1159.52" x2="-24.2063" y2="1448.5834" gradientTransform="matrix(1 0 0 1 261.9209 -1055.14)">
				<stop  offset="5.618340e-03" style="stop-color:#7D7D7D"/>
				<stop  offset="0.3977" style="stop-color:#BEBEBE"/>
				<stop  offset="1" style="stop-color:#AEAEAE"/>
			</linearGradient>
			<ellipse class="st4" cx="237.7" cy="249" rx="169.3" ry="167.2"/>
			
				<linearGradient id="SVGID_6_" gradientUnits="userSpaceOnUse" x1="-24.2063" y1="1431.8812" x2="-24.2063" y2="1176.1628" gradientTransform="matrix(1 0 0 1 261.9209 -1055.14)">
				<stop  offset="5.618335e-03" style="stop-color:#A1A1A1"/>
				<stop  offset="0.6" style="stop-color:#AEAEAE"/>
				<stop  offset="1" style="stop-color:#C2C2C2"/>
			</linearGradient>
			<ellipse class="st5" cx="237.7" cy="249" rx="149.9" ry="147.9"/>
			
				<linearGradient id="SVGID_7_" gradientUnits="userSpaceOnUse" x1="-24.2063" y1="1183.5344" x2="-24.2063" y2="1424.5637" gradientTransform="matrix(1 0 0 1 261.9209 -1055.14)">
				<stop  offset="5.617890e-03" style="stop-color:#979797"/>
				<stop  offset="0.5" style="stop-color:#A0A0A0"/>
				<stop  offset="1" style="stop-color:#DFDFDF"/>
			</linearGradient>
			<ellipse class="st6" cx="237.7" cy="249" rx="141.2" ry="139.4"/>
			
				<linearGradient id="SVGID_8_" gradientUnits="userSpaceOnUse" x1="-24.2063" y1="1402.2742" x2="-24.2063" y2="1205.7997" gradientTransform="matrix(1 0 0 1 261.9209 -1055.14)">
				<stop  offset="5.618335e-03" style="stop-color:#A1A1A1"/>
				<stop  offset="0.6" style="stop-color:#AEAEAE"/>
				<stop  offset="1" style="stop-color:#C2C2C2"/>
			</linearGradient>
			<ellipse class="st7" cx="237.7" cy="249" rx="115" ry="113.8"/>
			
				<linearGradient id="SVGID_9_" gradientUnits="userSpaceOnUse" x1="-24.2063" y1="1407.5546" x2="-24.2063" y2="1200.3787" gradientTransform="matrix(1 0 0 1 261.9209 -1055.14)">
				<stop  offset="0" style="stop-color:#E2E2E2"/>
				<stop  offset="0.2" style="stop-color:#B1B2B2"/>
				<stop  offset="0.9529" style="stop-color:#545555"/>
			</linearGradient>
			<ellipse class="st8" cx="237.7" cy="249" rx="104.8" ry="103.4"/>
			
				<radialGradient id="SVGID_10_" cx="73.4856" cy="1360.4275" r="49.4631" gradientTransform="matrix(1.5001 0 0 1.4819 127.4788 -1767.0029)" gradientUnits="userSpaceOnUse">
				<stop  offset="0.5" style="stop-color:#EFEFF0"/>
				<stop  offset="1" style="stop-color:#9C9D9D"/>
			</radialGradient>
			<ellipse class="st9" cx="237.7" cy="249" rx="74.3" ry="73.2"/>
			<g>
				
					<linearGradient id="SVGID_11_" gradientUnits="userSpaceOnUse" x1="458.3045" y1="140.5357" x2="494.173" y2="140.5357" gradientTransform="matrix(0.7071 0.7071 0.7071 -0.7071 -179.8365 -15.1049)">
					<stop  offset="0" style="stop-color:#D7D7D7"/>
					<stop  offset="0.3" style="stop-color:#707070"/>
					<stop  offset="0.6" style="stop-color:#2B2C2B"/>
				</linearGradient>
				<path class="st10" d="M290.2,213.3c0-4.3-23.6-24.5-27.2-22c-31.7,22.4-25.4,57.1-25.4,57.1
					C269.1,206.8,290.2,216.3,290.2,213.3z"/>
				
					<linearGradient id="SVGID_12_" gradientUnits="userSpaceOnUse" x1="-47.885" y1="-29.4512" x2="-12.1035" y2="-29.4512" gradientTransform="matrix(1 0 0 -1 261.9209 187.711)">
					<stop  offset="0" style="stop-color:#D7D7D7"/>
					<stop  offset="0.3" style="stop-color:#707070"/>
					<stop  offset="0.6" style="stop-color:#2B2C2B"/>
				</linearGradient>
				<path class="st11" d="M249.7,187c-3-3.1-33.9-0.7-34.7,3.6c-6.8,38.1,22.1,58.1,22.1,58.1C230,197.2,251.5,188.8,249.7,187z"/>
				
					<linearGradient id="SVGID_13_" gradientUnits="userSpaceOnUse" x1="695.8542" y1="619.0975" x2="731.7686" y2="619.0975" gradientTransform="matrix(-6.123234e-17 1 1 6.123234e-17 -348.8027 -470.8803)">
					<stop  offset="0" style="stop-color:#D7D7D7"/>
					<stop  offset="0.3" style="stop-color:#707070"/>
					<stop  offset="0.6" style="stop-color:#2B2C2B"/>
				</linearGradient>
				<path class="st12" d="M300.4,260.9c3-3,0.7-34.1-3.6-34.8c-38.1-6.7-58,22.2-58,22.2C290.5,241,298.6,262.7,300.4,260.9z"/>
				
					<linearGradient id="SVGID_14_" gradientUnits="userSpaceOnUse" x1="144.873" y1="1337.1145" x2="180.6543" y2="1337.1145" gradientTransform="matrix(-1 -2.215213e-03 -2.215213e-03 1 409.2611 -1056.1438)">
					<stop  offset="0" style="stop-color:#D7D7D7"/>
					<stop  offset="0.3" style="stop-color:#707070"/>
					<stop  offset="0.6" style="stop-color:#2B2C2B"/>
				</linearGradient>
				<path class="st13" d="M225.7,310.9c3,3,33.9,0.7,34.7-3.6c6.8-38.4-22.1-58.4-22.1-58.4C245.4,300.9,223.7,309,225.7,310.9z"/>
				
					<linearGradient id="SVGID_15_" gradientUnits="userSpaceOnUse" x1="576.3167" y1="1039.4309" x2="612.2426" y2="1039.4309" gradientTransform="matrix(-0.7087 0.7055 0.7055 0.7087 -46.853 -888.1929)">
					<stop  offset="0" style="stop-color:#D7D7D7"/>
					<stop  offset="0.3" style="stop-color:#707070"/>
					<stop  offset="0.6" style="stop-color:#2B2C2B"/>
				</linearGradient>
				<path class="st14" d="M273.9,301.8c4.3,0,24.5-23.6,22-27.2c-22-31.8-56.6-25.6-56.6-25.6C280.7,280.4,271.2,301.5,273.9,301.8z
					"/>
				
					<linearGradient id="SVGID_16_" gradientUnits="userSpaceOnUse" x1="-371.9327" y1="1243.4469" x2="-336.0854" y2="1243.4469" gradientTransform="matrix(-0.7055 -0.7087 -0.7087 0.7055 850.6149 -852.3139)">
					<stop  offset="0" style="stop-color:#D7D7D7"/>
					<stop  offset="0.3" style="stop-color:#707070"/>
					<stop  offset="0.6" style="stop-color:#2B2C2B"/>
				</linearGradient>
				<path class="st15" d="M185.1,284.5c0,4.3,23.6,24.5,27.2,22c31.7-22.2,25.4-56.8,25.4-56.8C206.2,291.5,185.1,281.8,185.1,284.5
					z"/>
				
					<linearGradient id="SVGID_17_" gradientUnits="userSpaceOnUse" x1="-607.4013" y1="724.2205" x2="-571.4929" y2="724.2205" gradientTransform="matrix(4.324653e-02 -0.9991 -0.9991 -4.324653e-02 953.9346 -303.4807)">
					<stop  offset="0" style="stop-color:#D7D7D7"/>
					<stop  offset="0.3" style="stop-color:#707070"/>
					<stop  offset="0.6" style="stop-color:#2B2C2B"/>
				</linearGradient>
				<path class="st16" d="M175.4,235.1c-3,2.7-2.1,33.9,2.3,34.8c37.8,8.3,58.9-19.7,58.9-19.7C184.7,255,177.5,233.1,175.4,235.1z"
					/>
				
					<linearGradient id="SVGID_18_" gradientUnits="userSpaceOnUse" x1="-469.6437" y1="277.7257" x2="-433.7734" y2="277.7257" gradientTransform="matrix(0.737 -0.6759 -0.6759 -0.737 732.1837 129.0988)">
					<stop  offset="0" style="stop-color:#D7D7D7"/>
					<stop  offset="0.3" style="stop-color:#707070"/>
					<stop  offset="0.6" style="stop-color:#2B2C2B"/>
				</linearGradient>
				<path class="st17" d="M204.2,195.4c-4.3-0.3-25.4,22.4-23.1,26.3c20.8,32.7,55.7,27.8,55.7,27.8
					C196.8,216.3,206.9,195.6,204.2,195.4z"/>
			</g>
			<g>
				
					<radialGradient id="SVGID_19_" cx="73.2856" cy="1360.1576" r="18.5109" gradientTransform="matrix(1.5001 0 0 1.4819 127.4788 -1767.0029)" gradientUnits="userSpaceOnUse">
					<stop  offset="5.618212e-03" style="stop-color:#EFEFF0"/>
					<stop  offset="1" style="stop-color:#9C9D9D"/>
				</radialGradient>
				<ellipse class="st18" cx="237.4" cy="248.6" rx="27.8" ry="27.4"/>
				
					<radialGradient id="SVGID_20_" cx="73.2856" cy="1360.1576" r="16.5986" gradientTransform="matrix(1.5001 0 0 1.4819 127.4788 -1767.0029)" gradientUnits="userSpaceOnUse">
					<stop  offset="5.618212e-03" style="stop-color:#CBD0D4"/>
					<stop  offset="1" style="stop-color:#545555"/>
				</radialGradient>
				<ellipse class="st19" cx="237.4" cy="248.6" rx="24.9" ry="24.5"/>
				
					<radialGradient id="SVGID_21_" cx="73.2856" cy="1360.1576" r="13.8259" gradientTransform="matrix(1.5001 0 0 1.4819 127.4788 -1767.0029)" gradientUnits="userSpaceOnUse">
					<stop  offset="5.618212e-03" style="stop-color:#CBD0D4"/>
					<stop  offset="1" style="stop-color:#7C7C7C"/>
				</radialGradient>
				<ellipse class="st20" cx="237.4" cy="248.6" rx="20.6" ry="20.5"/>
			</g>
		</g>
	</g>
	
		<linearGradient id="SVGID_22_" gradientUnits="userSpaceOnUse" x1="752.3621" y1="-245.6665" x2="752.3621" y2="30.7335" gradientTransform="matrix(4.489653e-11 1 1 -4.489653e-11 344.9811 -266.2975)">
		<stop  offset="0" style="stop-color:#666666"/>
		<stop  offset="0.5" style="stop-color:#B0B0B0"/>
		<stop  offset="1" style="stop-color:#666666"/>
	</linearGradient>
	<path class="st21" d="M103.3,496.5h268.4c2.4,0,4-1.4,4-2.6v-15.7c0-1.6-2.1-2.6-4-2.6H103.3c-2.4,0-4,1.4-4,2.6v15.7
		C99.3,495.5,100.9,496.5,103.3,496.5z"/>
	
		<linearGradient id="SVGID_23_" gradientUnits="userSpaceOnUse" x1="840.0145" y1="1091.0255" x2="1047.4146" y2="1091.0255" gradientTransform="matrix(-1 0 0 1 1181.2291 -617.6609)">
		<stop  offset="3.178914e-07" style="stop-color:#3E3F3F"/>
		<stop  offset="0.5" style="stop-color:#B0B0B0"/>
		<stop  offset="1" style="stop-color:#3E3F3F"/>
	</linearGradient>
	<rect x="133.8" y="471.1" class="st22" width="207.4" height="4.5"/>
</g>
</svg>
