<?xml version="1.0" encoding="utf-8"?>
<!-- Generator: Adobe Illustrator 23.0.3, SVG Export Plug-In . SVG Version: 6.00 Build 0)  -->
<svg version="1.1" id="图层_1" xmlns="http://www.w3.org/2000/svg" xmlns:xlink="http://www.w3.org/1999/xlink" x="0px" y="0px"
	 viewBox="0 0 566.9 566.9" style="enable-background:new 0 0 566.9 566.9;" xml:space="preserve">
<style type="text/css">
	.st0{fill:url(#SVGID_1_);}
	.st1{fill:url(#SVGID_2_);}
	.st2{fill:url(#SVGID_3_);}
	.st3{fill:url(#SVGID_4_);}
	.st4{fill:url(#SVGID_5_);}
	.st5{fill:url(#SVGID_6_);}
	.st6{fill:url(#SVGID_7_);}
	.st7{fill:url(#SVGID_8_);}
	.st8{fill:url(#SVGID_9_);}
	.st9{fill:url(#SVGID_10_);}
	.st10{fill:url(#SVGID_11_);}
	.st11{fill:url(#SVGID_12_);}
	.st12{fill:url(#SVGID_13_);}
	.st13{fill:url(#SVGID_14_);}
	.st14{fill:url(#SVGID_15_);}
	.st15{fill:url(#SVGID_16_);}
	.st16{fill:url(#SVGID_17_);}
	.st17{fill:url(#SVGID_18_);}
	.st18{fill:url(#SVGID_19_);}
	.st19{fill:url(#SVGID_20_);}
	.st20{fill:url(#SVGID_21_);}
	.st21{fill:url(#SVGID_22_);}
	.st22{fill:url(#SVGID_23_);}
</style>
<g>
	
		<linearGradient id="SVGID_1_" gradientUnits="userSpaceOnUse" x1="-242.3889" y1="812.0565" x2="-242.3889" y2="604.6566" gradientTransform="matrix(4.489653e-11 -1 -1 -4.489653e-11 1035.8711 180.9257)">
		<stop  offset="0" style="stop-color:#4E4E4E"/>
		<stop  offset="0.1" style="stop-color:#707070"/>
		<stop  offset="0.5" style="stop-color:#B1B1B1"/>
		<stop  offset="1" style="stop-color:#666666"/>
	</linearGradient>
	<rect x="223.8" y="371" class="st0" width="207.4" height="104.6"/>
	
		<linearGradient id="SVGID_2_" gradientUnits="userSpaceOnUse" x1="315.0611" y1="750.5357" x2="315.0611" y2="619.4357" gradientTransform="matrix(-1 0 0 1 522.9757 -537.1211)">
		<stop  offset="0" style="stop-color:#4E4E4E"/>
		<stop  offset="0.1" style="stop-color:#707070"/>
		<stop  offset="0.5" style="stop-color:#D7D7D7"/>
		<stop  offset="1" style="stop-color:#666666"/>
	</linearGradient>
	<rect x="86.1" y="82.3" class="st1" width="243.6" height="131.1"/>
	
		<linearGradient id="SVGID_3_" gradientUnits="userSpaceOnUse" x1="445.6111" y1="760.5433" x2="445.6111" y2="607.5357" gradientTransform="matrix(-1 0 0 1 522.9757 -537.1211)">
		<stop  offset="0" style="stop-color:#666666"/>
		<stop  offset="0.5" style="stop-color:#D7D7D7"/>
		<stop  offset="1" style="stop-color:#666666"/>
	</linearGradient>
	<path class="st2" d="M68.4,221.2V72.6c0-1.3,1.2-2.2,2.3-2.2H84c1.4,0,2.3,1.2,2.3,2.2v148.6c0,1.3-1.2,2.2-2.3,2.2H70.7
		C69.3,223.5,68.4,222.6,68.4,221.2z"/>
	
		<linearGradient id="SVGID_4_" gradientUnits="userSpaceOnUse" x1="736.7937" y1="203.9145" x2="867.8937" y2="203.9145" gradientTransform="matrix(6.123234e-17 1 -1 6.123234e-17 292.2791 -654.4791)">
		<stop  offset="3.178914e-07" style="stop-color:#3E3F3F"/>
		<stop  offset="0.5" style="stop-color:#D1D1D1"/>
		<stop  offset="1" style="stop-color:#3E3F3F"/>
	</linearGradient>
	<rect x="86.1" y="82.3" class="st3" width="4.5" height="131.1"/>
	<g>
		
			<linearGradient id="SVGID_5_" gradientUnits="userSpaceOnUse" x1="-24.2355" y1="-591.6446" x2="-24.2355" y2="-880.7079" gradientTransform="matrix(-1 0 0 -1 304.9791 -487.25)">
			<stop  offset="5.618340e-03" style="stop-color:#7D7D7D"/>
			<stop  offset="0.3977" style="stop-color:#BEBEBE"/>
			<stop  offset="1" style="stop-color:#AEAEAE"/>
		</linearGradient>
		<ellipse class="st4" cx="329.2" cy="249" rx="169.3" ry="167.2"/>
		
			<linearGradient id="SVGID_6_" gradientUnits="userSpaceOnUse" x1="-24.2355" y1="-864.0058" x2="-24.2355" y2="-608.2874" gradientTransform="matrix(-1 0 0 -1 304.9791 -487.25)">
			<stop  offset="5.618335e-03" style="stop-color:#A1A1A1"/>
			<stop  offset="0.6" style="stop-color:#AEAEAE"/>
			<stop  offset="1" style="stop-color:#C2C2C2"/>
		</linearGradient>
		<ellipse class="st5" cx="329.2" cy="249" rx="149.9" ry="147.9"/>
		
			<linearGradient id="SVGID_7_" gradientUnits="userSpaceOnUse" x1="-24.2355" y1="-615.659" x2="-24.2355" y2="-856.6883" gradientTransform="matrix(-1 0 0 -1 304.9791 -487.25)">
			<stop  offset="5.617890e-03" style="stop-color:#979797"/>
			<stop  offset="0.5" style="stop-color:#A0A0A0"/>
			<stop  offset="1" style="stop-color:#DFDFDF"/>
		</linearGradient>
		<ellipse class="st6" cx="329.2" cy="249" rx="141.2" ry="139.4"/>
		
			<linearGradient id="SVGID_8_" gradientUnits="userSpaceOnUse" x1="-24.2355" y1="-834.3987" x2="-24.2355" y2="-637.9243" gradientTransform="matrix(-1 0 0 -1 304.9791 -487.25)">
			<stop  offset="5.618335e-03" style="stop-color:#A1A1A1"/>
			<stop  offset="0.6" style="stop-color:#AEAEAE"/>
			<stop  offset="1" style="stop-color:#C2C2C2"/>
		</linearGradient>
		<ellipse class="st7" cx="329.2" cy="249" rx="115" ry="113.8"/>
		
			<linearGradient id="SVGID_9_" gradientUnits="userSpaceOnUse" x1="-24.2355" y1="-839.6646" x2="-24.2355" y2="-632.4887" gradientTransform="matrix(-1 0 0 -1 304.9791 -487.25)">
			<stop  offset="0" style="stop-color:#E2E2E2"/>
			<stop  offset="0.2" style="stop-color:#B1B2B2"/>
			<stop  offset="0.9529" style="stop-color:#545555"/>
		</linearGradient>
		<ellipse class="st8" cx="329.2" cy="249" rx="104.8" ry="103.4"/>
		
			<radialGradient id="SVGID_10_" cx="68.7989" cy="-747.9864" r="49.4631" gradientTransform="matrix(-1.5001 0 0 -1.4819 432.4198 -859.4265)" gradientUnits="userSpaceOnUse">
			<stop  offset="0.5" style="stop-color:#EFEFF0"/>
			<stop  offset="1" style="stop-color:#9C9D9D"/>
		</radialGradient>
		<ellipse class="st9" cx="329.2" cy="249" rx="74.3" ry="73.2"/>
		<g>
			
				<linearGradient id="SVGID_11_" gradientUnits="userSpaceOnUse" x1="551.0787" y1="651.3499" x2="586.9471" y2="651.3499" gradientTransform="matrix(-0.7071 0.7071 0.7071 0.7071 252.4094 -640.6332)">
				<stop  offset="0" style="stop-color:#D7D7D7"/>
				<stop  offset="0.3" style="stop-color:#707070"/>
				<stop  offset="0.6" style="stop-color:#2B2C2B"/>
			</linearGradient>
			<path class="st10" d="M276.7,213.3c0-4.3,23.6-24.5,27.2-22c31.7,22.4,25.4,57.1,25.4,57.1C297.8,206.8,276.7,216.3,276.7,213.3z
				"/>
			
				<linearGradient id="SVGID_12_" gradientUnits="userSpaceOnUse" x1="-47.8996" y1="871.3412" x2="-12.1181" y2="871.3412" gradientTransform="matrix(-1 0 0 1 304.9791 -654.179)">
				<stop  offset="0" style="stop-color:#D7D7D7"/>
				<stop  offset="0.3" style="stop-color:#707070"/>
				<stop  offset="0.6" style="stop-color:#2B2C2B"/>
			</linearGradient>
			<path class="st11" d="M317.2,187c3-3.1,33.9-0.7,34.7,3.6c6.8,38.1-22.1,58.1-22.1,58.1C336.9,197.2,315.4,188.8,317.2,187z"/>
			
				<linearGradient id="SVGID_13_" gradientUnits="userSpaceOnUse" x1="818.8688" y1="71.8216" x2="854.7831" y2="71.8216" gradientTransform="matrix(6.123234e-17 1 1 -6.123234e-17 224.8127 -593.8803)">
				<stop  offset="0" style="stop-color:#D7D7D7"/>
				<stop  offset="0.3" style="stop-color:#707070"/>
				<stop  offset="0.6" style="stop-color:#2B2C2B"/>
			</linearGradient>
			<path class="st12" d="M266.5,260.9c-3-3-0.7-34.1,3.6-34.8c38.1-6.7,58,22.2,58,22.2C276.4,241,268.3,262.7,266.5,260.9z"/>
			
				<linearGradient id="SVGID_14_" gradientUnits="userSpaceOnUse" x1="116.5841" y1="-769.1929" x2="152.3654" y2="-769.1929" gradientTransform="matrix(1 -2.215213e-03 -2.215213e-03 -1 187.2004 -488.2848)">
				<stop  offset="0" style="stop-color:#D7D7D7"/>
				<stop  offset="0.3" style="stop-color:#707070"/>
				<stop  offset="0.6" style="stop-color:#2B2C2B"/>
			</linearGradient>
			<path class="st13" d="M341.2,310.9c-3,3-33.9,0.7-34.7-3.6c-6.8-38.4,22.1-58.4,22.1-58.4C321.5,300.9,343.2,309,341.2,310.9z"/>
			
				<linearGradient id="SVGID_15_" gradientUnits="userSpaceOnUse" x1="649.0703" y1="-441.4908" x2="684.9962" y2="-441.4908" gradientTransform="matrix(0.7087 0.7055 0.7055 -0.7087 140.3749 -515.7603)">
				<stop  offset="0" style="stop-color:#D7D7D7"/>
				<stop  offset="0.3" style="stop-color:#707070"/>
				<stop  offset="0.6" style="stop-color:#2B2C2B"/>
			</linearGradient>
			<path class="st14" d="M293,301.8c-4.3,0-24.5-23.6-22-27.2c22-31.8,56.6-25.6,56.6-25.6C286.2,280.4,295.7,301.5,293,301.8z"/>
			
				<linearGradient id="SVGID_16_" gradientUnits="userSpaceOnUse" x1="-492.8826" y1="-625.3105" x2="-457.0352" y2="-625.3105" gradientTransform="matrix(0.7055 -0.7087 -0.7087 -0.7055 239.7176 -501.9358)">
				<stop  offset="0" style="stop-color:#D7D7D7"/>
				<stop  offset="0.3" style="stop-color:#707070"/>
				<stop  offset="0.6" style="stop-color:#2B2C2B"/>
			</linearGradient>
			<path class="st15" d="M381.8,284.5c0,4.3-23.6,24.5-27.2,22c-31.7-22.2-25.4-56.8-25.4-56.8C360.7,291.5,381.8,281.8,381.8,284.5
				z"/>
			
				<linearGradient id="SVGID_17_" gradientUnits="userSpaceOnUse" x1="-757.6641" y1="0.5512" x2="-721.7557" y2="0.5512" gradientTransform="matrix(-4.324653e-02 -0.9991 -0.9991 4.324653e-02 330.6156 -484.9522)">
				<stop  offset="0" style="stop-color:#D7D7D7"/>
				<stop  offset="0.3" style="stop-color:#707070"/>
				<stop  offset="0.6" style="stop-color:#2B2C2B"/>
			</linearGradient>
			<path class="st16" d="M391.5,235.1c3,2.7,2.1,33.9-2.3,34.8c-37.8,8.3-58.9-19.7-58.9-19.7C382.2,255,389.4,233.1,391.5,235.1z"
				/>
			
				<linearGradient id="SVGID_18_" gradientUnits="userSpaceOnUse" x1="-565.9438" y1="537.5751" x2="-530.0735" y2="537.5751" gradientTransform="matrix(-0.737 -0.6759 -0.6759 0.737 314.8334 -536.8677)">
				<stop  offset="0" style="stop-color:#D7D7D7"/>
				<stop  offset="0.3" style="stop-color:#707070"/>
				<stop  offset="0.6" style="stop-color:#2B2C2B"/>
			</linearGradient>
			<path class="st17" d="M362.7,195.4c4.3-0.3,25.4,22.4,23.1,26.3c-20.8,32.7-55.7,27.8-55.7,27.8
				C370.1,216.3,360,195.6,362.7,195.4z"/>
		</g>
		<g>
			
				<radialGradient id="SVGID_19_" cx="68.5989" cy="-747.7165" r="18.5109" gradientTransform="matrix(-1.5001 0 0 -1.4819 432.4198 -859.4265)" gradientUnits="userSpaceOnUse">
				<stop  offset="5.618212e-03" style="stop-color:#EFEFF0"/>
				<stop  offset="1" style="stop-color:#9C9D9D"/>
			</radialGradient>
			<ellipse class="st18" cx="329.5" cy="248.6" rx="27.8" ry="27.4"/>
			
				<radialGradient id="SVGID_20_" cx="68.5989" cy="-747.7165" r="16.5985" gradientTransform="matrix(-1.5001 0 0 -1.4819 432.4198 -859.4265)" gradientUnits="userSpaceOnUse">
				<stop  offset="5.618212e-03" style="stop-color:#CBD0D4"/>
				<stop  offset="1" style="stop-color:#545555"/>
			</radialGradient>
			<ellipse class="st19" cx="329.5" cy="248.6" rx="24.9" ry="24.5"/>
			
				<radialGradient id="SVGID_21_" cx="68.5989" cy="-747.7165" r="13.8258" gradientTransform="matrix(-1.5001 0 0 -1.4819 432.4198 -859.4265)" gradientUnits="userSpaceOnUse">
				<stop  offset="5.618212e-03" style="stop-color:#CBD0D4"/>
				<stop  offset="1" style="stop-color:#7C7C7C"/>
			</radialGradient>
			<ellipse class="st20" cx="329.5" cy="248.6" rx="20.6" ry="20.5"/>
		</g>
	</g>
	
		<linearGradient id="SVGID_22_" gradientUnits="userSpaceOnUse" x1="875.3621" y1="846.5565" x2="875.3621" y2="570.1566" gradientTransform="matrix(4.489653e-11 1 -1 4.489653e-11 1035.8711 -389.2975)">
		<stop  offset="0" style="stop-color:#666666"/>
		<stop  offset="0.5" style="stop-color:#B0B0B0"/>
		<stop  offset="1" style="stop-color:#666666"/>
	</linearGradient>
	<path class="st21" d="M193.3,496.5h268.4c2.4,0,4-1.4,4-2.6v-15.7c0-1.6-2.1-2.6-4-2.6H193.3c-2.4,0-4,1.4-4,2.6v15.7
		C189.3,495.5,190.9,496.5,193.3,496.5z"/>
	
		<linearGradient id="SVGID_23_" gradientUnits="userSpaceOnUse" x1="722.0145" y1="-523.1355" x2="929.4146" y2="-523.1355" gradientTransform="matrix(-1 0 0 -1 1153.2291 -49.7709)">
		<stop  offset="3.178914e-07" style="stop-color:#3E3F3F"/>
		<stop  offset="0.5" style="stop-color:#B0B0B0"/>
		<stop  offset="1" style="stop-color:#3E3F3F"/>
	</linearGradient>
	<rect x="223.8" y="471.1" class="st22" width="207.4" height="4.5"/>
</g>
</svg>
