<?xml version="1.0" encoding="utf-8"?>
<!-- Generator: Adobe Illustrator 23.0.3, SVG Export Plug-In . SVG Version: 6.00 Build 0)  -->
<svg version="1.1" id="图层_1" xmlns="http://www.w3.org/2000/svg" xmlns:xlink="http://www.w3.org/1999/xlink" x="0px" y="0px"
	 viewBox="0 0 566.9 566.9" style="enable-background:new 0 0 566.9 566.9;" xml:space="preserve">
<style type="text/css">
	.st0{fill:url(#SVGID_1_);}
	.st1{fill:#000222;}
	.st2{fill:url(#SVGID_2_);}
	.st3{fill:url(#SVGID_3_);}
	.st4{fill:url(#SVGID_4_);}
</style>
<g>
	<g>
		
			<radialGradient id="SVGID_1_" cx="282.5146" cy="646.5146" r="139.7143" gradientTransform="matrix(1.0002 0 0 1.0001 -6.458266e-02 -274.0532)" gradientUnits="userSpaceOnUse">
			<stop  offset="0.2" style="stop-color:#FFFFFF"/>
			<stop  offset="1" style="stop-color:#A9A9A9"/>
		</radialGradient>
		<ellipse class="st0" cx="282.5" cy="372.5" rx="141.7" ry="137.7"/>
		<g>
			<path class="st1" d="M221,310h17.1l32.1,71.8l12.2,27.4h0.9c4.1-9.1,7.7-18.3,11.5-27.4l32.1-71.8H344v125h-12.2v-79.2
				c0-10.3,0.9-24,1.5-34.5h-0.9l-12.2,27.9l-32.7,72.4h-10.3l-32.9-72.4l-12.2-27.9h-0.9c0.6,10.5,1.5,24.2,1.5,34.5V435H221V310z"
				/>
		</g>
	</g>
	
		<linearGradient id="SVGID_2_" gradientUnits="userSpaceOnUse" x1="696.745" y1="398.169" x2="696.745" y2="359.5107" gradientTransform="matrix(-6.123234e-17 -1 1 -6.123234e-17 -95.45 880.25)">
		<stop  offset="0" style="stop-color:#666666"/>
		<stop  offset="8.706106e-02" style="stop-color:#6F6F6F"/>
		<stop  offset="0.2291" style="stop-color:#878787"/>
		<stop  offset="0.4083" style="stop-color:#AFAFAF"/>
		<stop  offset="0.6" style="stop-color:#E1E1E1"/>
		<stop  offset="0.658" style="stop-color:#D8D8D8"/>
		<stop  offset="0.7527" style="stop-color:#C0C0C0"/>
		<stop  offset="0.8722" style="stop-color:#989898"/>
		<stop  offset="1" style="stop-color:#666666"/>
	</linearGradient>
	<rect x="264.1" y="130.7" class="st2" width="38.6" height="105.6"/>
	<g>
		
			<linearGradient id="SVGID_3_" gradientUnits="userSpaceOnUse" x1="823.5571" y1="485.1888" x2="675.6429" y2="485.1888" gradientTransform="matrix(-6.123234e-17 -1 1 -6.123234e-17 -95.45 880.25)">
			<stop  offset="0" style="stop-color:#00B050"/>
			<stop  offset="0.5" style="stop-color:#20CE6A"/>
			<stop  offset="1" style="stop-color:#00B050"/>
		</linearGradient>
		<polygon class="st3" points="496.1,204.6 283.4,130.6 283.4,130.6 496.1,56.7 		"/>
		
			<linearGradient id="SVGID_4_" gradientUnits="userSpaceOnUse" x1="364.0911" y1="376.1917" x2="216.1769" y2="376.1917" gradientTransform="matrix(6.123234e-17 1 -1 6.123234e-17 553.332 -159.484)">
			<stop  offset="0" style="stop-color:#00B050"/>
			<stop  offset="0.5" style="stop-color:#20CE6A"/>
			<stop  offset="1" style="stop-color:#00B050"/>
		</linearGradient>
		<polygon class="st4" points="70.9,56.7 283.4,130.6 283.4,130.6 70.9,204.6 		"/>
	</g>
</g>
</svg>
