<?xml version="1.0" encoding="utf-8"?>
<!-- Generator: Adobe Illustrator 23.0.3, SVG Export Plug-In . SVG Version: 6.00 Build 0)  -->
<svg version="1.1" id="图层_1" xmlns="http://www.w3.org/2000/svg" xmlns:xlink="http://www.w3.org/1999/xlink" x="0px" y="0px"
	 viewBox="0 0 566.9 566.9" style="enable-background:new 0 0 566.9 566.9;" xml:space="preserve">
<style type="text/css">
	.st0{fill:url(#SVGID_1_);}
	.st1{fill:url(#SVGID_2_);}
	.st2{fill:url(#SVGID_3_);}
	.st3{fill:url(#SVGID_4_);}
	.st4{fill:#000222;}
</style>
<g>
	
		<linearGradient id="SVGID_1_" gradientUnits="userSpaceOnUse" x1="601.6173" y1="292.5477" x2="601.6173" y2="331.1971" gradientTransform="matrix(-1 0 0 1 785.1223 -28.3831)">
		<stop  offset="0" style="stop-color:#666666"/>
		<stop  offset="8.706106e-02" style="stop-color:#6F6F6F"/>
		<stop  offset="0.2291" style="stop-color:#878787"/>
		<stop  offset="0.4083" style="stop-color:#AFAFAF"/>
		<stop  offset="0.6" style="stop-color:#E1E1E1"/>
		<stop  offset="0.658" style="stop-color:#D8D8D8"/>
		<stop  offset="0.7527" style="stop-color:#C0C0C0"/>
		<stop  offset="0.8722" style="stop-color:#989898"/>
		<stop  offset="1" style="stop-color:#666666"/>
	</linearGradient>
	<rect x="130.7" y="264.2" class="st0" width="105.6" height="38.6"/>
	<g>
		
			<linearGradient id="SVGID_2_" gradientUnits="userSpaceOnUse" x1="728.4294" y1="205.5477" x2="580.2153" y2="205.5477" gradientTransform="matrix(-1 0 0 1 785.1223 -28.3831)">
			<stop  offset="0" style="stop-color:#C00000"/>
			<stop  offset="0.5" style="stop-color:#E52929"/>
			<stop  offset="1" style="stop-color:#C00000"/>
		</linearGradient>
		<polygon class="st1" points="204.9,70.9 130.7,283.5 130.7,283.5 56.7,70.9 		"/>
		
			<linearGradient id="SVGID_3_" gradientUnits="userSpaceOnUse" x1="543.5189" y1="342.8503" x2="395.3047" y2="342.8503" gradientTransform="matrix(1 0 0 -1 -338.6118 732.6149)">
			<stop  offset="0" style="stop-color:#C00000"/>
			<stop  offset="0.5" style="stop-color:#E52929"/>
			<stop  offset="1" style="stop-color:#C00000"/>
		</linearGradient>
		<polygon class="st2" points="56.7,496.1 130.7,283.5 130.7,283.5 204.9,496.1 		"/>
	</g>
	
		<radialGradient id="SVGID_4_" cx="368.5146" cy="557.3646" r="139.7143" gradientTransform="matrix(1.0001 0 0 1 -2.706236e-02 -274)" gradientUnits="userSpaceOnUse">
		<stop  offset="0.2" style="stop-color:#FFFFFF"/>
		<stop  offset="1" style="stop-color:#A9A9A9"/>
	</radialGradient>
	<ellipse class="st3" cx="368.5" cy="283.4" rx="141.7" ry="137.7"/>
	<g>
		<path class="st4" d="M307,221h17.1l32.1,71.8l12.2,27.4h0.9c4.1-9.1,7.7-18.3,11.5-27.4l32.1-71.8H430v125h-12.2v-79.2
			c0-10.3,0.9-24,1.5-34.5h-0.9l-12.2,27.9l-32.7,72.4h-10.3l-32.9-72.4l-12.2-27.9h-0.9c0.6,10.5,1.5,24.2,1.5,34.5V346H307V221z"
			/>
	</g>
</g>
</svg>
