<?xml version="1.0" encoding="utf-8"?>
<!-- Generator: Adobe Illustrator 23.0.3, SVG Export Plug-In . SVG Version: 6.00 Build 0)  -->
<svg version="1.1" id="图层_1" xmlns="http://www.w3.org/2000/svg" xmlns:xlink="http://www.w3.org/1999/xlink" x="0px" y="0px"
	 viewBox="0 0 566.9 566.9" style="enable-background:new 0 0 566.9 566.9;" xml:space="preserve">
<style type="text/css">
	.st0{fill:url(#SVGID_1_);}
	.st1{fill:url(#SVGID_2_);}
	.st2{fill:url(#SVGID_3_);}
	.st3{fill:url(#SVGID_4_);}
	.st4{fill:#000222;}
</style>
<g>
	
		<linearGradient id="SVGID_1_" gradientUnits="userSpaceOnUse" x1="451.4798" y1="141.5185" x2="451.4798" y2="180.168" gradientTransform="matrix(1 0 0 -1 -67.2223 444.2831)">
		<stop  offset="0" style="stop-color:#666666"/>
		<stop  offset="8.706106e-02" style="stop-color:#6F6F6F"/>
		<stop  offset="0.2291" style="stop-color:#878787"/>
		<stop  offset="0.4083" style="stop-color:#AFAFAF"/>
		<stop  offset="0.6" style="stop-color:#E1E1E1"/>
		<stop  offset="0.658" style="stop-color:#D8D8D8"/>
		<stop  offset="0.7527" style="stop-color:#C0C0C0"/>
		<stop  offset="0.8722" style="stop-color:#989898"/>
		<stop  offset="1" style="stop-color:#666666"/>
	</linearGradient>
	<rect x="331.8" y="264.2" class="st0" width="104.9" height="38.6"/>
	<g>
		
			<linearGradient id="SVGID_2_" gradientUnits="userSpaceOnUse" x1="577.4585" y1="54.5185" x2="430.2184" y2="54.5185" gradientTransform="matrix(1 0 0 -1 -67.2223 444.2831)">
			<stop  offset="0" style="stop-color:#C00000"/>
			<stop  offset="0.5" style="stop-color:#E52929"/>
			<stop  offset="1" style="stop-color:#C00000"/>
		</linearGradient>
		<polygon class="st1" points="363,496.1 436.7,283.5 436.7,283.5 510.2,496.1 		"/>
		
			<linearGradient id="SVGID_3_" gradientUnits="userSpaceOnUse" x1="637.5157" y1="493.8795" x2="490.2756" y2="493.8795" gradientTransform="matrix(-1 0 0 1 1000.5118 -316.7149)">
			<stop  offset="0" style="stop-color:#C00000"/>
			<stop  offset="0.5" style="stop-color:#E52929"/>
			<stop  offset="1" style="stop-color:#C00000"/>
		</linearGradient>
		<polygon class="st2" points="510.2,70.9 436.7,283.5 436.7,283.5 363,70.9 		"/>
	</g>
	<g>
		
			<radialGradient id="SVGID_4_" cx="196.9146" cy="557.3646" r="139.7143" gradientTransform="matrix(0.9935 0 0 1 1.836 -274)" gradientUnits="userSpaceOnUse">
			<stop  offset="0.2" style="stop-color:#FFFFFF"/>
			<stop  offset="1" style="stop-color:#A9A9A9"/>
		</radialGradient>
		<ellipse class="st3" cx="197.5" cy="283.4" rx="140.8" ry="137.7"/>
		<g>
			<path class="st4" d="M136.4,220.9h17l31.9,71.8l12.1,27.4h0.9c4.1-9.1,7.7-18.3,11.4-27.4l31.9-71.8h17v125h-12.1v-79.2
				c0-10.3,0.9-24,1.5-34.5h-0.9l-12.1,27.9l-32.5,72.4h-10.2l-32.7-72.4l-12.1-27.9h-0.9c0.6,10.5,1.5,24.2,1.5,34.5v79.2h-11.6
				V220.9z"/>
		</g>
	</g>
</g>
</svg>
